<svg width="256" height="256" xmlns="http://www.w3.org/2000/svg"><title>Layer 1</title><path d="M227 83h15v155h-15zM16 25h15v155H16z"/><circle transform="translate(245.436 109.029) scale(.70103)" r="48.5" cy="69.856" cx="-116.166" fill="none"/><path d="M156.674 127.66c8.7-2.18 18.332-.407 25.609 4.865 9.008 6.267 14.224 17.567 13.04 28.49-.54 4.423-3.527 8.559-7.754 10.122-2.917 1.213-6.12 1.08-9.212 1.094 7.389-7.102 7.838-19.958.855-27.48-5.503-6.506-15.212-8.469-22.993-5.216-5.174-3.057-11.792-3.14-17.092-.33 4.473-5.538 10.55-9.905 17.547-11.546z" fill="#5881d8"/><path d="M159.219 142.22c3.898-1.045 8.146-.96 11.82.806 6.253 2.84 10.389 9.814 9.547 16.685-.392 4.696-3.147 8.825-6.73 11.742-2.972-1.388-4.402-4.48-5.713-7.284-3.435-7.136-3.807-15.619-8.924-21.95z" fill="#90b4fe"/><path d="M137.746 146.643c3.372-3.372 8.434-4.486 13.047-3.673-3.99 3.806-6.64 9.092-6.625 14.672-.246 6.997 3.59 13.86 9.548 17.477 5.748 3.603 13.228 3.758 19.334.96 5.405 1.599 11.119 1.452 16.58.197-4.389 5.91-10.775 10.361-17.96 12.107-8.883 2.236-18.711.28-26.03-5.237-7.992-5.805-12.927-15.605-12.703-25.497-.203-4.164 1.95-8.117 4.81-11.006z" fill="#63b132"/><path d="M148.01 161.155c-1.382-6.268 1.584-12.906 6.666-16.657 3.884 2.433 5.454 6.94 7.08 10.985-2.488 5.251-5.685 10.2-7.437 15.78-3.113-2.58-5.594-6.063-6.31-10.108zM158.546 173.633c-.358-5.279 2.341-10.01 4.304-14.722 1.606 5.139 2.615 10.79 6.359 14.904a19.883 19.883 0 0 1-10.663-.182z" fill="#91dc47"/><path stroke="#7f7f7f" stroke-width="5" fill="none" d="M105.5 22.5h18v40h-18zM167.5 22.5h1v40h-1z"/></svg>