<svg xmlns="http://www.w3.org/2000/svg" xmlns:xlink="http://www.w3.org/1999/xlink" width="301.81" height="309.41" version="1"><defs><linearGradient id="N" xlink:href="#a" x1="457.02" y1="391.25" x2="439.64" y2="477.28" gradientTransform="matrix(1.20175 0 0 .83212 265.055 260.245)" gradientUnits="userSpaceOnUse"/><linearGradient id="M" xlink:href="#a" x1="727" y1="343.79" x2="760.84" y2="241.13" gradientTransform="matrix(.797 0 0 1.2547 265.055 260.245)" gradientUnits="userSpaceOnUse"/><linearGradient id="L" xlink:href="#a" x1="285.8" y1="881.16" x2="264.96" y2="881.16" gradientTransform="matrix(1.93378 0 0 .51712 265.055 260.245)" gradientUnits="userSpaceOnUse"/><linearGradient id="a"><stop offset="0" style="stop-color:#919191;stop-opacity:1"/><stop offset=".22" style="stop-color:#fff;stop-opacity:1"/><stop offset="1" style="stop-color:#a6a6a6;stop-opacity:1"/></linearGradient><linearGradient xlink:href="#a" id="K" x1="1102.53" y1="159.92" x2="1097.44" y2="172.63" gradientTransform="matrix(.54304 0 0 1.84147 265.055 260.245)" gradientUnits="userSpaceOnUse"/><linearGradient xlink:href="#b" id="J" x1="370.53" y1="670.48" x2="361.38" y2="669.73" gradientTransform="matrix(1.45659 0 0 .68654 265.055 260.245)" gradientUnits="userSpaceOnUse"/><linearGradient xlink:href="#c" id="H" x1="1067.75" y1="180.12" x2="1064.01" y2="169.1" gradientTransform="matrix(.51689 0 0 1.93465 265.055 260.245)" gradientUnits="userSpaceOnUse"/><linearGradient xlink:href="#d" id="G" x1="444.87" y1="482.41" x2="495.24" y2="518.95" gradientTransform="matrix(1.24833 0 0 .80107 265.055 260.245)" gradientUnits="userSpaceOnUse"/><linearGradient xlink:href="#e" id="T" x1="337.72" y1="228.74" x2="328.15" y2="242.96" gradientTransform="matrix(.56886 0 0 1.75791 433.286 425.424)" gradientUnits="userSpaceOnUse"/><linearGradient xlink:href="#e" id="S" x1="376.47" y1="216.86" x2="337.18" y2="277.54" gradientTransform="matrix(.53907 0 0 1.85506 433.286 425.424)" gradientUnits="userSpaceOnUse"/><linearGradient id="D" xlink:href="#d" x1="-60.07" y1="507.97" x2="42.99" y2="459.53" gradientTransform="matrix(.97478 0 0 1.02587 265.055 260.245)" gradientUnits="userSpaceOnUse"/><linearGradient id="C" xlink:href="#d" x1="-113.31" y1="529.86" x2="66.4" y2="424.69" gradientTransform="matrix(.99756 0 0 1.00245 265.055 260.245)" gradientUnits="userSpaceOnUse"/><linearGradient id="c"><stop offset="0" style="stop-color:#555;stop-opacity:1"/><stop offset="1" style="stop-color:#8f8f8f;stop-opacity:1"/></linearGradient><linearGradient id="d"><stop offset="0" style="stop-color:#2c2c2c;stop-opacity:1"/><stop offset="1" style="stop-color:#616161;stop-opacity:1"/></linearGradient><linearGradient x1="436.68" y1="521.1" x2="682.55" y2="393.27" id="B" xlink:href="#d" gradientTransform="matrix(1.05104 0 0 .95144 265.055 260.245)" gradientUnits="userSpaceOnUse"/><linearGradient x1="509.4" y1="566.02" x2="577.27" y2="447.68" id="A" xlink:href="#b" gradientTransform="matrix(1.24621 0 0 .80244 265.055 260.245)" gradientUnits="userSpaceOnUse"/><linearGradient id="b"><stop offset="0" style="stop-color:#323232;stop-opacity:1"/><stop offset=".22" style="stop-color:#c3c3c3;stop-opacity:1"/><stop offset="1" style="stop-color:#454545;stop-opacity:1"/></linearGradient><linearGradient id="z" xlink:href="#b" x1="414.08" y1="654.18" x2="434.8" y2="654.18" gradientTransform="matrix(1.20138 0 0 .83237 265.055 260.245)" gradientUnits="userSpaceOnUse"/><linearGradient id="y" xlink:href="#e" x1="63.16" y1="380.01" x2="40.99" y2="387.69" gradientTransform="matrix(1.37995 0 0 .72466 433.286 425.424)" gradientUnits="userSpaceOnUse"/><linearGradient id="x" xlink:href="#e" x1="63.98" y1="373.96" x2="56.01" y2="379.06" spreadMethod="pad" gradientTransform="matrix(1.34107 0 0 .74567 433.286 425.424)" gradientUnits="userSpaceOnUse"/><linearGradient id="w" xlink:href="#e" x1="139.73" y1="145.37" x2="138.3" y2="180.58" gradientTransform="matrix(.59913 0 0 1.66907 433.286 425.424)" gradientUnits="userSpaceOnUse"/><linearGradient id="v" xlink:href="#e" x1="171.97" y1="154.15" x2="110.1" y2="227.91" gradientTransform="matrix(.57801 0 0 1.73007 433.286 425.424)" gradientUnits="userSpaceOnUse"/><linearGradient id="e"><stop offset="0" style="stop-color:#ff8f6a;stop-opacity:1"/><stop offset=".22" style="stop-color:#e8d58f;stop-opacity:1"/><stop offset="1" style="stop-color:#ff7964;stop-opacity:1"/></linearGradient><linearGradient id="u" xlink:href="#e" x1="145.43" y1="163.29" x2="136.1" y2="177.15" gradientTransform="matrix(.57003 0 0 1.75431 433.286 425.424)" gradientUnits="userSpaceOnUse"/><linearGradient xlink:href="#e" id="f" x1="145.43" y1="163.29" x2="136.1" y2="177.15" gradientTransform="matrix(.57003 0 0 1.75431 433.286 425.424)" gradientUnits="userSpaceOnUse"/><linearGradient xlink:href="#e" id="g" x1="171.97" y1="154.15" x2="110.1" y2="227.91" gradientTransform="matrix(.57801 0 0 1.73007 433.286 425.424)" gradientUnits="userSpaceOnUse"/><linearGradient xlink:href="#e" id="h" x1="139.73" y1="145.37" x2="138.3" y2="180.58" gradientTransform="matrix(.59913 0 0 1.66907 433.286 425.424)" gradientUnits="userSpaceOnUse"/><linearGradient xlink:href="#e" id="i" spreadMethod="pad" x1="63.98" y1="373.96" x2="56.01" y2="379.06" gradientTransform="matrix(1.34107 0 0 .74567 433.286 425.424)" gradientUnits="userSpaceOnUse"/><linearGradient xlink:href="#e" id="j" x1="63.16" y1="380.01" x2="40.99" y2="387.69" gradientTransform="matrix(1.37995 0 0 .72466 433.286 425.424)" gradientUnits="userSpaceOnUse"/><linearGradient xlink:href="#e" id="k" x1="145.43" y1="163.29" x2="136.1" y2="177.15" gradientTransform="matrix(.57003 0 0 1.75431 433.286 425.424)" gradientUnits="userSpaceOnUse"/><linearGradient xlink:href="#e" id="l" x1="171.97" y1="154.15" x2="110.1" y2="227.91" gradientTransform="matrix(.57801 0 0 1.73007 433.286 425.424)" gradientUnits="userSpaceOnUse"/><linearGradient xlink:href="#e" id="m" x1="139.73" y1="145.37" x2="138.3" y2="180.58" gradientTransform="matrix(.59913 0 0 1.66907 433.286 425.424)" gradientUnits="userSpaceOnUse"/><linearGradient xlink:href="#e" id="n" spreadMethod="pad" x1="63.98" y1="373.96" x2="56.01" y2="379.06" gradientTransform="matrix(1.34107 0 0 .74567 433.286 425.424)" gradientUnits="userSpaceOnUse"/><linearGradient xlink:href="#e" id="o" x1="63.16" y1="380.01" x2="40.99" y2="387.69" gradientTransform="matrix(1.37995 0 0 .72466 433.286 425.424)" gradientUnits="userSpaceOnUse"/><linearGradient xlink:href="#e" id="p" x1="145.43" y1="163.29" x2="136.1" y2="177.15" gradientTransform="matrix(.57003 0 0 1.75431 433.286 425.424)" gradientUnits="userSpaceOnUse"/><linearGradient xlink:href="#e" id="q" x1="171.97" y1="154.15" x2="110.1" y2="227.91" gradientTransform="matrix(.57801 0 0 1.73007 433.286 425.424)" gradientUnits="userSpaceOnUse"/><linearGradient xlink:href="#e" id="r" x1="139.73" y1="145.37" x2="138.3" y2="180.58" gradientTransform="matrix(.59913 0 0 1.66907 433.286 425.424)" gradientUnits="userSpaceOnUse"/><linearGradient xlink:href="#e" id="s" spreadMethod="pad" x1="63.98" y1="373.96" x2="56.01" y2="379.06" gradientTransform="matrix(1.34107 0 0 .74567 433.286 425.424)" gradientUnits="userSpaceOnUse"/><linearGradient xlink:href="#e" id="t" x1="63.16" y1="380.01" x2="40.99" y2="387.69" gradientTransform="matrix(1.37995 0 0 .72466 433.286 425.424)" gradientUnits="userSpaceOnUse"/><linearGradient xlink:href="#e" id="E" x1="376.47" y1="216.86" x2="337.18" y2="277.54" gradientTransform="matrix(.53907 0 0 1.85506 433.286 425.424)" gradientUnits="userSpaceOnUse"/><linearGradient xlink:href="#e" id="F" x1="337.72" y1="228.74" x2="328.15" y2="242.96" gradientTransform="matrix(.56886 0 0 1.75791 433.286 425.424)" gradientUnits="userSpaceOnUse"/><linearGradient xlink:href="#e" id="O" x1="376.47" y1="216.86" x2="337.18" y2="277.54" gradientTransform="matrix(.53907 0 0 1.85506 433.286 425.424)" gradientUnits="userSpaceOnUse"/><linearGradient xlink:href="#e" id="P" x1="337.72" y1="228.74" x2="328.15" y2="242.96" gradientTransform="matrix(.56886 0 0 1.75791 433.286 425.424)" gradientUnits="userSpaceOnUse"/><linearGradient xlink:href="#e" id="Q" x1="376.47" y1="216.86" x2="337.18" y2="277.54" gradientTransform="matrix(.53907 0 0 1.85506 433.286 425.424)" gradientUnits="userSpaceOnUse"/><linearGradient xlink:href="#e" id="R" x1="337.72" y1="228.74" x2="328.15" y2="242.96" gradientTransform="matrix(.56886 0 0 1.75791 433.286 425.424)" gradientUnits="userSpaceOnUse"/><radialGradient xlink:href="#b" id="I" cx="456.2" cy="409.41" r="29.89" fx="455.66" fy="410.92" gradientTransform="matrix(1.10462 0 0 .90529 265.055 260.245)" gradientUnits="userSpaceOnUse"/></defs><path d="m607.56 253.6-213.62 90.13-.94-.32-.12-.03c.26 9.01.57 24.74 4.31 32.85 1.56 3.03 3.13 5.97 4.69 9-3.99.86-9.26 2.46-10.72 3.68-2.15 1.81-3.58 54.55-3.03 56.63.54 2.05 7.15 17.3 8.43 17.4.01.01.03.16.04.16.79.09.49.03 1.59.03v-.03c.57.03 1.05 0 1.91.03 1.17.05 2.92-56.67 4.56-57.78 1.07-.72 4.25-1.54 6.4-2.5 4.84 9.32 9.66 18.61 14.5 27.88-3.89.89-8.68 2.34-10.06 3.5-2.15 1.8-3.54 54.58-3 56.65.54 2.07 7.24 17.5 8.47 17.44v.09c.79.1.47.06 1.56.07v-.07c.59.03 1.04.03 1.91.07 1.18.04 2.95-56.71 4.59-57.82.98-.66 3.67-1.34 5.78-2.18 5.09 9.7 10.14 19.54 15.22 29.21-3.84.91-8.41 2.35-9.75 3.47-2.15 1.81-3.57 54.55-3.03 56.63.54 2.05 7.2 17.38 8.47 17.44v.12c.79.09.47.03 1.56.03v-.03c.59.03 1.07.03 1.94.06 1.18.05 2.92-56.7 4.56-57.81.95-.64 3.51-1.32 5.6-2.12 4.85 9.23 9.73 18.48 14.59 27.71-3.75.92-8.03 2.3-9.31 3.38-2.15 1.81-3.58 54.55-3.03 56.62.54 2.06 7.19 17.38 8.47 17.44 0 0-.01.13 0 .13.79.09.46.02 1.56.03v-.03c.59.02 1.07.03 1.94.06 1.17.04 2.92-56.71 4.56-57.81.88-.6 3.18-1.24 5.19-1.97 4.45 8.49 8.91 16.95 13.37 25.47 4.03 6.92 9.46 10.37 16.19 6.28 65.5-27.65 132.28-55.71 196.5-82.94 2.27 3.74 4.65 7.23 5.31 7.13.3.01.66-.04 1.16-.04.17-.01.5-.03.75-.03.1 0 .49-7.35.72-10.4 1.53-.66 3.18-1.35 4.71-2 5.6-2.87 4.45-16.49 4.25-22.91l-1.03-.37-5.78-10.22c.24-4.73.7-13.12.72-13.66.12-2.67-3.17-8.04-6.41-12.56-2.08-2.92-3.17-3.46-3.65-3.88-.01-.01-.09-.11-.1-.12-.42-.41-4.1-.53-8-.53l-5.18-9.13c.28-5.49.75-14.41.78-15 .11-2.66-3.17-8.07-6.41-12.59-2.08-2.92-3.14-3.43-3.62-3.85-.01-.01-.09-.11-.1-.12-.46-.45-4.63-.58-8.87-.56l-6.94-12.25c.24-4.61.7-12.91.72-13.44.11-2.67-3.17-8.07-6.41-12.59-2.08-2.92-3.17-3.43-3.65-3.85-.01-.01-.09-.11-.1-.12-.42-.41-4.03-.52-7.87-.53l-7.13-12.6c.23-4.44.67-12.64.69-13.15.12-2.67-3.17-8.07-6.41-12.6-2.08-2.92-3.17-3.43-3.65-3.84-.01-.01-.09-.12-.1-.13-.41-.4-3.92-.51-7.68-.53l-22.57-39.78z" style="fill:#000;stroke-linecap:round;stroke-linejoin:round;stroke-width:6.25;stroke:#000" transform="matrix(.87536 0 0 .87536 -336.915 -219.257)"/><path d="M63.81 277.33c-1.44 1.4 5.49 15.73 7.03 16.66 1.42.86 14.12 2.62 14.66 4.51.53 1.83 7.54 98.94 9.69 98.99 2.01.04 2.08-.1 3.11-.1.97 0 5.7-93.42 5.87-97.38.19-4.36-5.19-13.17-10.48-20.57-3.59-5.02-5.45-5.75-6.17-6.45-1.58-1.54-22.42 3.09-23.71 4.34z" transform="matrix(.53549 0 0 .53549 237.78 2.592)" fill="url(#f) rgb(0, 0, 0)"/><path d="M62.22 276.65c-1.44 1.4 6.61 17.91 8.15 18.84 1.42.86 13 .44 13.54 2.33.53 1.83 10.84 99.6 11.28 99.63.49.03 1.07-.02 1.87-.02.83 0 5.34-96.3 5.52-98.1.18-1.8-10.78-19.73-12.22-21.13-1.59-1.53-26.85-2.8-28.14-1.55z" transform="matrix(.53549 0 0 .53549 237.78 2.592)" fill="url(#g) rgb(0, 0, 0)"/><path d="M57.07 279.06c.11.83 8.81 17.18 10.21 17.96 1.06.61 14.42-.47 14.96 1.42.53 1.83-2.64 73.75-2.19 75.45.89 3.39 13.23 24.02 15.16 23.63 1.92-.4 5.52-94.99 5.7-96.8.18-1.8-.42-4.24-2.35-4.55-1.75-.28-41.47-22-41.5-20.94-.04 1.54-.04 3.37.01 3.83z" transform="matrix(.53549 0 0 .53549 237.78 2.592)" fill="url(#h) rgb(0, 0, 0)"/><path d="M57.09 275.14c-.02.63 8.69 17.99 10.22 18.92 1.43.86 30.29 1.65 32 2.56 3.76 2.33-10.99-20.57-12.43-21.97-.8-.77-29.72-1.9-29.73-1.64-.06.81-.05 1.5-.06 2.13z" transform="matrix(.53549 0 0 .53549 237.78 2.592)" fill="url(#i) rgb(0, 0, 0)"/><path d="M57.24 272.65c-.46.49 10.2 19.3 10.82 19.69.58.38 31.91 3.46 32.09 1.66.18-1.81-11.13-19.67-12.58-21.06-1.58-1.54-29.84-.81-30.33-.29z" transform="matrix(.53549 0 0 .53549 237.78 2.592)" fill="url(#j) rgb(0, 0, 0)"/><path d="M63.81 277.33c-1.44 1.4 5.49 15.73 7.03 16.66 1.42.86 14.12 2.62 14.66 4.51.53 1.83 7.54 98.94 9.69 98.99 2.01.04 2.08-.1 3.11-.1.97 0 5.7-93.42 5.87-97.38.19-4.36-5.19-13.17-10.48-20.57-3.59-5.02-5.45-5.75-6.17-6.45-1.58-1.54-22.42 3.09-23.71 4.34z" transform="matrix(.53549 0 0 .53549 218.084 -33.517)" fill="url(#k) rgb(0, 0, 0)"/><path d="M62.22 276.65c-1.44 1.4 6.61 17.91 8.15 18.84 1.42.86 13 .44 13.54 2.33.53 1.83 10.84 99.6 11.28 99.63.49.03 1.07-.02 1.87-.02.83 0 5.34-96.3 5.52-98.1.18-1.8-10.78-19.73-12.22-21.13-1.59-1.53-26.85-2.8-28.14-1.55z" transform="matrix(.53549 0 0 .53549 218.084 -33.517)" fill="url(#l) rgb(0, 0, 0)"/><path d="M57.07 279.06c.11.83 8.81 17.18 10.21 17.96 1.06.61 14.42-.47 14.96 1.42.53 1.83-2.64 73.75-2.19 75.45.89 3.39 13.23 24.02 15.16 23.63 1.92-.4 5.52-94.99 5.7-96.8.18-1.8-.42-4.24-2.35-4.55-1.75-.28-41.47-22-41.5-20.94-.04 1.54-.04 3.37.01 3.83z" transform="matrix(.53549 0 0 .53549 218.084 -33.517)" fill="url(#m) rgb(0, 0, 0)"/><path d="M57.09 275.14c-.02.63 8.69 17.99 10.22 18.92 1.43.86 30.29 1.65 32 2.56 3.76 2.33-10.99-20.57-12.43-21.97-.8-.77-29.72-1.9-29.73-1.64-.06.81-.05 1.5-.06 2.13z" transform="matrix(.53549 0 0 .53549 218.084 -33.517)" fill="url(#n) rgb(0, 0, 0)"/><path d="M57.24 272.65c-.46.49 10.2 19.3 10.82 19.69.58.38 31.91 3.46 32.09 1.66.18-1.81-11.13-19.67-12.58-21.06-1.58-1.54-29.84-.81-30.33-.29z" transform="matrix(.53549 0 0 .53549 218.084 -33.517)" fill="url(#o) rgb(0, 0, 0)"/><path d="M63.81 277.33c-1.44 1.4 5.49 15.73 7.03 16.66 1.42.86 14.12 2.62 14.66 4.51.53 1.83 7.54 98.94 9.69 98.99 2.01.04 2.08-.1 3.11-.1.97 0 5.7-93.42 5.87-97.38.19-4.36-5.19-13.17-10.48-20.57-3.59-5.02-5.45-5.75-6.17-6.45-1.58-1.54-22.42 3.09-23.71 4.34z" transform="matrix(.53549 0 0 .53549 196.2 -70.72)" fill="url(#p) rgb(0, 0, 0)"/><path d="M62.22 276.65c-1.44 1.4 6.61 17.91 8.15 18.84 1.42.86 13 .44 13.54 2.33.53 1.83 10.84 99.6 11.28 99.63.49.03 1.07-.02 1.87-.02.83 0 5.34-96.3 5.52-98.1.18-1.8-10.78-19.73-12.22-21.13-1.59-1.53-26.85-2.8-28.14-1.55z" transform="matrix(.53549 0 0 .53549 196.2 -70.72)" fill="url(#q) rgb(0, 0, 0)"/><path d="M57.07 279.06c.11.83 8.81 17.18 10.21 17.96 1.06.61 14.42-.47 14.96 1.42.53 1.83-2.64 73.75-2.19 75.45.89 3.39 13.23 24.02 15.16 23.63 1.92-.4 5.52-94.99 5.7-96.8.18-1.8-.42-4.24-2.35-4.55-1.75-.28-41.47-22-41.5-20.94-.04 1.54-.04 3.37.01 3.83z" transform="matrix(.53549 0 0 .53549 196.2 -70.72)" fill="url(#r) rgb(0, 0, 0)"/><path d="M57.09 275.14c-.02.63 8.69 17.99 10.22 18.92 1.43.86 30.29 1.65 32 2.56 3.76 2.33-10.99-20.57-12.43-21.97-.8-.77-29.72-1.9-29.73-1.64-.06.81-.05 1.5-.06 2.13z" transform="matrix(.53549 0 0 .53549 196.2 -70.72)" fill="url(#s) rgb(0, 0, 0)"/><path d="M57.24 272.65c-.46.49 10.2 19.3 10.82 19.69.58.38 31.91 3.46 32.09 1.66.18-1.81-11.13-19.67-12.58-21.06-1.58-1.54-29.84-.81-30.33-.29z" transform="matrix(.53549 0 0 .53549 196.2 -70.72)" fill="url(#t) rgb(0, 0, 0)"/><path d="M63.81 277.33c-1.44 1.4 5.49 15.73 7.03 16.66 1.42.86 14.12 2.62 14.66 4.51.53 1.83 7.54 98.94 9.69 98.99 2.01.04 2.08-.1 3.11-.1.97 0 5.7-93.42 5.87-97.38.19-4.36-5.19-13.17-10.48-20.57-3.59-5.02-5.45-5.75-6.17-6.45-1.58-1.54-22.42 3.09-23.71 4.34z" transform="matrix(.53549 0 0 .53549 174.513 -108.124)" fill="url(#u) rgb(0, 0, 0)"/><path d="M62.22 276.65c-1.44 1.4 6.61 17.91 8.15 18.84 1.42.86 13 .44 13.54 2.33.53 1.83 10.84 99.6 11.28 99.63.49.03 1.07-.02 1.87-.02.83 0 5.34-96.3 5.52-98.1.18-1.8-10.78-19.73-12.22-21.13-1.59-1.53-26.85-2.8-28.14-1.55z" transform="matrix(.53549 0 0 .53549 174.513 -108.124)" fill="url(#v) rgb(0, 0, 0)"/><path d="M57.07 279.06c.11.83 8.81 17.18 10.21 17.96 1.06.61 14.42-.47 14.96 1.42.53 1.83-2.64 73.75-2.19 75.45.89 3.39 13.23 24.02 15.16 23.63 1.92-.4 5.52-94.99 5.7-96.8.18-1.8-.42-4.24-2.35-4.55-1.75-.28-41.47-22-41.5-20.94-.04 1.54-.04 3.37.01 3.83z" transform="matrix(.53549 0 0 .53549 174.513 -108.124)" fill="url(#w) rgb(0, 0, 0)"/><path d="M57.09 275.14c-.02.63 8.69 17.99 10.22 18.92 1.43.86 30.29 1.65 32 2.56 3.76 2.33-10.99-20.57-12.43-21.97-.8-.77-29.72-1.9-29.73-1.64-.06.81-.05 1.5-.06 2.13z" transform="matrix(.53549 0 0 .53549 174.513 -108.124)" fill="url(#x) rgb(0, 0, 0)"/><path d="M57.24 272.65c-.46.49 10.2 19.3 10.82 19.69.58.38 31.91 3.46 32.09 1.66.18-1.81-11.13-19.67-12.58-21.06-1.58-1.54-29.84-.81-30.33-.29z" transform="matrix(.53549 0 0 .53549 174.513 -108.124)" fill="url(#y) rgb(0, 0, 0)"/><path d="M512.92 572.78c69.71-29.42 141.21-59.43 209.15-88.27 5.59-2.87 4.44-16.5 4.25-22.92L392.89 343.37c.26 9.01.55 24.77 4.29 32.87 33.11 64.34 66.36 126.85 99.54 190.28 4.04 6.93 9.47 10.35 16.2 6.26z" style="fill:url(#z) #000;stroke-width:1.14" transform="matrix(.87536 0 0 .87536 -336.915 -219.257)"/><path d="M513.77 556.29c69.71-29.42 141.22-59.43 209.15-88.27 3.31-1.91 3.59-2.62 3.4-6.4L393.01 343.41c.26 9.01 1.28 8.24 5.02 16.34 33.11 64.34 66.36 126.86 99.54 190.28 4.04 6.93 9.47 10.35 16.2 6.26z" style="fill:url(#A) #000;stroke-width:1.14" transform="matrix(.87536 0 0 .87536 -336.915 -219.257)"/><path d="m506.54 553.57 218.86-92.14-117.83-207.82-213.75 90.16 112.72 209.8z" style="fill:url(#B) #000;stroke-linecap:round;stroke-linejoin:round;stroke-width:2.15;stroke:url(#linearGradient1127) #000" transform="matrix(.87536 0 0 .87536 -336.915 -219.257)"/><path d="m201.63 441 18.04-7.79m3.58 1.15 18.03-7.78m1.07 3.26 18.04-7.79m-27.09 6.28 18.04-7.78m-20.55 4.76 18.04-7.78m-31.11 9.79 18.03-7.78m23.19 24.37 18.04-7.78m-17.53 7.78 18.03-7.78m-18.03 7.78 18.03-7.78m-7.98-27.91 18.04-7.78m-27.09 32.41 18.04-7.78m-18.04 7.78 18.04-7.78m-37.65 1.25 18.04-7.79m-21.05 6.78 18.03-7.78m-5.46-2.78 18.03-7.78m-18.03 7.28 18.03-7.78m-41.16 15.83 18.04-7.79m-18.04 7.79 18.04-7.79m-46.19 15.83 18.03-7.78m-18.03 7.78 18.03-7.78m18.16 29.9 18.04-7.78m-16.53 7.78 18.04-7.78m-58.76 13.31 18.04-7.78m-18.04 8.28 18.04-7.78M177 456.98l18.03-7.78M177 456.98l18.03-7.78m-9.49 1.75 18.04-7.78m-18.04 18.84 18.04-7.78m-18.04 11.8 18.04-7.78m-30.61-10.82 18.04-7.78m-18.04 5.27 18.04-7.78m58.38-39.48 18.04-7.78m-18.04 7.28 18.04-7.78m-69.32 30.9 18.04-7.78m-18.54 8.79 18.04-7.78m1.06-1.27 18.04-7.78m-18.04 6.27 18.04-7.78M269 421.79l18.03-7.78m-16.02 5.77 18.04-7.78m-1.45 11.8 18.04-7.78m-8.99 13.82 18.04-7.79m-16.53-26.4 18.03-7.78m-16.02 4.76 18.03-7.78m-53.73 16.33 18.04-7.78m-14.01 27.89 18.03-7.78m-20.05 15.82 18.04-7.78m6.6-5.79 18.04-7.78m-34.13 16.83 18.04-7.78m-66.8 35.93 18.03-7.78m-44.68-2.27 18.04-7.78m20.67 1.24 18.04-7.78m-11 7.78 18.04-7.78m-13.01 8.79 18.03-7.78m-2.45 29.4 18.04-7.79m-33.12 13.82 18.04-7.78m-38.65 6.27 18.03-7.78m-35.13 5.77 18.04-7.78m-34.63-13.34 18.04-7.78m-16.03 3.76 18.04-7.78m18.16-6.8 18.04-7.78m10.12 7.78 18.03-7.78m-4.96 10.8 18.03-7.78m-44.18-10.32 18.04-7.78m-26.08 8.79 18.04-7.79m30.73-21.88 18.03-7.78m-20.04 5.77 18.03-7.78m-74.34 21.86 18.03-7.78m-18.53 7.78 18.03-7.78m-64.79 27.89 18.04-7.78m-17.54 7.78 18.04-7.78m-27.09 34.43 18.04-7.79m-9.49 12.81 18.04-7.78m-23.07 5.77 18.04-7.78m34.75-28.92 18.04-7.78m-17.54 6.78 18.04-7.79m-16.03 3.76 18.04-7.78m-18.04 7.28 18.04-7.78m-54.23 29.4 18.03-7.78m-22.56 6.77 18.04-7.78m8.61-8.81 18.03-7.78m-16.52 7.78 18.03-7.78m-65.79 23.87 18.03-7.78m-17.03 7.78 18.04-7.78m70.95 40.46 18.03-7.78m-18.03 7.78 18.03-7.78m13.14 4.76 18.03-7.78m-16.02 16.83 18.03-7.78m-20.04 10.8 18.03-7.78m-106.01 46.99 18.03-7.78m-39.15 2.75 18.04-7.78m-20.05 5.27 18.04-7.78m-19.05 3.26 18.04-7.79m54.86 1.75 18.04-7.78m-7.98 7.78 18.03-7.78m-80.37 3.76 18.03-7.78m-21.05 1.75 18.04-7.78m81.5-20.88 18.04-7.78m-7.98 7.78 18.03-7.78m-13 15.83 18.03-7.79M270 508.26l18.04-7.78m-27.09 9.8 18.04-7.79m-29.1 4.27 18.04-7.79m-23.06 7.79 18.03-7.79m25.71-3.27 18.03-7.79m-26.08 3.76 18.04-7.78m4.58-7.8 18.04-7.78m-21.05 6.77 18.03-7.78m-19.04 4.77 18.04-7.79m9.61 17.34 18.04-7.78m-9.99 9.79 18.03-7.78m-22.05 4.26 18.03-7.78m-17.53 7.28 18.03-7.78m-33.62-30.93 18.04-7.79m-17.03 8.29 18.04-7.78m-21.06-13.84 18.04-7.78m-23.06 8.79 18.03-7.79m-25.07 7.79 18.03-7.79m-21.05 66.61 18.04-7.78m-11.5 6.27 18.03-7.78m-94.45 10.8 18.04-7.79m-17.54 7.28 18.04-7.78m-15.52 4.77 18.03-7.79m-11 16.84 18.04-7.79m-29.1 14.82 18.04-7.78m-12 27.39 18.03-7.78m-9.49 41.97 18.04-7.78m-22.06 7.78 18.04-7.78m-39.15-.27 18.03-7.78m53.36-4.78 18.03-7.79m-19.54 6.78 18.03-7.78m-73.84 1.24 18.04-7.78m-16.03 13.31 18.04-7.78m-16.53 12.31 18.04-7.78m42.79-3.78 18.04-7.79m-2.95-26.4 18.03-7.78m-18.03 7.78 18.03-7.78m-8.98 13.81 18.03-7.78m-26.08 13.82 18.04-7.79m-3.96 14.82 18.03-7.78m-51.21 19.35 18.03-7.79m-19.04 7.79 18.04-7.79m-81.38 10.8 18.03-7.78m-40.15-3.28 18.03-7.78m-21.05 43.98 18.04-7.78m-18.04 8.28 18.04-7.78m-18.04 7.78 18.04-7.78m-18.54 2.76 18.03-7.79m-27.08 9.8 18.03-7.79m35.76-23.38 18.04-7.79m-18.54 6.78 18.03-7.78m9.62 49.51 18.03-7.78m-21.05 1.24 18.04-7.78m-56.25 17.84 18.04-7.78m-19.54 10.8 18.03-7.79m-42.67 9.29 18.04-7.78m-18.04 29.9 18.04-7.78m7.1 1.75 18.03-7.78m-17.03 15.82 18.04-7.78m-8.99 13.82 18.04-7.78m-15.02 9.79 18.04-7.78m-20.05 6.77 18.03-7.78m-43.17 6.28 18.04-7.79m-17.03 10.8 18.03-7.78m-18.54-16.35 18.04-7.78m10.12 19.85 18.03-7.79m-9.99 8.79 18.04-7.78m41.29-15.85 18.03-7.78m-17.03 4.77 18.04-7.79m-47.7 24.88 18.03-7.78m-22.56 7.78 18.04-7.78m-32.62-2.28 18.04-7.78m-22.56 8.29 18.04-7.79m9.61-17.35 18.04-7.78m-13.01 9.79 18.03-7.78m1.07 8.79 18.04-7.79m19.17 8.79 18.03-7.78m-23.06 2.75 18.03-7.78m-20.04-7.8 18.03-7.78m-19.04 7.78 18.04-7.78m-49.71-4.29 18.03-7.78m4.09 27.89 18.04-7.78m-12.01 5.77 18.04-7.78m-31.61-3.28 18.03-7.78m-22.05 6.27 18.03-7.78m14.64-18.36 18.04-7.78M361 492.18l18.04-7.79m-16.53 7.28 18.03-7.78m-28.59 16.83 18.04-7.78m-21.06 5.77 18.04-7.78m-45.18-32.44 18.03-7.78m-14.51 11.8 18.03-7.78m-6.47 15.33 18.03-7.79m-17.53 7.79 18.04-7.79m-13.01 12.31 18.03-7.78m-16.02 8.79 18.04-7.79m-15.02 8.79 18.03-7.78m20.17 52.02 18.04-7.78m-18.54 7.28 18.04-7.78m-39.66 6.27 18.04-7.78m-15.02 16.83 18.04-7.78m-15.02 11.3 18.03-7.78m-18.54 7.78 18.04-7.78m-28.09.74 18.04-7.78m-54.74 27.89 18.04-7.78m-18.04 7.78 18.04-7.78m-4.47 14.82 18.04-7.78m-17.03 10.8 18.03-7.79m-18.03 8.29 18.03-7.78m-46.18 14.82 18.03-7.78m-22.06 8.78 18.04-7.78m-43.68 33.42 18.04-7.78M270 591.72l18.04-7.78m36.26-34.45 18.04-7.78m-19.05 7.28 18.04-7.79m-30.1 5.78 18.03-7.79m-45.18 19.85 18.04-7.78m-26.08 9.79 18.03-7.78m-34.62-.76 18.03-7.79m-14.01 7.79 18.03-7.79m-21.05-17.35 18.04-7.78m-19.04 10.8 18.03-7.79m-18.54 8.29 18.04-7.78m-23.06-7.3 18.03-7.79m-19.54 7.79 18.03-7.79m-19.54-13.83 18.04-7.78M250.9 497.2l18.04-7.78m-18.54 8.29 18.03-7.79m-18.03 7.28 18.03-7.78m-19.54 8.29 18.03-7.79m-60.26 33.43 18.03-7.79m-18.03 7.79 18.03-7.79m-18.03 7.79 18.03-7.79m-15.52.25 18.04-7.79m-18.04 7.28 18.04-7.78m-14.52 3.26 18.04-7.78m-18.04 7.78 18.04-7.78m-51.22-22.89 18.04-7.78m-15.02 8.79 18.03-7.79m-18.03 7.79 18.03-7.79M162.92 459l18.04-7.79m-23.07-10.82 18.04-7.78m-16.03 11.81 18.04-7.79m-19.04 4.77 18.03-7.78m22.19-1.27 18.03-7.78m-7.98 12.81 18.04-7.78m-7.98 21.31 18.03-7.78m-25.07 32.96 18.03-7.78m-17.03 8.28 18.04-7.78m-17.03 10.8 18.04-7.78m61.39-30.43 18.04-7.78m-28.09-19.37 18.03-7.78m-46.69-24.9 18.04-7.78m-16.03 8.79 18.04-7.78m-17.03 9.79 18.03-7.78m5.6 22.86 18.03-7.78m-18.03 6.78 18.03-7.79m-14.51 1.25 18.03-7.78m-11 10.8 18.04-7.79m-8.99 16.84 18.04-7.79m-16.53 8.79 18.04-7.78m-16.03 2.75 18.04-7.78m-17.53 8.29 18.03-7.79m-37.64 62.59 18.03-7.79m-25.57 2.26 18.03-7.79m-16.02 15.83 18.03-7.78m-26.58 25.88 18.04-7.78m-18.04 7.78 18.04-7.78m-22.06 5.77 18.04-7.78m-27.59-3.28 18.03-7.78m-18.03 7.78 18.03-7.78m-17.53 9.79 18.04-7.78m-26.08 5.77 18.03-7.78m-24.07 1.74 18.04-7.78m-3.46 44.48 18.04-7.78m-17.03 1.75 18.04-7.78m-10 .74 18.04-7.78m-20.05 44.48 18.04-7.78m-15.52 5.77 18.03-7.78m1.57 9.29 18.04-7.78m-15.02-2.27 18.04-7.79m-31.11-14.33 18.03-7.79m6.1 45.49 18.04-7.78m-14.52 10.29 18.03-7.78m-60.76 17.84 18.03-7.78m-36.13 6.77 18.03-7.78m-25.07 7.78 18.03-7.78m-32.11 27.39 18.04-7.78m-14.02 9.79 18.04-7.78m-3.96 15.83 18.04-7.79m-32.62 5.78 18.04-7.79m-18.04 7.28 18.04-7.78m55.36-.26 18.04-7.78m-18.04 8.28 18.04-7.78m-20.05 4.26 18.04-7.78m33.74-36.46 18.04-7.78m-18.54 7.78 18.04-7.78m-27.09 1.25 18.04-7.79m-148.75 14.32 18.03-7.78m-12 6.78 18.04-7.79m11.62 17.34 18.04-7.79m-18.04 7.79 18.04-7.79m-21.05 1.25 18.03-7.78m-74.84 2.75 18.03-7.78m3.08 25.88 18.04-7.78m-6.98 14.82 18.04-7.78m54.36-35.45 18.03-7.79m-12-16.35 18.04-7.78" stroke-width=".25" transform="matrix(.87536 0 0 .87536 -99.976 -288.718)" style="fill:none;stroke-opacity:.1;stroke:#fff"/><path d="M179.546 28.514c-13.524 2.127-25.64 9.787-38.35 14.96-25.42 10.347-52.023 19.328-75.211 33.702-12.098 7.502-18.952 18.312-12.001 32.09 4.429 8.772 14.356 24.152 18.251 35.234 1.4 3.992 15.406 8.228 16.588 12.29 1.453 4.99-6.154 26.988-2.153 33.395 7.878 12.606 17.936 25.325 25.228 35.453 5.55 7.703 26.19 12.272 34.384 8.307 33.404-16.177 72.507-38.079 105.482-52.513 11.476-5.025 1.689-25.08-2.049-36.11-2.32-6.818-20.422-26.006-30.156-43.146-11.143-19.617-11.984-39.855-20.93-57.573-3.23-6.399-11.59-17.27-19.083-16.089z"/><path d="M-6.14 383.87c-15.45 2.43-29.3 11.17-43.81 17.08-29.04 11.82-59.43 22.08-85.92 38.51-13.82 8.57-21.65 20.91-13.71 36.65 5.05 10.02 16.4 27.6 20.84 40.26 1.6 4.56 17.61 9.39 18.96 14.03 1.66 5.7-7.03 30.83-2.46 38.16 9 14.39 20.49 28.93 28.82 40.49 6.34 8.81 29.92 14.02 39.28 9.49 38.15-18.48 82.83-43.5 120.5-59.99 13.11-5.74 1.93-28.65-2.35-41.25-2.64-7.79-23.32-29.71-34.44-49.29-12.73-22.41-13.69-45.53-23.91-65.77-3.69-7.3-13.24-19.72-21.8-18.37z" fill="url(#C) rgb(0, 0, 0)" transform="matrix(.87536 0 0 .87536 184.518 -309.508)"/><path d="M164.805 205.33c12.027-5.288 24.563-11.302 36.581-16.615 10.96-4.946 21.403-9.62 32.293-14.733 1.995-.945 4.884-2.8 6.827-3.843 2.583-1.794 1.611-5.987.184-8.753-.744-1.637-2.17-2.871-3.773-3.615-8.473-4.894-17.192-9.393-25.324-14.855-4.587-3.134-8.937-6.618-12.877-10.531-2.45-2.425-4.753-5.033-6.6-7.957-3.606-5.594-5.821-12.054-6.539-18.654-.893-6.618-.595-13.314.15-19.932.594-5.795 1.426-11.581 2.608-17.289 1.146-5.786 2.52-11.528 3.492-17.34.473-3.134-.078-6.478-1.82-9.157-1.532-2.18-4.614-3.116-7.065-2.048-2.766.963-5.41 2.25-8.114 3.37-16.606 7.134-33.16 14.408-49.844 21.359-9.874 4.132-19.748 8.272-29.552 12.579-4.762 2.1-9.471 4.315-14.067 6.74-1.908 1.068-5.681 2.302-6.793 4.263-1.707 2.889-2.547 6.329-2.687 9.62-.202 4.745-.175 9.498-.245 14.251-.009 4.649-.14 14.663 3.291 16.799 3.423 2.127 12.527-1.541 14.864-3.353 2.337-1.812 7.65-15.24 12.447-17.271 4.789-2.022 15.424-3.782 23.066-1.97 3.922.946 7.686 2.732 10.689 5.454 2.73 2.512 2.713 5.707 3.711 9.314.867 3.641-.368 7.44.665 11.056.622 2.6 2.346 4.805 4.447 6.39 1.427 1.164 3.064 2.267 3.738 4.062 1.068 2.713 3.694 5.61 3.764 8.508.114 2.722-.052 5.471-.63 8.141-.84 3.965-2.696 7.72-5.454 10.706-3.239 3.589-7.537 6.083-12.115 7.545-2.827.963-5.777 1.681-8.78 1.76-4.044-.28-9.716-3.204-13.795-3.187-.64.08-1.165-.393-1.804-.393-1.864-.184-3.641.709-5.147 1.724-1.68 1.234-3.064 2.941-3.703 4.946-.446 1.768.333 3.519 1.077 5.086 1.094 2.52 14.365 20.807 20.274 27.206 1.251 1.226 4.78 3.423 6.442 4.044 1.655.49 5.533.088 7.03-.525.691-.298 20.098-9.034 29.088-12.903z"/><path d="M6.46 576.5c13.74-6.04 28.06-12.91 41.79-18.98 12.52-5.65 24.45-10.99 36.89-16.82 2.28-1.09 5.58-3.21 7.81-4.4 2.94-2.05 1.83-6.83.2-10-.84-1.86-2.47-3.27-4.31-4.13-9.68-5.59-19.64-10.73-28.93-16.97-5.23-3.58-10.21-7.56-14.71-12.03-2.8-2.77-5.43-5.75-7.54-9.09-4.11-6.39-6.65-13.77-7.47-21.31-1.01-7.55-.68-15.21.17-22.76.68-6.63 1.63-13.24 2.99-19.76 1.3-6.61 2.87-13.16 3.98-19.81.54-3.58-.09-7.4-2.08-10.46-1.75-2.49-5.26-3.56-8.07-2.34-3.16 1.1-6.18 2.57-9.26 3.85-18.98 8.15-37.89 16.46-56.95 24.4-11.28 4.72-22.56 9.45-33.76 14.37-5.43 2.4-10.82 4.93-16.07 7.7-2.18 1.22-6.49 2.63-7.76 4.87-1.95 3.3-2.91 7.23-3.07 10.99-.23 5.42-.2 10.85-.27 16.28-.02 5.31-.17 16.75 3.75 19.19 3.91 2.43 14.31-1.76 16.98-3.83 2.68-2.07 8.74-17.41 14.22-19.73 5.48-2.31 17.62-4.32 26.35-2.25 4.48 1.08 8.78 3.12 12.21 6.23 3.12 2.87 3.1 6.52 4.24 10.64.99 4.16-.42 8.51.76 12.63.71 2.97 2.68 5.49 5.08 7.3 1.63 1.33 3.5 2.6 4.27 4.64 1.22 3.1 4.23 6.41 4.3 9.72.13 3.11-.06 6.25-.72 9.3-.95 4.53-3.08 8.82-6.23 12.23-3.7 4.1-8.61 6.95-13.84 8.63-3.23 1.09-6.6 1.91-10.02 2-4.63-.32-11.11-3.66-15.77-3.64-.73.09-1.33-.44-2.06-.45-2.13-.21-4.16.81-5.88 1.97-1.92 1.42-3.5 3.36-4.23 5.65-.51 2.02.38 4.02 1.23 5.81 1.26 2.88 16.41 23.77 23.17 31.08 1.42 1.4 5.45 3.91 7.35 4.62 1.89.56 6.33.1 8.04-.6.78-.34 22.95-10.32 33.22-14.74z" fill="url(#D) rgb(0, 0, 0)" transform="matrix(.87536 0 0 .87536 159.351 -300.754)"/><path d="M24.913 128.553c0-.54-14.731-4.037-15.631-3.191-.9.846.825 60.612 1.74 60.73.916.117 1.253.032 2.281.069 1.029.043 2.581-49.63 4.017-50.598 1.435-.97 7.32-2.008 7.443-3.647.123-1.644.15-2.822.15-3.363z" fill="#767500"/><path d="M213.84 406.7c-.01-.74-32.57-10.44-34.25-8.86-1.68 1.58 5.52 118.31 6.82 118.46 1.3.15.78.06 2.57.06 1.86.01 2.62-95.9 5.3-97.71 2.68-1.81 19.45-5.8 19.5-8.89.05-3.1.07-2.32.06-3.06z" transform="matrix(.53549 0 0 .53549 -89.564 -90.355)" fill="url(#E) rgb(0, 0, 0)"/><path d="M202.44 388.14c-1.29-1.25-21.2 3.72-24.94 6.88-3.52 2.95-5.82 89.19-4.93 92.58.89 3.4 11.99 29.03 13.91 28.63 1.93-.4 3.02-98.6 5.7-100.4 2.69-1.81 21.48-5.83 21.71-8.9.23-3.06-10.16-17.54-11.45-18.79z" transform="matrix(.53549 0 0 .53549 -89.564 -90.355)" fill="url(#F) rgb(0, 0, 0)"/><path d="M562.37 384.79c-2.32 2.07-10.75 16.13-7.17 17.76 19.81 9 47.73 24.11 72.28 35.83l10.36-14.74-75.47-38.85z" fill="url(#G) rgb(0, 0, 0)" transform="matrix(.87536 0 0 .87536 -336.915 -219.257)"/><path d="m580.29 302.79-10.76 22.08c-5.21 25.49-16.49 68.97-15.64 76.47.37 3.28 5.24-13.1 10.91-17.24l15.49-81.31z" fill="url(#H) rgb(0, 0, 0)" transform="matrix(.87536 0 0 .87536 -336.915 -219.257)"/><path d="M483.57 390.36c-1.58 1.88-9.8 2.03-10.34-.15-2.17-8.78-.22-24.48-.33-35.05 1.18-1.39 4.17-10.87 7.4-12.17-.42 11.06-.16 17.64-.58 28.7 4.56-23.87 13.87-30.85 27.86-37.4 23.11-9.9 49.87-21.39 72.98-31.29-2.52 3.45-8.13 19.12-10.66 22.57-19.27 9.57-42.65 18.68-61.93 28.26-12.46 7.1-13.07 23.02-24.4 36.53z" style="fill-opacity:.75;fill:url(#I) #000" transform="matrix(.87536 0 0 .87536 -336.915 -219.257)"/><path d="M539.12 494.62c-3.23 1.87-6.31 1.12-9.17-2.07-2.38-2.66-24.62-29.07-23.99-31.46.65-2.48 4.93-10.13 6.74-10.32l24.25 22.11 112.61-47.38c2.25 1.87 7.02 15.42 4.43 16.85-33.88 18.76-111.53 50.33-114.87 52.27z" fill="url(#J) rgb(0, 0, 0)" transform="matrix(.87536 0 0 .87536 -336.915 -219.257)"/><path d="M592.89 294.53c2.11-.89 5.06 10.2 6.75 12.97.23 1.59-11.61 54.82-18.35 85.31l-10.64-8.63 22.24-89.65z" fill="url(#K) rgb(0, 0, 0)" transform="matrix(.87536 0 0 .87536 -336.915 -219.257)"/><path d="M183.726 39.781c.595 1.392-1.2 10.233-8.132 40.433-4.911 21.254-9 39.085-9.14 39.575-.183.578 11.634 6.81 32.853 17.306 18.217 9 33.177 16.737 33.212 17.149.026.56-13.971 6.766-50.264 22.313l-50.307 21.534-10.706-11.135c-5.908-6.119-10.784-11.178-10.81-11.24-.053-.122.402-.385 1.006-.647.727-.307 1.9.262 3.318 1.584 3.291 3.169 11.02 5.856 17.358 6.145 12.702.64 21.91-2.232 58.886-18.356l27.767-12.098-32.476-16.107c-17.814-8.884-32.494-16.465-32.503-16.815-.035-.42 3.59-16.335 8.071-35.4 4.395-19.11 8.01-34.875 7.931-35.058-.236-.543-53.52 22.558-59.717 25.928-12.684 6.933-20.186 14.286-23.81 23.346-1.173 2.932-2.145 6.346-2.101 7.616.009 1.348-.438 2.477-1.103 2.757l-1.094.464v-4.858c-.053-2.618.017-8.798-.018-13.709l.035-8.946 50.465-21.831 50.5-21.762.779 1.812z" fill="#B4B4B4"/><path d="M512.5 450.5c12.54 11.59 29.53 11.06 40.04 7.68" style="fill:none;stroke-width:1;stroke:url(#L) #000" transform="matrix(.87536 0 0 .87536 -336.915 -219.257)"/><path d="m595.01 297.61-20.22 89.79 75.23 39.64-112.85 48.94" style="fill:none;stroke-linecap:round;stroke-linejoin:round;stroke-width:1;stroke:url(#M) #000" transform="matrix(.87536 0 0 .87536 -336.915 -219.257)"/><path d="m578.43 306.51-75.64 32.76c-10.38 5.8-20.36 20.49-23.05 35.19" style="fill:none;stroke-width:1;stroke:url(#N) #000" transform="matrix(.87536 0 0 .87536 -336.915 -219.257)"/><path d="M46.346 166.84c0-.54-14.732-4.037-15.631-3.19-.9.845.825 60.611 1.74 60.729.916.118 1.253.032 2.281.07 1.029.042 2.581-49.63 4.017-50.599 1.435-.969 7.32-2.008 7.443-3.646.123-1.644.15-2.822.15-3.363z" fill="#767500"/><path d="M213.84 406.7c-.01-.74-32.57-10.44-34.25-8.86-1.68 1.58 5.52 118.31 6.82 118.46 1.3.15.78.06 2.57.06 1.86.01 2.62-95.9 5.3-97.71 2.68-1.81 19.45-5.8 19.5-8.89.05-3.1.07-2.32.06-3.06z" transform="matrix(.53549 0 0 .53549 -68.131 -52.067)" fill="url(#O) rgb(0, 0, 0)"/><path d="M202.44 388.14c-1.29-1.25-21.2 3.72-24.94 6.88-3.52 2.95-5.82 89.19-4.93 92.58.89 3.4 11.99 29.03 13.91 28.63 1.93-.4 3.02-98.6 5.7-100.4 2.69-1.81 21.48-5.83 21.71-8.9.23-3.06-10.16-17.54-11.45-18.79z" transform="matrix(.53549 0 0 .53549 -68.131 -52.067)" fill="url(#P) rgb(0, 0, 0)"/><path d="M68.23 208.42c0-.54-14.731-4.037-15.631-3.191-.9.846.825 60.612 1.74 60.73.916.118 1.253.032 2.281.07 1.029.042 2.582-49.63 4.017-50.599 1.435-.97 7.32-2.008 7.443-3.647.123-1.644.15-2.822.15-3.362z" fill="#767500"/><path d="M213.84 406.7c-.01-.74-32.57-10.44-34.25-8.86-1.68 1.58 5.52 118.31 6.82 118.46 1.3.15.78.06 2.57.06 1.86.01 2.62-95.9 5.3-97.71 2.68-1.81 19.45-5.8 19.5-8.89.05-3.1.07-2.32.06-3.06z" transform="matrix(.53549 0 0 .53549 -46.247 -10.487)" fill="url(#Q) rgb(0, 0, 0)"/><path d="M202.44 388.14c-1.29-1.25-21.2 3.72-24.94 6.88-3.52 2.95-5.82 89.19-4.93 92.58.89 3.4 11.99 29.03 13.91 28.63 1.93-.4 3.02-98.6 5.7-100.4 2.69-1.81 21.48-5.83 21.71-8.9.23-3.06-10.16-17.54-11.45-18.79z" transform="matrix(.53549 0 0 .53549 -46.247 -10.487)" fill="url(#R) rgb(0, 0, 0)"/><path d="M89.02 250c0-.54-14.731-4.037-15.631-3.191-.9.846.825 60.612 1.74 60.73.916.117 1.253.032 2.281.07 1.029.042 2.581-49.63 4.017-50.6 1.435-.968 7.32-2.007 7.443-3.646.123-1.644.15-2.822.15-3.363z" fill="#767500"/><path d="M213.84 406.7c-.01-.74-32.57-10.44-34.25-8.86-1.68 1.58 5.52 118.31 6.82 118.46 1.3.15.78.06 2.57.06 1.86.01 2.62-95.9 5.3-97.71 2.68-1.81 19.45-5.8 19.5-8.89.05-3.1.07-2.32.06-3.06z" transform="matrix(.53549 0 0 .53549 -25.457 31.093)" fill="url(#S) rgb(0, 0, 0)"/><path d="M202.44 388.14c-1.29-1.25-21.2 3.72-24.94 6.88-3.52 2.95-5.82 89.19-4.93 92.58.89 3.4 11.99 29.03 13.91 28.63 1.93-.4 3.02-98.6 5.7-100.4 2.69-1.81 21.48-5.83 21.71-8.9.23-3.06-10.16-17.54-11.45-18.79z" transform="matrix(.53549 0 0 .53549 -25.457 31.093)" fill="url(#T) rgb(0, 0, 0)"/><path d="m593.9 293.85-57.69 24.87-57.69 24.94v1.06c-2.49 3.1-4.66 9.31-5.62 10.44.11 10.56-1.83 26.28.34 35.06.54 2.18 8.77 2.01 10.34.13 11.34-13.51 11.91-29.43 24.38-36.53 19.09-9.49 42.18-18.5 61.34-27.97-5.28 25.59-16.24 68.08-15.4 75.5.06.51.26.42.53.09.11.52.35.93.78 1.13 16.83 7.64 39.37 19.48 60.87 30.12l-13 5.66c-42.24 18.41-52.76 21.69-67.28 20.97-7.24-.33-16.06-3.42-19.81-7.04-1.62-1.5-2.98-2.16-3.81-1.81-.69.3-1.22.61-1.16.75l.47.5c-2.05 1.99-4.99 7.33-5.53 9.38-.63 2.38 21.62 28.78 24 31.43 2.86 3.19 5.93 3.97 9.16 2.1 3.34-1.94 80.99-33.53 114.87-52.28 2.34-1.3-1.26-12-3.66-15.57.01 0 .19-.09.19-.09 0-.01-.33-.18-.34-.19-.2-.27-.45-.85-.63-1l-.68.28c-2.31-1.55-17.05-9.17-36.32-18.68-14.62-7.24-24.75-12.45-30.9-15.78 6.78-30.69 18.23-82.25 18-83.82-1.23-2.01-3.13-8.33-4.88-11.34-.01-.04.02-.22 0-.25l-.87-2.06z" style="fill-opacity:.16;fill:#fff" transform="matrix(.87536 0 0 .87536 -336.915 -219.257)"/></svg>