<svg xmlns:svg="http://www.w3.org/2000/svg" xmlns="http://www.w3.org/2000/svg" xmlns:xlink="http://www.w3.org/1999/xlink" id="svg23102" width="301.81" height="309.41" version="1"><defs id="defs23104"><linearGradient id="linearGradient1413" xlink:href="#linearGradient1071" x1="457.02" y1="391.25" x2="439.64" y2="477.28" gradientTransform="matrix(1.20175, 0, 0, 0.832118, 265.055, 260.245)" gradientUnits="userSpaceOnUse"/><linearGradient id="linearGradient1410" xlink:href="#linearGradient1071" x1="727" y1="343.79" x2="760.84" y2="241.13" gradientTransform="matrix(0.797, 0, 0, 1.2547, 265.055, 260.245)" gradientUnits="userSpaceOnUse"/><linearGradient id="linearGradient1412" xlink:href="#linearGradient1071" x1="285.8" y1="881.16" x2="264.96" y2="881.16" gradientTransform="matrix(1.93378, 0, 0, 0.517122, 265.055, 260.245)" gradientUnits="userSpaceOnUse"/><linearGradient id="linearGradient1071"><stop offset="0" id="stop1072" style="stop-color:rgb(145, 145, 145);stop-opacity:1"/><stop offset="0.22" id="stop1074" style="stop-color:rgb(255, 255, 255);stop-opacity:1"/><stop offset="1" id="stop1073" style="stop-color:rgb(166, 166, 166);stop-opacity:1"/></linearGradient><linearGradient xlink:href="#linearGradient1071" id="linearGradient12018" x1="1102.53" y1="159.92" x2="1097.44" y2="172.63" gradientTransform="matrix(0.543045, 0, 0, 1.84147, 265.055, 260.245)" gradientUnits="userSpaceOnUse"/><linearGradient xlink:href="#linearGradient1116" id="linearGradient10775" x1="370.53" y1="670.48" x2="361.38" y2="669.73" gradientTransform="matrix(1.45659, 0, 0, 0.686537, 265.055, 260.245)" gradientUnits="userSpaceOnUse"/><radialGradient xlink:href="#linearGradient1116" id="radialGradient6417" cx="456.2" cy="409.41" r="29.89" fx="455.66" fy="410.92" gradientTransform="matrix(1.10462, 0, 0, 0.90529, 265.055, 260.245)" gradientUnits="userSpaceOnUse"/><linearGradient xlink:href="#linearGradient8282" id="linearGradient8281" x1="1067.75" y1="180.12" x2="1064.01" y2="169.1" gradientTransform="matrix(0.516888, 0, 0, 1.93465, 265.055, 260.245)" gradientUnits="userSpaceOnUse"/><linearGradient xlink:href="#linearGradient9528" id="linearGradient9527" x1="444.87" y1="482.41" x2="495.24" y2="518.95" gradientTransform="matrix(1.24833, 0, 0, 0.801068, 265.055, 260.245)" gradientUnits="userSpaceOnUse"/><linearGradient xlink:href="#linearGradient24817" id="linearGradient24821" x1="337.72" y1="228.74" x2="328.15" y2="242.96" gradientTransform="matrix(0.568858, 0, 0, 1.75791, 433.286, 425.424)" gradientUnits="userSpaceOnUse"/><linearGradient xlink:href="#linearGradient24817" id="linearGradient24822" x1="376.47" y1="216.86" x2="337.18" y2="277.54" gradientTransform="matrix(0.539067, 0, 0, 1.85506, 433.286, 425.424)" gradientUnits="userSpaceOnUse"/><linearGradient id="linearGradient1411" xlink:href="#linearGradient9528" x1="-60.07" y1="507.97" x2="42.99" y2="459.53" gradientTransform="matrix(0.974784, 0, 0, 1.02587, 265.055, 260.245)" gradientUnits="userSpaceOnUse"/><linearGradient id="linearGradient1414" xlink:href="#linearGradient9528" x1="-113.31" y1="529.86" x2="66.4" y2="424.69" gradientTransform="matrix(0.997559, 0, 0, 1.00245, 265.055, 260.245)" gradientUnits="userSpaceOnUse"/><linearGradient id="linearGradient8282"><stop offset="0" id="stop8283" style="stop-color:rgb(85, 85, 85);stop-opacity:1"/><stop offset="1" id="stop8284" style="stop-color:rgb(143, 143, 143);stop-opacity:1"/></linearGradient><linearGradient x1="497.64" y1="423.17" x2="534.61" y2="462.09" id="linearGradient1127" xlink:href="#linearGradient8282" gradientTransform="matrix(1.05104, 0, 0, 0.951439, 265.055, 260.245)" gradientUnits="userSpaceOnUse"/><linearGradient id="linearGradient9528"><stop offset="0" id="stop9529" style="stop-color:rgb(44, 44, 44);stop-opacity:1"/><stop offset="1" id="stop9530" style="stop-color:rgb(97, 97, 97);stop-opacity:1"/></linearGradient><linearGradient x1="436.68" y1="521.1" x2="682.55" y2="393.27" id="linearGradient1003" xlink:href="#linearGradient9528" gradientTransform="matrix(1.05104, 0, 0, 0.951439, 265.055, 260.245)" gradientUnits="userSpaceOnUse"/><linearGradient x1="509.4" y1="566.02" x2="577.27" y2="447.68" id="linearGradient1134" xlink:href="#linearGradient1116" gradientTransform="matrix(1.24621, 0, 0, 0.802436, 265.055, 260.245)" gradientUnits="userSpaceOnUse"/><linearGradient id="linearGradient1116"><stop offset="0" id="stop1117" style="stop-color:rgb(50, 50, 50);stop-opacity:1"/><stop offset="0.22" id="stop1118" style="stop-color:rgb(195, 195, 195);stop-opacity:1"/><stop offset="1" id="stop1119" style="stop-color:rgb(69, 69, 69);stop-opacity:1"/></linearGradient><linearGradient id="linearGradient1157" xlink:href="#linearGradient1116" x1="414.08" y1="654.18" x2="434.8" y2="654.18" gradientTransform="matrix(1.20138, 0, 0, 0.832375, 265.055, 260.245)" gradientUnits="userSpaceOnUse"/><linearGradient id="linearGradient1064" xlink:href="#linearGradient24817" x1="63.16" y1="380.01" x2="40.99" y2="387.69" gradientTransform="matrix(1.37995, 0, 0, 0.724664, 433.286, 425.424)" gradientUnits="userSpaceOnUse"/><linearGradient id="linearGradient1070" xlink:href="#linearGradient24817" x1="63.98" y1="373.96" x2="56.01" y2="379.06" spreadMethod="pad" gradientTransform="matrix(1.34107, 0, 0, 0.745673, 433.286, 425.424)" gradientUnits="userSpaceOnUse"/><linearGradient id="linearGradient1080" xlink:href="#linearGradient24817" x1="139.73" y1="145.37" x2="138.3" y2="180.58" gradientTransform="matrix(0.599135, 0, 0, 1.66907, 433.286, 425.424)" gradientUnits="userSpaceOnUse"/><linearGradient id="linearGradient1115" xlink:href="#linearGradient24817" x1="171.97" y1="154.15" x2="110.1" y2="227.91" gradientTransform="matrix(0.57801, 0, 0, 1.73007, 433.286, 425.424)" gradientUnits="userSpaceOnUse"/><linearGradient id="linearGradient24817"><stop offset="0" id="stop24818" style="stop-color:rgb(255, 143, 106);stop-opacity:1"/><stop offset="0.22" id="stop24819" style="stop-color:rgb(232, 213, 143);stop-opacity:1"/><stop offset="1" id="stop24820" style="stop-color:rgb(255, 121, 100);stop-opacity:1"/></linearGradient><linearGradient id="linearGradient1154" xlink:href="#linearGradient24817" x1="145.43" y1="163.29" x2="136.1" y2="177.15" gradientTransform="matrix(0.570025, 0, 0, 1.75431, 433.286, 425.424)" gradientUnits="userSpaceOnUse"/><linearGradient xlink:href="#linearGradient24817" id="linearGradient2566" x1="145.43" y1="163.29" x2="136.1" y2="177.15" gradientTransform="matrix(0.570025, 0, 0, 1.75431, 433.286, 425.424)" gradientUnits="userSpaceOnUse"/><linearGradient xlink:href="#linearGradient24817" id="linearGradient2568" x1="171.97" y1="154.15" x2="110.1" y2="227.91" gradientTransform="matrix(0.57801, 0, 0, 1.73007, 433.286, 425.424)" gradientUnits="userSpaceOnUse"/><linearGradient xlink:href="#linearGradient24817" id="linearGradient2570" x1="139.73" y1="145.37" x2="138.3" y2="180.58" gradientTransform="matrix(0.599135, 0, 0, 1.66907, 433.286, 425.424)" gradientUnits="userSpaceOnUse"/><linearGradient xlink:href="#linearGradient24817" id="linearGradient2572" spreadMethod="pad" x1="63.98" y1="373.96" x2="56.01" y2="379.06" gradientTransform="matrix(1.34107, 0, 0, 0.745673, 433.286, 425.424)" gradientUnits="userSpaceOnUse"/><linearGradient xlink:href="#linearGradient24817" id="linearGradient2574" x1="63.16" y1="380.01" x2="40.99" y2="387.69" gradientTransform="matrix(1.37995, 0, 0, 0.724664, 433.286, 425.424)" gradientUnits="userSpaceOnUse"/><linearGradient xlink:href="#linearGradient24817" id="linearGradient2576" x1="145.43" y1="163.29" x2="136.1" y2="177.15" gradientTransform="matrix(0.570025, 0, 0, 1.75431, 433.286, 425.424)" gradientUnits="userSpaceOnUse"/><linearGradient xlink:href="#linearGradient24817" id="linearGradient2578" x1="171.97" y1="154.15" x2="110.1" y2="227.91" gradientTransform="matrix(0.57801, 0, 0, 1.73007, 433.286, 425.424)" gradientUnits="userSpaceOnUse"/><linearGradient xlink:href="#linearGradient24817" id="linearGradient2580" x1="139.73" y1="145.37" x2="138.3" y2="180.58" gradientTransform="matrix(0.599135, 0, 0, 1.66907, 433.286, 425.424)" gradientUnits="userSpaceOnUse"/><linearGradient xlink:href="#linearGradient24817" id="linearGradient2582" spreadMethod="pad" x1="63.98" y1="373.96" x2="56.01" y2="379.06" gradientTransform="matrix(1.34107, 0, 0, 0.745673, 433.286, 425.424)" gradientUnits="userSpaceOnUse"/><linearGradient xlink:href="#linearGradient24817" id="linearGradient2584" x1="63.16" y1="380.01" x2="40.99" y2="387.69" gradientTransform="matrix(1.37995, 0, 0, 0.724664, 433.286, 425.424)" gradientUnits="userSpaceOnUse"/><linearGradient xlink:href="#linearGradient24817" id="linearGradient2586" x1="145.43" y1="163.29" x2="136.1" y2="177.15" gradientTransform="matrix(0.570025, 0, 0, 1.75431, 433.286, 425.424)" gradientUnits="userSpaceOnUse"/><linearGradient xlink:href="#linearGradient24817" id="linearGradient2588" x1="171.97" y1="154.15" x2="110.1" y2="227.91" gradientTransform="matrix(0.57801, 0, 0, 1.73007, 433.286, 425.424)" gradientUnits="userSpaceOnUse"/><linearGradient xlink:href="#linearGradient24817" id="linearGradient2590" x1="139.73" y1="145.37" x2="138.3" y2="180.58" gradientTransform="matrix(0.599135, 0, 0, 1.66907, 433.286, 425.424)" gradientUnits="userSpaceOnUse"/><linearGradient xlink:href="#linearGradient24817" id="linearGradient2592" spreadMethod="pad" x1="63.98" y1="373.96" x2="56.01" y2="379.06" gradientTransform="matrix(1.34107, 0, 0, 0.745673, 433.286, 425.424)" gradientUnits="userSpaceOnUse"/><linearGradient xlink:href="#linearGradient24817" id="linearGradient2594" x1="63.16" y1="380.01" x2="40.99" y2="387.69" gradientTransform="matrix(1.37995, 0, 0, 0.724664, 433.286, 425.424)" gradientUnits="userSpaceOnUse"/><linearGradient xlink:href="#linearGradient24817" id="linearGradient2596" x1="376.47" y1="216.86" x2="337.18" y2="277.54" gradientTransform="matrix(0.539067, 0, 0, 1.85506, 433.286, 425.424)" gradientUnits="userSpaceOnUse"/><linearGradient xlink:href="#linearGradient24817" id="linearGradient2598" x1="337.72" y1="228.74" x2="328.15" y2="242.96" gradientTransform="matrix(0.568858, 0, 0, 1.75791, 433.286, 425.424)" gradientUnits="userSpaceOnUse"/><linearGradient xlink:href="#linearGradient24817" id="linearGradient2600" x1="376.47" y1="216.86" x2="337.18" y2="277.54" gradientTransform="matrix(0.539067, 0, 0, 1.85506, 433.286, 425.424)" gradientUnits="userSpaceOnUse"/><linearGradient xlink:href="#linearGradient24817" id="linearGradient2602" x1="337.72" y1="228.74" x2="328.15" y2="242.96" gradientTransform="matrix(0.568858, 0, 0, 1.75791, 433.286, 425.424)" gradientUnits="userSpaceOnUse"/><linearGradient xlink:href="#linearGradient24817" id="linearGradient2604" x1="376.47" y1="216.86" x2="337.18" y2="277.54" gradientTransform="matrix(0.539067, 0, 0, 1.85506, 433.286, 425.424)" gradientUnits="userSpaceOnUse"/><linearGradient xlink:href="#linearGradient24817" id="linearGradient2606" x1="337.72" y1="228.74" x2="328.15" y2="242.96" gradientTransform="matrix(0.568858, 0, 0, 1.75791, 433.286, 425.424)" gradientUnits="userSpaceOnUse"/></defs><metadata id="metadata23105"/><g id="g7291" transform="matrix(0.875365, 0, 0, 0.875365, -336.915, -219.257)"><path d="M607.56 253.6L393.94 343.73 393 343.41 392.88 343.38C393.14 352.39 393.45 368.12 397.19 376.23 398.75 379.26 400.32 382.2 401.88 385.23 397.89 386.09 392.62 387.69 391.16 388.91 389.01 390.72 387.58 443.46 388.13 445.54 388.67 447.59 395.28 462.84 396.56 462.94 396.57 462.95 396.59 463.1 396.6 463.1 397.39 463.19 397.09 463.13 398.19 463.13 398.19 463.13 398.19 463.1 398.19 463.1 398.76 463.13 399.24 463.1 400.1 463.13 401.27 463.18 403.02 406.46 404.66 405.35 405.73 404.63 408.91 403.81 411.06 402.85 415.9 412.17 420.72 421.46 425.56 430.73 421.67 431.62 416.88 433.07 415.5 434.23 413.35 436.03 411.96 488.81 412.5 490.88 413.04 492.95 419.74 508.38 420.97 508.32 420.97 508.32 420.97 508.41 420.97 508.41 421.76 508.51 421.44 508.47 422.53 508.48 422.53 508.48 422.53 508.41 422.53 508.41 423.12 508.44 423.57 508.44 424.44 508.48 425.62 508.52 427.39 451.77 429.03 450.66 430.01 450 432.7 449.32 434.81 448.48 439.9 458.18 444.95 468.02 450.03 477.69 446.19 478.6 441.62 480.04 440.28 481.16 438.13 482.97 436.71 535.71 437.25 537.79 437.79 539.84 444.45 555.17 445.72 555.23 445.72 555.23 445.72 555.35 445.72 555.35 446.51 555.44 446.19 555.38 447.28 555.38 447.28 555.38 447.28 555.35 447.28 555.35 447.87 555.38 448.35 555.38 449.22 555.41 450.4 555.46 452.14 498.71 453.78 497.6 454.73 496.96 457.29 496.28 459.38 495.48 464.23 504.71 469.11 513.96 473.97 523.19 470.22 524.11 465.94 525.49 464.66 526.57 462.51 528.38 461.08 581.12 461.63 583.19 462.17 585.25 468.82 600.57 470.1 600.63 470.1 600.63 470.09 600.76 470.1 600.76 470.89 600.85 470.56 600.78 471.66 600.79 471.66 600.79 471.66 600.76 471.66 600.76 472.25 600.78 472.73 600.79 473.6 600.82 474.77 600.86 476.52 544.11 478.16 543.01 479.04 542.41 481.34 541.77 483.35 541.04 487.8 549.53 492.26 557.99 496.72 566.51 500.75 573.43 506.18 576.88 512.91 572.79 578.41 545.14 645.19 517.08 709.41 489.85 711.68 493.59 714.06 497.08 714.72 496.98 715.02 496.99 715.38 496.94 715.88 496.94 716.05 496.93 716.38 496.91 716.63 496.91 716.73 496.91 717.12 489.56 717.35 486.51 718.88 485.85 720.53 485.16 722.06 484.51 727.66 481.64 726.51 468.02 726.31 461.6L725.28 461.23 719.5 451.01C719.74 446.28 720.2 437.89 720.22 437.35 720.34 434.68 717.05 429.31 713.81 424.79 711.73 421.87 710.64 421.33 710.16 420.91 710.15 420.9 710.07 420.8 710.06 420.79 709.64 420.38 705.96 420.26 702.06 420.26L696.88 411.13C697.16 405.64 697.63 396.72 697.66 396.13 697.77 393.47 694.49 388.06 691.25 383.54 689.17 380.62 688.11 380.11 687.63 379.69 687.62 379.68 687.54 379.58 687.53 379.57 687.07 379.12 682.9 378.99 678.66 379.01L671.72 366.76C671.96 362.15 672.42 353.85 672.44 353.32 672.55 350.65 669.27 345.25 666.03 340.73 663.95 337.81 662.86 337.3 662.38 336.88 662.37 336.87 662.29 336.77 662.28 336.76 661.86 336.35 658.25 336.24 654.41 336.23L647.28 323.63C647.51 319.19 647.95 310.99 647.97 310.48 648.09 307.81 644.8 302.41 641.56 297.88 639.48 294.96 638.39 294.45 637.91 294.04 637.9 294.03 637.82 293.92 637.81 293.91 637.4 293.51 633.89 293.4 630.13 293.38L607.56 253.6z" id="path7292" style="fill:rgb(0, 0, 0);stroke-linecap:round;stroke-linejoin:round;stroke-width:6.25;stroke:rgb(0, 0, 0)"/><g id="g7293" transform="translate(-6.04899, 235.236)"><g id="g7294" transform="translate(72.2753, 126.48)"><path d="M63.81 277.33C62.37 278.73 69.3 293.06 70.84 293.99 72.26 294.85 84.96 296.61 85.5 298.5 86.03 300.33 93.04 397.44 95.19 397.49 97.2 397.53 97.27 397.39 98.3 397.39 99.27 397.39 104 303.97 104.17 300.01 104.36 295.65 98.98 286.84 93.69 279.44 90.1 274.42 88.24 273.69 87.52 272.99 85.94 271.45 65.1 276.08 63.81 277.33z" id="path7295" transform="matrix(0.611732, 0, 0, 0.611732, 590.294, -108.28)" fill="url(#linearGradient2566) rgb(0, 0, 0)"/><path d="M62.22 276.65C60.78 278.05 68.83 294.56 70.37 295.49 71.79 296.35 83.37 295.93 83.91 297.82 84.44 299.65 94.75 397.42 95.19 397.45 95.68 397.48 96.26 397.43 97.06 397.43 97.89 397.43 102.4 301.13 102.58 299.33 102.76 297.53 91.8 279.6 90.36 278.2 88.77 276.67 63.51 275.4 62.22 276.65z" id="path7296" transform="matrix(0.611732, 0, 0, 0.611732, 590.294, -108.28)" fill="url(#linearGradient2568) rgb(0, 0, 0)"/><path d="M57.07 279.06C57.18 279.89 65.88 296.24 67.28 297.02 68.34 297.63 81.7 296.55 82.24 298.44 82.77 300.27 79.6 372.19 80.05 373.89 80.94 377.28 93.28 397.91 95.21 397.52 97.13 397.12 100.73 302.53 100.91 300.72 101.09 298.92 100.49 296.48 98.56 296.17 96.81 295.89 57.09 274.17 57.06 275.23 57.02 276.77 57.02 278.6 57.07 279.06z" id="path7297" transform="matrix(0.611732, 0, 0, 0.611732, 590.294, -108.28)" fill="url(#linearGradient2570) rgb(0, 0, 0)"/><path d="M57.09 275.14C57.07 275.77 65.78 293.13 67.31 294.06 68.74 294.92 97.6 295.71 99.31 296.62 103.07 298.95 88.32 276.05 86.88 274.65 86.08 273.88 57.16 272.75 57.15 273.01 57.09 273.82 57.1 274.51 57.09 275.14z" id="path7298" transform="matrix(0.611732, 0, 0, 0.611732, 590.294, -108.28)" fill="url(#linearGradient2572) rgb(0, 0, 0)"/><path d="M57.24 272.65C56.78 273.14 67.44 291.95 68.06 292.34 68.64 292.72 99.97 295.8 100.15 294 100.33 292.19 89.02 274.33 87.57 272.94 85.99 271.4 57.73 272.13 57.24 272.65z" id="path7299" transform="matrix(0.611732, 0, 0, 0.611732, 590.294, -108.28)" fill="url(#linearGradient2574) rgb(0, 0, 0)"/></g><g id="g7300" transform="translate(49.7753, 85.2296)"><path d="M63.81 277.33C62.37 278.73 69.3 293.06 70.84 293.99 72.26 294.85 84.96 296.61 85.5 298.5 86.03 300.33 93.04 397.44 95.19 397.49 97.2 397.53 97.27 397.39 98.3 397.39 99.27 397.39 104 303.97 104.17 300.01 104.36 295.65 98.98 286.84 93.69 279.44 90.1 274.42 88.24 273.69 87.52 272.99 85.94 271.45 65.1 276.08 63.81 277.33z" id="path7301" transform="matrix(0.611732, 0, 0, 0.611732, 590.294, -108.28)" fill="url(#linearGradient2576) rgb(0, 0, 0)"/><path d="M62.22 276.65C60.78 278.05 68.83 294.56 70.37 295.49 71.79 296.35 83.37 295.93 83.91 297.82 84.44 299.65 94.75 397.42 95.19 397.45 95.68 397.48 96.26 397.43 97.06 397.43 97.89 397.43 102.4 301.13 102.58 299.33 102.76 297.53 91.8 279.6 90.36 278.2 88.77 276.67 63.51 275.4 62.22 276.65z" id="path7302" transform="matrix(0.611732, 0, 0, 0.611732, 590.294, -108.28)" fill="url(#linearGradient2578) rgb(0, 0, 0)"/><path d="M57.07 279.06C57.18 279.89 65.88 296.24 67.28 297.02 68.34 297.63 81.7 296.55 82.24 298.44 82.77 300.27 79.6 372.19 80.05 373.89 80.94 377.28 93.28 397.91 95.21 397.52 97.13 397.12 100.73 302.53 100.91 300.72 101.09 298.92 100.49 296.48 98.56 296.17 96.81 295.89 57.09 274.17 57.06 275.23 57.02 276.77 57.02 278.6 57.07 279.06z" id="path7303" transform="matrix(0.611732, 0, 0, 0.611732, 590.294, -108.28)" fill="url(#linearGradient2580) rgb(0, 0, 0)"/><path d="M57.09 275.14C57.07 275.77 65.78 293.13 67.31 294.06 68.74 294.92 97.6 295.71 99.31 296.62 103.07 298.95 88.32 276.05 86.88 274.65 86.08 273.88 57.16 272.75 57.15 273.01 57.09 273.82 57.1 274.51 57.09 275.14z" id="path7304" transform="matrix(0.611732, 0, 0, 0.611732, 590.294, -108.28)" fill="url(#linearGradient2582) rgb(0, 0, 0)"/><path d="M57.24 272.65C56.78 273.14 67.44 291.95 68.06 292.34 68.64 292.72 99.97 295.8 100.15 294 100.33 292.19 89.02 274.33 87.57 272.94 85.99 271.4 57.73 272.13 57.24 272.65z" id="path7305" transform="matrix(0.611732, 0, 0, 0.611732, 590.294, -108.28)" fill="url(#linearGradient2584) rgb(0, 0, 0)"/></g><g id="g7306" transform="translate(24.7753, 42.7296)"><path d="M63.81 277.33C62.37 278.73 69.3 293.06 70.84 293.99 72.26 294.85 84.96 296.61 85.5 298.5 86.03 300.33 93.04 397.44 95.19 397.49 97.2 397.53 97.27 397.39 98.3 397.39 99.27 397.39 104 303.97 104.17 300.01 104.36 295.65 98.98 286.84 93.69 279.44 90.1 274.42 88.24 273.69 87.52 272.99 85.94 271.45 65.1 276.08 63.81 277.33z" id="path7307" transform="matrix(0.611732, 0, 0, 0.611732, 590.294, -108.28)" fill="url(#linearGradient2586) rgb(0, 0, 0)"/><path d="M62.22 276.65C60.78 278.05 68.83 294.56 70.37 295.49 71.79 296.35 83.37 295.93 83.91 297.82 84.44 299.65 94.75 397.42 95.19 397.45 95.68 397.48 96.26 397.43 97.06 397.43 97.89 397.43 102.4 301.13 102.58 299.33 102.76 297.53 91.8 279.6 90.36 278.2 88.77 276.67 63.51 275.4 62.22 276.65z" id="path7308" transform="matrix(0.611732, 0, 0, 0.611732, 590.294, -108.28)" fill="url(#linearGradient2588) rgb(0, 0, 0)"/><path d="M57.07 279.06C57.18 279.89 65.88 296.24 67.28 297.02 68.34 297.63 81.7 296.55 82.24 298.44 82.77 300.27 79.6 372.19 80.05 373.89 80.94 377.28 93.28 397.91 95.21 397.52 97.13 397.12 100.73 302.53 100.91 300.72 101.09 298.92 100.49 296.48 98.56 296.17 96.81 295.89 57.09 274.17 57.06 275.23 57.02 276.77 57.02 278.6 57.07 279.06z" id="path7309" transform="matrix(0.611732, 0, 0, 0.611732, 590.294, -108.28)" fill="url(#linearGradient2590) rgb(0, 0, 0)"/><path d="M57.09 275.14C57.07 275.77 65.78 293.13 67.31 294.06 68.74 294.92 97.6 295.71 99.31 296.62 103.07 298.95 88.32 276.05 86.88 274.65 86.08 273.88 57.16 272.75 57.15 273.01 57.09 273.82 57.1 274.51 57.09 275.14z" id="path7310" transform="matrix(0.611732, 0, 0, 0.611732, 590.294, -108.28)" fill="url(#linearGradient2592) rgb(0, 0, 0)"/><path d="M57.24 272.65C56.78 273.14 67.44 291.95 68.06 292.34 68.64 292.72 99.97 295.8 100.15 294 100.33 292.19 89.02 274.33 87.57 272.94 85.99 271.4 57.73 272.13 57.24 272.65z" id="path7311" transform="matrix(0.611732, 0, 0, 0.611732, 590.294, -108.28)" fill="url(#linearGradient2594) rgb(0, 0, 0)"/></g><g id="g7312"><path d="M63.81 277.33C62.37 278.73 69.3 293.06 70.84 293.99 72.26 294.85 84.96 296.61 85.5 298.5 86.03 300.33 93.04 397.44 95.19 397.49 97.2 397.53 97.27 397.39 98.3 397.39 99.27 397.39 104 303.97 104.17 300.01 104.36 295.65 98.98 286.84 93.69 279.44 90.1 274.42 88.24 273.69 87.52 272.99 85.94 271.45 65.1 276.08 63.81 277.33z" id="path7313" transform="matrix(0.611732, 0, 0, 0.611732, 590.294, -108.28)" fill="url(#linearGradient1154) rgb(0, 0, 0)"/><path d="M62.22 276.65C60.78 278.05 68.83 294.56 70.37 295.49 71.79 296.35 83.37 295.93 83.91 297.82 84.44 299.65 94.75 397.42 95.19 397.45 95.68 397.48 96.26 397.43 97.06 397.43 97.89 397.43 102.4 301.13 102.58 299.33 102.76 297.53 91.8 279.6 90.36 278.2 88.77 276.67 63.51 275.4 62.22 276.65z" id="path7314" transform="matrix(0.611732, 0, 0, 0.611732, 590.294, -108.28)" fill="url(#linearGradient1115) rgb(0, 0, 0)"/><path d="M57.07 279.06C57.18 279.89 65.88 296.24 67.28 297.02 68.34 297.63 81.7 296.55 82.24 298.44 82.77 300.27 79.6 372.19 80.05 373.89 80.94 377.28 93.28 397.91 95.21 397.52 97.13 397.12 100.73 302.53 100.91 300.72 101.09 298.92 100.49 296.48 98.56 296.17 96.81 295.89 57.09 274.17 57.06 275.23 57.02 276.77 57.02 278.6 57.07 279.06z" id="path7315" transform="matrix(0.611732, 0, 0, 0.611732, 590.294, -108.28)" fill="url(#linearGradient1080) rgb(0, 0, 0)"/><path d="M57.09 275.14C57.07 275.77 65.78 293.13 67.31 294.06 68.74 294.92 97.6 295.71 99.31 296.62 103.07 298.95 88.32 276.05 86.88 274.65 86.08 273.88 57.16 272.75 57.15 273.01 57.09 273.82 57.1 274.51 57.09 275.14z" id="path7316" transform="matrix(0.611732, 0, 0, 0.611732, 590.294, -108.28)" fill="url(#linearGradient1070) rgb(0, 0, 0)"/><path d="M57.24 272.65C56.78 273.14 67.44 291.95 68.06 292.34 68.64 292.72 99.97 295.8 100.15 294 100.33 292.19 89.02 274.33 87.57 272.94 85.99 271.4 57.73 272.13 57.24 272.65z" id="path7317" transform="matrix(0.611732, 0, 0, 0.611732, 590.294, -108.28)" fill="url(#linearGradient1064) rgb(0, 0, 0)"/></g></g><path d="M512.92 572.78C582.63 543.36 654.13 513.35 722.07 484.51 727.66 481.64 726.51 468.01 726.32 461.59L392.89 343.37C393.15 352.38 393.44 368.14 397.18 376.24 430.29 440.58 463.54 503.09 496.72 566.52 500.76 573.45 506.19 576.87 512.92 572.78z" id="path7318" style="fill:url(#linearGradient1157) rgb(0, 0, 0);stroke-width:1.14"/><path d="M513.77 556.29C583.48 526.87 654.99 496.86 722.92 468.02 726.23 466.11 726.51 465.4 726.32 461.62L393.01 343.41C393.27 352.42 394.29 351.65 398.03 359.75 431.14 424.09 464.39 486.61 497.57 550.03 501.61 556.96 507.04 560.38 513.77 556.29z" id="path7319" style="fill:url(#linearGradient1134) rgb(0, 0, 0);stroke-width:1.14"/><path d="M506.54 553.57L725.4 461.43 607.57 253.61 393.82 343.77 506.54 553.57z" id="path7320" style="fill:url(#linearGradient1003) rgb(0, 0, 0);stroke-linecap:round;stroke-linejoin:round;stroke-width:2.15;stroke:url(#linearGradient1127) rgb(0, 0, 0)"/><g id="g7321" transform="translate(270.675, -79.351)" style="fill:none;stroke-opacity:0.1;stroke:rgb(255, 255, 255)"><path d="M201.63 441L219.67 433.21M223.25 434.36L241.28 426.58M242.35 429.84L260.39 422.05M233.3 428.33L251.34 420.55M230.79 425.31L248.83 417.53M217.72 427.32L235.75 419.54M258.94 443.91L276.98 436.13M259.45 443.91L277.48 436.13M259.45 443.91L277.48 436.13M269.5 408.22L287.54 400.44M260.45 432.85L278.49 425.07M260.45 432.85L278.49 425.07M240.84 426.32L258.88 418.53M237.83 425.31L255.86 417.53M250.4 414.75L268.43 406.97M250.4 414.25L268.43 406.47M227.27 422.3L245.31 414.51M227.27 422.3L245.31 414.51M199.12 430.34L217.15 422.56M199.12 430.34L217.15 422.56M235.31 452.46L253.35 444.68M236.82 452.46L254.86 444.68M196.1 457.99L214.14 450.21M196.1 458.49L214.14 450.71M177 456.98L195.03 449.2M177 456.98L195.03 449.2M185.54 450.95L203.58 443.17M185.54 462.01L203.58 454.23M185.54 466.03L203.58 458.25M172.97 447.43L191.01 439.65M172.97 444.92L191.01 437.14M249.39 397.66L267.43 389.88M249.39 397.16L267.43 389.38M198.11 420.28L216.15 412.5M197.61 421.29L215.65 413.51M216.71 412.24L234.75 404.46M216.71 410.73L234.75 402.95M269 421.79L287.03 414.01M271.01 419.78L289.05 412M287.6 423.8L305.64 416.02M296.65 429.84L314.69 422.05M298.16 395.65L316.19 387.87M300.17 392.63L318.2 384.85M264.47 401.18L282.51 393.4M268.5 421.29L286.53 413.51M266.48 429.33L284.52 421.55M291.12 415.76L309.16 407.98M275.03 424.81L293.07 417.03M226.27 452.96L244.3 445.18M199.62 442.91L217.66 435.13M238.33 436.37L256.37 428.59M245.37 436.37L263.41 428.59M250.4 437.38L268.43 429.6M265.98 459L284.02 451.21M250.9 465.03L268.94 457.25M230.29 463.52L248.32 455.74M213.19 461.51L231.23 453.73M196.6 440.39L214.64 432.61M198.61 436.37L216.65 428.59M234.81 421.79L252.85 414.01M262.97 421.79L281 414.01M276.04 424.81L294.07 417.03M249.89 406.71L267.93 398.93M241.85 407.72L259.89 399.93M290.62 378.05L308.65 370.27M288.61 376.04L306.64 368.26M232.3 390.12L250.33 382.34M231.8 390.12L249.83 382.34M185.04 410.23L203.08 402.45M185.54 410.23L203.58 402.45M176.49 436.88L194.53 429.09M185.04 441.9L203.08 434.12M180.01 439.89L198.05 432.11M232.8 403.19L250.84 395.41M233.3 402.19L251.34 394.4M235.31 398.16L253.35 390.38M235.31 397.66L253.35 389.88M199.12 419.28L217.15 411.5M194.59 418.27L212.63 410.49M221.24 401.68L239.27 393.9M222.75 401.68L240.78 393.9M174.99 417.77L193.02 409.99M175.99 417.77L194.03 409.99M264.98 450.45L283.01 442.67M264.98 450.45L283.01 442.67M296.15 447.43L314.18 439.65M298.16 456.48L316.19 448.7M296.15 459.5L314.18 451.72M208.17 498.71L226.2 490.93M187.05 493.68L205.09 485.9M185.04 491.17L203.08 483.39M184.03 486.65L202.07 478.86M256.93 480.61L274.97 472.83M266.99 480.61L285.02 472.83M204.65 476.59L222.68 468.81M201.63 470.56L219.67 462.78M301.17 441.9L319.21 434.12M311.23 441.9L329.26 434.12M316.26 449.95L334.29 442.16M270 508.26L288.04 500.48M260.95 510.28L278.99 502.49M249.89 506.76L267.93 498.97M244.87 506.76L262.9 498.97M288.61 495.7L306.64 487.91M280.56 491.67L298.6 483.89M303.18 476.09L321.22 468.31M300.17 475.08L318.2 467.3M299.16 472.07L317.2 464.28M326.81 481.62L344.85 473.84M334.86 483.63L352.89 475.85M330.84 480.11L348.87 472.33M331.34 479.61L349.37 471.83M315.75 440.9L333.79 433.11M316.76 441.4L334.8 433.62M313.74 419.78L331.78 412M308.72 420.79L326.75 413M301.68 420.79L319.71 413M298.66 479.61L316.7 471.83M305.2 478.1L323.23 470.32M228.78 481.12L246.82 473.33M229.28 480.61L247.32 472.83M231.8 477.6L249.83 469.81M238.83 486.65L256.87 478.86M227.77 493.68L245.81 485.9M233.81 513.29L251.84 505.51M242.35 547.48L260.39 539.7M238.33 547.48L256.37 539.7M217.22 539.43L235.25 531.65M288.61 526.87L306.64 519.08M287.1 525.86L305.13 518.08M231.29 519.32L249.33 511.54M233.3 524.85L251.34 517.07M234.81 529.38L252.85 521.6M295.64 517.82L313.68 510.03M310.73 483.63L328.76 475.85M310.73 483.63L328.76 475.85M319.78 489.66L337.81 481.88M311.73 495.7L329.77 487.91M325.81 502.73L343.84 494.95M292.63 514.3L310.66 506.51M291.62 514.3L309.66 506.51M228.28 517.31L246.31 509.53M206.16 506.25L224.19 498.47M203.14 542.45L221.18 534.67M203.14 542.95L221.18 535.17M203.14 542.95L221.18 535.17M202.64 537.93L220.67 530.14M193.59 539.94L211.62 532.15M247.38 508.77L265.42 500.98M246.88 507.76L264.91 499.98M274.53 549.49L292.56 541.71M271.51 542.95L289.55 535.17M233.3 553.01L251.34 545.23M231.8 556.03L249.83 548.24M207.16 557.53L225.2 549.75M207.16 579.65L225.2 571.87M232.3 573.62L250.33 565.84M233.3 581.66L251.34 573.88M242.35 587.7L260.39 579.92M245.37 589.71L263.41 581.93M243.36 588.7L261.39 580.92M218.22 587.2L236.26 579.41M219.23 590.21L237.26 582.43M218.72 566.08L236.76 558.3M246.88 578.15L264.91 570.36M254.92 579.15L272.96 571.37M314.25 555.52L332.28 547.74M315.25 552.51L333.29 544.72M285.59 569.6L303.62 561.82M281.06 569.6L299.1 561.82M266.48 559.54L284.52 551.76M261.96 560.05L280 552.26M289.61 534.91L307.65 527.13M294.64 536.92L312.67 529.14M313.74 537.93L331.78 530.14M350.95 538.93L368.98 531.15M345.92 533.9L363.95 526.12M343.91 518.32L361.94 510.54M342.9 518.32L360.94 510.54M311.23 506.25L329.26 498.47M333.35 526.36L351.39 518.58M339.38 524.35L357.42 516.57M325.81 513.29L343.84 505.51M321.79 511.78L339.82 504M354.46 485.64L372.5 477.86M361 492.18L379.04 484.39M362.51 491.67L380.54 483.89M351.95 500.72L369.99 492.94M348.93 498.71L366.97 490.93M321.79 458.49L339.82 450.71M325.31 462.51L343.34 454.73M336.87 470.06L354.9 462.27M337.37 470.06L355.41 462.27M342.4 474.58L360.43 466.8M344.41 475.59L362.45 467.8M347.43 476.59L365.46 468.81M385.63 520.83L403.67 513.05M385.13 520.33L403.17 512.55M363.51 518.82L381.55 511.04M366.53 527.87L384.57 520.09M369.55 531.39L387.58 523.61M369.04 531.39L387.08 523.61M358.99 524.35L377.03 516.57M322.29 544.46L340.33 536.68M322.29 544.46L340.33 536.68M335.86 551.5L353.9 543.72M336.87 554.52L354.9 546.73M336.87 555.02L354.9 547.24M308.72 562.06L326.75 554.28M304.69 563.06L322.73 555.28M279.05 588.7L297.09 580.92M270 591.72L288.04 583.94M324.3 549.49L342.34 541.71M323.29 548.99L341.33 541.2M311.23 546.98L329.26 539.19M284.08 559.04L302.12 551.26M276.04 561.05L294.07 553.27M259.45 552.51L277.48 544.72M263.47 552.51L281.5 544.72M260.45 527.37L278.49 519.59M259.45 530.39L277.48 522.6M258.94 530.89L276.98 523.11M253.92 515.81L271.95 508.02M252.41 515.81L270.44 508.02M250.9 494.19L268.94 486.41M250.9 497.2L268.94 489.42M250.4 497.71L268.43 489.92M250.4 497.2L268.43 489.42M248.89 497.71L266.92 489.92M206.66 523.35L224.69 515.56M206.66 523.35L224.69 515.56M206.66 523.35L224.69 515.56M209.17 515.81L227.21 508.02M209.17 515.3L227.21 507.52M212.69 510.78L230.73 503M212.69 510.78L230.73 503M179.51 480.11L197.55 472.33M182.53 481.12L200.56 473.33M182.53 481.12L200.56 473.33M162.92 459L180.96 451.21M157.89 440.39L175.93 432.61M159.9 444.42L177.94 436.63M158.9 441.4L176.93 433.62M199.12 432.35L217.15 424.57M209.17 437.38L227.21 429.6M219.23 450.91L237.26 443.13M212.19 476.09L230.22 468.31M213.19 476.59L231.23 468.81M214.2 479.61L232.24 471.83M293.63 441.4L311.67 433.62M283.58 414.25L301.61 406.47M254.92 381.57L272.96 373.79M256.93 382.58L274.97 374.8M257.94 384.59L275.97 376.81M281.57 399.67L299.6 391.89M281.57 398.67L299.6 390.88M285.09 392.13L303.12 384.35M292.12 395.15L310.16 387.36M301.17 404.2L319.21 396.41M302.68 405.2L320.72 397.42M304.69 400.17L322.73 392.39M305.2 400.68L323.23 392.89M285.59 455.48L303.62 447.69M278.05 449.95L296.08 442.16M280.06 457.99L298.09 450.21M271.51 476.09L289.55 468.31M271.51 476.09L289.55 468.31M267.49 474.08L285.53 466.3M257.94 463.02L275.97 455.24M257.94 463.02L275.97 455.24M258.44 465.03L276.48 457.25M250.4 463.02L268.43 455.24M244.36 456.98L262.4 449.2M258.94 493.68L276.98 485.9M259.95 487.65L277.99 479.87M267.99 480.61L286.03 472.83M265.98 517.31L284.02 509.53M268.5 515.3L286.53 507.52M288.1 516.81L306.14 509.03M291.12 506.76L309.16 498.97M278.05 484.64L296.08 476.85M302.18 522.34L320.22 514.56M305.7 524.85L323.73 517.07M262.97 534.91L281 527.13M244.87 533.9L262.9 526.12M237.83 533.9L255.86 526.12M223.75 553.51L241.79 545.73M227.77 555.52L245.81 547.74M241.85 563.57L259.89 555.78M227.27 561.56L245.31 553.77M227.27 561.05L245.31 553.27M300.67 553.01L318.71 545.23M300.67 553.51L318.71 545.73M298.66 549.99L316.7 542.21M350.44 505.75L368.48 497.97M349.94 505.75L367.98 497.97M340.89 499.22L358.93 491.43M210.18 505.75L228.21 497.97M216.21 504.75L234.25 496.96M245.87 514.3L263.91 506.51M245.87 514.3L263.91 506.51M242.86 507.76L260.89 499.98M186.05 502.73L204.08 494.95M207.16 520.83L225.2 513.05M218.22 527.87L236.26 520.09M290.62 484.64L308.65 476.85M296.65 460.5L314.69 452.72" id="path7322" stroke-width="0.25"/></g><g id="g7629" transform="translate(595.675, -103.101)"><g id="g7630"><path d="M-5.68 386.15C-21.13 388.58-34.97 397.33-49.49 403.24 -78.53 415.06-108.92 425.32-135.41 441.74 -149.23 450.31-157.06 462.66-149.12 478.4 -144.06 488.42-132.72 505.99-128.27 518.65 -126.67 523.21-110.67 528.05-109.32 532.69 -107.66 538.39-116.35 563.52-111.78 570.84 -102.78 585.24-91.29 599.77-82.96 611.34 -76.62 620.14-53.04 625.36-43.68 620.83 -5.52 602.35 39.15 577.33 76.82 560.84 89.93 555.1 78.75 532.19 74.48 519.59 71.83 511.8 51.15 489.88 40.03 470.3 27.3 447.89 26.34 424.77 16.12 404.53 12.43 397.22 2.88 384.8-5.68 386.15z" id="path7631" fill="rgb(0, 0, 0)"/><path d="M-6.14 383.87C-21.59 386.3-35.44 395.04-49.95 400.95 -78.99 412.77-109.38 423.03-135.87 439.46 -149.69 448.03-157.52 460.37-149.58 476.11 -144.53 486.13-133.18 503.71-128.74 516.37 -127.14 520.93-111.13 525.76-109.78 530.4 -108.12 536.1-116.81 561.23-112.24 568.56 -103.24 582.95-91.75 597.49-83.42 609.05 -77.08 617.86-53.5 623.07-44.14 618.54 -5.99 600.06 38.69 575.04 76.36 558.55 89.47 552.81 78.29 529.9 74.01 517.3 71.37 509.51 50.69 487.59 39.57 468.01 26.84 445.6 25.88 422.48 15.66 402.24 11.97 394.94 2.42 382.52-6.14 383.87z" id="path7632" fill="url(#linearGradient1414) rgb(0, 0, 0)"/></g><g id="g7633" transform="translate(-28.75, 10)"><path d="M6.23 578.14C19.97 572.1 34.29 565.23 48.02 559.16 60.54 553.51 72.47 548.17 84.91 542.33 87.19 541.25 90.49 539.13 92.71 537.94 95.66 535.89 94.55 531.1 92.92 527.94 92.07 526.07 90.44 524.66 88.61 523.81 78.93 518.22 68.97 513.08 59.68 506.84 54.44 503.26 49.47 499.28 44.97 494.81 42.17 492.04 39.54 489.06 37.43 485.72 33.31 479.33 30.78 471.95 29.96 464.41 28.94 456.85 29.28 449.2 30.13 441.64 30.81 435.02 31.76 428.41 33.11 421.89 34.42 415.28 35.99 408.72 37.1 402.08 37.64 398.5 37.01 394.68 35.02 391.62 33.27 389.13 29.75 388.06 26.95 389.28 23.79 390.38 20.77 391.85 17.68 393.13 -1.29 401.28-20.2 409.59-39.26 417.53 -50.54 422.25-61.82 426.98-73.02 431.9 -78.46 434.3-83.84 436.83-89.09 439.6 -91.27 440.82-95.58 442.23-96.85 444.47 -98.8 447.77-99.76 451.7-99.92 455.46 -100.15 460.88-100.12 466.31-100.2 471.74 -100.21 477.05-100.36 488.49-96.44 490.93 -92.53 493.36-82.13 489.17-79.46 487.1 -76.79 485.03-70.72 469.69-65.24 467.37 -59.77 465.06-47.62 463.05-38.89 465.12 -34.41 466.2-30.11 468.24-26.68 471.35 -23.56 474.22-23.58 477.87-22.44 481.99 -21.45 486.15-22.86 490.49-21.68 494.62 -20.97 497.59-19 500.11-16.6 501.92 -14.97 503.25-13.1 504.51-12.33 506.56 -11.11 509.66-8.11 512.97-8.03 516.28 -7.9 519.39-8.09 522.53-8.75 525.58 -9.71 530.11-11.83 534.4-14.98 537.81 -18.68 541.91-23.59 544.76-28.82 546.43 -32.05 547.53-35.42 548.35-38.85 548.44 -43.47 548.12-49.95 544.78-54.61 544.8 -55.34 544.89-55.94 544.35-56.67 544.35 -58.8 544.14-60.83 545.16-62.55 546.32 -64.47 547.73-66.05 549.68-66.78 551.97 -67.29 553.99-66.4 555.99-65.55 557.78 -64.3 560.66-49.14 581.55-42.39 588.86 -40.96 590.26-36.93 592.77-35.03 593.48 -33.14 594.04-28.71 593.58-27 592.88 -26.21 592.54-4.04 582.56 6.23 578.14z" id="path7634" fill="rgb(0, 0, 0)"/><path d="M6.46 576.5C20.2 570.46 34.52 563.59 48.25 557.52 60.77 551.87 72.7 546.53 85.14 540.7 87.42 539.61 90.72 537.49 92.95 536.3 95.89 534.25 94.78 529.47 93.15 526.3 92.31 524.44 90.68 523.03 88.84 522.17 79.16 516.58 69.2 511.44 59.91 505.2 54.68 501.62 49.7 497.64 45.2 493.17 42.4 490.4 39.77 487.42 37.66 484.08 33.55 477.69 31.01 470.31 30.19 462.77 29.18 455.22 29.51 447.56 30.36 440.01 31.04 433.38 31.99 426.77 33.35 420.25 34.65 413.64 36.22 407.09 37.33 400.44 37.87 396.86 37.24 393.04 35.25 389.98 33.5 387.49 29.99 386.42 27.18 387.64 24.02 388.74 21 390.21 17.92 391.49 -1.06 399.64-19.97 407.95-39.03 415.89 -50.31 420.61-61.59 425.34-72.79 430.26 -78.22 432.66-83.61 435.19-88.86 437.96 -91.04 439.18-95.35 440.59-96.62 442.83 -98.57 446.13-99.53 450.06-99.69 453.82 -99.92 459.24-99.89 464.67-99.96 470.1 -99.98 475.41-100.13 486.85-96.21 489.29 -92.3 491.72-81.9 487.53-79.23 485.46 -76.55 483.39-70.49 468.05-65.01 465.73 -59.53 463.42-47.39 461.41-38.66 463.48 -34.18 464.56-29.88 466.6-26.45 469.71 -23.33 472.58-23.35 476.23-22.21 480.35 -21.22 484.51-22.63 488.86-21.45 492.98 -20.74 495.95-18.77 498.47-16.37 500.28 -14.74 501.61-12.87 502.88-12.1 504.92 -10.88 508.02-7.87 511.33-7.8 514.64 -7.67 517.75-7.86 520.89-8.52 523.94 -9.47 528.47-11.6 532.76-14.75 536.17 -18.45 540.27-23.36 543.12-28.59 544.8 -31.82 545.89-35.19 546.71-38.61 546.8 -43.24 546.48-49.72 543.14-54.38 543.16 -55.11 543.25-55.71 542.72-56.44 542.71 -58.57 542.5-60.6 543.52-62.32 544.68 -64.24 546.1-65.82 548.04-66.55 550.33 -67.06 552.35-66.17 554.35-65.32 556.14 -64.06 559.02-48.91 579.91-42.15 587.22 -40.73 588.62-36.7 591.13-34.8 591.84 -32.91 592.4-28.47 591.94-26.76 591.24 -25.98 590.9-3.81 580.92 6.46 576.5z" id="path7635" fill="url(#linearGradient1411) rgb(0, 0, 0)"/></g></g><g id="g7636" transform="translate(-6.04899, 235.236)"><path d="M213.78 408.8C213.78 407.79 186.27 401.26 184.59 402.84 182.91 404.42 186.13 516.03 187.84 516.25 189.55 516.47 190.18 516.31 192.1 516.38 194.02 516.46 196.92 423.7 199.6 421.89 202.28 420.08 213.27 418.14 213.5 415.08 213.73 412.01 213.78 409.81 213.78 408.8z" id="path7637" transform="matrix(0.611732, 0, 0, 0.611732, 288.618, -87.9805)" fill="rgb(118, 117, 0)"/><path d="M213.84 406.7C213.83 405.96 181.27 396.26 179.59 397.84 177.91 399.42 185.11 516.15 186.41 516.3 187.71 516.45 187.19 516.36 188.98 516.36 190.84 516.37 191.6 420.46 194.28 418.65 196.96 416.84 213.73 412.85 213.78 409.76 213.83 406.66 213.85 407.44 213.84 406.7z" id="path7638" transform="matrix(0.611732, 0, 0, 0.611732, 288.618, -87.9805)" fill="url(#linearGradient2596) rgb(0, 0, 0)"/><path d="M202.44 388.14C201.15 386.89 181.24 391.86 177.5 395.02 173.98 397.97 171.68 484.21 172.57 487.6 173.46 491 184.56 516.63 186.48 516.23 188.41 515.83 189.5 417.63 192.18 415.83 194.87 414.02 213.66 410 213.89 406.93 214.12 403.87 203.73 389.39 202.44 388.14z" id="path7639" transform="matrix(0.611732, 0, 0, 0.611732, 288.618, -87.9805)" fill="url(#linearGradient2598) rgb(0, 0, 0)"/></g><path d="M562.37 384.79C560.05 386.86 551.62 400.92 555.2 402.55 575.01 411.55 602.93 426.66 627.48 438.38L637.84 423.64 562.37 384.79z" id="path7640" fill="url(#linearGradient9527) rgb(0, 0, 0)"/><path d="M580.29 302.79L569.53 324.87C564.32 350.36 553.04 393.84 553.89 401.34 554.26 404.62 559.13 388.24 564.8 384.1L580.29 302.79z" id="path7641" fill="url(#linearGradient8281) rgb(0, 0, 0)"/><path id="path7642" d="M483.57 390.36C481.99 392.24 473.77 392.39 473.23 390.21 471.06 381.43 473.01 365.73 472.9 355.16 474.08 353.77 477.07 344.29 480.3 342.99 479.88 354.05 480.14 360.63 479.72 371.69 484.28 347.82 493.59 340.84 507.58 334.29 530.69 324.39 557.45 312.9 580.56 303 578.04 306.45 572.43 322.12 569.9 325.57 550.63 335.14 527.25 344.25 507.97 353.83 495.51 360.93 494.9 376.85 483.57 390.36z" style="fill-opacity:0.75;fill:url(#radialGradient6417) rgb(0, 0, 0)"/><path id="path7643" d="M539.12 494.62C535.89 496.49 532.81 495.74 529.95 492.55 527.57 489.89 505.33 463.48 505.96 461.09 506.61 458.61 510.89 450.96 512.7 450.77L536.95 472.88 649.56 425.5C651.81 427.37 656.58 440.92 653.99 442.35 620.11 461.11 542.46 492.68 539.12 494.62z" fill="url(#linearGradient10775) rgb(0, 0, 0)"/><path d="M592.89 294.53C595 293.64 597.95 304.73 599.64 307.5 599.87 309.09 588.03 362.32 581.29 392.81L570.65 384.18 592.89 294.53z" id="path7644" fill="url(#linearGradient12018) rgb(0, 0, 0)"/><path d="M594.77 295.92C595.45 297.51 593.4 307.61 585.48 342.11 579.87 366.39 575.2 386.76 575.04 387.32 574.83 387.98 588.33 395.1 612.57 407.09 633.38 417.37 650.47 426.21 650.51 426.68 650.54 427.32 634.55 434.41 593.09 452.17L535.62 476.77 523.39 464.05C516.64 457.06 511.07 451.28 511.04 451.21 510.98 451.07 511.5 450.77 512.19 450.47 513.02 450.12 514.36 450.77 515.98 452.28 519.74 455.9 528.57 458.97 535.81 459.3 550.32 460.03 560.84 456.75 603.08 438.33L634.8 424.51 597.7 406.11C577.35 395.96 560.58 387.3 560.57 386.9 560.53 386.42 564.67 368.24 569.79 346.46 574.81 324.63 578.94 306.62 578.85 306.41 578.58 305.79 517.71 332.18 510.63 336.03 496.14 343.95 487.57 352.35 483.43 362.7 482.09 366.05 480.98 369.95 481.03 371.4 481.04 372.94 480.53 374.23 479.77 374.55L478.52 375.08 478.52 369.53C478.46 366.54 478.54 359.48 478.5 353.87L478.54 343.65 536.19 318.71 593.88 293.85 594.77 295.92z" id="path7645" fill="rgb(180, 180, 180)"/><path d="M512.5 450.5C525.04 462.09 542.03 461.56 552.54 458.18" id="path7646" style="fill:none;stroke-width:1;stroke:url(#linearGradient1412) rgb(0, 0, 0)"/><path id="path7647" d="M595.01 297.61L574.79 387.4 650.02 427.04 537.17 475.98" style="fill:none;stroke-linecap:round;stroke-linejoin:round;stroke-width:1;stroke:url(#linearGradient1410) rgb(0, 0, 0)"/><path id="path7648" d="M578.43 306.51L502.79 339.27C492.41 345.07 482.43 359.76 479.74 374.46" style="fill:none;stroke-width:1;stroke:url(#linearGradient1413) rgb(0, 0, 0)"/><g id="g7649" transform="translate(18.4356, 278.975)"><path d="M213.78 408.8C213.78 407.79 186.27 401.26 184.59 402.84 182.91 404.42 186.13 516.03 187.84 516.25 189.55 516.47 190.18 516.31 192.1 516.38 194.02 516.46 196.92 423.7 199.6 421.89 202.28 420.08 213.27 418.14 213.5 415.08 213.73 412.01 213.78 409.81 213.78 408.8z" id="path7650" transform="matrix(0.611732, 0, 0, 0.611732, 288.618, -87.9805)" fill="rgb(118, 117, 0)"/><path d="M213.84 406.7C213.83 405.96 181.27 396.26 179.59 397.84 177.91 399.42 185.11 516.15 186.41 516.3 187.71 516.45 187.19 516.36 188.98 516.36 190.84 516.37 191.6 420.46 194.28 418.65 196.96 416.84 213.73 412.85 213.78 409.76 213.83 406.66 213.85 407.44 213.84 406.7z" id="path7651" transform="matrix(0.611732, 0, 0, 0.611732, 288.618, -87.9805)" fill="url(#linearGradient2600) rgb(0, 0, 0)"/><path d="M202.44 388.14C201.15 386.89 181.24 391.86 177.5 395.02 173.98 397.97 171.68 484.21 172.57 487.6 173.46 491 184.56 516.63 186.48 516.23 188.41 515.83 189.5 417.63 192.18 415.83 194.87 414.02 213.66 410 213.89 406.93 214.12 403.87 203.73 389.39 202.44 388.14z" id="path7652" transform="matrix(0.611732, 0, 0, 0.611732, 288.618, -87.9805)" fill="url(#linearGradient2602) rgb(0, 0, 0)"/></g><g id="g7653" transform="translate(43.4356, 326.475)"><path d="M213.78 408.8C213.78 407.79 186.27 401.26 184.59 402.84 182.91 404.42 186.13 516.03 187.84 516.25 189.55 516.47 190.18 516.31 192.1 516.38 194.02 516.46 196.92 423.7 199.6 421.89 202.28 420.08 213.27 418.14 213.5 415.08 213.73 412.01 213.78 409.81 213.78 408.8z" id="path7654" transform="matrix(0.611732, 0, 0, 0.611732, 288.618, -87.9805)" fill="rgb(118, 117, 0)"/><path d="M213.84 406.7C213.83 405.96 181.27 396.26 179.59 397.84 177.91 399.42 185.11 516.15 186.41 516.3 187.71 516.45 187.19 516.36 188.98 516.36 190.84 516.37 191.6 420.46 194.28 418.65 196.96 416.84 213.73 412.85 213.78 409.76 213.83 406.66 213.85 407.44 213.84 406.7z" id="path7655" transform="matrix(0.611732, 0, 0, 0.611732, 288.618, -87.9805)" fill="url(#linearGradient2604) rgb(0, 0, 0)"/><path d="M202.44 388.14C201.15 386.89 181.24 391.86 177.5 395.02 173.98 397.97 171.68 484.21 172.57 487.6 173.46 491 184.56 516.63 186.48 516.23 188.41 515.83 189.5 417.63 192.18 415.83 194.87 414.02 213.66 410 213.89 406.93 214.12 403.87 203.73 389.39 202.44 388.14z" id="path7656" transform="matrix(0.611732, 0, 0, 0.611732, 288.618, -87.9805)" fill="url(#linearGradient2606) rgb(0, 0, 0)"/></g><g id="g7657" transform="translate(67.1856, 373.975)"><path d="M213.78 408.8C213.78 407.79 186.27 401.26 184.59 402.84 182.91 404.42 186.13 516.03 187.84 516.25 189.55 516.47 190.18 516.31 192.1 516.38 194.02 516.46 196.92 423.7 199.6 421.89 202.28 420.08 213.27 418.14 213.5 415.08 213.73 412.01 213.78 409.81 213.78 408.8z" id="path7658" transform="matrix(0.611732, 0, 0, 0.611732, 288.618, -87.9805)" fill="rgb(118, 117, 0)"/><path d="M213.84 406.7C213.83 405.96 181.27 396.26 179.59 397.84 177.91 399.42 185.11 516.15 186.41 516.3 187.71 516.45 187.19 516.36 188.98 516.36 190.84 516.37 191.6 420.46 194.28 418.65 196.96 416.84 213.73 412.85 213.78 409.76 213.83 406.66 213.85 407.44 213.84 406.7z" id="path7659" transform="matrix(0.611732, 0, 0, 0.611732, 288.618, -87.9805)" fill="url(#linearGradient24822) rgb(0, 0, 0)"/><path d="M202.44 388.14C201.15 386.89 181.24 391.86 177.5 395.02 173.98 397.97 171.68 484.21 172.57 487.6 173.46 491 184.56 516.63 186.48 516.23 188.41 515.83 189.5 417.63 192.18 415.83 194.87 414.02 213.66 410 213.89 406.93 214.12 403.87 203.73 389.39 202.44 388.14z" id="path7660" transform="matrix(0.611732, 0, 0, 0.611732, 288.618, -87.9805)" fill="url(#linearGradient24821) rgb(0, 0, 0)"/></g><path d="M593.9 293.85L536.21 318.72 478.52 343.66 478.52 344.72C476.03 347.82 473.86 354.03 472.9 355.16 473.01 365.72 471.07 381.44 473.24 390.22 473.78 392.4 482.01 392.23 483.58 390.35 494.92 376.84 495.49 360.92 507.96 353.82 527.05 344.33 550.14 335.32 569.3 325.85 564.02 351.44 553.06 393.93 553.9 401.35 553.96 401.86 554.16 401.77 554.43 401.44 554.54 401.96 554.78 402.37 555.21 402.57 572.04 410.21 594.58 422.05 616.08 432.69L603.08 438.35C560.84 456.76 550.32 460.04 535.8 459.32 528.56 458.99 519.74 455.9 515.99 452.28 514.37 450.78 513.01 450.12 512.18 450.47 511.49 450.77 510.96 451.08 511.02 451.22 511.02 451.22 511.47 451.7 511.49 451.72 509.44 453.71 506.5 459.05 505.96 461.1 505.33 463.48 527.58 489.88 529.96 492.53 532.82 495.72 535.89 496.5 539.12 494.63 542.46 492.69 620.11 461.1 653.99 442.35 656.33 441.05 652.73 430.35 650.33 426.78 650.34 426.78 650.52 426.69 650.52 426.69 650.52 426.68 650.19 426.51 650.18 426.5 649.98 426.23 649.73 425.65 649.55 425.5L648.87 425.78C646.56 424.23 631.82 416.61 612.55 407.1 597.93 399.86 587.8 394.65 581.65 391.32 588.43 360.63 599.88 309.07 599.65 307.5 598.42 305.49 596.52 299.17 594.77 296.16 594.76 296.12 594.79 295.94 594.77 295.91L593.9 293.85z" id="path7661" style="fill-opacity:0.16;fill:rgb(255, 255, 255)"/></g></svg>