<?xml version="1.0" encoding="UTF-8" standalone="no"?>
<svg
   xmlns:dc="http://purl.org/dc/elements/1.1/"
   xmlns:cc="http://creativecommons.org/ns#"
   xmlns:rdf="http://www.w3.org/1999/02/22-rdf-syntax-ns#"
   xmlns:svg="http://www.w3.org/2000/svg"
   xmlns="http://www.w3.org/2000/svg"
   viewBox="0 0 833.74664 414.33334"
   height="414.33334"
   width="833.74664"
   xml:space="preserve"
   id="svg2"
   version="1.1"><metadata
     id="metadata8"><rdf:RDF><cc:Work
         rdf:about=""><dc:format>image/svg+xml</dc:format><dc:type
           rdf:resource="http://purl.org/dc/dcmitype/StillImage" /></cc:Work></rdf:RDF></metadata><defs
     id="defs6" /><g
     transform="matrix(1.3333333,0,0,-1.3333333,0,414.33333)"
     id="g10"><g
       transform="scale(0.1)"
       id="g12"><path
         id="path14"
         style="fill:none;stroke:#000000;stroke-width:9.15254021;stroke-linecap:butt;stroke-linejoin:miter;stroke-miterlimit:10;stroke-dasharray:none;stroke-opacity:1"
         d="m 2.79688,3.8125 v 0 L 182.797,122.797 359.746,238.73 l 173.899,106.778 173.898,100.68 170.848,94.574 170.849,85.426 167.8,79.32 164.74,73.222 161.69,67.118 161.7,61.015 158.64,51.867 155.6,45.76 152.54,39.66 152.54,33.56 149.49,24.41 149.49,21.36 143.39,12.2 140.34,12.2 131.19,12.21 128.13,6.1 122.04,6.1 115.93,3.05 h 216.61 l 100.68,-3.05 94.58,-6.1 88.47,-9.15 82.37,-9.16 76.27,-15.25 73.23,-15.26 67.11,-15.25 61.02,-21.36 112.88,-39.66 106.78,-30.51 100.68,-30.504 94.58,-21.356 88.47,-15.253 82.37,-12.207 73.22,-6.102 h 70.17 l 36.61,3.051 h 39.66 l 94.58,6.101 112.88,9.157 134.24,9.152 152.54,9.152 173.9,15.254 192.2,15.254 210.51,18.301" /><path
         id="path16"
         style="fill:none;stroke:#000000;stroke-width:9.15254021;stroke-linecap:butt;stroke-linejoin:miter;stroke-miterlimit:10;stroke-dasharray:none;stroke-opacity:1"
         d="m 1119.41,1611.61 v 0 l -91.53,-152.54 -79.321,-134.24 -64.067,-125.08 -51.863,-112.89 -39.664,-97.622 -24.406,-88.476 -15.254,-73.219 3.05,-61.016 12.204,-45.765 27.457,-36.61 39.664,-21.355 54.914,-9.152 64.066,3.05 82.38,15.254 91.52,27.457 106.78,39.66 222.71,91.528 216.61,82.371 213.56,70.172 207.46,64.063 201.36,51.87 198.3,45.76 192.2,33.56 189.16,24.41 186.1,15.25 189.15,6.1 192.2,-6.1 195.26,-12.2 198.3,-27.46 201.36,-33.56 201.36,-45.76 204.4,-57.97 100.68,-27.46 94.58,-18.3 85.42,-9.152 79.32,-3.051 73.22,6.101 64.07,12.202 57.97,21.36 51.86,30.5 45.76,36.61 39.66,42.72 30.51,54.91 24.41,61.02 18.3,70.17 9.16,76.27 3.05,85.43 -3.05,91.52 -12.21,94.58 -24.4,91.52 -36.61,85.43 -51.87,85.42 -61.02,76.27 -73.22,76.27 -88.47,70.17 -97.63,67.12 -112.88,61.02 -122.03,57.96 -137.29,54.92 -149.49,51.86 -161.7,45.76 -170.84,42.71 -186.11,36.62 -198.3,33.56 -201.36,27.45 -195.25,15.26 h -186.11 l -180,-9.15 -176.94,-18.31 -164.75,-33.56 -161.69,-45.76 -155.6,-54.92 -146.44,-67.11 -143.39,-82.38 -134.24,-91.52 -128.13,-100.68 -118.98,-115.93 -115.94,-128.14 -106.77,-137.29 -100.68,-149.49" /><g
         transform="scale(10)"
         id="g18"><text
           id="text22"
           style="font-variant:normal;font-weight:normal;font-size:27.86160088px;font-family:CMR10;-inkscape-font-specification:CMR10;writing-mode:lr-tb;fill:#000000;fill-opacity:1;fill-rule:nonzero;stroke:none"
           transform="matrix(1,0,0,-1,94.2457,191.975)"><tspan
             id="tspan20"
             y="0"
             x="0">Γ</tspan></text>
<text
           id="text26"
           style="font-variant:normal;font-weight:normal;font-size:20.26300049px;font-family:CMMI8;-inkscape-font-specification:CMMI8;writing-mode:lr-tb;fill:#000000;fill-opacity:1;fill-rule:nonzero;stroke:none"
           transform="matrix(1,0,0,-1,112.8559,188.00898)"><tspan
             id="tspan24"
             y="0"
             x="0">g</tspan></text>
<text
           id="text30"
           style="font-variant:normal;font-weight:normal;font-size:27.86160088px;font-family:CMR10;-inkscape-font-specification:CMR10;writing-mode:lr-tb;fill:#000000;fill-opacity:1;fill-rule:nonzero;stroke:none"
           transform="matrix(1,0,0,-1,377.9749,48.58498)"><tspan
             id="tspan28"
             y="0"
             x="0">Γ</tspan></text>
<text
           id="text34"
           style="font-variant:normal;font-weight:normal;font-size:20.26300049px;font-family:CMMI8;-inkscape-font-specification:CMMI8;writing-mode:lr-tb;fill:#000000;fill-opacity:1;fill-rule:nonzero;stroke:none"
           transform="matrix(1,0,0,-1,395.6698,44.61896)"><tspan
             id="tspan32"
             y="0"
             x="0">s</tspan></text>
<text
           id="text40"
           style="font-variant:normal;font-weight:normal;font-size:27.86160088px;font-family:CMR10;-inkscape-font-specification:CMR10;writing-mode:lr-tb;fill:#000000;fill-opacity:1;fill-rule:nonzero;stroke:none"
           transform="matrix(1,0,0,-1,387.12722,193.49996)"><tspan
             id="tspan36"
             y="0"
             x="0">Ω</tspan><tspan
             id="tspan38"
             y="79.321899"
             x="219.661">Σ</tspan></text>
</g><path
         id="path42"
         style="fill:none;stroke:#000000;stroke-width:12.20339966;stroke-linecap:butt;stroke-linejoin:miter;stroke-miterlimit:10;stroke-dasharray:none;stroke-opacity:1"
         d="m 4695,3033.3 v 0 l -448.47,-512.54" /><path
         id="path44"
         style="fill:none;stroke:#000000;stroke-width:12.20339966;stroke-linecap:butt;stroke-linejoin:miter;stroke-miterlimit:10;stroke-dasharray:none;stroke-opacity:1"
         d="m 4344.15,2526.86 v 0 l -97.62,-6.1 -6.1,97.63" /><path
         id="path46"
         style="fill:none;stroke:#000000;stroke-width:12.20339966;stroke-linecap:butt;stroke-linejoin:miter;stroke-miterlimit:10;stroke-dasharray:none;stroke-opacity:1"
         d="m 4463.14,3103.48 v 0 l -448.48,-512.55" /><path
         id="path48"
         style="fill:none;stroke:#000000;stroke-width:12.20339966;stroke-linecap:butt;stroke-linejoin:miter;stroke-miterlimit:10;stroke-dasharray:none;stroke-opacity:1"
         d="m 4112.29,2597.04 v 0 l -97.63,-6.11 -6.1,97.63" /><path
         id="path50"
         style="fill:none;stroke:#000000;stroke-width:12.20339966;stroke-linecap:butt;stroke-linejoin:miter;stroke-miterlimit:10;stroke-dasharray:none;stroke-opacity:1"
         d="m 4914.66,2981.44 v 0 L 4466.19,2468.9" /><path
         id="path52"
         style="fill:none;stroke:#000000;stroke-width:12.20339966;stroke-linecap:butt;stroke-linejoin:miter;stroke-miterlimit:10;stroke-dasharray:none;stroke-opacity:1"
         d="m 4563.81,2475 v 0 l -97.62,-6.1 -6.1,97.63" /><g
         transform="scale(10)"
         id="g54"><text
           id="text58"
           style="font-variant:normal;font-weight:normal;font-size:27.86160088px;font-family:CMMI10;-inkscape-font-specification:CMMI10;writing-mode:lr-tb;fill:#000000;fill-opacity:1;fill-rule:nonzero;stroke:none"
           transform="matrix(1,0,0,-1,493.907,275.873)"><tspan
             id="tspan56"
             y="0"
             x="0">g</tspan></text>
</g><path
         id="path60"
         style="fill:none;stroke:#000000;stroke-width:12.20339966;stroke-linecap:butt;stroke-linejoin:miter;stroke-miterlimit:10;stroke-dasharray:none;stroke-opacity:1"
         d="m 2684.49,2200.43 v 0 l -3.05,-680.34" /><path
         id="path62"
         style="fill:none;stroke:#000000;stroke-width:12.20339966;stroke-linecap:butt;stroke-linejoin:miter;stroke-miterlimit:10;stroke-dasharray:none;stroke-opacity:1"
         d="m 2751.61,1587.2 v 0 l -70.17,-67.11 -70.17,70.16" /><path
         id="path64"
         style="fill:none;stroke:#000000;stroke-width:12.20339966;stroke-linecap:butt;stroke-linejoin:miter;stroke-miterlimit:10;stroke-dasharray:none;stroke-opacity:1"
         d="m 2486.19,2096.7 v 0 l -3.05,-680.34" /><path
         id="path66"
         style="fill:none;stroke:#000000;stroke-width:12.20339966;stroke-linecap:butt;stroke-linejoin:miter;stroke-miterlimit:10;stroke-dasharray:none;stroke-opacity:1"
         d="m 2553.3,1483.48 v 0 l -70.16,-67.12 -70.18,67.12" /><path
         id="path68"
         style="fill:none;stroke:#000000;stroke-width:12.20339966;stroke-linecap:butt;stroke-linejoin:miter;stroke-miterlimit:10;stroke-dasharray:none;stroke-opacity:1"
         d="m 2263.47,1996.02 v 0 l -3.05,-680.34" /><path
         id="path70"
         style="fill:none;stroke:#000000;stroke-width:12.20339966;stroke-linecap:butt;stroke-linejoin:miter;stroke-miterlimit:10;stroke-dasharray:none;stroke-opacity:1"
         d="m 2330.59,1385.85 v 0 l -70.17,-70.17 -70.17,70.17" /><g
         transform="scale(10)"
         id="g72"><text
           id="text76"
           style="font-variant:normal;font-weight:normal;font-size:27.86160088px;font-family:CMMI10;-inkscape-font-specification:CMMI10;writing-mode:lr-tb;fill:#000000;fill-opacity:1;fill-rule:nonzero;stroke:none"
           transform="matrix(1,0,0,-1,243.737,228.585)"><tspan
             id="tspan74"
             y="0"
             x="0">f</tspan></text>
</g></g></g></svg>