<svg xmlns="http://www.w3.org/2000/svg" viewBox="0 0 833.74664 414.33334" height="414.333" width="833.747"><path d="M.373 413.825l24-15.865 23.593-15.457 23.187-14.237 23.186-13.424 22.78-12.61 22.78-11.39 22.373-10.576 21.965-9.763 21.559-8.95 21.56-8.135 21.152-6.915 20.747-6.102 20.338-5.288 20.339-4.474 19.932-3.255 19.932-2.848 19.119-1.627 18.712-1.626 17.492-1.628 17.084-.814 16.272-.813 15.457-.407h28.881l13.424.407 12.611.813 11.796 1.22 10.983 1.222 10.169 2.033 9.764 2.035 8.948 2.033 8.136 2.848 15.05 5.288 14.238 4.068 13.424 4.067 12.61 2.848 11.797 2.033 10.982 1.628 9.763.814h9.356l4.881-.407h5.288l12.611-.814 15.05-1.22 17.9-1.22 20.338-1.221 23.187-2.034 25.626-2.034 28.068-2.44" fill="none" stroke="#000" stroke-width="1.22" stroke-miterlimit="10"/><path d="M149.255 199.452l-12.204 20.339-10.576 17.898-8.543 16.678-6.915 15.052-5.288 13.016-3.254 11.797-2.034 9.762.406 8.136 1.628 6.102 3.66 4.881 5.289 2.847 7.322 1.22 8.542-.406 10.984-2.034 12.203-3.66 14.237-5.289 29.695-12.204 28.881-10.982 28.475-9.357 27.661-8.541 26.848-6.916 26.44-6.102 25.627-4.474 25.221-3.255 24.813-2.033 25.22-.814 25.627.814 26.035 1.626 26.44 3.662 26.848 4.474 26.848 6.102 27.253 7.729 13.424 3.661 12.61 2.44 11.39 1.22 10.576.407 9.763-.813 8.542-1.627 7.73-2.848 6.914-4.067 6.102-4.881 5.288-5.696 4.068-7.321 3.254-8.136 2.44-9.356 1.222-10.17.406-11.39-.406-12.203-1.628-12.61-3.254-12.203-4.881-11.391-6.916-11.39-8.136-10.169-9.763-10.169-11.796-9.356-13.017-8.95-15.05-8.135-16.271-7.728-18.306-7.323-19.932-6.915-21.56-6.101-22.778-5.695-24.815-4.882-26.44-4.475-26.848-3.66-26.033-2.035h-24.815l-24 1.22-23.592 2.442-21.967 4.474-21.558 6.102-20.747 7.322-19.525 8.948-19.119 10.984-17.899 12.203-17.084 13.424-15.864 15.457-15.458 17.086-14.236 18.305-13.424 19.932" fill="none" stroke="#000" stroke-width="1.22" stroke-miterlimit="10"/><g font-weight="400"><text style="-inkscape-font-specification:CMR10" transform="translate(125.66 158.367) scale(1.33333)" font-size="27.862" font-family="CMR10"><tspan y="0" x="0">Γ</tspan></text><text style="-inkscape-font-specification:CMMI8" transform="translate(150.475 163.655) scale(1.33333)" font-size="20.263" font-family="CMMI8"><tspan y="0" x="0">g</tspan></text><text style="-inkscape-font-specification:CMR10" transform="translate(503.967 349.553) scale(1.33333)" font-size="27.862" font-family="CMR10"><tspan y="0" x="0">Γ</tspan></text><text style="-inkscape-font-specification:CMMI8" transform="translate(527.56 354.841) scale(1.33333)" font-size="20.263" font-family="CMMI8"><tspan y="0" x="0">s</tspan></text><text style="-inkscape-font-specification:CMR10" transform="translate(516.17 156.333) scale(1.33333)" font-size="27.862" font-family="CMR10"><tspan y="0" x="0">Ω</tspan><tspan y="79.322" x="219.661">Σ</tspan></text></g><path d="M626 9.893l-59.796 68.339m13.016-.813l-13.016.813-.813-13.017M595.085.536l-59.797 68.34m13.017-.815l-13.017.815-.813-13.017m120.813-39.051l-59.796 68.339m13.016-.814l-13.016.814-.813-13.018" fill="none" stroke="#000" stroke-width="1.627" stroke-miterlimit="10"/><text style="-inkscape-font-specification:CMMI10" transform="translate(658.543 46.503) scale(1.33333)" font-weight="400" font-size="27.862" font-family="CMMI10"><tspan y="0" x="0">g</tspan></text><path d="M357.932 120.943l-.407 90.712m9.356-8.948l-9.356 8.948-9.356-9.355m-16.677-67.527l-.407 90.712m9.355-8.949l-9.355 8.95-9.357-8.95m-19.932-68.339l-.407 90.712m9.356-9.356l-9.356 9.356-9.356-9.356" fill="none" stroke="#000" stroke-width="1.627" stroke-miterlimit="10"/><text style="-inkscape-font-specification:CMMI10" transform="translate(324.983 109.553) scale(1.33333)" font-weight="400" font-size="27.862" font-family="CMMI10"><tspan y="0" x="0">f</tspan></text></svg>