<?xml version="1.0" encoding="UTF-8" standalone="no"?>
<svg
   xmlns:dc="http://purl.org/dc/elements/1.1/"
   xmlns:cc="http://creativecommons.org/ns#"
   xmlns:rdf="http://www.w3.org/1999/02/22-rdf-syntax-ns#"
   xmlns:svg="http://www.w3.org/2000/svg"
   xmlns="http://www.w3.org/2000/svg"
   viewBox="0 0 401.33334 132"
   height="132"
   width="401.33334"
   xml:space="preserve"
   id="svg2"
   version="1.1"><metadata
     id="metadata8"><rdf:RDF><cc:Work
         rdf:about=""><dc:format>image/svg+xml</dc:format><dc:type
           rdf:resource="http://purl.org/dc/dcmitype/StillImage" /></cc:Work></rdf:RDF></metadata><defs
     id="defs6"><clipPath
       id="clipPath20"
       clipPathUnits="userSpaceOnUse"><path
         id="path18"
         d="M 2.39844,0 H 3009.9984 V 985 H 2.39844 Z" /></clipPath></defs><g
     transform="matrix(1.3333333,0,0,-1.3333333,0,132)"
     id="g10"><g
       transform="scale(0.1)"
       id="g12"><g
         id="g14"><g
           clip-path="url(#clipPath20)"
           id="g16"><path
             id="path22"
             style="fill:none;stroke:#000000;stroke-width:2.4000001;stroke-linecap:butt;stroke-linejoin:miter;stroke-miterlimit:10;stroke-dasharray:none;stroke-opacity:1"
             d="m 1588.8,227.801 19.2,15.597" /><path
             id="path24"
             style="fill:none;stroke:#000000;stroke-width:2.4000001;stroke-linecap:butt;stroke-linejoin:miter;stroke-miterlimit:10;stroke-dasharray:none;stroke-opacity:1"
             d="m 1628.4,257.801 19.2,15.597" /><path
             id="path26"
             style="fill:none;stroke:#000000;stroke-width:2.4000001;stroke-linecap:butt;stroke-linejoin:miter;stroke-miterlimit:10;stroke-dasharray:none;stroke-opacity:1"
             d="m 1666.8,289 20.4,14.398" /><path
             id="path28"
             style="fill:none;stroke:#000000;stroke-width:2.4000001;stroke-linecap:butt;stroke-linejoin:miter;stroke-miterlimit:10;stroke-dasharray:none;stroke-opacity:1"
             d="m 1706.4,319 19.2,15.602" /><path
             id="path30"
             style="fill:none;stroke:#000000;stroke-width:2.4000001;stroke-linecap:butt;stroke-linejoin:miter;stroke-miterlimit:10;stroke-dasharray:none;stroke-opacity:1"
             d="m 1746,350.199 19.2,14.403" /><path
             id="path32"
             style="fill:none;stroke:#000000;stroke-width:2.4000001;stroke-linecap:butt;stroke-linejoin:miter;stroke-miterlimit:10;stroke-dasharray:none;stroke-opacity:1"
             d="m 1785.6,380.199 19.2,15.602" /><path
             id="path34"
             style="fill:none;stroke:#000000;stroke-width:2.4000001;stroke-linecap:butt;stroke-linejoin:miter;stroke-miterlimit:10;stroke-dasharray:none;stroke-opacity:1"
             d="m 1824,410.199 20.4,15.602" /><path
             id="path36"
             style="fill:none;stroke:#000000;stroke-width:2.4000001;stroke-linecap:butt;stroke-linejoin:miter;stroke-miterlimit:10;stroke-dasharray:none;stroke-opacity:1"
             d="m 1863.6,441.398 20.4,14.403" /><path
             id="path38"
             style="fill:none;stroke:#000000;stroke-width:2.4000001;stroke-linecap:butt;stroke-linejoin:miter;stroke-miterlimit:10;stroke-dasharray:none;stroke-opacity:1"
             d="M 1903.2,471.398 1922.4,487" /><g
             transform="scale(10)"
             id="g40"><text
               id="text44"
               style="font-variant:normal;font-weight:normal;font-size:10.95890045px;font-family:CMMI10;-inkscape-font-specification:CMMI10;writing-mode:lr-tb;fill:#000000;fill-opacity:1;fill-rule:nonzero;stroke:none"
               transform="matrix(1,0,0,-1,78.9602,55.0602)"><tspan
                 id="tspan42"
                 y="0"
                 x="0">ρ</tspan></text>
</g><path
             id="path46"
             style="fill:none;stroke:#000000;stroke-width:4.80000019;stroke-linecap:butt;stroke-linejoin:miter;stroke-miterlimit:10;stroke-dasharray:none;stroke-opacity:1"
             d="m -92.3984,712.602 v 0 L 25.1992,645.398 142.801,583 l 116.398,-57.602 115.199,-52.796 115.204,-48 112.796,-42 L 715.199,345.398 826.801,313 937.199,285.398 1047.6,262.602 l 108,-16.801 108,-12 106.8,-7.199 105.6,-2.403 105.6,3.602 104.4,7.199 99.6,10.801 94.8,9.597 90,9.602 82.8,9.602 76.8,8.398 72,8.398 66,7.204 60,8.398 54,6 48,7.199 42,6 37.2,6 31.2,6 24,4.801 19.2,4.801 13.2,3.597 10.8,6 10.8,7.204 10.8,10.796 10.8,12 10.8,15.602 10.8,16.801 10.8,20.398 12,22.801 10.8,25.199 12,27.602 10.8,28.801 12,32.398 12,36 12,37.199 12,39.602 12,42" /><path
             id="path48"
             style="fill:none;stroke:#000000;stroke-width:6;stroke-linecap:butt;stroke-linejoin:miter;stroke-miterlimit:10;stroke-dasharray:none;stroke-opacity:1"
             d="m 2173.2,109 v 0 l -111.6,133.199" /><path
             id="path50"
             style="fill:none;stroke:#000000;stroke-width:6;stroke-linecap:butt;stroke-linejoin:miter;stroke-miterlimit:10;stroke-dasharray:none;stroke-opacity:1"
             d="m 2056.8,194.199 v 0 l 4.8,48 48,-4.801" /><path
             id="path52"
             style="fill:none;stroke:#000000;stroke-width:6;stroke-linecap:butt;stroke-linejoin:miter;stroke-miterlimit:10;stroke-dasharray:none;stroke-opacity:1"
             d="m 1956,741.398 v 0 L 1742.4,589" /><path
             id="path54"
             style="fill:none;stroke:#000000;stroke-width:6;stroke-linecap:butt;stroke-linejoin:miter;stroke-miterlimit:10;stroke-dasharray:none;stroke-opacity:1"
             d="m 1789.2,580.602 v 0 l -46.8,8.398 7.2,46.801" /><g
             transform="scale(10)"
             id="g56"><text
               id="text60"
               style="font-variant:normal;font-weight:normal;font-size:10.95890045px;font-family:CMR10;-inkscape-font-specification:CMR10;writing-mode:lr-tb;fill:#000000;fill-opacity:1;fill-rule:nonzero;stroke:none"
               transform="matrix(1,0,0,-1,46.8,88.0602)"><tspan
                 id="tspan58"
                 y="0"
                 x="0">Ω</tspan></text>
<text
               id="text64"
               style="font-variant:normal;font-weight:normal;font-size:10.95890045px;font-family:CMSY10;-inkscape-font-specification:CMSY10;writing-mode:lr-tb;fill:#000000;fill-opacity:1;fill-rule:nonzero;stroke:none"
               transform="matrix(1,0,0,-1,56.51992,88.0602)"><tspan
                 id="tspan62"
                 y="0"
                 x="0">⊂</tspan></text>
<text
               id="text68"
               style="font-variant:normal;font-weight:normal;font-size:10.95890045px;font-family:bbm10;-inkscape-font-specification:bbm10;writing-mode:lr-tb;fill:#000000;fill-opacity:1;fill-rule:nonzero;stroke:none"
               transform="matrix(1,0,0,-1,66.96012,88.0602)"><tspan
                 id="tspan66"
                 y="0"
                 x="0">R</tspan></text>
<text
               id="text72"
               style="font-variant:normal;font-weight:normal;font-size:7.97010994px;font-family:CMMI8;-inkscape-font-specification:CMMI8;writing-mode:lr-tb;fill:#000000;fill-opacity:1;fill-rule:nonzero;stroke:none"
               transform="matrix(1,0,0,-1,75.96012,91.90004)"><tspan
                 id="tspan70"
                 y="0"
                 x="0">N</tspan></text>
<text
               id="text76"
               style="font-variant:normal;font-weight:normal;font-size:10.95890045px;font-family:CMMI10;-inkscape-font-specification:CMMI10;writing-mode:lr-tb;fill:#000000;fill-opacity:1;fill-rule:nonzero;stroke:none"
               transform="matrix(1,0,0,-1,133.31992,35.98014)"><tspan
                 id="tspan74"
                 y="0"
                 x="0">D</tspan></text>
</g><path
             id="path78"
             style="fill:none;stroke:#000000;stroke-width:2.4000001;stroke-linecap:butt;stroke-linejoin:miter;stroke-miterlimit:10;stroke-dasharray:none;stroke-opacity:1"
             d="m 1084.8,267.398 v 0 L 1098,289 l 14.4,20.398 14.4,20.403 15.6,20.398 16.8,19.199 16.8,18 18,18 19.2,16.801 19.2,16.801 19.2,15.602 21.6,14.398 20.4,14.398 21.6,13.204 22.8,12 22.8,10.796 22.8,9.602 24,9.602 24,8.398 24,7.199 24,6 25.2,6 25.2,3.602 25.2,3.597 25.2,2.403 25.2,1.199 h 50.4 l 25.2,-2.398 25.2,-2.403 25.2,-4.801 25.2,-4.796 24,-6 24,-6 24,-8.403 24,-8.398 24,-9.602 22.8,-10.801 21.6,-12 22.8,-12 21.6,-14.398 20.4,-14.398 20.4,-14.403 19.2,-16.801 19.2,-15.597 18,-18 18,-18 16.8,-19.199 15.6,-19.204 15.6,-20.398 14.4,-21.602 8.4,-12" /><g
             transform="scale(10)"
             id="g80"><text
               id="text84"
               style="font-variant:normal;font-weight:normal;font-size:10.95890045px;font-family:CMMI10;-inkscape-font-specification:CMMI10;writing-mode:lr-tb;fill:#000000;fill-opacity:1;fill-rule:nonzero;stroke:none"
               transform="matrix(1,0,0,-1,218.4,2.86016)"><tspan
                 id="tspan82"
                 y="0"
                 x="0">∂</tspan></text>
<text
               id="text88"
               style="font-variant:normal;font-weight:normal;font-size:7.97010994px;font-family:CMR8;-inkscape-font-specification:CMR8;writing-mode:lr-tb;fill:#000000;fill-opacity:1;fill-rule:nonzero;stroke:none"
               transform="matrix(1,0,0,-1,224.16016,1.3)"><tspan
                 id="tspan86"
                 y="0"
                 x="0">2</tspan></text>
<text
               id="text92"
               style="font-variant:normal;font-weight:normal;font-size:10.95890045px;font-family:CMMI10;-inkscape-font-specification:CMMI10;writing-mode:lr-tb;fill:#000000;fill-opacity:1;fill-rule:nonzero;stroke:none"
               transform="matrix(1,0,0,-1,228.48008,2.86016)"><tspan
                 id="tspan90"
                 y="0"
                 x="0">D</tspan></text>
</g><path
             id="path94"
             style="fill:none;stroke:#000000;stroke-width:2.4000001;stroke-linecap:butt;stroke-linejoin:miter;stroke-miterlimit:10;stroke-dasharray:none;stroke-opacity:1"
             d="m 985.199,711.398 24.001,-6" /><path
             id="path96"
             style="fill:none;stroke:#000000;stroke-width:2.4000001;stroke-linecap:butt;stroke-linejoin:miter;stroke-miterlimit:10;stroke-dasharray:none;stroke-opacity:1"
             d="m 1034.4,699.398 25.2,-7.199" /><path
             id="path98"
             style="fill:none;stroke:#000000;stroke-width:2.4000001;stroke-linecap:butt;stroke-linejoin:miter;stroke-miterlimit:10;stroke-dasharray:none;stroke-opacity:1"
             d="m 1084.8,687.398 25.2,-6" /><path
             id="path100"
             style="fill:none;stroke:#000000;stroke-width:2.4000001;stroke-linecap:butt;stroke-linejoin:miter;stroke-miterlimit:10;stroke-dasharray:none;stroke-opacity:1"
             d="m 1135.2,676.602 4.8,-1.204 20.4,-3.597" /><path
             id="path102"
             style="fill:none;stroke:#000000;stroke-width:2.4000001;stroke-linecap:butt;stroke-linejoin:miter;stroke-miterlimit:10;stroke-dasharray:none;stroke-opacity:1"
             d="m 1186.8,667 25.2,-4.801" /><path
             id="path104"
             style="fill:none;stroke:#000000;stroke-width:2.4000001;stroke-linecap:butt;stroke-linejoin:miter;stroke-miterlimit:10;stroke-dasharray:none;stroke-opacity:1"
             d="M 1237.2,658.602 1262.4,655" /><path
             id="path106"
             style="fill:none;stroke:#000000;stroke-width:2.4000001;stroke-linecap:butt;stroke-linejoin:miter;stroke-miterlimit:10;stroke-dasharray:none;stroke-opacity:1"
             d="m 1287.6,651.398 7.2,-1.199 19.2,-2.398" /><path
             id="path108"
             style="fill:none;stroke:#000000;stroke-width:2.4000001;stroke-linecap:butt;stroke-linejoin:miter;stroke-miterlimit:10;stroke-dasharray:none;stroke-opacity:1"
             d="m 1339.2,644.199 26.4,-2.398" /><path
             id="path110"
             style="fill:none;stroke:#000000;stroke-width:2.4000001;stroke-linecap:butt;stroke-linejoin:miter;stroke-miterlimit:10;stroke-dasharray:none;stroke-opacity:1"
             d="M 1390.8,639.398 1416,637" /><path
             id="path112"
             style="fill:none;stroke:#000000;stroke-width:2.4000001;stroke-linecap:butt;stroke-linejoin:miter;stroke-miterlimit:10;stroke-dasharray:none;stroke-opacity:1"
             d="m 1442.4,635.801 8.4,-1.199 16.8,-1.204" /><path
             id="path114"
             style="fill:none;stroke:#000000;stroke-width:2.4000001;stroke-linecap:butt;stroke-linejoin:miter;stroke-miterlimit:10;stroke-dasharray:none;stroke-opacity:1"
             d="M 1494,632.199 1519.2,631" /><path
             id="path116"
             style="fill:none;stroke:#000000;stroke-width:2.4000001;stroke-linecap:butt;stroke-linejoin:miter;stroke-miterlimit:10;stroke-dasharray:none;stroke-opacity:1"
             d="m 1545.6,631 h 25.2" /><path
             id="path118"
             style="fill:none;stroke:#000000;stroke-width:2.4000001;stroke-linecap:butt;stroke-linejoin:miter;stroke-miterlimit:10;stroke-dasharray:none;stroke-opacity:1"
             d="m 1597.2,629.801 h 9.6 l 15.6,1.199" /><path
             id="path120"
             style="fill:none;stroke:#000000;stroke-width:2.4000001;stroke-linecap:butt;stroke-linejoin:miter;stroke-miterlimit:10;stroke-dasharray:none;stroke-opacity:1"
             d="M 1648.8,631 H 1674" /><path
             id="path122"
             style="fill:none;stroke:#000000;stroke-width:2.4000001;stroke-linecap:butt;stroke-linejoin:miter;stroke-miterlimit:10;stroke-dasharray:none;stroke-opacity:1"
             d="m 1700.4,632.199 25.2,1.199" /><path
             id="path124"
             style="fill:none;stroke:#000000;stroke-width:2.4000001;stroke-linecap:butt;stroke-linejoin:miter;stroke-miterlimit:10;stroke-dasharray:none;stroke-opacity:1"
             d="m 1752,635.801 h 10.8 l 14.4,1.199" /><path
             id="path126"
             style="fill:none;stroke:#000000;stroke-width:2.4000001;stroke-linecap:butt;stroke-linejoin:miter;stroke-miterlimit:10;stroke-dasharray:none;stroke-opacity:1"
             d="m 1802.4,639.398 26.4,2.403" /><path
             id="path128"
             style="fill:none;stroke:#000000;stroke-width:2.4000001;stroke-linecap:butt;stroke-linejoin:miter;stroke-miterlimit:10;stroke-dasharray:none;stroke-opacity:1"
             d="m 1854,644.199 26.4,3.602" /><path
             id="path130"
             style="fill:none;stroke:#000000;stroke-width:2.4000001;stroke-linecap:butt;stroke-linejoin:miter;stroke-miterlimit:10;stroke-dasharray:none;stroke-opacity:1"
             d="m 1905.6,650.199 14.4,2.403 10.8,1.199" /><path
             id="path132"
             style="fill:none;stroke:#000000;stroke-width:2.4000001;stroke-linecap:butt;stroke-linejoin:miter;stroke-miterlimit:10;stroke-dasharray:none;stroke-opacity:1"
             d="m 1957.2,657.398 25.2,4.801" /><path
             id="path134"
             style="fill:none;stroke:#000000;stroke-width:2.4000001;stroke-linecap:butt;stroke-linejoin:miter;stroke-miterlimit:10;stroke-dasharray:none;stroke-opacity:1"
             d="m 2007.6,665.801 25.2,4.801" /><path
             id="path136"
             style="fill:none;stroke:#000000;stroke-width:2.4000001;stroke-linecap:butt;stroke-linejoin:miter;stroke-miterlimit:10;stroke-dasharray:none;stroke-opacity:1"
             d="m 2058,675.398 19.2,3.602 6,1.199" /><path
             id="path138"
             style="fill:none;stroke:#000000;stroke-width:2.4000001;stroke-linecap:butt;stroke-linejoin:miter;stroke-miterlimit:10;stroke-dasharray:none;stroke-opacity:1"
             d="M 2108.4,686.199 2133.6,691" /><path
             id="path140"
             style="fill:none;stroke:#000000;stroke-width:2.4000001;stroke-linecap:butt;stroke-linejoin:miter;stroke-miterlimit:10;stroke-dasharray:none;stroke-opacity:1"
             d="m 2158.8,697 25.2,6" /><path
             id="path142"
             style="fill:none;stroke:#000000;stroke-width:2.4000001;stroke-linecap:butt;stroke-linejoin:miter;stroke-miterlimit:10;stroke-dasharray:none;stroke-opacity:1"
             d="m 2209.2,710.199 25.2,6" /><path
             id="path144"
             style="fill:none;stroke:#000000;stroke-width:2.4000001;stroke-linecap:butt;stroke-linejoin:miter;stroke-miterlimit:10;stroke-dasharray:none;stroke-opacity:1"
             d="m 826.801,313 8.398,22.801" /><path
             id="path146"
             style="fill:none;stroke:#000000;stroke-width:2.4000001;stroke-linecap:butt;stroke-linejoin:miter;stroke-miterlimit:10;stroke-dasharray:none;stroke-opacity:1"
             d="m 843.602,359.801 9.597,22.801" /><path
             id="path148"
             style="fill:none;stroke:#000000;stroke-width:2.4000001;stroke-linecap:butt;stroke-linejoin:miter;stroke-miterlimit:10;stroke-dasharray:none;stroke-opacity:1"
             d="M 861.602,406.602 870,429.398" /><path
             id="path150"
             style="fill:none;stroke:#000000;stroke-width:2.4000001;stroke-linecap:butt;stroke-linejoin:miter;stroke-miterlimit:10;stroke-dasharray:none;stroke-opacity:1"
             d="m 878.398,453.398 8.403,22.801" /><path
             id="path152"
             style="fill:none;stroke:#000000;stroke-width:2.4000001;stroke-linecap:butt;stroke-linejoin:miter;stroke-miterlimit:10;stroke-dasharray:none;stroke-opacity:1"
             d="m 896.398,500.199 8.403,24" /><path
             id="path154"
             style="fill:none;stroke:#000000;stroke-width:2.4000001;stroke-linecap:butt;stroke-linejoin:miter;stroke-miterlimit:10;stroke-dasharray:none;stroke-opacity:1"
             d="m 913.199,547 8.403,24" /><path
             id="path156"
             style="fill:none;stroke:#000000;stroke-width:2.4000001;stroke-linecap:butt;stroke-linejoin:miter;stroke-miterlimit:10;stroke-dasharray:none;stroke-opacity:1"
             d="m 931.199,593.801 8.403,24" /><path
             id="path158"
             style="fill:none;stroke:#000000;stroke-width:2.4000001;stroke-linecap:butt;stroke-linejoin:miter;stroke-miterlimit:10;stroke-dasharray:none;stroke-opacity:1"
             d="m 948,640.602 8.398,24" /><path
             id="path160"
             style="fill:none;stroke:#000000;stroke-width:2.4000001;stroke-linecap:butt;stroke-linejoin:miter;stroke-miterlimit:10;stroke-dasharray:none;stroke-opacity:1"
             d="m 964.801,687.398 9.597,24" /><g
             transform="scale(10)"
             id="g162"><text
               id="text166"
               style="font-variant:normal;font-weight:normal;font-size:10.95890045px;font-family:CMMI10;-inkscape-font-specification:CMMI10;writing-mode:lr-tb;fill:#000000;fill-opacity:1;fill-rule:nonzero;stroke:none"
               transform="matrix(1,0,0,-1,186.6,33.4602)"><tspan
                 id="tspan164"
                 y="0"
                 x="0">R</tspan></text>
</g><path
             id="path168"
             style="fill:none;stroke:#000000;stroke-width:6;stroke-linecap:butt;stroke-linejoin:miter;stroke-miterlimit:10;stroke-dasharray:none;stroke-opacity:1"
             d="m 1612.8,229 c 0,13.254 -10.75,24 -24,24 -13.25,0 -24,-10.746 -24,-24 0,-13.254 10.75,-24 24,-24 13.25,0 24,10.746 24,24" /><path
             id="path170"
             style="fill:#000000;fill-opacity:1;fill-rule:evenodd;stroke:none"
             d="m 1612.8,229 c 0,13.254 -10.75,24 -24,24 -13.25,0 -24,-10.746 -24,-24 0,-13.254 10.75,-24 24,-24 13.25,0 24,10.746 24,24" /><path
             id="path172"
             style="fill:none;stroke:#000000;stroke-width:1.20000005;stroke-linecap:butt;stroke-linejoin:miter;stroke-miterlimit:10;stroke-dasharray:none;stroke-opacity:1"
             d="m 1612.8,229 c 0,13.254 -10.75,24 -24,24 -13.25,0 -24,-10.746 -24,-24 0,-13.254 10.75,-24 24,-24 13.25,0 24,10.746 24,24" /><g
             transform="scale(10)"
             id="g174"><text
               id="text178"
               style="font-variant:normal;font-weight:normal;font-size:10.95890045px;font-family:CMMI10;-inkscape-font-specification:CMMI10;writing-mode:lr-tb;fill:#000000;fill-opacity:1;fill-rule:nonzero;stroke:none"
               transform="matrix(1,0,0,-1,193.56,77.3801)"><tspan
                 id="tspan176"
                 y="0"
                 x="0">∂</tspan></text>
<text
               id="text182"
               style="font-variant:normal;font-weight:normal;font-size:7.97010994px;font-family:CMR8;-inkscape-font-specification:CMR8;writing-mode:lr-tb;fill:#000000;fill-opacity:1;fill-rule:nonzero;stroke:none"
               transform="matrix(1,0,0,-1,199.43969,75.81994)"><tspan
                 id="tspan180"
                 y="0"
                 x="0">1</tspan></text>
<text
               id="text188"
               style="font-variant:normal;font-weight:normal;font-size:10.95890045px;font-family:CMMI10;-inkscape-font-specification:CMMI10;writing-mode:lr-tb;fill:#000000;fill-opacity:1;fill-rule:nonzero;stroke:none"
               transform="matrix(1,0,0,-1,203.63969,77.3801)"><tspan
                 id="tspan184"
                 y="0"
                 x="0">D</tspan><tspan
                 id="tspan186"
                 y="64.919899"
                 x="-47.639801">x</tspan></text>
<text
               id="text192"
               style="font-variant:normal;font-weight:normal;font-size:7.97010994px;font-family:CMR8;-inkscape-font-specification:CMR8;writing-mode:lr-tb;fill:#000000;fill-opacity:1;fill-rule:nonzero;stroke:none"
               transform="matrix(1,0,0,-1,162.23973,10.90004)"><tspan
                 id="tspan190"
                 y="0"
                 x="0">0</tspan></text>
</g><path
             id="path194"
             style="fill:none;stroke:#000000;stroke-width:2.4000001;stroke-linecap:butt;stroke-linejoin:miter;stroke-miterlimit:10;stroke-dasharray:none;stroke-opacity:1"
             d="m 2328,307 -4.8,22.801" /><path
             id="path196"
             style="fill:none;stroke:#000000;stroke-width:2.4000001;stroke-linecap:butt;stroke-linejoin:miter;stroke-miterlimit:10;stroke-dasharray:none;stroke-opacity:1"
             d="m 2319.6,352.602 -4.8,24" /><path
             id="path198"
             style="fill:none;stroke:#000000;stroke-width:2.4000001;stroke-linecap:butt;stroke-linejoin:miter;stroke-miterlimit:10;stroke-dasharray:none;stroke-opacity:1"
             d="m 2310,399.398 -3.6,22.801" /><path
             id="path200"
             style="fill:none;stroke:#000000;stroke-width:2.4000001;stroke-linecap:butt;stroke-linejoin:miter;stroke-miterlimit:10;stroke-dasharray:none;stroke-opacity:1"
             d="m 2301.6,445 -3.6,24" /><path
             id="path202"
             style="fill:none;stroke:#000000;stroke-width:2.4000001;stroke-linecap:butt;stroke-linejoin:miter;stroke-miterlimit:10;stroke-dasharray:none;stroke-opacity:1"
             d="m 2293.2,491.801 -4.8,22.801" /><path
             id="path204"
             style="fill:none;stroke:#000000;stroke-width:2.4000001;stroke-linecap:butt;stroke-linejoin:miter;stroke-miterlimit:10;stroke-dasharray:none;stroke-opacity:1"
             d="m 2284.8,538.602 -4.8,22.796" /><path
             id="path206"
             style="fill:none;stroke:#000000;stroke-width:2.4000001;stroke-linecap:butt;stroke-linejoin:miter;stroke-miterlimit:10;stroke-dasharray:none;stroke-opacity:1"
             d="m 2276.4,584.199 -4.8,24" /><path
             id="path208"
             style="fill:none;stroke:#000000;stroke-width:2.4000001;stroke-linecap:butt;stroke-linejoin:miter;stroke-miterlimit:10;stroke-dasharray:none;stroke-opacity:1"
             d="m 2266.8,631 -3.6,22.801" /><path
             id="path210"
             style="fill:none;stroke:#000000;stroke-width:2.4000001;stroke-linecap:butt;stroke-linejoin:miter;stroke-miterlimit:10;stroke-dasharray:none;stroke-opacity:1"
             d="m 2258.4,677.801 -4.8,22.801" /><g
             transform="scale(10)"
             id="g212"><text
               id="text216"
               style="font-variant:normal;font-weight:normal;font-size:10.95890045px;font-family:CMMI10;-inkscape-font-specification:CMMI10;writing-mode:lr-tb;fill:#000000;fill-opacity:1;fill-rule:nonzero;stroke:none"
               transform="matrix(1,0,0,-1,104.04,54.5801)"><tspan
                 id="tspan214"
                 y="0"
                 x="0">V</tspan></text>
<text
               id="text220"
               style="font-variant:normal;font-weight:normal;font-size:7.97010994px;font-family:CMMI8;-inkscape-font-specification:CMMI8;writing-mode:lr-tb;fill:#000000;fill-opacity:1;fill-rule:nonzero;stroke:none"
               transform="matrix(1,0,0,-1,110.88023,52.06018)"><tspan
                 id="tspan218"
                 y="0"
                 x="0">ρ</tspan></text>
<text
               id="text224"
               style="font-variant:normal;font-weight:normal;font-size:7.97010994px;font-family:CMSY8;-inkscape-font-specification:CMSY8;writing-mode:lr-tb;fill:#000000;fill-opacity:1;fill-rule:nonzero;stroke:none"
               transform="matrix(1,0,0,-1,113.16031,59.50002)"><tspan
                 id="tspan222"
                 y="0"
                 x="0">−</tspan></text>
</g></g></g></g></g></svg>