<svg xmlns="http://www.w3.org/2000/svg" viewBox="0 0 401.33334 132" height="132" width="401.333"><defs><clipPath id="a"><path d="M2.398 0h3007.6v985H2.398z"/></clipPath></defs><g clip-path="url(#a)" transform="matrix(.13333 0 0 -.13333 0 132)"><path d="M1588.8 227.801l19.2 15.597m20.4 14.403l19.2 15.597M1666.8 289l20.4 14.398M1706.4 319l19.2 15.602m20.4 15.597l19.2 14.403m20.4 15.597l19.2 15.602m19.2 14.398l20.4 15.602m19.2 15.597l20.4 14.403m19.2 15.597L1922.4 487" fill="none" stroke="#000" stroke-width="2.4" stroke-miterlimit="10"/><text style="-inkscape-font-specification:CMMI10" transform="matrix(10 0 0 -10 789.602 550.602)" font-weight="400" font-size="10.959" font-family="CMMI10"><tspan y="0" x="0">ρ</tspan></text><path d="M-92.398 712.602l117.597-67.204L142.801 583l116.398-57.602 115.199-52.796 115.204-48 112.796-42 112.801-37.204L826.801 313l110.398-27.602 110.401-22.796 108-16.801 108-12 106.8-7.199 105.6-2.403 105.6 3.602L1686 235l99.6 10.801 94.8 9.597 90 9.602 82.8 9.602L2130 283l72 8.398 66 7.204 60 8.398 54 6 48 7.199 42 6 37.2 6 31.2 6 24 4.801 19.2 4.801 13.2 3.597 10.8 6 10.8 7.204 10.8 10.796 10.8 12L2650.8 403l10.8 16.801 10.8 20.398 12 22.801 10.8 25.199 12 27.602 10.8 28.801L2730 577l12 36 12 37.199 12 39.602 12 42" fill="none" stroke="#000" stroke-width="4.8" stroke-miterlimit="10"/><path d="M2173.2 109l-111.6 133.199m-4.8-48l4.8 48 48-4.801m-153.6 504L1742.4 589m46.8-8.398L1742.4 589l7.2 46.801" fill="none" stroke="#000" stroke-width="6" stroke-miterlimit="10"/><g font-weight="400"><text style="-inkscape-font-specification:CMR10" transform="matrix(10 0 0 -10 468 880.602)" font-size="10.959" font-family="CMR10"><tspan y="0" x="0">Ω</tspan></text><text style="-inkscape-font-specification:CMSY10" transform="matrix(10 0 0 -10 565.2 880.602)" font-size="10.959" font-family="CMSY10"><tspan y="0" x="0">⊂</tspan></text><text style="-inkscape-font-specification:bbm10" transform="matrix(10 0 0 -10 669.601 880.602)" font-size="10.959" font-family="bbm10"><tspan y="0" x="0">R</tspan></text><text style="-inkscape-font-specification:CMMI8" transform="matrix(10 0 0 -10 759.601 919)" font-size="7.97" font-family="CMMI8"><tspan y="0" x="0">N</tspan></text><text style="-inkscape-font-specification:CMMI10" transform="matrix(10 0 0 -10 1333.2 359.801)" font-size="10.959" font-family="CMMI10"><tspan y="0" x="0">D</tspan></text></g><path d="M1084.8 267.398L1098 289l14.4 20.398 14.4 20.403 15.6 20.398 16.8 19.199 16.8 18 18 18 19.2 16.801L1232.4 439l19.2 15.602L1273.2 469l20.4 14.398 21.6 13.204 22.8 12 22.8 10.796 22.8 9.602 24 9.602 24 8.398 24 7.199 24 6 25.2 6 25.2 3.602 25.2 3.597 25.2 2.403 25.2 1.199h50.4l25.2-2.398 25.2-2.403 25.2-4.801 25.2-4.796 24-6 24-6 24-8.403 24-8.398 24-9.602 22.8-10.801 21.6-12 22.8-12L1965.6 475l20.4-14.398 20.4-14.403 19.2-16.801 19.2-15.597 18-18 18-18 16.8-19.199 15.6-19.204L2128.8 319l14.4-21.602 8.4-12" fill="none" stroke="#000" stroke-width="2.4" stroke-miterlimit="10"/><g font-weight="400"><text style="-inkscape-font-specification:CMMI10" transform="matrix(10 0 0 -10 2184 28.602)" font-size="10.959" font-family="CMMI10"><tspan y="0" x="0">∂</tspan></text><text style="-inkscape-font-specification:CMR8" transform="matrix(10 0 0 -10 2241.602 13)" font-size="7.97" font-family="CMR8"><tspan y="0" x="0">2</tspan></text><text style="-inkscape-font-specification:CMMI10" transform="matrix(10 0 0 -10 2284.8 28.602)" font-size="10.959" font-family="CMMI10"><tspan y="0" x="0">D</tspan></text></g><path d="M985.199 711.398l24.001-6m25.2-6l25.2-7.199m25.2-4.801l25.2-6m25.2-4.796l4.8-1.204 20.4-3.597m26.4-4.801l25.2-4.801m25.2-3.597l25.2-3.602m25.2-3.602l7.2-1.199 19.2-2.398m25.2-3.602l26.4-2.398m25.2-2.403L1416 637m26.4-1.199l8.4-1.199 16.8-1.204m26.4-1.199l25.2-1.199m26.4 0h25.2m26.4-1.199h9.6l15.6 1.199m26.4 0h25.2m26.4 1.199l25.2 1.199m26.4 2.403h10.8l14.4 1.199m25.2 2.398l26.4 2.403m25.2 2.398l26.4 3.602m25.2 2.398l14.4 2.403 10.8 1.199m26.4 3.597l25.2 4.801m25.2 3.602l25.2 4.801m25.2 4.796l19.2 3.602 6 1.199m25.2 6l25.2 4.801m25.2 6l25.2 6m25.2 7.199l25.2 6M826.801 313l8.398 22.801m8.403 24l9.597 22.801m8.403 24L870 429.398m8.398 24l8.403 22.801m9.597 24l8.403 24M913.199 547l8.403 24m9.597 22.801l8.403 24M948 640.602l8.398 24m8.403 22.796l9.597 24" fill="none" stroke="#000" stroke-width="2.4" stroke-miterlimit="10"/><text style="-inkscape-font-specification:CMMI10" transform="matrix(10 0 0 -10 1866 334.602)" font-weight="400" font-size="10.959" font-family="CMMI10"><tspan y="0" x="0">R</tspan></text><path d="M1612.8 229c0 13.254-10.75 24-24 24s-24-10.746-24-24 10.75-24 24-24 24 10.746 24 24" fill="none" stroke="#000" stroke-width="6" stroke-miterlimit="10"/><path d="M1612.8 229c0 13.254-10.75 24-24 24s-24-10.746-24-24 10.75-24 24-24 24 10.746 24 24" fill-rule="evenodd"/><path d="M1612.8 229c0 13.254-10.75 24-24 24s-24-10.746-24-24 10.75-24 24-24 24 10.746 24 24" fill="none" stroke="#000" stroke-width="1.2" stroke-miterlimit="10"/><g font-weight="400"><text style="-inkscape-font-specification:CMMI10" transform="matrix(10 0 0 -10 1935.6 773.801)" font-size="10.959" font-family="CMMI10"><tspan y="0" x="0">∂</tspan></text><text style="-inkscape-font-specification:CMR8" transform="matrix(10 0 0 -10 1994.397 758.2)" font-size="7.97" font-family="CMR8"><tspan y="0" x="0">1</tspan></text><text style="-inkscape-font-specification:CMMI10" transform="matrix(10 0 0 -10 2036.397 773.801)" font-size="10.959" font-family="CMMI10"><tspan y="0" x="0">D</tspan><tspan y="64.92" x="-47.64">x</tspan></text><text style="-inkscape-font-specification:CMR8" transform="matrix(10 0 0 -10 1622.397 109)" font-size="7.97" font-family="CMR8"><tspan y="0" x="0">0</tspan></text></g><path d="M2328 307l-4.8 22.801m-3.6 22.801l-4.8 24m-4.8 22.796l-3.6 22.801M2301.6 445l-3.6 24m-4.8 22.801l-4.8 22.801m-3.6 24l-4.8 22.796m-3.6 22.801l-4.8 24M2266.8 631l-3.6 22.801m-4.8 24l-4.8 22.801" fill="none" stroke="#000" stroke-width="2.4" stroke-miterlimit="10"/><g font-weight="400"><text style="-inkscape-font-specification:CMMI10" transform="matrix(10 0 0 -10 1040.4 545.801)" font-size="10.959" font-family="CMMI10"><tspan y="0" x="0">V</tspan></text><text style="-inkscape-font-specification:CMMI8" transform="matrix(10 0 0 -10 1108.802 520.602)" font-size="7.97" font-family="CMMI8"><tspan y="0" x="0">ρ</tspan></text><text style="-inkscape-font-specification:CMSY8" transform="matrix(10 0 0 -10 1131.603 595)" font-size="7.97" font-family="CMSY8"><tspan y="0" x="0">−</tspan></text></g></g></svg>