<svg height="576" viewBox="0 0 576 432" width="768" xmlns="http://www.w3.org/2000/svg" xmlns:xlink="http://www.w3.org/1999/xlink"><defs><style>*{stroke-linecap:butt;stroke-linejoin:round;stroke-miterlimit:100000}</style></defs><g id="figure_1"><path d="M0 432h576V0H0z" fill="#fff" id="patch_1"/><g id="axes_1"><path d="M72 200.29h446.4V43.2H72z" fill="#fff" id="patch_2"/><path clip-path="url(#p5d61b2ab9e)" d="M72 200.29h24.827v-1.176H72z" fill="#00f" stroke="#000" id="patch_3"/><path clip-path="url(#p5d61b2ab9e)" d="M96.827 200.29h28.94v-4.542h-28.94z" fill="#00f" stroke="#000" id="patch_4"/><path clip-path="url(#p5d61b2ab9e)" d="M125.767 200.29h21.07v-10.4h-21.07z" fill="#00f" stroke="#000" id="patch_5"/><path clip-path="url(#p5d61b2ab9e)" d="M146.837 200.29h15.108v-37.712h-15.108z" fill="#00f" stroke="#000" id="patch_6"/><path clip-path="url(#p5d61b2ab9e)" d="M161.945 200.29h12.837v-43.246h-12.837z" fill="#00f" stroke="#000" id="patch_7"/><path clip-path="url(#p5d61b2ab9e)" d="M174.782 200.29h12.533v-64.113h-12.533z" fill="#00f" stroke="#000" id="patch_8"/><path clip-path="url(#p5d61b2ab9e)" d="M187.315 200.29h14.991v-82.834h-14.991z" fill="#00f" stroke="#000" id="patch_9"/><path clip-path="url(#p5d61b2ab9e)" d="M202.306 200.29h15.931v-86.199h-15.931z" fill="#00f" stroke="#000" id="patch_10"/><path clip-path="url(#p5d61b2ab9e)" d="M218.237 200.29h7.383V93.435h-7.383z" fill="#00f" stroke="#000" id="patch_11"/><path clip-path="url(#p5d61b2ab9e)" d="M225.62 200.29h6.053V84.435h-6.053z" fill="#00f" stroke="#000" id="patch_12"/><path clip-path="url(#p5d61b2ab9e)" d="M231.673 200.29h7.069V61.82h-7.069z" fill="#00f" stroke="#000" id="patch_13"/><path clip-path="url(#p5d61b2ab9e)" d="M238.742 200.29h8.171V93.015h-8.171z" fill="#00f" stroke="#000" id="patch_14"/><path clip-path="url(#p5d61b2ab9e)" d="M246.913 200.29h9.875V95.247h-9.875z" fill="#00f" stroke="#000" id="patch_15"/><path clip-path="url(#p5d61b2ab9e)" d="M256.788 200.29h21.93V95.035h-21.93z" fill="#00f" stroke="#000" id="patch_16"/><path clip-path="url(#p5d61b2ab9e)" d="M278.718 200.29h29.22v-65.496h-29.22z" fill="#00f" stroke="#000" id="patch_17"/><path clip-path="url(#p5d61b2ab9e)" d="M307.938 200.29h30.276v-26.539h-30.276z" fill="#00f" stroke="#000" id="patch_18"/><path clip-path="url(#p5d61b2ab9e)" d="M338.214 200.29h43.062v-6.106h-43.062z" fill="#00f" stroke="#000" id="patch_19"/><path clip-path="url(#p5d61b2ab9e)" d="M381.276 200.29H518.4v-.106H381.276z" fill="#00f" stroke="#000" id="patch_20"/><path clip-path="url(#p5d61b2ab9e)" d="M72 199.87l1.307-.037 1.306-.04 1.307-.045 1.307-.048 1.306-.052 1.307-.057 1.307-.062 1.307-.067 1.306-.073 1.307-.08 1.307-.087 1.306-.094 1.307-.103 1.307-.112 1.306-.122 1.307-.133 1.307-.144 1.307-.157 1.306-.171" fill="none" stroke="green" stroke-linecap="square" id="line2d_1"/><path clip-path="url(#p5d61b2ab9e)" d="M96.827 198.186l1.523-.166 1.524-.178 1.523-.192 1.523-.208 1.523-.223 1.523-.242 1.523-.26 1.524-.28 1.523-.303 1.523-.326 1.523-.352 1.523-.38 1.523-.41 1.523-.441 1.524-.476 1.523-.514 1.523-.554 1.523-.598 1.523-.644" fill="none" stroke="green" stroke-linecap="square" id="line2d_2"/><path clip-path="url(#p5d61b2ab9e)" d="M125.767 191.439l1.11-.418 1.108-.438 1.109-.458 1.109-.48 1.109-.503 1.109-.527 1.109-.551 1.109-.578 1.109-.604 1.109-.634 1.109-.663 1.108-.694 1.11-.728 1.108-.761 1.11-.798 1.108-.835 1.11-.875 1.108-.916 1.11-.96" fill="none" stroke="green" stroke-linecap="square" id="line2d_3"/><path clip-path="url(#p5d61b2ab9e)" d="M146.837 179.019l.795-.561.795-.575.796-.59.795-.607.795-.622.795-.638.795-.655.795-.673.795-.69.796-.708.795-.727.795-.746.795-.766.795-.786.795-.807.796-.828.795-.85.795-.872.795-.895" fill="none" stroke="green" stroke-linecap="square" id="line2d_4"/><path clip-path="url(#p5d61b2ab9e)" d="M161.945 165.423l.676-.702.675-.715.676-.73.676-.745.675-.76.676-.774.675-.79.676-.807.676-.823.675-.84.676-.855.676-.874.675-.89.676-.91.675-.926.676-.946.676-.965.675-.984.676-1.004" fill="none" stroke="green" stroke-linecap="square" id="line2d_5"/><path clip-path="url(#p5d61b2ab9e)" d="M174.782 149.383l.66-.758.66-.769.659-.78.66-.793.66-.804.659-.816.66-.828.659-.84.66-.853.66-.866.659-.878.66-.892.659-.905.66-.918.66-.932.659-.946.66-.96.66-.974.659-.989" fill="none" stroke="green" stroke-linecap="square" id="line2d_6"/><path clip-path="url(#p5d61b2ab9e)" d="M187.315 132.882l.789-1.04.789-1.057.789-1.073.789-1.09.789-1.107.789-1.123.789-1.141.789-1.159.789-1.176.789-1.195.789-1.213.789-1.232.789-1.25.789-1.27.789-1.29.789-1.31.789-1.33.789-1.35.789-1.372" fill="none" stroke="green" stroke-linecap="square" id="line2d_7"/><path clip-path="url(#p5d61b2ab9e)" d="M202.306 110.104l.838-.787.839-.794.838-.801.839-.808.838-.815.839-.823.838-.829.839-.836.838-.844.839-.852.838-.858.839-.866.838-.874.839-.882.838-.889.839-.896.838-.905.839-.913.838-.92" fill="none" stroke="green" stroke-linecap="square" id="line2d_8"/><path clip-path="url(#p5d61b2ab9e)" d="M218.237 93.912l.389-.274.389-.275.388-.276.389-.277.388-.277.389-.278.388-.278.389-.28.389-.28.388-.28.389-.282.388-.282.389-.283.388-.283.389-.285.389-.285.388-.286.389-.286.388-.287" fill="none" stroke="green" stroke-linecap="square" id="line2d_9"/><path clip-path="url(#p5d61b2ab9e)" d="M225.62 88.578l.319-.158.318-.159.319-.158.319-.159.318-.159.319-.159.318-.16.319-.159.318-.16.319-.16.319-.16.318-.16.319-.161.318-.161.319-.161.318-.162.319-.161.319-.162.318-.162" fill="none" stroke="green" stroke-linecap="square" id="line2d_10"/><path clip-path="url(#p5d61b2ab9e)" d="M231.673 85.537l.372-.076.372-.075.372-.076.372-.075.372-.076.372-.076.372-.076.372-.075.372-.076.373-.076.372-.076.372-.076.372-.076.372-.076.372-.077.372-.076.372-.076.372-.076.372-.077" fill="none" stroke="green" stroke-linecap="square" id="line2d_11"/><path clip-path="url(#p5d61b2ab9e)" d="M238.742 84.094l.43.062.43.062.43.062.43.062.43.061.43.062.43.062.43.062.43.061.43.062.43.061.43.062.43.061.43.062.43.061.43.062.43.061.43.061.431.062" fill="none" stroke="green" stroke-linecap="square" id="line2d_12"/><path clip-path="url(#p5d61b2ab9e)" d="M246.913 85.265l.52.286.52.285.52.285.519.284.52.284.52.282.519.282.52.281.52.28.52.28.519.28.52.278.52.278.519.277.52.277.52.275.52.275.519.275.52.273" fill="none" stroke="green" stroke-linecap="square" id="line2d_13"/><path clip-path="url(#p5d61b2ab9e)" d="M256.788 90.582l1.154 1.155 1.154 1.143 1.154 1.13 1.154 1.119 1.155 1.107 1.154 1.095 1.154 1.083 1.154 1.073 1.154 1.06 1.155 1.05 1.154 1.04 1.154 1.027 1.154 1.017 1.154 1.007 1.155.995 1.154.985 1.154.975 1.154.965 1.155.954" fill="none" stroke="green" stroke-linecap="square" id="line2d_14"/><path clip-path="url(#p5d61b2ab9e)" d="M278.718 110.562l1.537 3.04 1.538 2.935 1.538 2.836 1.538 2.74 1.538 2.648 1.538 2.558 1.538 2.47 1.538 2.388 1.538 2.307 1.538 2.228 1.537 2.153 1.538 2.08 1.538 2.01 1.538 1.942 1.538 1.876 1.538 1.812 1.538 1.751 1.538 1.692 1.538 1.634" fill="none" stroke="green" stroke-linecap="square" id="line2d_15"/><path clip-path="url(#p5d61b2ab9e)" d="M307.938 153.662l1.593 2.363 1.594 2.243 1.593 2.129 1.594 2.02 1.593 1.92 1.594 1.821 1.593 1.73 1.594 1.641 1.593 1.559 1.594 1.48 1.593 1.404 1.594 1.334 1.593 1.265 1.594 1.202 1.593 1.141 1.594 1.083 1.593 1.028 1.594.976 1.593.927" fill="none" stroke="green" stroke-linecap="square" id="line2d_16"/><path clip-path="url(#p5d61b2ab9e)" d="M338.214 182.928l2.266 1.744 2.267 1.57 2.266 1.41 2.267 1.27 2.266 1.142 2.267 1.028 2.266.924 2.266.831 2.267.748 2.266.672 2.267.606 2.266.544 2.267.49 2.266.44 2.267.396 2.266.357 2.266.32 2.267.288 2.266.26" fill="none" stroke="green" stroke-linecap="square" id="line2d_17"/><path clip-path="url(#p5d61b2ab9e)" d="M381.276 197.968l7.217.893 7.217.55 7.217.338 7.217.208 7.217.128 7.218.08 7.217.048 7.217.03 7.217.018 7.217.012 7.217.007 7.217.004 7.217.003 7.217.001 7.217.001h7.217l7.217.001H518.4" fill="none" stroke="green" stroke-linecap="square" id="line2d_18"/><path clip-path="url(#p5d61b2ab9e)" d="M72 199.87l8.973-.337 8.973-.561 6.73-.639 6.729-.895 4.486-.777 4.487-.951 4.486-1.155 4.487-1.388 4.486-1.652 4.487-1.948 4.486-2.275 4.486-2.632 4.487-3.012 4.486-3.415 4.487-3.83 4.486-4.25 4.487-4.665 4.486-5.065 4.487-5.434 4.486-5.76 6.73-9.123 20.189-28.183 4.486-5.758 4.486-5.327 4.487-4.783 2.243-2.154 2.243-1.98 2.243-1.793 2.244-1.597 2.243-1.391 2.243-1.178 2.243-.956 2.244-.73 2.243-.5 2.243-.265 2.243-.03 2.243.207 2.244.441 2.243.673 2.243.9 2.243 1.123 2.244 1.339 2.243 1.546 2.243 1.746 2.243 1.934 2.243 2.111 4.487 4.707 4.486 5.265 4.487 5.71 4.486 6.042 8.973 12.61 8.973 12.596 6.73 8.993 4.486 5.644 4.486 5.3 4.487 4.917 4.486 4.511 4.487 4.093 4.486 3.673 4.486 3.262 4.487 2.867 4.486 2.494 4.487 2.15 4.486 1.833 4.487 1.55 4.486 1.296 4.487 1.075 4.486.883 6.73 1.024 6.73.736 6.729.52 8.973.45 11.216.313 15.702.188 29.162.08 60.567.008" fill="none" stroke="red" stroke-linecap="square" id="line2d_19"/><path d="M518.4 200.29V43.2" fill="none" stroke="#000" stroke-linecap="square" id="patch_21"/><path d="M72 43.2h446.4" fill="none" stroke="#000" stroke-linecap="square" id="patch_22"/><path d="M72 200.29h446.4" fill="none" stroke="#000" stroke-linecap="square" id="patch_23"/><path d="M72 200.29V43.2" fill="none" stroke="#000" stroke-linecap="square" id="patch_24"/><g id="matplotlib.axis_1"><g id="xtick_1"><g id="line2d_20"><defs><path d="M0 0v-4" id="mbf9ea16503" stroke="#000" stroke-width=".5"/></defs><use x="72" xlink:href="#mbf9ea16503" y="200.291" stroke="#000" stroke-width=".5"/></g><g id="line2d_21"><defs><path d="M0 0v4" id="m4b7d60defd" stroke="#000" stroke-width=".5"/></defs><use x="72" xlink:href="#m4b7d60defd" y="43.2" stroke="#000" stroke-width=".5"/></g><g id="text_1"><defs><path d="M10.594 35.5h62.593v-8.297H10.594z" id="BitstreamVeraSans-Roman-2212"/><path d="M37.797 64.313L12.89 25.39h24.906zm-2.594 8.593H47.61V25.391h10.407v-8.203H47.609V0h-9.812v17.188H4.89v9.515z" id="BitstreamVeraSans-Roman-34"/></defs><g transform="matrix(.12 0 0 -.12 63.155 213.409)"><use xlink:href="#BitstreamVeraSans-Roman-2212"/><use x="83.789" xlink:href="#BitstreamVeraSans-Roman-34"/></g></g></g><g id="xtick_2"><use x="127.8" xlink:href="#mbf9ea16503" y="200.291" stroke="#000" stroke-width=".5" id="line2d_22"/><use x="127.8" xlink:href="#m4b7d60defd" y="43.2" stroke="#000" stroke-width=".5" id="line2d_23"/><g id="text_2"><defs><path d="M40.578 39.313Q47.656 37.797 51.625 33q3.984-4.781 3.984-11.813 0-10.78-7.422-16.703-7.421-5.906-21.093-5.906-4.578 0-9.438.906-4.86.907-10.031 2.72v9.515q4.094-2.39 8.969-3.61 4.89-1.218 10.218-1.218 9.266 0 14.125 3.656 4.86 3.656 4.86 10.64 0 6.454-4.516 10.079-4.515 3.64-12.562 3.64h-8.5v8.11h8.89q7.266 0 11.125 2.906 3.86 2.906 3.86 8.375 0 5.61-3.985 8.61-3.968 3.015-11.39 3.015-4.063 0-8.703-.89-4.641-.876-10.203-2.72v8.782q5.624 1.562 10.53 2.344 4.907.78 9.25.78 11.235 0 17.766-5.109 6.547-5.093 6.547-13.78 0-6.063-3.468-10.235-3.47-4.172-9.86-5.782" id="BitstreamVeraSans-Roman-33"/></defs><g transform="matrix(.12 0 0 -.12 118.955 213.409)"><use xlink:href="#BitstreamVeraSans-Roman-2212"/><use x="83.789" xlink:href="#BitstreamVeraSans-Roman-33"/></g></g></g><g id="xtick_3"><use x="183.6" xlink:href="#mbf9ea16503" y="200.291" stroke="#000" stroke-width=".5" id="line2d_24"/><use x="183.6" xlink:href="#m4b7d60defd" y="43.2" stroke="#000" stroke-width=".5" id="line2d_25"/><g id="text_3"><defs><path d="M19.188 8.297h34.421V0H7.33v8.297q5.609 5.812 15.296 15.594 9.703 9.797 12.188 12.64 4.734 5.313 6.609 9 1.89 3.688 1.89 7.25 0 5.813-4.078 9.469-4.078 3.672-10.625 3.672-4.64 0-9.797-1.61-5.14-1.609-11-4.89v9.969Q13.767 71.78 18.938 73q5.188 1.219 9.485 1.219 11.328 0 18.062-5.672 6.735-5.656 6.735-15.125 0-4.5-1.688-8.531-1.672-4.016-6.125-9.485-1.218-1.422-7.765-8.187-6.532-6.766-18.453-18.922" id="BitstreamVeraSans-Roman-32"/></defs><g transform="matrix(.12 0 0 -.12 174.755 213.409)"><use xlink:href="#BitstreamVeraSans-Roman-2212"/><use x="83.789" xlink:href="#BitstreamVeraSans-Roman-32"/></g></g></g><g id="xtick_4"><use x="239.4" xlink:href="#mbf9ea16503" y="200.291" stroke="#000" stroke-width=".5" id="line2d_26"/><use x="239.4" xlink:href="#m4b7d60defd" y="43.2" stroke="#000" stroke-width=".5" id="line2d_27"/><g id="text_4"><defs><path d="M12.406 8.297h16.11v55.625l-17.532-3.516v8.985l17.438 3.515h9.86V8.296H54.39V0H12.406z" id="BitstreamVeraSans-Roman-31"/></defs><g transform="matrix(.12 0 0 -.12 230.555 213.409)"><use xlink:href="#BitstreamVeraSans-Roman-2212"/><use x="83.789" xlink:href="#BitstreamVeraSans-Roman-31"/></g></g></g><g id="xtick_5"><use x="295.2" xlink:href="#mbf9ea16503" y="200.291" stroke="#000" stroke-width=".5" id="line2d_28"/><use x="295.2" xlink:href="#m4b7d60defd" y="43.2" stroke="#000" stroke-width=".5" id="line2d_29"/><g id="text_5"><defs><path d="M31.781 66.406q-7.61 0-11.453-7.5Q16.5 51.422 16.5 36.375q0-14.984 3.828-22.484 3.844-7.5 11.453-7.5 7.672 0 11.5 7.5 3.844 7.5 3.844 22.484 0 15.047-3.844 22.531-3.828 7.5-11.5 7.5m0 7.813q12.266 0 18.735-9.703 6.468-9.688 6.468-28.141 0-18.406-6.468-28.11-6.47-9.687-18.735-9.687-12.25 0-18.718 9.688-6.47 9.703-6.47 28.109 0 18.453 6.47 28.14Q19.53 74.22 31.78 74.22" id="BitstreamVeraSans-Roman-30"/></defs><use xlink:href="#BitstreamVeraSans-Roman-30" transform="matrix(.12 0 0 -.12 291.382 213.409)"/></g></g><g id="xtick_6"><use x="351" xlink:href="#mbf9ea16503" y="200.291" stroke="#000" stroke-width=".5" id="line2d_30"/><use x="351" xlink:href="#m4b7d60defd" y="43.2" stroke="#000" stroke-width=".5" id="line2d_31"/><use xlink:href="#BitstreamVeraSans-Roman-31" transform="matrix(.12 0 0 -.12 347.183 213.409)" id="text_6"/></g><g id="xtick_7"><use x="406.8" xlink:href="#mbf9ea16503" y="200.291" stroke="#000" stroke-width=".5" id="line2d_32"/><use x="406.8" xlink:href="#m4b7d60defd" y="43.2" stroke="#000" stroke-width=".5" id="line2d_33"/><use xlink:href="#BitstreamVeraSans-Roman-32" transform="matrix(.12 0 0 -.12 402.983 213.409)" id="text_7"/></g><g id="xtick_8"><use x="462.6" xlink:href="#mbf9ea16503" y="200.291" stroke="#000" stroke-width=".5" id="line2d_34"/><use x="462.6" xlink:href="#m4b7d60defd" y="43.2" stroke="#000" stroke-width=".5" id="line2d_35"/><use xlink:href="#BitstreamVeraSans-Roman-33" transform="matrix(.12 0 0 -.12 458.783 213.409)" id="text_8"/></g><g id="xtick_9"><use x="518.4" xlink:href="#mbf9ea16503" y="200.291" stroke="#000" stroke-width=".5" id="line2d_36"/><use x="518.4" xlink:href="#m4b7d60defd" y="43.2" stroke="#000" stroke-width=".5" id="line2d_37"/><use xlink:href="#BitstreamVeraSans-Roman-34" transform="matrix(.12 0 0 -.12 514.582 213.409)" id="text_9"/></g></g><g id="matplotlib.axis_2"><g id="ytick_1"><g id="line2d_38"><defs><path d="M0 0h4" id="m814cdf85c0" stroke="#000" stroke-width=".5"/></defs><use x="72" xlink:href="#m814cdf85c0" y="200.291" stroke="#000" stroke-width=".5"/></g><g id="line2d_39"><defs><path d="M0 0h-4" id="m332471e224" stroke="#000" stroke-width=".5"/></defs><use x="518.4" xlink:href="#m332471e224" y="200.291" stroke="#000" stroke-width=".5"/></g><g id="text_10"><defs><path d="M10.688 12.406H21V0H10.687z" id="BitstreamVeraSans-Roman-2e"/></defs><g transform="matrix(.12 0 0 -.12 48.916 203.602)"><use xlink:href="#BitstreamVeraSans-Roman-30"/><use x="63.623" xlink:href="#BitstreamVeraSans-Roman-2e"/><use x="95.41" xlink:href="#BitstreamVeraSans-Roman-30"/></g></g></g><g id="ytick_2"><use x="72" xlink:href="#m814cdf85c0" y="174.109" stroke="#000" stroke-width=".5" id="line2d_40"/><use x="518.4" xlink:href="#m332471e224" y="174.109" stroke="#000" stroke-width=".5" id="line2d_41"/><g transform="matrix(.12 0 0 -.12 48.916 177.42)" id="text_11"><use xlink:href="#BitstreamVeraSans-Roman-30"/><use x="63.623" xlink:href="#BitstreamVeraSans-Roman-2e"/><use x="95.41" xlink:href="#BitstreamVeraSans-Roman-31"/></g></g><g id="ytick_3"><use x="72" xlink:href="#m814cdf85c0" y="147.927" stroke="#000" stroke-width=".5" id="line2d_42"/><use x="518.4" xlink:href="#m332471e224" y="147.927" stroke="#000" stroke-width=".5" id="line2d_43"/><g transform="matrix(.12 0 0 -.12 48.916 151.239)" id="text_12"><use xlink:href="#BitstreamVeraSans-Roman-30"/><use x="63.623" xlink:href="#BitstreamVeraSans-Roman-2e"/><use x="95.41" xlink:href="#BitstreamVeraSans-Roman-32"/></g></g><g id="ytick_4"><use x="72" xlink:href="#m814cdf85c0" y="121.745" stroke="#000" stroke-width=".5" id="line2d_44"/><use x="518.4" xlink:href="#m332471e224" y="121.745" stroke="#000" stroke-width=".5" id="line2d_45"/><g transform="matrix(.12 0 0 -.12 48.916 125.057)" id="text_13"><use xlink:href="#BitstreamVeraSans-Roman-30"/><use x="63.623" xlink:href="#BitstreamVeraSans-Roman-2e"/><use x="95.41" xlink:href="#BitstreamVeraSans-Roman-33"/></g></g><g id="ytick_5"><use x="72" xlink:href="#m814cdf85c0" y="95.564" stroke="#000" stroke-width=".5" id="line2d_46"/><use x="518.4" xlink:href="#m332471e224" y="95.564" stroke="#000" stroke-width=".5" id="line2d_47"/><g transform="matrix(.12 0 0 -.12 48.916 98.875)" id="text_14"><use xlink:href="#BitstreamVeraSans-Roman-30"/><use x="63.623" xlink:href="#BitstreamVeraSans-Roman-2e"/><use x="95.41" xlink:href="#BitstreamVeraSans-Roman-34"/></g></g><g id="ytick_6"><use x="72" xlink:href="#m814cdf85c0" y="69.382" stroke="#000" stroke-width=".5" id="line2d_48"/><use x="518.4" xlink:href="#m332471e224" y="69.382" stroke="#000" stroke-width=".5" id="line2d_49"/><g id="text_15"><defs><path d="M10.797 72.906h38.719v-8.312H19.828v-17.86q2.14.735 4.281 1.094 2.157.36 4.313.36 12.203 0 19.328-6.688 7.14-6.688 7.14-18.11 0-11.765-7.328-18.296-7.328-6.516-20.656-6.516-4.593 0-9.36.781-4.75.782-9.827 2.344v9.922q4.39-2.39 9.078-3.563 4.687-1.171 9.906-1.171 8.453 0 13.375 4.437 4.938 4.438 4.938 12.063 0 7.609-4.938 12.047-4.922 4.453-13.375 4.453-3.953 0-7.89-.875-3.922-.875-8.016-2.735z" id="BitstreamVeraSans-Roman-35"/></defs><g transform="matrix(.12 0 0 -.12 48.916 72.693)"><use xlink:href="#BitstreamVeraSans-Roman-30"/><use x="63.623" xlink:href="#BitstreamVeraSans-Roman-2e"/><use x="95.41" xlink:href="#BitstreamVeraSans-Roman-35"/></g></g></g><g id="ytick_7"><use x="72" xlink:href="#m814cdf85c0" y="43.2" stroke="#000" stroke-width=".5" id="line2d_50"/><use x="518.4" xlink:href="#m332471e224" y="43.2" stroke="#000" stroke-width=".5" id="line2d_51"/><g id="text_16"><defs><path d="M33.016 40.375q-6.641 0-10.532-4.547-3.875-4.531-3.875-12.437 0-7.86 3.875-12.438 3.891-4.562 10.532-4.562 6.64 0 10.515 4.562 3.875 4.578 3.875 12.438 0 7.906-3.875 12.437-3.875 4.547-10.515 4.547m19.578 30.922v-8.984q-3.719 1.75-7.5 2.671-3.782.938-7.5.938-9.766 0-14.922-6.594-5.14-6.594-5.875-19.922 2.875 4.25 7.219 6.516 4.359 2.266 9.578 2.266 10.984 0 17.36-6.672 6.374-6.657 6.374-18.125 0-11.235-6.64-18.032-6.641-6.78-17.672-6.78-12.657 0-19.344 9.687-6.688 9.703-6.688 28.109 0 17.281 8.204 27.563 8.203 10.28 22.015 10.28 3.719 0 7.5-.734t7.89-2.187" id="BitstreamVeraSans-Roman-36"/></defs><g transform="matrix(.12 0 0 -.12 48.916 46.511)"><use xlink:href="#BitstreamVeraSans-Roman-30"/><use x="63.623" xlink:href="#BitstreamVeraSans-Roman-2e"/><use x="95.41" xlink:href="#BitstreamVeraSans-Roman-36"/></g></g></g></g></g><g id="axes_2"><path d="M72 388.8h446.4V231.71H72z" fill="#fff" id="patch_25"/><path clip-path="url(#p3f227b6193)" d="M72 289.798l8.973-5.122 8.973-4.84 8.973-4.557 8.972-4.275 8.973-3.993 8.973-3.711 8.973-3.43 8.973-3.147 8.973-2.865 8.973-2.582 8.973-2.301 8.972-2.019 8.973-1.736 8.973-1.455 8.973-1.172 8.973-.89 8.973-.609 8.973-.326 8.972-.044 8.973.238 8.973.52 8.973.802 8.973 1.084 8.973 1.367 8.973 1.648 8.972 1.93 8.973 2.213 8.973 2.495 8.973 2.777 8.973 3.059 8.973 3.34 8.973 3.624 8.973 3.905 8.972 4.187 8.973 4.47 8.973 4.75 8.973 5.034 8.973 5.316 8.973 5.597 8.973 5.88 8.972 6.162 8.973 6.444 8.973 6.726 8.973 7.008 8.973 7.29 8.973 7.572 8.973 7.855 8.972 8.136 8.973 8.419 6.73 6.499" fill="none" stroke="#00f" stroke-linecap="square" id="line2d_52"/><path clip-path="url(#p3f227b6193)" d="M72 289.738l24.827-14.051 28.94-12.534 21.07-7.652 15.108-4.313 12.837-3.302 12.533-2.45 14.991-2.541 15.931-1.441 7.383-.427 6.053-.235 7.069-.109 8.171.089 9.875.413 21.93 1.754 29.22 5.713 30.276 8.621 43.062 17.555L518.4 355.253" fill="none" stroke="green" stroke-linecap="square" id="line2d_53"/><path d="M518.4 388.8V231.71" fill="none" stroke="#000" stroke-linecap="square" id="patch_26"/><path d="M72 231.71h446.4" fill="none" stroke="#000" stroke-linecap="square" id="patch_27"/><path d="M72 388.8h446.4" fill="none" stroke="#000" stroke-linecap="square" id="patch_28"/><path d="M72 388.8V231.71" fill="none" stroke="#000" stroke-linecap="square" id="patch_29"/><g id="matplotlib.axis_3"><g id="xtick_10"><use x="72" xlink:href="#mbf9ea16503" y="388.8" stroke="#000" stroke-width=".5" id="line2d_54"/><use x="72" xlink:href="#m4b7d60defd" y="231.709" stroke="#000" stroke-width=".5" id="line2d_55"/><g transform="matrix(.12 0 0 -.12 63.155 401.918)" id="text_17"><use xlink:href="#BitstreamVeraSans-Roman-2212"/><use x="83.789" xlink:href="#BitstreamVeraSans-Roman-34"/></g></g><g id="xtick_11"><use x="127.8" xlink:href="#mbf9ea16503" y="388.8" stroke="#000" stroke-width=".5" id="line2d_56"/><use x="127.8" xlink:href="#m4b7d60defd" y="231.709" stroke="#000" stroke-width=".5" id="line2d_57"/><g transform="matrix(.12 0 0 -.12 118.955 401.918)" id="text_18"><use xlink:href="#BitstreamVeraSans-Roman-2212"/><use x="83.789" xlink:href="#BitstreamVeraSans-Roman-33"/></g></g><g id="xtick_12"><use x="183.6" xlink:href="#mbf9ea16503" y="388.8" stroke="#000" stroke-width=".5" id="line2d_58"/><use x="183.6" xlink:href="#m4b7d60defd" y="231.709" stroke="#000" stroke-width=".5" id="line2d_59"/><g transform="matrix(.12 0 0 -.12 174.755 401.918)" id="text_19"><use xlink:href="#BitstreamVeraSans-Roman-2212"/><use x="83.789" xlink:href="#BitstreamVeraSans-Roman-32"/></g></g><g id="xtick_13"><use x="239.4" xlink:href="#mbf9ea16503" y="388.8" stroke="#000" stroke-width=".5" id="line2d_60"/><use x="239.4" xlink:href="#m4b7d60defd" y="231.709" stroke="#000" stroke-width=".5" id="line2d_61"/><g transform="matrix(.12 0 0 -.12 230.555 401.918)" id="text_20"><use xlink:href="#BitstreamVeraSans-Roman-2212"/><use x="83.789" xlink:href="#BitstreamVeraSans-Roman-31"/></g></g><g id="xtick_14"><use x="295.2" xlink:href="#mbf9ea16503" y="388.8" stroke="#000" stroke-width=".5" id="line2d_62"/><use x="295.2" xlink:href="#m4b7d60defd" y="231.709" stroke="#000" stroke-width=".5" id="line2d_63"/><use xlink:href="#BitstreamVeraSans-Roman-30" transform="matrix(.12 0 0 -.12 291.382 401.918)" id="text_21"/></g><g id="xtick_15"><use x="351" xlink:href="#mbf9ea16503" y="388.8" stroke="#000" stroke-width=".5" id="line2d_64"/><use x="351" xlink:href="#m4b7d60defd" y="231.709" stroke="#000" stroke-width=".5" id="line2d_65"/><use xlink:href="#BitstreamVeraSans-Roman-31" transform="matrix(.12 0 0 -.12 347.183 401.918)" id="text_22"/></g><g id="xtick_16"><use x="406.8" xlink:href="#mbf9ea16503" y="388.8" stroke="#000" stroke-width=".5" id="line2d_66"/><use x="406.8" xlink:href="#m4b7d60defd" y="231.709" stroke="#000" stroke-width=".5" id="line2d_67"/><use xlink:href="#BitstreamVeraSans-Roman-32" transform="matrix(.12 0 0 -.12 402.983 401.918)" id="text_23"/></g><g id="xtick_17"><use x="462.6" xlink:href="#mbf9ea16503" y="388.8" stroke="#000" stroke-width=".5" id="line2d_68"/><use x="462.6" xlink:href="#m4b7d60defd" y="231.709" stroke="#000" stroke-width=".5" id="line2d_69"/><use xlink:href="#BitstreamVeraSans-Roman-33" transform="matrix(.12 0 0 -.12 458.783 401.918)" id="text_24"/></g><g id="xtick_18"><use x="518.4" xlink:href="#mbf9ea16503" y="388.8" stroke="#000" stroke-width=".5" id="line2d_70"/><use x="518.4" xlink:href="#m4b7d60defd" y="231.709" stroke="#000" stroke-width=".5" id="line2d_71"/><use xlink:href="#BitstreamVeraSans-Roman-34" transform="matrix(.12 0 0 -.12 514.582 401.918)" id="text_25"/></g></g><g id="matplotlib.axis_4"><g id="ytick_8"><use x="72" xlink:href="#m814cdf85c0" y="388.8" stroke="#000" stroke-width=".5" id="line2d_72"/><use x="518.4" xlink:href="#m332471e224" y="388.8" stroke="#000" stroke-width=".5" id="line2d_73"/><g transform="matrix(.12 0 0 -.12 42.674 392.111)" id="text_26"><use xlink:href="#BitstreamVeraSans-Roman-2212"/><use x="83.789" xlink:href="#BitstreamVeraSans-Roman-32"/><use x="147.412" xlink:href="#BitstreamVeraSans-Roman-32"/></g></g><g id="ytick_9"><use x="72" xlink:href="#m814cdf85c0" y="371.345" stroke="#000" stroke-width=".5" id="line2d_74"/><use x="518.4" xlink:href="#m332471e224" y="371.345" stroke="#000" stroke-width=".5" id="line2d_75"/><g transform="matrix(.12 0 0 -.12 42.674 374.657)" id="text_27"><use xlink:href="#BitstreamVeraSans-Roman-2212"/><use x="83.789" xlink:href="#BitstreamVeraSans-Roman-32"/><use x="147.412" xlink:href="#BitstreamVeraSans-Roman-30"/></g></g><g id="ytick_10"><use x="72" xlink:href="#m814cdf85c0" y="353.891" stroke="#000" stroke-width=".5" id="line2d_76"/><use x="518.4" xlink:href="#m332471e224" y="353.891" stroke="#000" stroke-width=".5" id="line2d_77"/><g id="text_28"><defs><path d="M31.781 34.625q-7.031 0-11.062-3.766-4.016-3.765-4.016-10.343 0-6.594 4.016-10.36Q24.75 6.391 31.78 6.391q7.032 0 11.078 3.78 4.063 3.798 4.063 10.345 0 6.578-4.031 10.343-4.016 3.766-11.11 3.766m-9.86 4.188q-6.343 1.562-9.89 5.906-3.53 4.36-3.53 10.61 0 8.733 6.219 13.812 6.234 5.078 17.062 5.078 10.89 0 17.094-5.078 6.203-5.079 6.203-13.813 0-6.25-3.547-10.61-3.531-4.343-9.828-5.906 7.125-1.656 11.094-6.5 3.984-4.828 3.984-11.796 0-10.61-6.468-16.282-6.47-5.656-18.532-5.656-12.047 0-18.531 5.656-6.469 5.672-6.469 16.282 0 6.968 4 11.797 4.016 4.843 11.14 6.5M18.314 54.39q0-5.657 3.53-8.828 3.548-3.172 9.938-3.172 6.36 0 9.938 3.172 3.593 3.171 3.593 8.828 0 5.672-3.593 8.843-3.578 3.172-9.938 3.172-6.39 0-9.937-3.172-3.532-3.172-3.532-8.843" id="BitstreamVeraSans-Roman-38"/></defs><g transform="matrix(.12 0 0 -.12 42.674 357.202)"><use xlink:href="#BitstreamVeraSans-Roman-2212"/><use x="83.789" xlink:href="#BitstreamVeraSans-Roman-31"/><use x="147.412" xlink:href="#BitstreamVeraSans-Roman-38"/></g></g></g><g id="ytick_11"><use x="72" xlink:href="#m814cdf85c0" y="336.436" stroke="#000" stroke-width=".5" id="line2d_78"/><use x="518.4" xlink:href="#m332471e224" y="336.436" stroke="#000" stroke-width=".5" id="line2d_79"/><g transform="matrix(.12 0 0 -.12 42.674 339.748)" id="text_29"><use xlink:href="#BitstreamVeraSans-Roman-2212"/><use x="83.789" xlink:href="#BitstreamVeraSans-Roman-31"/><use x="147.412" xlink:href="#BitstreamVeraSans-Roman-36"/></g></g><g id="ytick_12"><use x="72" xlink:href="#m814cdf85c0" y="318.982" stroke="#000" stroke-width=".5" id="line2d_80"/><use x="518.4" xlink:href="#m332471e224" y="318.982" stroke="#000" stroke-width=".5" id="line2d_81"/><g transform="matrix(.12 0 0 -.12 42.674 322.293)" id="text_30"><use xlink:href="#BitstreamVeraSans-Roman-2212"/><use x="83.789" xlink:href="#BitstreamVeraSans-Roman-31"/><use x="147.412" xlink:href="#BitstreamVeraSans-Roman-34"/></g></g><g id="ytick_13"><use x="72" xlink:href="#m814cdf85c0" y="301.527" stroke="#000" stroke-width=".5" id="line2d_82"/><use x="518.4" xlink:href="#m332471e224" y="301.527" stroke="#000" stroke-width=".5" id="line2d_83"/><g transform="matrix(.12 0 0 -.12 42.674 304.839)" id="text_31"><use xlink:href="#BitstreamVeraSans-Roman-2212"/><use x="83.789" xlink:href="#BitstreamVeraSans-Roman-31"/><use x="147.412" xlink:href="#BitstreamVeraSans-Roman-32"/></g></g><g id="ytick_14"><use x="72" xlink:href="#m814cdf85c0" y="284.073" stroke="#000" stroke-width=".5" id="line2d_84"/><use x="518.4" xlink:href="#m332471e224" y="284.073" stroke="#000" stroke-width=".5" id="line2d_85"/><g transform="matrix(.12 0 0 -.12 42.674 287.384)" id="text_32"><use xlink:href="#BitstreamVeraSans-Roman-2212"/><use x="83.789" xlink:href="#BitstreamVeraSans-Roman-31"/><use x="147.412" xlink:href="#BitstreamVeraSans-Roman-30"/></g></g><g id="ytick_15"><use x="72" xlink:href="#m814cdf85c0" y="266.618" stroke="#000" stroke-width=".5" id="line2d_86"/><use x="518.4" xlink:href="#m332471e224" y="266.618" stroke="#000" stroke-width=".5" id="line2d_87"/><g transform="matrix(.12 0 0 -.12 50.31 269.93)" id="text_33"><use xlink:href="#BitstreamVeraSans-Roman-2212"/><use x="83.789" xlink:href="#BitstreamVeraSans-Roman-38"/></g></g><g id="ytick_16"><use x="72" xlink:href="#m814cdf85c0" y="249.164" stroke="#000" stroke-width=".5" id="line2d_88"/><use x="518.4" xlink:href="#m332471e224" y="249.164" stroke="#000" stroke-width=".5" id="line2d_89"/><g transform="matrix(.12 0 0 -.12 50.31 252.475)" id="text_34"><use xlink:href="#BitstreamVeraSans-Roman-2212"/><use x="83.789" xlink:href="#BitstreamVeraSans-Roman-36"/></g></g><g id="ytick_17"><use x="72" xlink:href="#m814cdf85c0" y="231.709" stroke="#000" stroke-width=".5" id="line2d_90"/><use x="518.4" xlink:href="#m332471e224" y="231.709" stroke="#000" stroke-width=".5" id="line2d_91"/><g transform="matrix(.12 0 0 -.12 50.31 235.02)" id="text_35"><use xlink:href="#BitstreamVeraSans-Roman-2212"/><use x="83.789" xlink:href="#BitstreamVeraSans-Roman-34"/></g></g></g></g></g><defs><clipPath id="p3f227b6193"><path d="M72 231.709h446.4V388.8H72z"/></clipPath><clipPath id="p5d61b2ab9e"><path d="M72 43.2h446.4v157.091H72z"/></clipPath></defs></svg>