<svg xmlns="http://www.w3.org/2000/svg" xmlns:xlink="http://www.w3.org/1999/xlink" version="1.2" viewBox="0 0 104.358 68.186" height="90.915" width="139.144"><defs><symbol style="overflow:visible" id="a" overflow="visible"><path d="M5.234-8.281c-.078-.156-.093-.203-.296-.203-.204 0-.235.046-.313.203L.609-.234c-.046.109-.046.125-.046.14C.563 0 .625 0 .813 0h8.234c.187 0 .265 0 .265-.094 0-.015 0-.031-.062-.14zm-.687.969L7.75-.907H1.36zm0 0" style="stroke:none"/></symbol><symbol style="overflow:visible" id="k" overflow="visible"><path d="M4.75-7.922c0 .016-.453.563-.984.563-.266 0-.563-.172-.766-.297-.313-.188-.531-.266-.734-.266-.454 0-.672.266-1.282.922l.188.188c0-.016.453-.579.969-.579.28 0 .578.188.78.297.313.188.532.282.735.282.453 0 .672-.266 1.281-.938zm0 0" style="stroke:none"/></symbol><symbol style="overflow:visible" id="b" overflow="visible"><path d="M3.61-.672c-.047.172-.126.453-.126.485 0 .187.157.265.297.265.14 0 .281-.11.313-.172.047-.078.11-.344.156-.515.047-.157.125-.547.188-.75l.14-.563c.078-.36.078-.375.25-.625.266-.406.688-.89 1.328-.89.469 0 .5.39.5.593 0 .485-.36 1.406-.5 1.766-.093.234-.125.312-.125.453 0 .438.375.703.797.703.828 0 1.188-1.14 1.188-1.266 0-.109-.11-.109-.125-.109-.125 0-.125.047-.157.14-.187.673-.546 1-.89 1-.172 0-.203-.109-.203-.28 0-.188.046-.297.187-.672.11-.266.438-1.141.438-1.61 0-.125 0-.484-.297-.719-.14-.109-.39-.234-.782-.234-.75 0-1.203.5-1.468.844-.063-.703-.657-.844-1.078-.844-.688 0-1.157.438-1.407.766-.062-.578-.546-.766-.89-.766-.36 0-.547.266-.657.453a2.777 2.777 0 0 0-.296.828c0 .11.109.11.14.11.11 0 .125-.031.188-.25.125-.5.281-.906.61-.906.202 0 .265.187.265.406 0 .156-.078.469-.125.703-.063.219-.14.562-.188.734L1.016-.53c-.032.11-.079.328-.079.344 0 .187.141.265.282.265.14 0 .281-.11.312-.172.047-.078.11-.344.157-.515.046-.157.14-.547.187-.75l.14-.563c.094-.344.11-.406.344-.75.235-.328.625-.765 1.25-.765.485 0 .485.421.485.593 0 .203-.016.313-.14.781zm0 0" style="stroke:none"/></symbol><symbol style="overflow:visible" id="e" overflow="visible"><path d="m4.75-3.344-.047-.094c0-.015.016-.03.203-.156.266-.203.563-.406.844-.594 1.094-.78 1.61-1.14 2.203-1.187.078-.016.188-.016.188-.188 0-.062-.063-.109-.11-.109-.172 0-.39.031-.578.031-.219 0-.781-.03-1-.03-.047 0-.172 0-.172.171 0 .016 0 .11.125.125.094 0 .203.016.203.11 0 .156-.265.343-.359.406L2.781-2.406l.656-2.625c.079-.282.079-.344.735-.344.125 0 .234 0 .234-.172 0-.078-.047-.125-.125-.125-.234 0-.843.031-1.093.031-.141 0-.422 0-.563-.015-.172 0-.375-.016-.531-.016-.047 0-.172 0-.172.172 0 .125.094.125.266.125.14 0 .171 0 .328.016.156.015.171.03.171.109 0 .016 0 .063-.03.188L1.546-.641c-.063.282-.078.344-.719.344-.156 0-.25 0-.25.188 0 0 0 .109.125.109.25 0 .844-.031 1.078-.031h.578c.172.015.375.031.532.031.046 0 .171 0 .171-.188 0-.109-.093-.109-.265-.109 0 0-.156 0-.313-.016-.187-.015-.187-.046-.187-.124 0-.063.078-.376.39-1.594l1.376-.985L5.266-.672c.062.11.062.11.062.156 0 .188-.234.22-.375.22-.11 0-.219 0-.219.187 0 0 0 .109.141.109.234 0 .828-.031 1.063-.031.25 0 .578.031.812.031.11 0 .172-.063.172-.172 0-.125-.11-.125-.203-.125-.14 0-.407-.016-.547-.281zm0 0" style="stroke:none"/></symbol><symbol style="overflow:visible" id="c" overflow="visible"><path d="M6.203-1.875c.11 0 .313 0 .313-.203s-.188-.203-.313-.203h-5c-.11 0-.312 0-.312.203s.203.203.312.203zm0 0" style="stroke:none"/></symbol><symbol style="overflow:visible" id="d" overflow="visible"><path d="M2.781-5.281c0-.235-.015-.235-.25-.235C2-5 1.25-4.984.906-4.984v.296c.203 0 .75 0 1.203-.234v4.234c0 .282 0 .391-.828.391H.97V0c.14-.016 1.172-.031 1.469-.031.265 0 1.312.015 1.5.031v-.297h-.329c-.828 0-.828-.11-.828-.39zm0 0" style="stroke:none"/></symbol><symbol style="overflow:visible" id="f" overflow="visible"><path d="M4.375-6.453c0-.125-.094-.125-.14-.125-.126 0-.141.047-.173.203l-.546 2.172C1.844-4.125.484-2.86.484-1.625c0 .938.829 1.688 1.954 1.734-.079.282-.141.594-.22.891-.109.438-.202.797-.202.828 0 0 0 .11.14.11.125 0 .14-.047.188-.235L2.734.11C4.422.031 5.766-1.219 5.766-2.453c0-1.078-.954-1.703-1.938-1.735zM3.75-3.937c.703.062 1.344.437 1.344 1.312 0 .906-.657 2.297-2.282 2.469zM2.5-.158c-.297-.015-1.328-.171-1.328-1.312 0-1.015.75-2.312 2.266-2.453zm0 0" style="stroke:none"/></symbol><symbol style="overflow:visible" id="h" overflow="visible"><path d="M1.828-1.313c.11-.406.219-.812.313-1.234 0-.015.062-.281.078-.344.031-.078.265-.468.515-.703.297-.281.625-.328.797-.328.094 0 .266.016.406.125a.57.57 0 0 0-.468.531c0 .204.156.344.375.344.25 0 .531-.203.531-.594 0-.328-.281-.671-.828-.671-.64 0-1.078.437-1.281.687-.188-.688-.829-.688-.922-.688-.344 0-.578.22-.735.516a3.795 3.795 0 0 0-.328.938c0 .093.063.125.14.125.126 0 .142-.032.204-.282.11-.468.281-1.03.688-1.03.25 0 .296.233.296.452 0 .172-.046.344-.125.656-.015.079-.156.641-.187.766-.156.64-.219.875-.36 1.438-.03.14-.093.375-.093.406 0 .219.187.297.297.297.343 0 .406-.266.484-.594zm0 0" style="stroke:none"/></symbol><symbol style="overflow:visible" id="g" overflow="visible"><path d="M3.313-2.734c-.094.015-.344.14-.344.406 0 .172.14.265.281.265a.426.426 0 0 0 .422-.453c0-.468-.547-.625-1-.625-1.11 0-2.14.954-2.14 1.938 0 .687.5 1.281 1.405 1.281 1.344 0 1.86-.719 1.86-.797 0-.062-.078-.14-.14-.14-.032 0-.032 0-.141.109-.391.438-1.047.594-1.563.594-.578 0-.797-.39-.797-.813 0-.015.016-.844.5-1.453.11-.11.485-.484 1.016-.484.047 0 .422 0 .64.172zm0 0" style="stroke:none"/></symbol><symbol style="overflow:visible" id="i" overflow="visible"><path d="M4-6.36c-.39.423-.688.423-.797.423-.219 0-.422-.094-.64-.22-.266-.124-.422-.202-.641-.202-.375 0-.563.187-1.078.75l.187.187c.39-.437.688-.437.797-.437.219 0 .406.109.64.218.25.125.423.22.641.22.375 0 .563-.204 1.079-.766zm0 0" style="stroke:none"/></symbol><symbol style="overflow:visible" id="j" overflow="visible"><path d="M5.25-2.969c0-1.265-1.047-2.297-2.281-2.297a2.297 2.297 0 0 0-.016 4.594A2.29 2.29 0 0 0 5.25-2.969zM2.969-1.14A1.83 1.83 0 0 1 1.14-2.969a1.83 1.83 0 0 1 1.828-1.828c1 0 1.812.828 1.812 1.828A1.817 1.817 0 0 1 2.97-1.14zm0 0" style="stroke:none"/></symbol></defs><use height="100%" width="100%" y="71.049" x="7.322" xlink:href="#a" style="fill:#000;fill-opacity:1" transform="translate(-7.885 -2.863)"/><use height="100%" width="100%" y="66.778" x="16.475" xlink:href="#b" style="fill:#000;fill-opacity:1" transform="translate(-7.885 -2.863)"/><use height="100%" width="100%" y="66.778" x="25.627" xlink:href="#c" style="fill:#000;fill-opacity:1" transform="translate(-7.885 -2.863)"/><use height="100%" width="100%" y="66.778" x="33.559" xlink:href="#d" style="fill:#000;fill-opacity:1" transform="translate(-7.885 -2.863)"/><use height="100%" width="100%" y="17.049" x="7.322" xlink:href="#a" style="fill:#000;fill-opacity:1" transform="translate(-7.885 -2.863)"/><use height="100%" width="100%" y="12.778" x="16.475" xlink:href="#e" style="fill:#000;fill-opacity:1" transform="translate(-7.885 -2.863)"/><use height="100%" width="100%" y="12.778" x="25.627" xlink:href="#c" style="fill:#000;fill-opacity:1" transform="translate(-7.885 -2.863)"/><use height="100%" width="100%" y="12.778" x="33.254" xlink:href="#d" style="fill:#000;fill-opacity:1" transform="translate(-7.885 -2.863)"/><use height="100%" width="100%" y="70.134" x="82.373" xlink:href="#a" style="fill:#000;fill-opacity:1" transform="translate(-7.885 -2.863)"/><use height="100%" width="100%" y="65.863" x="91.525" xlink:href="#b" style="fill:#000;fill-opacity:1" transform="translate(-7.885 -2.863)"/><use height="100%" width="100%" y="65.863" x="100.678" xlink:href="#c" style="fill:#000;fill-opacity:1" transform="translate(-7.885 -2.863)"/><use height="100%" width="100%" y="65.863" x="108.305" xlink:href="#d" style="fill:#000;fill-opacity:1" transform="translate(-7.885 -2.863)"/><use height="100%" width="100%" y="16.134" x="82.373" xlink:href="#a" style="fill:#000;fill-opacity:1" transform="translate(-7.885 -2.863)"/><use height="100%" width="100%" y="11.863" x="91.22" xlink:href="#e" style="fill:#000;fill-opacity:1" transform="translate(-7.885 -2.863)"/><use height="100%" width="100%" y="11.863" x="100.678" xlink:href="#c" style="fill:#000;fill-opacity:1" transform="translate(-7.885 -2.863)"/><use height="100%" width="100%" y="11.863" x="108.305" xlink:href="#d" style="fill:#000;fill-opacity:1" transform="translate(-7.885 -2.863)"/><path transform="matrix(.30508 0 0 -.30508 -7.885 71.237)" d="M69 173 68 48.994M82.994 63.002 68.001 48.995 55.005 63.002" style="fill:none;stroke:#000;stroke-width:2;stroke-linecap:square;stroke-linejoin:round;stroke-miterlimit:10;stroke-opacity:1"/><use height="100%" width="100%" y="42.371" x="7.932" xlink:href="#f" style="fill:#000;fill-opacity:1" transform="translate(-7.885 -2.863)"/><use height="100%" width="100%" y="43.896" x="13.729" xlink:href="#g" style="fill:#000;fill-opacity:1" transform="translate(-7.885 -2.863)"/><path transform="matrix(.30508 0 0 -.30508 -7.885 71.237)" d="M310.006 180.003V55.998M324 70.006l-13.994-14.008-14.008 14.008" style="fill:none;stroke:#000;stroke-width:2;stroke-linecap:square;stroke-linejoin:round;stroke-miterlimit:10;stroke-opacity:1"/><use height="100%" width="100%" y="40.54" x="97.932" xlink:href="#f" style="fill:#000;fill-opacity:1" transform="translate(-7.885 -2.863)"/><use height="100%" width="100%" y="42.066" x="103.729" xlink:href="#g" style="fill:#000;fill-opacity:1" transform="translate(-7.885 -2.863)"/><path transform="matrix(.30508 0 0 -.30508 -7.885 71.237)" d="M138 26.998h121.994M246 41.005l13.994-14.007L246 13.003" style="fill:none;stroke:#000;stroke-width:2;stroke-linecap:square;stroke-linejoin:round;stroke-miterlimit:10;stroke-opacity:1"/><use height="100%" width="100%" y="62.507" x="58.271" xlink:href="#h" style="fill:#000;fill-opacity:1" transform="translate(-7.885 -2.863)"/><use height="100%" width="100%" y="62.507" x="58.576" xlink:href="#i" style="fill:#000;fill-opacity:1" transform="translate(-7.885 -2.863)"/><path transform="matrix(.30508 0 0 -.30508 -7.885 71.237)" d="M138.998 203.997h120.996M246 218.005l13.994-14.008L246 190.003" style="fill:none;stroke:#000;stroke-width:2;stroke-linecap:square;stroke-linejoin:round;stroke-miterlimit:10;stroke-opacity:1"/><use height="100%" width="100%" y="8.507" x="58.576" xlink:href="#h" style="fill:#000;fill-opacity:1" transform="translate(-7.885 -2.863)"/><path transform="matrix(.30508 0 0 -.30508 -7.885 71.237)" d="M194.003 232.998H207" style="fill:none;stroke:#000;stroke-width:1;stroke-linecap:round;stroke-linejoin:round;stroke-miterlimit:10;stroke-opacity:1"/><use height="100%" width="100%" y="41.456" x="52.78" xlink:href="#j" style="fill:#000;fill-opacity:1" transform="translate(-7.885 -2.863)"/><use height="100%" width="100%" y="41.456" x="52.78" xlink:href="#k" style="fill:#000;fill-opacity:1" transform="translate(-7.885 -2.863)"/></svg>