<svg width="147.168" height="543.881" viewBox="0 0 38.938122 143.90198" xmlns:xlink="http://www.w3.org/1999/xlink" xmlns="http://www.w3.org/2000/svg"><defs><mask maskUnits="userSpaceOnUse" x="0" y="0" width="1" height="1" id="a"><image width="2.998" height="1" preserveAspectRatio="none" xlink:href="../../../../../../Neural_Operators_as_Fast_Surrogates_Models_for_the_Transmission_Loss_of_Parameterized_Sonic_Crystals_img0.png" image-rendering="optimizeSpeed"/></mask><clipPath id="b"><path d="M15.57 0h62.567v62.567H15.57z"/></clipPath></defs><path d="M11.297 143.761h22v-22h-22z" fill="none" stroke="#000" stroke-width=".28116566" stroke-miterlimit="10"/><path d="M23.297 139.184a6.5 6.5 0 1 0-2 0v-1.524a5 5 0 1 1 2 0z" fill="none" stroke="#000" stroke-width=".28116566" stroke-miterlimit="10"/><image width="2.998" height="1" preserveAspectRatio="none" transform="matrix(0 -22.01987 22.03556 0 11.28 110.791)" xlink:href="../../../../../../Neural_Operators_as_Fast_Surrogates_Models_for_the_Transmission_Loss_of_Parameterized_Sonic_Crystals_img1.png" mask="url(#a)" image-rendering="optimizeSpeed"/><path d="M11.297 110.761h22v-66h-22z" fill="none" stroke="#000" stroke-width=".28116566" stroke-miterlimit="10"/><path d="M11.297 110.761v-66" fill="none" stroke="#000" stroke-width=".14075922" stroke-miterlimit="10"/><text transform="rotate(-90 56.022 46.845) scale(.35278)" style="-inkscape-font-specification:NimbusRomNo9L-Regu" font-size="9.963" font-family="NimbusRomNo9L"><tspan x="0 5.5392056 8.8567514 13.280146 17.155598 21.031048 26.012348 29.329895" y="0">Pressure</tspan></text><text transform="matrix(0 -.35278 .35278 0 9.177 90.08)" style="-inkscape-font-specification:CMSY10" font-weight="400" font-size="9.963" font-family="CMSY10"><tspan x="0 8.8587437" y="0">ℜ{</tspan></text><text transform="rotate(-90 47.188 38.011) scale(.35278)" style="-inkscape-font-specification:CMMI10" font-weight="400" font-size="9.963" font-family="CMMI10"><tspan x="0" y="0">p</tspan></text><text transform="matrix(0 -.35278 .35278 0 9.177 83.43)" style="-inkscape-font-specification:CMR10" font-weight="400" font-size="9.963" font-family="CMR10"><tspan x="0" y="0">(</tspan></text><text transform="rotate(-90 45.62 36.444) scale(.35278)" style="-inkscape-font-specification:CMMIB10" font-weight="400" font-size="9.963" font-family="CMMIB10"><tspan x="0" y="0">x</tspan></text><text transform="rotate(-90 44.462 35.286) scale(.35278)" style="-inkscape-font-specification:CMR10" font-weight="400" font-size="9.963" font-family="CMR10"><tspan x="0" y="0">)</tspan></text><text transform="rotate(-90 43.779 34.602) scale(.35278)" style="-inkscape-font-specification:CMSY10" font-weight="400" font-size="9.963" font-family="CMSY10"><tspan x="0" y="0">}</tspan></text><text transform="rotate(-90 42.461 33.284) scale(.35278)" style="-inkscape-font-specification:NimbusRomNo9L-Regu" font-size="9.963" font-family="NimbusRomNo9L"><tspan x="0 4.4233942" y="0">at</tspan></text><text transform="rotate(-90 40.753 31.576) scale(.35278)" style="-inkscape-font-specification:CMMI10" font-weight="400" font-size="9.963" font-family="CMMI10"><tspan x="0" y="0">f</tspan></text><text transform="rotate(-90 39.215 30.039) scale(.35278)" style="-inkscape-font-specification:CMR10" font-weight="400" font-size="9.963" font-family="CMR10"><tspan x="0 10.518513 15.499813" y="0">=14</tspan></text><text transform="matrix(0 -.35278 .35278 0 9.177 62.03)" style="-inkscape-font-specification:CMMI10" font-weight="400" font-size="9.963" font-family="CMMI10"><tspan x="0" y="0">.</tspan></text><text transform="rotate(-90 35.115 25.938) scale(.35278)" style="-inkscape-font-specification:CMR10" font-weight="400" font-size="9.963" font-family="CMR10"><tspan x="0 6.6450543 11.903315 19.375265" y="0">8kHz</tspan></text><path d="M11.297 143.761v-22" fill="none" stroke="#000" stroke-width=".14075922" stroke-miterlimit="10"/><g><text transform="rotate(-90 73.907 64.613) scale(.35278)" style="-inkscape-font-specification:NimbusRomNo9L-Regu" font-size="9.963" font-family="NimbusRomNo9L"><tspan x="0 6.6450543 9.9625998 13.838052 18.819351 23.242746 28.224047" y="0">C-shape</tspan></text></g><g><path d="M9.761 33.84h1.5m-1.5-10.032h1.5m-1.5-10.033h1.5M29.655 10.268v1.5m-6.132-1.5v1.5m-6.13-1.5v1.5m-6.132-1.5v1.5" fill="none" stroke="#000" stroke-width=".07020322" stroke-miterlimit="10"/><path d="M33.333 33.84H11.261V11.77h22.072z" fill="none" stroke="#000" stroke-width=".14075922" stroke-miterlimit="10"/><text transform="rotate(-90 23.035 14.808) scale(.35278)" style="-inkscape-font-specification:CMSY10" font-weight="400" font-size="9.963" font-family="CMSY10"><tspan x="0" y="0">−</tspan></text><text transform="matrix(0 -.35278 .35278 0 8.227 35.11)" style="-inkscape-font-specification:CMR10" font-weight="400" font-size="9.963" font-family="CMR10"><tspan x="0 4.9812999 9.9625998" y="0">100</tspan></text><text transform="rotate(-90 17.58 9.353) scale(.35278)" style="-inkscape-font-specification:CMSY10" font-weight="400" font-size="9.963" font-family="CMSY10"><tspan x="0" y="0">−</tspan></text><text transform="rotate(-90 16.213 7.986) scale(.35278)" style="-inkscape-font-specification:CMR10" font-weight="400" font-size="9.963" font-family="CMR10"><tspan x="0 4.9812999" y="0">50</tspan></text><g><text transform="rotate(-90 11.587 3.067) scale(.35278)" style="-inkscape-font-specification:CMR10" font-weight="400" font-size="9.963" font-family="CMR10"><tspan x="0" y="0">0</tspan></text></g><g><text transform="rotate(-90 19.907 -10.88) scale(.35278)" style="-inkscape-font-specification:CMR10" font-weight="400" font-size="9.963" font-family="CMR10"><tspan x="0" y="0">5</tspan></text></g><g><text transform="rotate(-90 16.842 -7.814) scale(.35278)" style="-inkscape-font-specification:CMR10" font-weight="400" font-size="9.963" font-family="CMR10"><tspan x="0 4.9812999" y="0">10</tspan></text></g><g><text transform="rotate(-90 13.776 -4.749) scale(.35278)" style="-inkscape-font-specification:CMR10" font-weight="400" font-size="9.963" font-family="CMR10"><tspan x="0 4.9812999" y="0">15</tspan></text></g><g><text transform="rotate(-90 10.71 -1.683) scale(.35278)" style="-inkscape-font-specification:CMR10" font-weight="400" font-size="9.963" font-family="CMR10"><tspan x="0 4.9812999" y="0">20</tspan></text></g><g clip-path="url(#b)" transform="matrix(0 -.35278 -.35278 0 33.333 39.333)"><path d="M15.57 44.572h62.567" fill="none" stroke="#1f77b4" stroke-width=".598" stroke-miterlimit="10" stroke-dasharray="2.98883,2.98883"/><path d="M72.112 0l-.057.21.031.208.11.21.144.209.1.21-.021.209-.154.209-.199.209-.126.21.028.209.187.209.232.209.04.21-.274.209-.365.209-.104.21.336.208.425.21-.475.209-.787.21.47.208.49.21-2.064.209 1.629.21-1.343.208-22.294.21-12.142.209-10.88.21-10.903.208-13.086.21L0 6.487l.688.21-.307.208.684.21 1.193.209.67.21.043.208 4.528.21 14.497.209 17.43.21 29.38.208-.455.21 3.462.209-1.806.21 2.419.208-1.818.21.26.209 1.444.21-.405.208-.97.21-.032.209.764.21.754.208-.353.21-.84.209-.433.21.166.208.681.21.73.209-.166.21-.928.208-.762.21-.21.209.446.21 1.048.208.626.21-1.29.209-1.566.21-.714.208.596.21 2.716.209-3.875.21-4.866.208-3.31.21-2.543.209-2.085.21-1.769.208-1.532.21-1.346.209-1.19.21-1.06.209-.94.209-.82.209-.784.21-.673.209-.596.209-.525.209-.452.21-.293.209-.347.209-.365.21-.23.208-.17.21-.112.209-.053.21 1.562.208-1.541.21.077.209.136.21.187.208.24.21.293.209.346.21.4.208.456.21.515.209.578.21.642.208.71.21.784.209.865.21.951.208 1.048.21 1.156.209 1.282.21 1.429.208 1.606.21 1.833.209 2.133.21 2.57.208 3.274.21 4.378.209 2.147.21-1.68.208-.588.21.29.209.812.21.925.208.43.21-.255.209-.46.21-.299.208-.043.21.183.209.327.21.338.208.2.21-.01.209-.16.21-.188.208-.123.21-.02.209.082.21.148.208.16.21.114.209.031.21-.047.209-.087.209-.08.209-.042.21.01.209.054.209.079.209.075.21.05.209.01.209-.022.209-.038.21-.032.209-.014.209.009.21.028.208.037.21.033.209.022.21.007.208-.005.21-.008.209-.004.21.002.208.01.21.014.209.01.21.005.208-.004.21-.009.209-.008.21.002.208.018.21.033.209.032.21.002.208-.063.21-.139.209-.171.21-.11.208.067.21.302.209.167.21-1.205.208-2.48.21-2.518.209-2.207.21-1.906.208-1.66.21-1.459.209-1.286.21-1.139.208-1.006.21-.886.209-.774.21-.669.208-.567.21-.47.209-.373.21-.276.208-.179.21-.08.209.024.21.132.208.246.21.37.209.506.21.656.208.83.21 1.032.209 1.276.21 1.585.208 2.001.21 2.617.209 3.692.21 6.005.209.664.209-1.447.209 2.35.21-.072.209.746.209-.592.209-.993.21-.495.209.15.209.607.209.198.21-.815.209-.752.209.121.21.902.208-.437.21-1.351.209.491.21.855.208-2.476.21 2.593.209-4.138.21-2.136.208-16.127.21-14.954.209-11.427.21-7.114.208-.82.21-.405.209-.44.21-.442.208-.424.21-.4.209-.386.21-.387.208-.403.21-.423.209-.43.21-.416.208-.367.21-.285.209-.173.21-.04.208.105.21.23.209.291.21.331.208.468.21.628.209.565.21.565.208 1.621.21 2.839.209 3.128.21 3.391.208 3.8.21 4.176.209 4.61.21 5.312.208 6.618.21 10.328.209 5.463.21 4.705.208-2.115.21.053.209 3.781.21-2.803.208-.638.21 2.383.209-.105.21-2.164.209.865.209 2.24.209-3.25.21.732.209.315.209" fill="none" stroke="#000" stroke-width=".598" stroke-miterlimit="10"/></g><g><text transform="rotate(-90 17.9 15.23) scale(.35278)" style="-inkscape-font-specification:CMMI10" font-weight="400" font-size="9.963" font-family="CMMI10"><tspan x="0 7.2069449" y="0">TL</tspan></text><text transform="matrix(0 -.35278 .35278 0 2.67 28.197)" style="-inkscape-font-specification:CMR10" font-weight="400" font-size="9.963" font-family="CMR10"><tspan x="0" y="0">(</tspan></text><text transform="rotate(-90 14.75 12.08) scale(.35278)" style="-inkscape-font-specification:CMMI10" font-weight="400" font-size="9.963" font-family="CMMI10"><tspan x="0" y="0">f</tspan></text><text transform="rotate(-90 13.7 11.03) scale(.35278)" style="-inkscape-font-specification:CMR10" font-weight="400" font-size="9.963" font-family="CMR10"><tspan x="0" y="0">)</tspan></text><text transform="rotate(-90 12.578 9.908) scale(.35278)" style="-inkscape-font-specification:NimbusRomNo9L-Regu" font-size="9.963" font-family="NimbusRomNo9L"><tspan x="0 2.7696028" y="0">in</tspan></text><text transform="rotate(-90 10.772 8.101) scale(.35278)" style="-inkscape-font-specification:CMR10" font-weight="400" font-size="9.963" font-family="CMR10"><tspan x="0 2.7676103 8.3028307 15.359341" y="0">[dB]</tspan></text></g><g><text transform="matrix(-.35278 0 0 -.35278 29.595 .463)" style="-inkscape-font-specification:CMMI10" font-weight="400" font-size="9.963" font-family="CMMI10"><tspan x="0" y="0">f</tspan></text><text transform="matrix(-.35278 0 0 -.35278 26.618 .463)" style="-inkscape-font-specification:NimbusRomNo9L-Regu" font-size="9.963" font-family="NimbusRomNo9L"><tspan x="0 2.7696028" y="0">in</tspan></text><text transform="matrix(-.35278 0 0 -.35278 23.005 .463)" style="-inkscape-font-specification:CMR10" font-weight="400" font-size="9.963" font-family="CMR10"><tspan x="0 2.7676103 8.0258703 15.497821 19.9252" y="0">[kHz]</tspan></text></g></g><g><path d="M11.297 33.76h22v-22h-22z" fill="none" stroke="#000" stroke-width=".28116566" stroke-miterlimit="10"/></g><g><path d="M22.297 121.761v-10.086" fill="none" stroke="#000" stroke-width=".28116566" stroke-miterlimit="10"/><path d="M22.297 110.761l-.73 1.462.73-.548.731.548"/><text transform="rotate(-90 70.61 50.152) scale(.35278)" style="-inkscape-font-specification:CMMI10" font-weight="400" font-size="9.963" font-family="CMMI10"><tspan x="0" y="0">P</tspan></text><text transform="rotate(-90 69.745 48.76) scale(.35278)" style="-inkscape-font-specification:CMR7" font-weight="400" font-size="6.974" font-family="CMR7"><tspan x="0" y="0">1</tspan></text></g><g><path d="M22.297 44.76V34.675" fill="none" stroke="#000" stroke-width=".28116566" stroke-miterlimit="10"/><path d="M22.297 33.76l-.73 1.463.73-.549.731.549"/><text transform="rotate(-90 32.11 11.652) scale(.35278)" style="-inkscape-font-specification:CMMI10" font-weight="400" font-size="9.963" font-family="CMMI10"><tspan x="0" y="0">P</tspan></text><text transform="rotate(-90 31.245 10.26) scale(.35278)" style="-inkscape-font-specification:CMR7" font-weight="400" font-size="6.974" font-family="CMR7"><tspan x="0" y="0">2</tspan></text></g><g><path d="M33.297 132.761h5.5v-110h-4.586" fill="none" stroke="#000" stroke-width=".28116566" stroke-miterlimit="10"/><path d="M33.297 22.76l1.462.731-.548-.73.548-.732"/><text transform="rotate(-90 62.623 25.138) scale(.35278)" style="-inkscape-font-specification:CMMI10" font-weight="400" font-size="9.963" font-family="CMMI10"><tspan x="0" y="0">G</tspan></text><text transform="rotate(-90 60.604 24.394) scale(.35278)" style="-inkscape-font-specification:CMSY7" font-weight="400" font-size="6.974" font-family="CMSY7"><tspan x="0" y="0">†</tspan></text></g></svg>