<svg height="576" viewBox="0 0 576 432" width="768" xmlns="http://www.w3.org/2000/svg" xmlns:xlink="http://www.w3.org/1999/xlink"><defs><style>*{stroke-linecap:butt;stroke-linejoin:round}</style></defs><g id="figure_1"><path d="M0 432h576V0H0z" fill="#fff" id="patch_1"/><g id="axes_1"><path d="M72 200.291h446.4V43.2H72z" fill="#fff" id="patch_2"/><path clip-path="url(#p3af14643a6)" d="M305.486 103.687l-9.09-3.92-9.152 1.66-3.016 1.071-1.495 1.643-7 1.534 2.679-1.489-9.249 1.512-6.376-1.169-4.277 2.142-7.403 1.205-12.936 3.691-.707 3.723 1.387 3.768.374 4.065-3.88 2.116 4.466 3.327.906 2.221-4.078 5.624 2.698 1.695 6.087.409 2.016-.3 7.064 3.185 4.538 1.884 9.824 1.349 11.176 1.654 7.162-.612 6.253-.332 8.215.261 7.489.515 4.092-1.132 14.509-.779 8.259 1.027 6.425-.591 5.211.635 6.92-1.359 2.557-1.96 2.706.397 8.67-3.119 7.177-3.947 5.99-2.831.956-4.408 4.085-2.219 2.729-2.222 1.287-2.227-5.077-1.33.265-1.56-1.748-3.397-7.015-3.256-8.058-3.357-6.427-3.74-7.954-3.285-6.298-1.09-1.346-1.66-7.739-5.001-9.721-2.836-2.892-1.14-12.941-1.659-5.885-.532-3.412.411-14.677-2.328-13.711-.489-8.361.051-9.371-.658-6.907 1.355-7.107 1.554-12.257 2.954-6.132-.07-12.811 2.707-10.883 2.843-8.097 3.51-9.705 2.318-9.359 2.442-5.956 4.408 8.109 5.556-.957 4.721-3.861 3.992 3.252 6.102 4.626 5.061 4.472 3.001 1.271 4.856 3.705 5.511 6.004 1.139.486 2.958 5.635 3.76 9.146 3.585 21.062 6.819 12.237 1.277 11.488 4.492 14.845 1.279 11.496.708 20.794 1.016 10.257 1.421 10.962-1.374 10.895 1.633 15.354-1.836 14.706-5.094 13.18-1.845 10.864-2.154 5.123-3.18 6.115-5.618 7.359-4.412 5.502-7.256 3.722-2.599 3.932-5.133-2.71-5.465 8.281-5.287-5.024-4.42 8.892-4.005-.638-4.87-6.331-3.102-4.784-5.547.958-2.529-7.467-2.29-3.182-3.276-7.783-2.13-6.536-4.155-15.448-2.803L376.806 85l-5.083-3.63-3.416-.88-7.335-2.068-9.238-1.697-11.75-2.72-21.932-2.47-17.073-.653-16.216-1.275-19.875.941-18.04 1.569-10.729 2.358-14.449 2.128-11.713 2.791-6.403 5.387-7.72 4.313-5.852 3.724-2.597 3.06-12.563 6.982-5.069 7.012 2.375 4.78 1.263 4.151-3.481 5.567-.711 4.903 5.996 3.012 4.462 5.127 1.421 4.49 8.163 2.815 8.75 4.083 7.058 4.568 8.5 4.642 7.411 1.511 20.437.415 9.137 2.114 5.725.749 14 .115 12.476.942 14.971 1.826 10.278-.413 11.555 1.021 11.757.585 10.208-.83 14.303-.652 4.787-1.27 12.794-3.181 12.986-2.806 12.818-4.692 12.775-2.654 8.346-2.531 4.589-1.758 11.754-2.965 4.242-7.184 4.486-7.027-1.309-1.99 2.78-6.596-.754-4.158-9.119-4.702.292-5.126-6.298-2.863 2.095-5.786-9.287-5.35-10.824-4.97-24.318-5.605-10.377-4.1-12.446-2.808-16.967-3.519-21.412-2.402-20.593-1.197-12.775-1.917-20.55-.631-15.911-.949-18.214.291-21.125 2.829-13.442 1.556-14.262 5.17-13.198 3.491-10.651 3.657-7.82 4.285-7.798 5.45-12.952 6.225-5.504 7.268 2.872 6.011-3.246 6.917-4.1 6.026-2.906 5.63 4.51 6.82 2.457 5.215 13.311 4.802 17.559 8.922 5.77 5.011 5.801 5.914 13.078 4.865 18.752 2.273 6.64 1.135 9.158 3.599 18.896 1.356 15.203 2.381 13.594.799 21.55-.405 17.102-.086 18.71-2.503 12.784-2.117 15.131-.832 8.367-2.628 19.422-4.042 15.482-1.668 9.894-1.756 13.917-2.932 7.405-2.677 18.628-7.502 2.355-6.41 2.4-6.891 8.495-7.065-2.978-6.805 1.872-9.827-4.95-4.937-3.329-5.303-7.018-5.716-8.181-5.236-11.034-10.266-9.098-4.032-13.379-3.605-9.244-3.731-13.044-3.813-13.09-2.448-21.089-3.625-17.922-2.202-14.046-3.13-20.785-.91-24.343-1.5-20.171-1.91-15.189 4.182-22.887 1.548-35.511 9.901-21.516 3.54-9.374 5.61-12.82 6.017-14.96 5.351-11 6.046-6.074 7.073-5.335 8.342 3.984 9.064-2.996 7.134 3.289 8.717 4.566 4.12 12.445 14.353 19.125 5.344 13.995 2.289 11.309 5.154 12.157 2.309 12.903 4.111 15.774 4.004 23.359 2.634 10.2 2.448 16.577-.126 18.788 1.702 16.41.187 10.253 1.149 15.815-1.557 16.831.835 19.655-.828 11.691-1.715 25.893-1.885 19.009-6.818 13.301-3.306 12.836-4.925 12.094-6.2 6.622-6.05 6.761-5.547 1.83-6.013 6.907-12.697-2.449-6.718" fill="none" stroke="#00f" stroke-linecap="square" id="line2d_1"/><g id="line2d_2"><defs><path d="M0 3a3 3 0 1 0 0-6 3 3 0 0 0 0 6z" id="mdb00ba95ec" stroke="#000" stroke-width=".5"/></defs><g clip-path="url(#p3af14643a6)"><use x="305.486" xlink:href="#mdb00ba95ec" y="103.687" fill="#00f" stroke="#000" stroke-width=".5"/></g></g><g id="line2d_3"><defs><path d="M-3 3l6-6m-6 0l6 6" id="m7a01b90040" stroke="red" stroke-width=".5"/></defs><g clip-path="url(#p3af14643a6)" fill="red" stroke="red" stroke-width=".5"><use x="322.392" xlink:href="#m7a01b90040" y="85.131"/><use x="272.379" xlink:href="#m7a01b90040" y="91.461"/><use x="289.271" xlink:href="#m7a01b90040" y="87.555"/><use x="292.065" xlink:href="#m7a01b90040" y="105.921"/><use x="284.05" xlink:href="#m7a01b90040" y="88.821"/><use x="264.85" xlink:href="#m7a01b90040" y="104.738"/><use x="298.402" xlink:href="#m7a01b90040" y="95.401"/><use x="303.168" xlink:href="#m7a01b90040" y="89.495"/><use x="242.545" xlink:href="#m7a01b90040" y="94.566"/><use x="234.784" xlink:href="#m7a01b90040" y="113.084"/><use x="259.558" xlink:href="#m7a01b90040" y="98.844"/><use x="254.247" xlink:href="#m7a01b90040" y="112.072"/><use x="240.778" xlink:href="#m7a01b90040" y="114.338"/><use x="259.696" xlink:href="#m7a01b90040" y="116.714"/><use x="223.675" xlink:href="#m7a01b90040" y="128.825"/><use x="203.946" xlink:href="#m7a01b90040" y="115.271"/><use x="232.345" xlink:href="#m7a01b90040" y="135.412"/><use x="230.657" xlink:href="#m7a01b90040" y="128.701"/><use x="227.307" xlink:href="#m7a01b90040" y="144.125"/><use x="235.311" xlink:href="#m7a01b90040" y="135.514"/><use x="236.235" xlink:href="#m7a01b90040" y="141.673"/><use x="254.468" xlink:href="#m7a01b90040" y="146.209"/><use x="235.922" xlink:href="#m7a01b90040" y="162.009"/><use x="234.512" xlink:href="#m7a01b90040" y="145.896"/><use x="267.557" xlink:href="#m7a01b90040" y="153.081"/><use x="302.006" xlink:href="#m7a01b90040" y="157.535"/><use x="285.487" xlink:href="#m7a01b90040" y="139.927"/><use x="297.864" xlink:href="#m7a01b90040" y="139.28"/><use x="287.487" xlink:href="#m7a01b90040" y="141.959"/><use x="328.776" xlink:href="#m7a01b90040" y="152.935"/><use x="322.549" xlink:href="#m7a01b90040" y="145.586"/><use x="378.326" xlink:href="#m7a01b90040" y="132.245"/><use x="311.277" xlink:href="#m7a01b90040" y="151.775"/><use x="319.666" xlink:href="#m7a01b90040" y="142.297"/><use x="319.265" xlink:href="#m7a01b90040" y="149.037"/><use x="315.755" xlink:href="#m7a01b90040" y="148.12"/><use x="356.516" xlink:href="#m7a01b90040" y="132.535"/><use x="338.047" xlink:href="#m7a01b90040" y="156.897"/><use x="305.397" xlink:href="#m7a01b90040" y="144.878"/><use x="383.665" xlink:href="#m7a01b90040" y="138.928"/><use x="347.836" xlink:href="#m7a01b90040" y="143.105"/><use x="418.661" xlink:href="#m7a01b90040" y="143.383"/><use x="373.357" xlink:href="#m7a01b90040" y="135.054"/><use x="419.881" xlink:href="#m7a01b90040" y="107.778"/><use x="367.014" xlink:href="#m7a01b90040" y="113.66"/><use x="374.552" xlink:href="#m7a01b90040" y="113.509"/><use x="356.351" xlink:href="#m7a01b90040" y="117.027"/><use x="422.284" xlink:href="#m7a01b90040" y="114.272"/><use x="339.354" xlink:href="#m7a01b90040" y="121.565"/><use x="365.262" xlink:href="#m7a01b90040" y="104.999"/><use x="333.763" xlink:href="#m7a01b90040" y="97.435"/><use x="381.792" xlink:href="#m7a01b90040" y="108.017"/><use x="306.419" xlink:href="#m7a01b90040" y="114.553"/><use x="306.968" xlink:href="#m7a01b90040" y="109.27"/><use x="388.02" xlink:href="#m7a01b90040" y="83.459"/><use x="307.182" xlink:href="#m7a01b90040" y="75.525"/><use x="335.907" xlink:href="#m7a01b90040" y="87.255"/><use x="343.799" xlink:href="#m7a01b90040" y="91.825"/><use x="258.668" xlink:href="#m7a01b90040" y="79.443"/><use x="281.79" xlink:href="#m7a01b90040" y="86.072"/><use x="287.888" xlink:href="#m7a01b90040" y="93.365"/><use x="287.407" xlink:href="#m7a01b90040" y="66.744"/><use x="285.476" xlink:href="#m7a01b90040" y="94.542"/><use x="293.964" xlink:href="#m7a01b90040" y="83.99"/><use x="242.408" xlink:href="#m7a01b90040" y="89.139"/><use x="227.841" xlink:href="#m7a01b90040" y="74.737"/><use x="215.878" xlink:href="#m7a01b90040" y="89.508"/><use x="229.755" xlink:href="#m7a01b90040" y="96.439"/><use x="259.721" xlink:href="#m7a01b90040" y="96.476"/><use x="205.784" xlink:href="#m7a01b90040" y="94.835"/><use x="199.243" xlink:href="#m7a01b90040" y="94.96"/><use x="162.665" xlink:href="#m7a01b90040" y="92.157"/><use x="216.687" xlink:href="#m7a01b90040" y="94.411"/><use x="157.522" xlink:href="#m7a01b90040" y="88.914"/><use x="225.218" xlink:href="#m7a01b90040" y="91.897"/><use x="185.75" xlink:href="#m7a01b90040" y="114.947"/><use x="142.394" xlink:href="#m7a01b90040" y="123.384"/><use x="199.653" xlink:href="#m7a01b90040" y="125.137"/><use x="168.624" xlink:href="#m7a01b90040" y="129.294"/><use x="190.88" xlink:href="#m7a01b90040" y="136.64"/><use x="218.343" xlink:href="#m7a01b90040" y="138.743"/><use x="145.673" xlink:href="#m7a01b90040" y="138.53"/><use x="163.946" xlink:href="#m7a01b90040" y="161.369"/><use x="177.293" xlink:href="#m7a01b90040" y="150.346"/><use x="211.315" xlink:href="#m7a01b90040" y="144.026"/><use x="257.076" xlink:href="#m7a01b90040" y="149.944"/><use x="217.514" xlink:href="#m7a01b90040" y="157.736"/><use x="257.228" xlink:href="#m7a01b90040" y="172.045"/><use x="231.707" xlink:href="#m7a01b90040" y="160.378"/><use x="258.957" xlink:href="#m7a01b90040" y="159.892"/><use x="265.888" xlink:href="#m7a01b90040" y="161.584"/><use x="269.404" xlink:href="#m7a01b90040" y="183.074"/><use x="286.36" xlink:href="#m7a01b90040" y="176.148"/><use x="322.235" xlink:href="#m7a01b90040" y="168.68"/><use x="266.705" xlink:href="#m7a01b90040" y="186.813"/><use x="298.233" xlink:href="#m7a01b90040" y="165.922"/><use x="320.692" xlink:href="#m7a01b90040" y="161.914"/><use x="352.881" xlink:href="#m7a01b90040" y="189.913"/><use x="379.203" xlink:href="#m7a01b90040" y="158.232"/><use x="416.684" xlink:href="#m7a01b90040" y="160.143"/><use x="385.806" xlink:href="#m7a01b90040" y="158.004"/><use x="382.965" xlink:href="#m7a01b90040" y="157.263"/><use x="364.98" xlink:href="#m7a01b90040" y="167.595"/><use x="392.579" xlink:href="#m7a01b90040" y="152.184"/><use x="402.019" xlink:href="#m7a01b90040" y="149.275"/><use x="386.114" xlink:href="#m7a01b90040" y="120.161"/><use x="398.672" xlink:href="#m7a01b90040" y="139.601"/><use x="447.824" xlink:href="#m7a01b90040" y="137.056"/><use x="438.841" xlink:href="#m7a01b90040" y="120.592"/><use x="446.653" xlink:href="#m7a01b90040" y="117.913"/><use x="438.936" xlink:href="#m7a01b90040" y="120.513"/><use x="425.289" xlink:href="#m7a01b90040" y="127.468"/><use x="420.127" xlink:href="#m7a01b90040" y="103.755"/><use x="386.969" xlink:href="#m7a01b90040" y="98.235"/><use x="417.767" xlink:href="#m7a01b90040" y="102.098"/><use x="429.754" xlink:href="#m7a01b90040" y="108.019"/><use x="429.881" xlink:href="#m7a01b90040" y="99.431"/><use x="412.112" xlink:href="#m7a01b90040" y="91.44"/><use x="384.847" xlink:href="#m7a01b90040" y="86.993"/><use x="400.511" xlink:href="#m7a01b90040" y="85.264"/><use x="398.739" xlink:href="#m7a01b90040" y="87.152"/><use x="360.464" xlink:href="#m7a01b90040" y="89.845"/><use x="367.23" xlink:href="#m7a01b90040" y="83.08"/><use x="352.829" xlink:href="#m7a01b90040" y="63.054"/><use x="306.938" xlink:href="#m7a01b90040" y="93.73"/><use x="296.576" xlink:href="#m7a01b90040" y="60.95"/><use x="348.178" xlink:href="#m7a01b90040" y="73.579"/><use x="280.532" xlink:href="#m7a01b90040" y="52.744"/><use x="262.245" xlink:href="#m7a01b90040" y="55.44"/><use x="266.089" xlink:href="#m7a01b90040" y="77.025"/><use x="256.431" xlink:href="#m7a01b90040" y="68.889"/><use x="152.323" xlink:href="#m7a01b90040" y="75.765"/><use x="221.782" xlink:href="#m7a01b90040" y="87.755"/><use x="177.527" xlink:href="#m7a01b90040" y="76.802"/><use x="208.029" xlink:href="#m7a01b90040" y="71.107"/><use x="179.268" xlink:href="#m7a01b90040" y="94.719"/><use x="160.792" xlink:href="#m7a01b90040" y="99.337"/><use x="205.586" xlink:href="#m7a01b90040" y="93.536"/><use x="195.859" xlink:href="#m7a01b90040" y="89.93"/><use x="151.381" xlink:href="#m7a01b90040" y="101.285"/><use x="148.305" xlink:href="#m7a01b90040" y="117.362"/><use x="180.544" xlink:href="#m7a01b90040" y="130.492"/><use x="224.458" xlink:href="#m7a01b90040" y="113.999"/><use x="137.069" xlink:href="#m7a01b90040" y="131.241"/><use x="127.3" xlink:href="#m7a01b90040" y="135.15"/><use x="185.195" xlink:href="#m7a01b90040" y="122.055"/><use x="137.278" xlink:href="#m7a01b90040" y="148.039"/><use x="162.026" xlink:href="#m7a01b90040" y="146.979"/><use x="219.518" xlink:href="#m7a01b90040" y="133.7"/><use x="197.975" xlink:href="#m7a01b90040" y="147.413"/><use x="257.182" xlink:href="#m7a01b90040" y="160.355"/><use x="195.549" xlink:href="#m7a01b90040" y="169.137"/><use x="199.97" xlink:href="#m7a01b90040" y="162.918"/><use x="252.619" xlink:href="#m7a01b90040" y="150.625"/><use x="270.34" xlink:href="#m7a01b90040" y="164.135"/><use x="238.419" xlink:href="#m7a01b90040" y="165.523"/><use x="268.848" xlink:href="#m7a01b90040" y="170.793"/><use x="278.15" xlink:href="#m7a01b90040" y="166.517"/><use x="300.039" xlink:href="#m7a01b90040" y="177.854"/><use x="327.874" xlink:href="#m7a01b90040" y="171.685"/><use x="280.22" xlink:href="#m7a01b90040" y="176.26"/><use x="303.342" xlink:href="#m7a01b90040" y="163.053"/><use x="353.254" xlink:href="#m7a01b90040" y="164.338"/><use x="321.11" xlink:href="#m7a01b90040" y="174.736"/><use x="328.326" xlink:href="#m7a01b90040" y="173.459"/><use x="377.143" xlink:href="#m7a01b90040" y="164.3"/><use x="381.45" xlink:href="#m7a01b90040" y="169.706"/><use x="365.925" xlink:href="#m7a01b90040" y="156.735"/><use x="437.854" xlink:href="#m7a01b90040" y="144.882"/><use x="438.272" xlink:href="#m7a01b90040" y="163.591"/><use x="408.545" xlink:href="#m7a01b90040" y="147.865"/><use x="425.021" xlink:href="#m7a01b90040" y="131.537"/><use x="457.117" xlink:href="#m7a01b90040" y="141.955"/><use x="443.947" xlink:href="#m7a01b90040" y="121.143"/><use x="434.379" xlink:href="#m7a01b90040" y="140.555"/><use x="406.077" xlink:href="#m7a01b90040" y="119.503"/><use x="470.401" xlink:href="#m7a01b90040" y="129.738"/><use x="489.932" xlink:href="#m7a01b90040" y="107.516"/><use x="432.622" xlink:href="#m7a01b90040" y="117.727"/><use x="415.425" xlink:href="#m7a01b90040" y="114.031"/><use x="436.516" xlink:href="#m7a01b90040" y="88.656"/><use x="466.95" xlink:href="#m7a01b90040" y="101.081"/><use x="414.412" xlink:href="#m7a01b90040" y="89.708"/><use x="445.186" xlink:href="#m7a01b90040" y="93.475"/><use x="382.789" xlink:href="#m7a01b90040" y="77.293"/><use x="362.01" xlink:href="#m7a01b90040" y="87.992"/><use x="380.628" xlink:href="#m7a01b90040" y="86.888"/><use x="376.264" xlink:href="#m7a01b90040" y="72.331"/><use x="388.019" xlink:href="#m7a01b90040" y="79.942"/><use x="296.676" xlink:href="#m7a01b90040" y="77.628"/><use x="239.146" xlink:href="#m7a01b90040" y="80.27"/><use x="273.178" xlink:href="#m7a01b90040" y="72.051"/><use x="296.572" xlink:href="#m7a01b90040" y="70.002"/><use x="233.332" xlink:href="#m7a01b90040" y="86.189"/><use x="244.172" xlink:href="#m7a01b90040" y="64.629"/><use x="228.595" xlink:href="#m7a01b90040" y="77.725"/><use x="219.575" xlink:href="#m7a01b90040" y="69.141"/><use x="161.831" xlink:href="#m7a01b90040" y="96.839"/><use x="192.997" xlink:href="#m7a01b90040" y="86.989"/><use x="165.371" xlink:href="#m7a01b90040" y="72.747"/><use x="193.018" xlink:href="#m7a01b90040" y="89.639"/><use x="184.607" xlink:href="#m7a01b90040" y="89.32"/><use x="135.846" xlink:href="#m7a01b90040" y="100.865"/><use x="119.347" xlink:href="#m7a01b90040" y="112.196"/><use x="150.118" xlink:href="#m7a01b90040" y="103.113"/><use x="82.364" xlink:href="#m7a01b90040" y="106.608"/><use x="90.827" xlink:href="#m7a01b90040" y="129.292"/><use x="91.551" xlink:href="#m7a01b90040" y="126.029"/><use x="126.718" xlink:href="#m7a01b90040" y="135.24"/><use x="162.048" xlink:href="#m7a01b90040" y="144.381"/><use x="151.685" xlink:href="#m7a01b90040" y="135.132"/><use x="84.566" xlink:href="#m7a01b90040" y="158.117"/><use x="168.622" xlink:href="#m7a01b90040" y="157.927"/><use x="183.978" xlink:href="#m7a01b90040" y="156.089"/><use x="194.674" xlink:href="#m7a01b90040" y="162.009"/><use x="223.162" xlink:href="#m7a01b90040" y="166.323"/><use x="202.318" xlink:href="#m7a01b90040" y="172.506"/><use x="200.511" xlink:href="#m7a01b90040" y="184.859"/><use x="258.835" xlink:href="#m7a01b90040" y="185.495"/><use x="215.539" xlink:href="#m7a01b90040" y="177.372"/><use x="266.071" xlink:href="#m7a01b90040" y="179.721"/><use x="307.939" xlink:href="#m7a01b90040" y="168.988"/><use x="285.301" xlink:href="#m7a01b90040" y="173.036"/><use x="316.921" xlink:href="#m7a01b90040" y="185.718"/><use x="303.231" xlink:href="#m7a01b90040" y="177.599"/><use x="315.649" xlink:href="#m7a01b90040" y="179.653"/><use x="334.486" xlink:href="#m7a01b90040" y="173.074"/><use x="358.521" xlink:href="#m7a01b90040" y="175.194"/><use x="359.648" xlink:href="#m7a01b90040" y="160.143"/><use x="391.174" xlink:href="#m7a01b90040" y="161.836"/><use x="433.337" xlink:href="#m7a01b90040" y="159.184"/><use x="424.329" xlink:href="#m7a01b90040" y="156.844"/><use x="385.017" xlink:href="#m7a01b90040" y="150.473"/><use x="482.921" xlink:href="#m7a01b90040" y="151.502"/><use x="421.364" xlink:href="#m7a01b90040" y="132.403"/><use x="474.635" xlink:href="#m7a01b90040" y="136.649"/><use x="446.97" xlink:href="#m7a01b90040" y="135.195"/><use x="482.124" xlink:href="#m7a01b90040" y="134.109"/><use x="473.578" xlink:href="#m7a01b90040" y="114.536"/><use x="478.571" xlink:href="#m7a01b90040" y="104.11"/><use x="446.409" xlink:href="#m7a01b90040" y="103.656"/><use x="449.41" xlink:href="#m7a01b90040" y="80.247"/><use x="486.233" xlink:href="#m7a01b90040" y="103.743"/><use x="479.562" xlink:href="#m7a01b90040" y="95.782"/><use x="371.674" xlink:href="#m7a01b90040" y="77.494"/><use x="423.967" xlink:href="#m7a01b90040" y="76.192"/><use x="410.651" xlink:href="#m7a01b90040" y="75.409"/><use x="406.11" xlink:href="#m7a01b90040" y="81.358"/><use x="389.869" xlink:href="#m7a01b90040" y="78.858"/><use x="346.246" xlink:href="#m7a01b90040" y="62.716"/><use x="355.242" xlink:href="#m7a01b90040" y="75.984"/><use x="288.663" xlink:href="#m7a01b90040" y="57.144"/><use x="293.672" xlink:href="#m7a01b90040" y="53.243"/><use x="344.441" xlink:href="#m7a01b90040" y="65.923"/><use x="282.722" xlink:href="#m7a01b90040" y="58.262"/><use x="216.473" xlink:href="#m7a01b90040" y="64.614"/><use x="263.145" xlink:href="#m7a01b90040" y="63.384"/><use x="222.471" xlink:href="#m7a01b90040" y="63.044"/><use x="195.921" xlink:href="#m7a01b90040" y="53.613"/><use x="211.782" xlink:href="#m7a01b90040" y="58.343"/><use x="161.982" xlink:href="#m7a01b90040" y="72.156"/><use x="184.228" xlink:href="#m7a01b90040" y="73.341"/><use x="160.698" xlink:href="#m7a01b90040" y="82.263"/><use x="94.319" xlink:href="#m7a01b90040" y="88.327"/><use x="123.109" xlink:href="#m7a01b90040" y="100.109"/><use x="106.463" xlink:href="#m7a01b90040" y="98.05"/><use x="109.968" xlink:href="#m7a01b90040" y="104.622"/><use x="102.935" xlink:href="#m7a01b90040" y="130.583"/><use x="142.006" xlink:href="#m7a01b90040" y="125.48"/><use x="75.79" xlink:href="#m7a01b90040" y="136.545"/><use x="104.913" xlink:href="#m7a01b90040" y="144.096"/><use x="141.78" xlink:href="#m7a01b90040" y="148.529"/><use x="79.65" xlink:href="#m7a01b90040" y="151.943"/><use x="94.207" xlink:href="#m7a01b90040" y="160.023"/><use x="105.231" xlink:href="#m7a01b90040" y="164.258"/><use x="198.893" xlink:href="#m7a01b90040" y="174.902"/><use x="234.494" xlink:href="#m7a01b90040" y="166.189"/><use x="203.888" xlink:href="#m7a01b90040" y="179.824"/><use x="224.843" xlink:href="#m7a01b90040" y="190.585"/><use x="255.569" xlink:href="#m7a01b90040" y="179.273"/><use x="243.34" xlink:href="#m7a01b90040" y="185.485"/><use x="229.078" xlink:href="#m7a01b90040" y="179.794"/><use x="239.649" xlink:href="#m7a01b90040" y="177.579"/><use x="322.519" xlink:href="#m7a01b90040" y="186.498"/><use x="339.482" xlink:href="#m7a01b90040" y="177.867"/><use x="333.725" xlink:href="#m7a01b90040" y="174.809"/><use x="276.32" xlink:href="#m7a01b90040" y="189.738"/><use x="341.081" xlink:href="#m7a01b90040" y="182.722"/><use x="317.101" xlink:href="#m7a01b90040" y="175.486"/><use x="405.269" xlink:href="#m7a01b90040" y="184.919"/><use x="400.015" xlink:href="#m7a01b90040" y="172.278"/><use x="447.314" xlink:href="#m7a01b90040" y="162.936"/><use x="419.077" xlink:href="#m7a01b90040" y="159.685"/><use x="454.729" xlink:href="#m7a01b90040" y="178.157"/><use x="450.873" xlink:href="#m7a01b90040" y="158.104"/><use x="446.045" xlink:href="#m7a01b90040" y="154.553"/><use x="444.143" xlink:href="#m7a01b90040" y="138.518"/><use x="456.6" xlink:href="#m7a01b90040" y="134.335"/><use x="460.898" xlink:href="#m7a01b90040" y="146.56"/><use x="442.826" xlink:href="#m7a01b90040" y="117.08"/></g></g><path clip-path="url(#p3af14643a6)" d="M309.607 99.541l-6.17-.96-6.874-.462-6.532-.092-13.069.756-6.536.848-6.155.971-6.5 1.31-6.893 1.834-5.994 2.292-4.965 2.38-4.445 2.77-3.795 2.938-2.897 3.094-2.377 3.244-1.179 3.189.425 3.403 1.481 3.222 2.557 3.196 3.678 2.879 4.624 2.75 5.585 2.513 6.193 2.203 7.096 1.591 7.981 1.285 8.226.836 7.755.33 15.174.318 7.706-.035 7.166-.391 12.334-1.04 11.517-1.503 5.986-1.054 12.085-2.691 5.78-1.871 6.317-2.225 5.289-2.51 4.948-2.905 3.101-3.316 2.073-3.559.189-3.258-.492-3.082-1.25-2.946-1.635-2.928-6.932-5.844-4.355-2.803-4.522-2.528-5.701-2.497-11.256-5.378-7.524-2.35-7.692-1.798-8.428-1.501-9.43-1.282-8.815-.838-8.73-.577-8.929-.477-18.625.421-10.05.614-9.738.891-9.187 1.454-8.436 1.72-16.625 3.91-7.975 2.341L196.8 99l-6.044 3.038-5.776 3.411-4.236 3.933-3.891 4.447-2.685 4.577-.655 4.562.194 4.547 1.656 4.503 2.668 4.361 3.139 4.256 5.116 4.195 6.717 3.678 8.02 3.389 8.764 3.257 8.761 3.079 9.689 2.803 9.886 2.286 10.673 2.036 11.101 1.815 11.595 1.583 12.115.929 12.328.418 11.947.075 12.739-.645 12.976-1 12.961-1.313 12.347-2.206 11.245-2.469 9.576-2.745 8.672-2.972 7.954-3.215 7.62-3.727 6.74-3.997 5.72-4.262 5.186-4.017 4.562-4.241 2.96-4.464 1.587-4.386.155-4.287-1.086-4.275-2.131-4.451-3.12-4.212-3.392-3.946-4.276-3.834-5.515-3.884-6.906-3.783-8.052-3.547-8.746-3.263-9.856-2.98-11.079-2.742-11.75-2.574-12.782-2.286L314.8 71.31l-13.882-.865-15.141-.42-15.114.478-14.679 1.318-14.405 1.738-14.075 2.354-11.772 2.81-11.034 3-9.565 3.426-8.716 3.985-7.356 4.114-5.793 4.169-5.226 4.391-4.45 4.772-2.745 4.981-1.027 4.894-.191 9.339 1.665 4.616 3.581 4.423 4.415 4.529 6.27 4.153 7.613 3.813 7.925 3.795 8.843 3.572 8.658 3.172 9.714 2.659 10.718 2.279 10.849 2.174 10.831 1.861 11.604 1.547 11.907 1.137 12.178.827 12.138.306 11.651-.064 12.235-.53 12.518-.779 12.023-1.068 12.305-1.591 12.501-2.154 11.813-2.58 11.111-3.144 10.794-3.505 9.205-3.666 7.688-4.205 6.77-4.468 5.651-4.465 3.988-4.709 2.681-4.571 1.599-4.877 1.054-4.849-.811-5.088-3.106-4.886-4.291-4.916-5.276-4.94-6.732-4.52-8.835-4.357-9.997-3.984-11.89-3.698-12.637-3.106-13.084-2.778-14.117-2.462-15.224-1.85-16.71-1.357-16.567-.81-15.489-.383-15.29.151-15.699.74-15.066 1.016-14.822 1.727-14.374 2.2-13.85 2.88-12.35 3.019-11.708 3.368-10.572 4.045-10.004 4.443-9.313 4.936-7.69 5.266-5.832 5.403-4.624 5.778-1.988 6.12.483 6.011 2.914 5.975 4.662 5.786 5.702 5.491 7.03 5.463 9.777 4.993 10.866 4.543 11.749 4.197 12.556 3.798 12.94 3.385 13.876 2.904 14.928 2.192 14.855 1.497 15.756.983 15.809.417 15.244.097 15.393-.285 15.078-.927 15.169-1.425 15.158-2.009 14.915-2.513 14.326-3.107 13.878-3.454 12.989-3.893 11.402-4.308 10.109-4.705 9.696-5.054 7.388-5.481 6.391-5.573 4.422-5.812 2.997-6.079.796-6.378-1.281-6.326-3.418-6.105-4.9-5.932-6.378-5.362-8.608-5.296-10.878-5.07-11.094-4.542-12.41-4.07-13.568-3.618-14.829-3.309-16.021-2.963-16.539-2.321-17.453-1.966-17.252-1.266-17.264-.533-18.463-.027-18.632.68-17.668 1.252-17.837 1.858-17.367 2.516-16.449 3.391-15.861 4.22-14.34 4.823-13.345 5.46-11.946 5.996-9.29 6.45-7.293 6.696-5.015 7.034-2.788 7.294-.487 7.091.95 7.072 3.692 6.898 5.826 6.607 7.227 6.301 9.911 5.972 12.369 5.479 14.67 4.898 15.155 4.153 15.035 3.696 15.674 3.056 15.953 2.26 15.725 1.759 15.913 1.187 16.573.734 17.268.301 16.523-.301 15.655-.681 15.184-.973 16.058-1.609 15.773-2.172 16.147-2.661 14.888-3.385 13.836-3.878 12.02-4.198 10.963-4.478 9.242-5.166 7.592-5.487 6.087-5.791 4.703-5.845 3.182-5.89 1.556-6.245" fill="none" stroke="green" stroke-linecap="square" id="line2d_4"/><g id="line2d_5"><defs><path d="M0 3a3 3 0 1 0 0-6 3 3 0 0 0 0 6z" id="m25f47eefb8" stroke="#000" stroke-width=".5"/></defs><g clip-path="url(#p3af14643a6)"><use x="309.607" xlink:href="#m25f47eefb8" y="99.541" fill="green" stroke="#000" stroke-width=".5"/></g></g><path d="M72 200.291h446.4" fill="none" stroke="#000" stroke-linecap="square" id="patch_3"/><path d="M72 43.2h446.4" fill="none" stroke="#000" stroke-linecap="square" id="patch_4"/><path d="M72 200.291V43.2" fill="none" stroke="#000" stroke-linecap="square" id="patch_5"/><path d="M518.4 200.291V43.2" fill="none" stroke="#000" stroke-linecap="square" id="patch_6"/><g id="matplotlib.axis_1"><g id="xtick_1"><g id="line2d_6"><defs><path d="M0 0v-4" id="mc7db9fdffb" stroke="#000" stroke-width=".5"/></defs><use x="72" xlink:href="#mc7db9fdffb" y="200.291" stroke="#000" stroke-width=".5"/></g><g id="line2d_7"><defs><path d="M0 0v4" id="m5a7d422ac3" stroke="#000" stroke-width=".5"/></defs><use x="72" xlink:href="#m5a7d422ac3" y="43.2" stroke="#000" stroke-width=".5"/></g><g id="text_1"><defs><path d="M19.188 8.297h34.421V0H7.33v8.297q5.609 5.812 15.296 15.594 9.703 9.797 12.188 12.64 4.734 5.313 6.609 9 1.89 3.688 1.89 7.25 0 5.813-4.078 9.469-4.078 3.672-10.625 3.672-4.64 0-9.797-1.61-5.14-1.609-11-4.89v9.969Q13.767 71.78 18.938 73q5.188 1.219 9.485 1.219 11.328 0 18.062-5.672 6.735-5.656 6.735-15.125 0-4.5-1.688-8.531-1.672-4.016-6.125-9.485-1.218-1.422-7.765-8.187-6.532-6.766-18.453-18.922" id="BitstreamVeraSans-Roman-32"/><path d="M10.594 35.5h62.593v-8.297H10.594z" id="BitstreamVeraSans-Roman-2212"/><path d="M31.781 66.406q-7.61 0-11.453-7.5Q16.5 51.422 16.5 36.375q0-14.984 3.828-22.484 3.844-7.5 11.453-7.5 7.672 0 11.5 7.5 3.844 7.5 3.844 22.484 0 15.047-3.844 22.531-3.828 7.5-11.5 7.5m0 7.813q12.266 0 18.735-9.703 6.468-9.688 6.468-28.141 0-18.406-6.468-28.11-6.47-9.687-18.735-9.687-12.25 0-18.718 9.688-6.47 9.703-6.47 28.109 0 18.453 6.47 28.14Q19.53 74.22 31.78 74.22" id="BitstreamVeraSans-Roman-30"/></defs><g transform="matrix(.12 0 0 -.12 60.371 213.409)"><use xlink:href="#BitstreamVeraSans-Roman-2212"/><use x="83.789" xlink:href="#BitstreamVeraSans-Roman-32"/><use x="147.412" xlink:href="#BitstreamVeraSans-Roman-30"/></g></g></g><g id="xtick_2"><use x="127.8" xlink:href="#mc7db9fdffb" y="200.291" stroke="#000" stroke-width=".5" id="line2d_8"/><use x="127.8" xlink:href="#m5a7d422ac3" y="43.2" stroke="#000" stroke-width=".5" id="line2d_9"/><g id="text_2"><defs><path d="M10.797 72.906h38.719v-8.312H19.828v-17.86q2.14.735 4.281 1.094 2.157.36 4.313.36 12.203 0 19.328-6.688 7.14-6.688 7.14-18.11 0-11.765-7.328-18.296-7.328-6.516-20.656-6.516-4.593 0-9.36.781-4.75.782-9.827 2.344v9.922q4.39-2.39 9.078-3.563 4.687-1.171 9.906-1.171 8.453 0 13.375 4.437 4.938 4.438 4.938 12.063 0 7.609-4.938 12.047-4.922 4.453-13.375 4.453-3.953 0-7.89-.875-3.922-.875-8.016-2.735z" id="BitstreamVeraSans-Roman-35"/><path d="M12.406 8.297h16.11v55.625l-17.532-3.516v8.985l17.438 3.515h9.86V8.296H54.39V0H12.406z" id="BitstreamVeraSans-Roman-31"/></defs><g transform="matrix(.12 0 0 -.12 116.297 213.409)"><use xlink:href="#BitstreamVeraSans-Roman-2212"/><use x="83.789" xlink:href="#BitstreamVeraSans-Roman-31"/><use x="147.412" xlink:href="#BitstreamVeraSans-Roman-35"/></g></g></g><g id="xtick_3"><use x="183.6" xlink:href="#mc7db9fdffb" y="200.291" stroke="#000" stroke-width=".5" id="line2d_10"/><use x="183.6" xlink:href="#m5a7d422ac3" y="43.2" stroke="#000" stroke-width=".5" id="line2d_11"/><g transform="matrix(.12 0 0 -.12 171.971 213.409)" id="text_3"><use xlink:href="#BitstreamVeraSans-Roman-2212"/><use x="83.789" xlink:href="#BitstreamVeraSans-Roman-31"/><use x="147.412" xlink:href="#BitstreamVeraSans-Roman-30"/></g></g><g id="xtick_4"><use x="239.4" xlink:href="#mc7db9fdffb" y="200.291" stroke="#000" stroke-width=".5" id="line2d_12"/><use x="239.4" xlink:href="#m5a7d422ac3" y="43.2" stroke="#000" stroke-width=".5" id="line2d_13"/><g transform="matrix(.12 0 0 -.12 231.714 213.409)" id="text_4"><use xlink:href="#BitstreamVeraSans-Roman-2212"/><use x="83.789" xlink:href="#BitstreamVeraSans-Roman-35"/></g></g><g id="xtick_5"><use x="295.2" xlink:href="#mc7db9fdffb" y="200.291" stroke="#000" stroke-width=".5" id="line2d_14"/><use x="295.2" xlink:href="#m5a7d422ac3" y="43.2" stroke="#000" stroke-width=".5" id="line2d_15"/><use xlink:href="#BitstreamVeraSans-Roman-30" transform="matrix(.12 0 0 -.12 292.177 213.409)" id="text_5"/></g><g id="xtick_6"><use x="351" xlink:href="#mc7db9fdffb" y="200.291" stroke="#000" stroke-width=".5" id="line2d_16"/><use x="351" xlink:href="#m5a7d422ac3" y="43.2" stroke="#000" stroke-width=".5" id="line2d_17"/><use xlink:href="#BitstreamVeraSans-Roman-35" transform="matrix(.12 0 0 -.12 348.17 213.409)" id="text_6"/></g><g id="xtick_7"><use x="406.8" xlink:href="#mc7db9fdffb" y="200.291" stroke="#000" stroke-width=".5" id="line2d_18"/><use x="406.8" xlink:href="#m5a7d422ac3" y="43.2" stroke="#000" stroke-width=".5" id="line2d_19"/><g transform="matrix(.12 0 0 -.12 400.223 213.409)" id="text_7"><use xlink:href="#BitstreamVeraSans-Roman-31"/><use x="63.623" xlink:href="#BitstreamVeraSans-Roman-30"/></g></g><g id="xtick_8"><use x="462.6" xlink:href="#mc7db9fdffb" y="200.291" stroke="#000" stroke-width=".5" id="line2d_20"/><use x="462.6" xlink:href="#m5a7d422ac3" y="43.2" stroke="#000" stroke-width=".5" id="line2d_21"/><g transform="matrix(.12 0 0 -.12 456.148 213.409)" id="text_8"><use xlink:href="#BitstreamVeraSans-Roman-31"/><use x="63.623" xlink:href="#BitstreamVeraSans-Roman-35"/></g></g><g id="xtick_9"><use x="518.4" xlink:href="#mc7db9fdffb" y="200.291" stroke="#000" stroke-width=".5" id="line2d_22"/><use x="518.4" xlink:href="#m5a7d422ac3" y="43.2" stroke="#000" stroke-width=".5" id="line2d_23"/><g transform="matrix(.12 0 0 -.12 511.603 213.409)" id="text_9"><use xlink:href="#BitstreamVeraSans-Roman-32"/><use x="63.623" xlink:href="#BitstreamVeraSans-Roman-30"/></g></g></g><g id="matplotlib.axis_2"><g id="ytick_1"><g id="line2d_24"><defs><path d="M0 0h4" id="md7965d1ba0" stroke="#000" stroke-width=".5"/></defs><use x="72" xlink:href="#md7965d1ba0" y="200.291" stroke="#000" stroke-width=".5"/></g><g id="line2d_25"><defs><path d="M0 0h-4" id="md9a1c1a7cd" stroke="#000" stroke-width=".5"/></defs><use x="518.4" xlink:href="#md9a1c1a7cd" y="200.291" stroke="#000" stroke-width=".5"/></g><g transform="matrix(.12 0 0 -.12 44.742 203.602)" id="text_10"><use xlink:href="#BitstreamVeraSans-Roman-2212"/><use x="83.789" xlink:href="#BitstreamVeraSans-Roman-32"/><use x="147.412" xlink:href="#BitstreamVeraSans-Roman-30"/></g></g><g id="ytick_2"><use x="72" xlink:href="#md7965d1ba0" y="180.655" stroke="#000" stroke-width=".5" id="line2d_26"/><use x="518.4" xlink:href="#md9a1c1a7cd" y="180.655" stroke="#000" stroke-width=".5" id="line2d_27"/><g transform="matrix(.12 0 0 -.12 44.994 183.966)" id="text_11"><use xlink:href="#BitstreamVeraSans-Roman-2212"/><use x="83.789" xlink:href="#BitstreamVeraSans-Roman-31"/><use x="147.412" xlink:href="#BitstreamVeraSans-Roman-35"/></g></g><g id="ytick_3"><use x="72" xlink:href="#md7965d1ba0" y="161.018" stroke="#000" stroke-width=".5" id="line2d_28"/><use x="518.4" xlink:href="#md9a1c1a7cd" y="161.018" stroke="#000" stroke-width=".5" id="line2d_29"/><g transform="matrix(.12 0 0 -.12 44.742 164.33)" id="text_12"><use xlink:href="#BitstreamVeraSans-Roman-2212"/><use x="83.789" xlink:href="#BitstreamVeraSans-Roman-31"/><use x="147.412" xlink:href="#BitstreamVeraSans-Roman-30"/></g></g><g id="ytick_4"><use x="72" xlink:href="#md7965d1ba0" y="141.382" stroke="#000" stroke-width=".5" id="line2d_30"/><use x="518.4" xlink:href="#md9a1c1a7cd" y="141.382" stroke="#000" stroke-width=".5" id="line2d_31"/><g transform="matrix(.12 0 0 -.12 52.629 144.693)" id="text_13"><use xlink:href="#BitstreamVeraSans-Roman-2212"/><use x="83.789" xlink:href="#BitstreamVeraSans-Roman-35"/></g></g><g id="ytick_5"><use x="72" xlink:href="#md7965d1ba0" y="121.745" stroke="#000" stroke-width=".5" id="line2d_32"/><use x="518.4" xlink:href="#md9a1c1a7cd" y="121.745" stroke="#000" stroke-width=".5" id="line2d_33"/><use xlink:href="#BitstreamVeraSans-Roman-30" transform="matrix(.12 0 0 -.12 61.953 125.057)" id="text_14"/></g><g id="ytick_6"><use x="72" xlink:href="#md7965d1ba0" y="102.109" stroke="#000" stroke-width=".5" id="line2d_34"/><use x="518.4" xlink:href="#md9a1c1a7cd" y="102.109" stroke="#000" stroke-width=".5" id="line2d_35"/><use xlink:href="#BitstreamVeraSans-Roman-35" transform="matrix(.12 0 0 -.12 62.34 105.42)" id="text_15"/></g><g id="ytick_7"><use x="72" xlink:href="#md7965d1ba0" y="82.473" stroke="#000" stroke-width=".5" id="line2d_36"/><use x="518.4" xlink:href="#md9a1c1a7cd" y="82.473" stroke="#000" stroke-width=".5" id="line2d_37"/><g transform="matrix(.12 0 0 -.12 54.845 85.784)" id="text_16"><use xlink:href="#BitstreamVeraSans-Roman-31"/><use x="63.623" xlink:href="#BitstreamVeraSans-Roman-30"/></g></g><g id="ytick_8"><use x="72" xlink:href="#md7965d1ba0" y="62.836" stroke="#000" stroke-width=".5" id="line2d_38"/><use x="518.4" xlink:href="#md9a1c1a7cd" y="62.836" stroke="#000" stroke-width=".5" id="line2d_39"/><g transform="matrix(.12 0 0 -.12 55.096 66.148)" id="text_17"><use xlink:href="#BitstreamVeraSans-Roman-31"/><use x="63.623" xlink:href="#BitstreamVeraSans-Roman-35"/></g></g><g id="ytick_9"><use x="72" xlink:href="#md7965d1ba0" y="43.2" stroke="#000" stroke-width=".5" id="line2d_40"/><use x="518.4" xlink:href="#md9a1c1a7cd" y="43.2" stroke="#000" stroke-width=".5" id="line2d_41"/><g transform="matrix(.12 0 0 -.12 54.406 46.511)" id="text_18"><use xlink:href="#BitstreamVeraSans-Roman-32"/><use x="63.623" xlink:href="#BitstreamVeraSans-Roman-30"/></g></g></g></g><g id="axes_2"><path d="M72 388.8h446.4V231.709H72z" fill="#fff" id="patch_7"/><path clip-path="url(#p8d90287ba5)" d="M72 306.305l1.488 56.112 1.488-30.225 1.488-9.583 1.488-25.489 1.488-9.531 1.488 3.09 1.488 9.893 1.488 20.01 1.488-9.171 1.488 13.803 1.488 47.236 1.488-21.165 1.488-26.351 1.488-19.926 1.488 21.418 1.488-20.93 1.488 6.38 1.488 15.77 1.488 17.382 1.488.875 1.488-15.705 2.976 22.452 2.976-7.855 1.488-6.116 1.488-1.646 1.488-.363 1.488 7.487 1.488-1.594 1.488-6.913 2.976 11.299 1.488-2.565 1.488 1.373 1.488-3.284 1.488 20.647 1.488-19.091 1.488 8.587 1.488 4.423 1.488-5.987 1.488 11.25 1.488-11.583 1.488-19.907 1.488-15.798 1.488-4.697 1.488-24.327 1.488 2.248 1.488 14.014 1.488 15.861 1.488 21.209 1.488 12.877 1.488-25.022 1.488-18.163 1.488 41.208 1.488 19.119 1.488-22.697 1.488 18.463 1.488-15.161 1.488-33.58 1.488 42.484 1.488 27.276 1.488-6.839 1.488-17.579 1.488-5.917 1.488-9.947 1.488 23.6 1.488-20.248 1.488 23.002 1.488 3.525 1.488-2.929 1.488-19.814 1.488-23.567 1.488-7.221 1.488 61.613 1.488-8.78 1.488 7.3 1.488-18.656 1.488-16.902 1.488 2.754 1.488 5.655 1.488-11.203 1.488 29.226 1.488-12.171 1.488-16.675 1.488 1.233 1.488-1.044 1.488-5.649 1.488 14.847 1.488-36.036 1.488 8.469 1.488 3.169 1.488-19.632 1.488-15.816 1.488 14.04 1.488-39.9 1.488 6.558 1.488 39.544 1.488-14.062 1.488-11.863 1.488 12.086 1.488 39.277 1.488 10.22 1.488 14.707 1.488 16.53 1.488-3.686 1.488-42.673 1.488 8.135 1.488-22.221 1.488 28.547 1.488-9.42 1.488 12.58 1.488-22.662 1.488 31.51 1.488.783 1.488 10.886 1.488-23.385 1.488 12.447 1.488-30.809 1.488 10.29 1.488 4.148 1.488-52.804 1.488-27.238 1.488-21.104 1.488-3.759 1.488 50.161 1.488 11.357 1.488 6.009 1.488 26.564 1.488 16.522 1.488-16.094 1.488 6.06 1.488.028 1.488-.181 1.488-5.249 1.488-8.843 1.488-21.341 1.488 8.916 1.488-12.549 1.488 29.883 1.488-18.105 1.488-9.891 1.488 22.747 1.488 14.121 1.488-22.898 1.488 4.802 1.488 25.791 1.488-13.577 1.488.232 1.488 17.99 1.488 7.784 1.488 6.046 1.488-34.694 1.488-24.531 1.488 4.504 1.488-19.048 1.488-12.395 1.488 2.127 1.488 26.224 1.488-6.351 1.488 23.574 1.488 18.833 1.488-2.717 1.488 18.671 1.488-35.456 1.488 3.799 1.488 11.519 1.488 2.203 1.488 25.806 1.488 1.475 1.488-43.955 1.488-19.902 1.488 38.619 1.488 21.427 1.488-27.002 1.488 23.241 1.488-13.132 1.488-3.715 1.488 6.61 1.488-32.448 1.488-2.062 2.976 23.278 1.488-8.797 1.488-1.77 1.488-4.583 1.488-8.246 1.488 7.931 1.488 14.681 1.488 6.227 1.488-28.212 1.488-7.368 1.488-27.033 1.488-13.593 1.488 4.147 1.488-6.65 1.488 30.224 1.488 2.758 1.488 7.413 1.488 12.567 1.488 20.287 1.488-2.448 1.488 13.937 1.488 8.811 1.488-19.589 1.488 6.046 1.488 6.753 1.488-12.615 1.488 7.494 1.488-2.062 1.488 6.751 1.488-1.484 1.488 24.146 1.488-33.569 1.488-13.468 1.488 21.506 1.488 4.815 1.488-38.34 1.488 20.93 1.488-17.276 1.488-13 1.488 27.184 1.488-.035 1.488 25.101 1.488 11.822 2.976-36.716 1.488 31.056 1.488-24.436 1.488-36.828 1.488-19.478 1.488-34.037 1.488 37.038 1.488 18.84 1.488 16.828 1.488 24.315 1.488-4.221 1.488 4.811 1.488-9.676 1.488.161 1.488-12.339 1.488-10.353 1.488 15.42 1.488 28.936 1.488 1.277 1.488-9.116 1.488 4.921 1.488 2.387 1.488-17.621L444 376.968l1.488 4.416 1.488-27.93 1.488 3.284 1.488-30.26 1.488-41.423 1.488 48.637 1.488-20.362 1.488 24.347 1.488-10.922 1.488-31.201 1.488 27.098 1.488.81 1.488-14.487 1.488-9.129 1.488 6.427 1.488-6.473 1.488 15.006 1.488-9.941 1.488-13.192 1.488 38.803 1.488-12.307 1.488-7.599 1.488 23.993 1.488 38.137 1.488 8.585 1.488-22.655 1.488-5.563 1.488 4.338 1.488 19.869 1.488-14.824 1.488 8.625 1.488 6.126 1.488-1.303 1.488-42.101 1.488 7.624 1.488-10.904 1.488-2.842 1.488-15.341 1.488-4.63 1.488 33.632 1.488-2.975 1.488 2.793 1.488-1.454 1.488 9.68 1.488 3.41 1.488 10.981 1.488 13.124 1.488-27.936 1.488-12.728" fill="none" stroke="#00f" stroke-linecap="square" id="line2d_42"/><path d="M72 388.8h446.4" fill="none" stroke="#000" stroke-linecap="square" id="patch_8"/><path d="M72 231.709h446.4" fill="none" stroke="#000" stroke-linecap="square" id="patch_9"/><path d="M72 388.8V231.709" fill="none" stroke="#000" stroke-linecap="square" id="patch_10"/><path d="M518.4 388.8V231.709" fill="none" stroke="#000" stroke-linecap="square" id="patch_11"/><g id="matplotlib.axis_3"><g id="xtick_10"><use x="72" xlink:href="#mc7db9fdffb" y="388.8" stroke="#000" stroke-width=".5" id="line2d_43"/><use x="72" xlink:href="#m5a7d422ac3" y="231.709" stroke="#000" stroke-width=".5" id="line2d_44"/><use xlink:href="#BitstreamVeraSans-Roman-30" transform="matrix(.12 0 0 -.12 68.977 401.918)" id="text_19"/></g><g id="xtick_11"><use x="146.4" xlink:href="#mc7db9fdffb" y="388.8" stroke="#000" stroke-width=".5" id="line2d_45"/><use x="146.4" xlink:href="#m5a7d422ac3" y="231.709" stroke="#000" stroke-width=".5" id="line2d_46"/><g transform="matrix(.12 0 0 -.12 139.627 401.918)" id="text_20"><use xlink:href="#BitstreamVeraSans-Roman-35"/><use x="63.623" xlink:href="#BitstreamVeraSans-Roman-30"/></g></g><g id="xtick_12"><use x="220.8" xlink:href="#mc7db9fdffb" y="388.8" stroke="#000" stroke-width=".5" id="line2d_47"/><use x="220.8" xlink:href="#m5a7d422ac3" y="231.709" stroke="#000" stroke-width=".5" id="line2d_48"/><g transform="matrix(.12 0 0 -.12 210.405 401.918)" id="text_21"><use xlink:href="#BitstreamVeraSans-Roman-31"/><use x="63.623" xlink:href="#BitstreamVeraSans-Roman-30"/><use x="127.246" xlink:href="#BitstreamVeraSans-Roman-30"/></g></g><g id="xtick_13"><use x="295.2" xlink:href="#mc7db9fdffb" y="388.8" stroke="#000" stroke-width=".5" id="line2d_49"/><use x="295.2" xlink:href="#m5a7d422ac3" y="231.709" stroke="#000" stroke-width=".5" id="line2d_50"/><g transform="matrix(.12 0 0 -.12 284.805 401.918)" id="text_22"><use xlink:href="#BitstreamVeraSans-Roman-31"/><use x="63.623" xlink:href="#BitstreamVeraSans-Roman-35"/><use x="127.246" xlink:href="#BitstreamVeraSans-Roman-30"/></g></g><g id="xtick_14"><use x="369.6" xlink:href="#mc7db9fdffb" y="388.8" stroke="#000" stroke-width=".5" id="line2d_51"/><use x="369.6" xlink:href="#m5a7d422ac3" y="231.709" stroke="#000" stroke-width=".5" id="line2d_52"/><g transform="matrix(.12 0 0 -.12 358.986 401.918)" id="text_23"><use xlink:href="#BitstreamVeraSans-Roman-32"/><use x="63.623" xlink:href="#BitstreamVeraSans-Roman-30"/><use x="127.246" xlink:href="#BitstreamVeraSans-Roman-30"/></g></g><g id="xtick_15"><use x="444" xlink:href="#mc7db9fdffb" y="388.8" stroke="#000" stroke-width=".5" id="line2d_53"/><use x="444" xlink:href="#m5a7d422ac3" y="231.709" stroke="#000" stroke-width=".5" id="line2d_54"/><g transform="matrix(.12 0 0 -.12 433.386 401.918)" id="text_24"><use xlink:href="#BitstreamVeraSans-Roman-32"/><use x="63.623" xlink:href="#BitstreamVeraSans-Roman-35"/><use x="127.246" xlink:href="#BitstreamVeraSans-Roman-30"/></g></g><g id="xtick_16"><use x="518.4" xlink:href="#mc7db9fdffb" y="388.8" stroke="#000" stroke-width=".5" id="line2d_55"/><use x="518.4" xlink:href="#m5a7d422ac3" y="231.709" stroke="#000" stroke-width=".5" id="line2d_56"/><g id="text_25"><defs><path d="M40.578 39.313Q47.656 37.797 51.625 33q3.984-4.781 3.984-11.813 0-10.78-7.422-16.703-7.421-5.906-21.093-5.906-4.578 0-9.438.906-4.86.907-10.031 2.72v9.515q4.094-2.39 8.969-3.61 4.89-1.218 10.218-1.218 9.266 0 14.125 3.656 4.86 3.656 4.86 10.64 0 6.454-4.516 10.079-4.515 3.64-12.562 3.64h-8.5v8.11h8.89q7.266 0 11.125 2.906 3.86 2.906 3.86 8.375 0 5.61-3.985 8.61-3.968 3.015-11.39 3.015-4.063 0-8.703-.89-4.641-.876-10.203-2.72v8.782q5.624 1.562 10.53 2.344 4.907.78 9.25.78 11.235 0 17.766-5.109 6.547-5.093 6.547-13.78 0-6.063-3.468-10.235-3.47-4.172-9.86-5.782" id="BitstreamVeraSans-Roman-33"/></defs><g transform="matrix(.12 0 0 -.12 507.803 401.918)"><use xlink:href="#BitstreamVeraSans-Roman-33"/><use x="63.623" xlink:href="#BitstreamVeraSans-Roman-30"/><use x="127.246" xlink:href="#BitstreamVeraSans-Roman-30"/></g></g></g></g><g id="matplotlib.axis_4"><g id="ytick_10"><use x="72" xlink:href="#md7965d1ba0" y="388.8" stroke="#000" stroke-width=".5" id="line2d_57"/><use x="518.4" xlink:href="#md9a1c1a7cd" y="388.8" stroke="#000" stroke-width=".5" id="line2d_58"/><g id="text_26"><defs><path d="M10.688 12.406H21V0H10.687z" id="BitstreamVeraSans-Roman-2e"/></defs><g transform="matrix(.12 0 0 -.12 50.504 392.111)"><use xlink:href="#BitstreamVeraSans-Roman-30"/><use x="63.623" xlink:href="#BitstreamVeraSans-Roman-2e"/><use x="95.41" xlink:href="#BitstreamVeraSans-Roman-30"/></g></g></g><g id="ytick_11"><use x="72" xlink:href="#md7965d1ba0" y="357.382" stroke="#000" stroke-width=".5" id="line2d_59"/><use x="518.4" xlink:href="#md9a1c1a7cd" y="357.382" stroke="#000" stroke-width=".5" id="line2d_60"/><g transform="matrix(.12 0 0 -.12 50.756 360.693)" id="text_27"><use xlink:href="#BitstreamVeraSans-Roman-30"/><use x="63.623" xlink:href="#BitstreamVeraSans-Roman-2e"/><use x="95.41" xlink:href="#BitstreamVeraSans-Roman-35"/></g></g><g id="ytick_12"><use x="72" xlink:href="#md7965d1ba0" y="325.964" stroke="#000" stroke-width=".5" id="line2d_61"/><use x="518.4" xlink:href="#md9a1c1a7cd" y="325.964" stroke="#000" stroke-width=".5" id="line2d_62"/><g transform="matrix(.12 0 0 -.12 51.031 329.275)" id="text_28"><use xlink:href="#BitstreamVeraSans-Roman-31"/><use x="63.623" xlink:href="#BitstreamVeraSans-Roman-2e"/><use x="95.41" xlink:href="#BitstreamVeraSans-Roman-30"/></g></g><g id="ytick_13"><use x="72" xlink:href="#md7965d1ba0" y="294.545" stroke="#000" stroke-width=".5" id="line2d_63"/><use x="518.4" xlink:href="#md9a1c1a7cd" y="294.545" stroke="#000" stroke-width=".5" id="line2d_64"/><g transform="matrix(.12 0 0 -.12 51.282 297.857)" id="text_29"><use xlink:href="#BitstreamVeraSans-Roman-31"/><use x="63.623" xlink:href="#BitstreamVeraSans-Roman-2e"/><use x="95.41" xlink:href="#BitstreamVeraSans-Roman-35"/></g></g><g id="ytick_14"><use x="72" xlink:href="#md7965d1ba0" y="263.127" stroke="#000" stroke-width=".5" id="line2d_65"/><use x="518.4" xlink:href="#md9a1c1a7cd" y="263.127" stroke="#000" stroke-width=".5" id="line2d_66"/><g transform="matrix(.12 0 0 -.12 50.593 266.439)" id="text_30"><use xlink:href="#BitstreamVeraSans-Roman-32"/><use x="63.623" xlink:href="#BitstreamVeraSans-Roman-2e"/><use x="95.41" xlink:href="#BitstreamVeraSans-Roman-30"/></g></g><g id="ytick_15"><use x="72" xlink:href="#md7965d1ba0" y="231.709" stroke="#000" stroke-width=".5" id="line2d_67"/><use x="518.4" xlink:href="#md9a1c1a7cd" y="231.709" stroke="#000" stroke-width=".5" id="line2d_68"/><g transform="matrix(.12 0 0 -.12 50.844 235.02)" id="text_31"><use xlink:href="#BitstreamVeraSans-Roman-32"/><use x="63.623" xlink:href="#BitstreamVeraSans-Roman-2e"/><use x="95.41" xlink:href="#BitstreamVeraSans-Roman-35"/></g></g></g></g></g><defs><clipPath id="p8d90287ba5"><path d="M72 231.709h446.4V388.8H72z"/></clipPath><clipPath id="p3af14643a6"><path d="M72 43.2h446.4v157.091H72z"/></clipPath></defs></svg>