<svg width="1751.983" height="1386.702" viewBox="0 0 463.545 366.898" xmlns="http://www.w3.org/2000/svg"><defs><clipPath clipPathUnits="userSpaceOnUse" id="a"><path d="M0 0h443.952v328.381H0Z"/></clipPath><clipPath clipPathUnits="userSpaceOnUse" id="b"><path d="M71.016 45.625h365.736v275.556H71.016Z"/></clipPath><clipPath clipPathUnits="userSpaceOnUse" id="c"><path d="M71.016 45.625h365.736v275.556H71.016Z"/></clipPath><clipPath clipPathUnits="userSpaceOnUse" id="d"><path d="M71.016 45.625h365.736v275.556H71.016Z"/></clipPath><clipPath clipPathUnits="userSpaceOnUse" id="e"><path d="M71.016 45.625h365.736v275.556H71.016Z"/></clipPath><clipPath clipPathUnits="userSpaceOnUse" id="f"><path d="M71.016 45.625h365.736v275.556H71.016Z"/></clipPath><clipPath clipPathUnits="userSpaceOnUse" id="g"><path d="M71.016 45.625h365.736v275.556H71.016Z"/></clipPath><clipPath clipPathUnits="userSpaceOnUse" id="h"><path d="M71.016 45.625h365.736v275.556H71.016Z"/></clipPath><clipPath clipPathUnits="userSpaceOnUse" id="i"><path d="M71.016 45.625h365.736v275.556H71.016Z"/></clipPath><clipPath clipPathUnits="userSpaceOnUse" id="j"><path d="M71.016 45.625h365.736v275.556H71.016Z"/></clipPath><clipPath clipPathUnits="userSpaceOnUse" id="k"><path d="M71.016 45.625h365.736v275.556H71.016Z"/></clipPath><clipPath clipPathUnits="userSpaceOnUse" id="l"><path d="M71.016 45.625h365.736v275.556H71.016Z"/></clipPath><clipPath clipPathUnits="userSpaceOnUse" id="m"><path d="M71.016 45.625h365.736v275.556H71.016Z"/></clipPath><clipPath clipPathUnits="userSpaceOnUse" id="n"><path d="M71.016 45.625h365.736v275.556H71.016Z"/></clipPath><clipPath clipPathUnits="userSpaceOnUse" id="o"><path d="M71.016 45.625h365.736v275.556H71.016Z"/></clipPath><clipPath clipPathUnits="userSpaceOnUse" id="p"><path d="M71.016 45.625h365.736v275.556H71.016Z"/></clipPath><clipPath clipPathUnits="userSpaceOnUse" id="q"><path d="M71.016 45.625h365.736v275.556H71.016Z"/></clipPath><clipPath clipPathUnits="userSpaceOnUse" id="r"><path d="M71.016 45.625h365.736v275.556H71.016Z"/></clipPath><clipPath clipPathUnits="userSpaceOnUse" id="s"><path d="M71.016 45.625h365.736v275.556H71.016Z"/></clipPath><clipPath clipPathUnits="userSpaceOnUse" id="t"><path d="M71.016 45.625h365.736v275.556H71.016Z"/></clipPath><clipPath clipPathUnits="userSpaceOnUse" id="u"><path d="M71.016 45.625h365.736v275.556H71.016Z"/></clipPath><clipPath clipPathUnits="userSpaceOnUse" id="v"><path d="M71.016 45.625h365.736v275.556H71.016Z"/></clipPath><clipPath clipPathUnits="userSpaceOnUse" id="w"><path d="M71.016 45.625h365.736v275.556H71.016Z"/></clipPath><clipPath clipPathUnits="userSpaceOnUse" id="x"><path d="M71.016 45.625h365.736v275.556H71.016Z"/></clipPath><clipPath clipPathUnits="userSpaceOnUse" id="y"><path d="M71.016 45.625h365.736v275.556H71.016Z"/></clipPath></defs><g clip-path="url(#a)" transform="matrix(1.04414 0 0 -1.1173 0 366.898)"><path d="M0 0h443.952v328.381H0Z" style="fill:#fff;fill-opacity:1;fill-rule:nonzero;stroke:none"/><path d="M71.016 45.625h365.736v275.556H71.016Z" style="fill:#fff;fill-opacity:1;fill-rule:nonzero;stroke:none"/><g clip-path="url(#b)"><path d="M87.64 45.625v275.556" style="fill:none;stroke:#ccc;stroke-width:.8;stroke-linecap:round;stroke-linejoin:round;stroke-miterlimit:10;stroke-dasharray:none;stroke-opacity:1"/></g><text xml:space="preserve" transform="matrix(1 0 0 -1 72.874 27.45)" style="font-variant:normal;font-weight:400;font-size:13.2px;font-family:'DejaVu Sans';-inkscape-font-specification:DejaVuSans;writing-mode:lr-tb;fill:#262626;fill-opacity:1;fill-rule:nonzero;stroke:none"><tspan x="0 8.3951998 12.5928 20.988001" y="0">0.00</tspan></text><g clip-path="url(#c)"><path d="M135.138 45.625v275.556" style="fill:none;stroke:#ccc;stroke-width:.8;stroke-linecap:round;stroke-linejoin:round;stroke-miterlimit:10;stroke-dasharray:none;stroke-opacity:1"/></g><text xml:space="preserve" transform="matrix(1 0 0 -1 120.373 27.45)" style="font-variant:normal;font-weight:400;font-size:13.2px;font-family:'DejaVu Sans';-inkscape-font-specification:DejaVuSans;writing-mode:lr-tb;fill:#262626;fill-opacity:1;fill-rule:nonzero;stroke:none"><tspan x="0 8.3951998 12.5928 20.988001" y="0">0.05</tspan></text><g clip-path="url(#d)"><path d="M182.636 45.625v275.556" style="fill:none;stroke:#ccc;stroke-width:.8;stroke-linecap:round;stroke-linejoin:round;stroke-miterlimit:10;stroke-dasharray:none;stroke-opacity:1"/></g><text xml:space="preserve" transform="matrix(1 0 0 -1 167.87 27.45)" style="font-variant:normal;font-weight:400;font-size:13.2px;font-family:'DejaVu Sans';-inkscape-font-specification:DejaVuSans;writing-mode:lr-tb;fill:#262626;fill-opacity:1;fill-rule:nonzero;stroke:none"><tspan x="0 8.3951998 12.5928 20.988001" y="0">0.10</tspan></text><g clip-path="url(#e)"><path d="M230.135 45.625v275.556" style="fill:none;stroke:#ccc;stroke-width:.8;stroke-linecap:round;stroke-linejoin:round;stroke-miterlimit:10;stroke-dasharray:none;stroke-opacity:1"/></g><text xml:space="preserve" transform="matrix(1 0 0 -1 215.369 27.45)" style="font-variant:normal;font-weight:400;font-size:13.2px;font-family:'DejaVu Sans';-inkscape-font-specification:DejaVuSans;writing-mode:lr-tb;fill:#262626;fill-opacity:1;fill-rule:nonzero;stroke:none"><tspan x="0 8.3951998 12.5928 20.988001" y="0">0.15</tspan></text><g clip-path="url(#f)"><path d="M277.633 45.625v275.556" style="fill:none;stroke:#ccc;stroke-width:.8;stroke-linecap:round;stroke-linejoin:round;stroke-miterlimit:10;stroke-dasharray:none;stroke-opacity:1"/></g><text xml:space="preserve" transform="matrix(1 0 0 -1 262.867 27.45)" style="font-variant:normal;font-weight:400;font-size:13.2px;font-family:'DejaVu Sans';-inkscape-font-specification:DejaVuSans;writing-mode:lr-tb;fill:#262626;fill-opacity:1;fill-rule:nonzero;stroke:none"><tspan x="0 8.3951998 12.5928 20.988001" y="0">0.20</tspan></text><g clip-path="url(#g)"><path d="M325.13 45.625v275.556" style="fill:none;stroke:#ccc;stroke-width:.8;stroke-linecap:round;stroke-linejoin:round;stroke-miterlimit:10;stroke-dasharray:none;stroke-opacity:1"/></g><text xml:space="preserve" transform="matrix(1 0 0 -1 310.365 27.45)" style="font-variant:normal;font-weight:400;font-size:13.2px;font-family:'DejaVu Sans';-inkscape-font-specification:DejaVuSans;writing-mode:lr-tb;fill:#262626;fill-opacity:1;fill-rule:nonzero;stroke:none"><tspan x="0 8.3951998 12.5928 20.988001" y="0">0.25</tspan></text><g clip-path="url(#h)"><path d="M372.63 45.625v275.556" style="fill:none;stroke:#ccc;stroke-width:.8;stroke-linecap:round;stroke-linejoin:round;stroke-miterlimit:10;stroke-dasharray:none;stroke-opacity:1"/></g><text xml:space="preserve" transform="matrix(1 0 0 -1 357.863 27.45)" style="font-variant:normal;font-weight:400;font-size:13.2px;font-family:'DejaVu Sans';-inkscape-font-specification:DejaVuSans;writing-mode:lr-tb;fill:#262626;fill-opacity:1;fill-rule:nonzero;stroke:none"><tspan x="0 8.3951998 12.5928 20.988001" y="0">0.30</tspan></text><g clip-path="url(#i)"><path d="M420.127 45.625v275.556" style="fill:none;stroke:#ccc;stroke-width:.8;stroke-linecap:round;stroke-linejoin:round;stroke-miterlimit:10;stroke-dasharray:none;stroke-opacity:1"/></g><text xml:space="preserve" transform="matrix(1 0 0 -1 405.362 27.45)" style="font-variant:normal;font-weight:400;font-size:13.2px;font-family:'DejaVu Sans';-inkscape-font-specification:DejaVuSans;writing-mode:lr-tb;fill:#262626;fill-opacity:1;fill-rule:nonzero;stroke:none"><tspan x="0 8.3951998 12.5928 20.988001" y="0">0.35</tspan></text><text xml:space="preserve" transform="matrix(1 0 0 -1 180.016 10.106)" style="font-variant:normal;font-weight:400;font-size:14.4px;font-family:'DejaVu Sans';-inkscape-font-specification:DejaVuSans;writing-mode:lr-tb;fill:#262626;fill-opacity:1;fill-rule:nonzero;stroke:none"><tspan x="0 8.1831999 17.0392 22.6451 30.5651 39.421101 48.550701 54.195499 63.022701 72.166702 81.022697 85.601898 94.969276 103.82527 117.85088 126.66367 135.18848 144.01567" y="0">Percentage Removal</tspan></text><g clip-path="url(#j)"><path d="M71.016 45.762h365.736" style="fill:none;stroke:#ccc;stroke-width:.8;stroke-linecap:round;stroke-linejoin:round;stroke-miterlimit:10;stroke-dasharray:none;stroke-opacity:1"/></g><text xml:space="preserve" transform="matrix(1 0 0 -1 24.747 40.825)" style="font-variant:normal;font-weight:400;font-size:13.2px;font-family:'DejaVu Sans';-inkscape-font-specification:DejaVuSans;writing-mode:lr-tb;fill:#262626;fill-opacity:1;fill-rule:nonzero;stroke:none"><tspan x="0 8.3951998 12.5928 20.988001 29.3832" y="0">0.970</tspan></text><g clip-path="url(#k)"><path d="M71.016 98.9h365.736" style="fill:none;stroke:#ccc;stroke-width:.8;stroke-linecap:round;stroke-linejoin:round;stroke-miterlimit:10;stroke-dasharray:none;stroke-opacity:1"/></g><text xml:space="preserve" transform="matrix(1 0 0 -1 24.747 93.963)" style="font-variant:normal;font-weight:400;font-size:13.2px;font-family:'DejaVu Sans';-inkscape-font-specification:DejaVuSans;writing-mode:lr-tb;fill:#262626;fill-opacity:1;fill-rule:nonzero;stroke:none"><tspan x="0 8.3951998 12.5928 20.988001 29.3832" y="0">0.975</tspan></text><g clip-path="url(#l)"><path d="M71.016 152.039h365.736" style="fill:none;stroke:#ccc;stroke-width:.8;stroke-linecap:round;stroke-linejoin:round;stroke-miterlimit:10;stroke-dasharray:none;stroke-opacity:1"/></g><text xml:space="preserve" transform="matrix(1 0 0 -1 24.747 147.101)" style="font-variant:normal;font-weight:400;font-size:13.2px;font-family:'DejaVu Sans';-inkscape-font-specification:DejaVuSans;writing-mode:lr-tb;fill:#262626;fill-opacity:1;fill-rule:nonzero;stroke:none"><tspan x="0 8.3951998 12.5928 20.988001 29.3832" y="0">0.980</tspan></text><g clip-path="url(#m)"><path d="M71.016 205.177h365.736" style="fill:none;stroke:#ccc;stroke-width:.8;stroke-linecap:round;stroke-linejoin:round;stroke-miterlimit:10;stroke-dasharray:none;stroke-opacity:1"/></g><text xml:space="preserve" transform="matrix(1 0 0 -1 24.747 200.24)" style="font-variant:normal;font-weight:400;font-size:13.2px;font-family:'DejaVu Sans';-inkscape-font-specification:DejaVuSans;writing-mode:lr-tb;fill:#262626;fill-opacity:1;fill-rule:nonzero;stroke:none"><tspan x="0 8.3951998 12.5928 20.988001 29.3832" y="0">0.985</tspan></text><g clip-path="url(#n)"><path d="M71.016 258.315h365.736" style="fill:none;stroke:#ccc;stroke-width:.8;stroke-linecap:round;stroke-linejoin:round;stroke-miterlimit:10;stroke-dasharray:none;stroke-opacity:1"/></g><text xml:space="preserve" transform="matrix(1 0 0 -1 24.747 253.378)" style="font-variant:normal;font-weight:400;font-size:13.2px;font-family:'DejaVu Sans';-inkscape-font-specification:DejaVuSans;writing-mode:lr-tb;fill:#262626;fill-opacity:1;fill-rule:nonzero;stroke:none"><tspan x="0 8.3951998 12.5928 20.988001 29.3832" y="0">0.990</tspan></text><g clip-path="url(#o)"><path d="M71.016 311.454h365.736" style="fill:none;stroke:#ccc;stroke-width:.8;stroke-linecap:round;stroke-linejoin:round;stroke-miterlimit:10;stroke-dasharray:none;stroke-opacity:1"/></g><text xml:space="preserve" transform="matrix(1 0 0 -1 24.747 306.516)" style="font-variant:normal;font-weight:400;font-size:13.2px;font-family:'DejaVu Sans';-inkscape-font-specification:DejaVuSans;writing-mode:lr-tb;fill:#262626;fill-opacity:1;fill-rule:nonzero;stroke:none"><tspan x="0 8.3951998 12.5928 20.988001 29.3832" y="0">0.995</tspan></text><text xml:space="preserve" transform="matrix(0 1 1 0 17.84 150.583)" style="font-variant:normal;font-weight:400;font-size:14.4px;font-family:'DejaVu Sans';-inkscape-font-specification:DejaVuSans;writing-mode:lr-tb;fill:#262626;fill-opacity:1;fill-rule:nonzero;stroke:none"><tspan x="0 9.5995998 17.5196 25.4396 34.569199 40.487598 49.3148 57.234798" y="0">Accuracy</tspan></text><g clip-path="url(#p)"><path d="M87.64 282.368v26.288l47.498-20.622 47.498 3.52 47.499 6.077 47.498-1.236 47.498-16.21 47.498-25.368 47.498-19.958V86.932l-47.498 68.605-47.498 63.195-47.498-16.209-47.498 41.275-47.499 16.704-47.498-14.193z" style="fill:#87cefa;fill-opacity:.3;fill-rule:nonzero;stroke:#87cefa;stroke-width:.8;stroke-linecap:butt;stroke-linejoin:round;stroke-miterlimit:10;stroke-dasharray:none;stroke-opacity:.3"/></g><g clip-path="url(#q)"><path d="M87.64 282.368v26.288l47.498-5.545 47.498-1.921 47.499.23 47.498-7.349 47.498-12.942 47.498-6.448 47.498-3.707v-32.402l-47.498 3.378-47.498 18.35-47.498 8.312-47.498-7.347-47.499 3.772-47.498 8.706z" style="fill:gold;fill-opacity:.3;fill-rule:nonzero;stroke:gold;stroke-width:.8;stroke-linecap:butt;stroke-linejoin:round;stroke-miterlimit:10;stroke-dasharray:none;stroke-opacity:.3"/></g><g clip-path="url(#r)"><path d="M87.64 282.368v26.288l47.498-26.331 47.498-16.903 47.499-12.676 47.498-14.836 47.498-7.093 47.498-56.796 47.498-34.37v-81.5L372.63 87.545l-47.498 31.768-47.498 49.588-47.498 27.674-47.499 19.207-47.498 29.15z" style="fill:#2e8b57;fill-opacity:.3;fill-rule:nonzero;stroke:#2e8b57;stroke-width:.8;stroke-linecap:butt;stroke-linejoin:round;stroke-miterlimit:10;stroke-dasharray:none;stroke-opacity:.3"/></g><g clip-path="url(#s)"><path d="M87.64 282.368v26.288l47.498-15.42 47.498-4.116 47.499 4.183 47.498-5.269 47.498-17.06 47.498-7.61 47.498-2.718V220.56l-47.498.825-47.498 17.188-47.498 7.737-47.498 1.817-47.499.64-47.498 6.51z" style="fill:#b22222;fill-opacity:.3;fill-rule:nonzero;stroke:#b22222;stroke-width:.8;stroke-linecap:butt;stroke-linejoin:round;stroke-miterlimit:10;stroke-dasharray:none;stroke-opacity:.3"/></g><g clip-path="url(#t)"><path d="M87.64 282.368v26.288l47.498-4.66 47.498-9.972 47.499.505 47.498 1.531 47.498-12.32 47.498-5.427 47.498 2.52v-34.407l-47.498 2.52-47.498 1.657-47.498 8.936-47.498 1.53-47.499 4.048-47.498 7.741z" style="fill:plum;fill-opacity:.3;fill-rule:nonzero;stroke:plum;stroke-width:.8;stroke-linecap:butt;stroke-linejoin:round;stroke-miterlimit:10;stroke-dasharray:none;stroke-opacity:.3"/></g><g clip-path="url(#u)"><path d="m87.64 295.512 47.498-28.34 47.498 8.856 47.499-5.314 47.498-21.255h47.498l47.498-44.282 47.498-44.282" style="fill:none;stroke:#1e90ff;stroke-width:1.2;stroke-linecap:round;stroke-linejoin:round;stroke-miterlimit:10;stroke-dasharray:none;stroke-opacity:1"/></g><g clip-path="url(#v)"><path d="m87.64 295.512 47.498-7.085 47.498-5.314 47.499-1.771h47.498l47.498-10.628 47.498-12.399 47.498-3.542" style="fill:none;stroke:#ff8c00;stroke-width:1.2;stroke-linecap:round;stroke-linejoin:round;stroke-miterlimit:10;stroke-dasharray:none;stroke-opacity:1"/></g><g clip-path="url(#w)"><path d="m87.64 295.512 47.498-31.883 47.498-23.026 47.499-15.942 47.498-21.255 47.498-28.34 47.498-44.282L420.127 98.9" style="fill:none;stroke:#32cd32;stroke-width:1.2;stroke-linecap:round;stroke-linejoin:round;stroke-miterlimit:10;stroke-dasharray:none;stroke-opacity:1"/></g><g clip-path="url(#x)"><path d="m87.64 295.512 47.498-21.255 47.498-5.314 47.499 1.771 47.498-3.542 47.498-12.4 47.498-12.398 47.498-1.771" style="fill:none;stroke:#cd5c5c;stroke-width:1.2;stroke-linecap:round;stroke-linejoin:round;stroke-miterlimit:10;stroke-dasharray:none;stroke-opacity:1"/></g><g clip-path="url(#y)"><path d="m87.64 295.512 47.498-7.085 47.498-8.856 47.499-1.772h47.498l47.498-10.627 47.498-3.543h47.498" style="fill:none;stroke:#9932cc;stroke-width:1.2;stroke-linecap:round;stroke-linejoin:round;stroke-miterlimit:10;stroke-dasharray:none;stroke-opacity:1"/></g><path d="M71.016 45.625v275.556M436.752 45.625v275.556M71.016 45.625h365.736M71.016 321.181h365.736" style="fill:none;stroke:#ccc;stroke-width:1;stroke-linecap:square;stroke-linejoin:miter;stroke-miterlimit:10;stroke-dasharray:none;stroke-opacity:1"/><path d="M80.256 52.225h190.708c1.76 0 2.64.88 2.64 2.64v94.57c0 1.76-.88 2.64-2.64 2.64H80.256c-1.76 0-2.64-.88-2.64-2.64v-94.57c0-1.76.88-2.64 2.64-2.64z" style="fill:#fff;fill-opacity:.8;fill-rule:nonzero;stroke:#ccc;stroke-width:.8;stroke-linecap:butt;stroke-linejoin:miter;stroke-miterlimit:10;stroke-dasharray:none;stroke-opacity:.8"/><path d="M82.896 141.54h26.4" style="fill:none;stroke:#1e90ff;stroke-width:1.2;stroke-linecap:round;stroke-linejoin:round;stroke-miterlimit:10;stroke-dasharray:none;stroke-opacity:1"/><text xml:space="preserve" transform="matrix(1 0 0 -1 119.856 136.92)" style="font-variant:normal;font-weight:400;font-size:13.2px;font-family:'DejaVu Sans';-inkscape-font-specification:DejaVuSans;writing-mode:lr-tb;fill:#262626;fill-opacity:1;fill-rule:nonzero;stroke:none"><tspan x="0 8.0651999 19.4568 28.670401 32.868 41.25 49.618801 57.7104 66.0924 69.762001 77.879997" y="0">TMC Shapley</tspan></text><path d="M82.896 122.362h26.4" style="fill:none;stroke:#ff8c00;stroke-width:1.2;stroke-linecap:round;stroke-linejoin:round;stroke-miterlimit:10;stroke-dasharray:none;stroke-opacity:1"/><text xml:space="preserve" transform="matrix(1 0 0 -1 119.856 117.743)" style="font-variant:normal;font-weight:400;font-size:13.2px;font-family:'DejaVu Sans';-inkscape-font-specification:DejaVuSans;writing-mode:lr-tb;fill:#262626;fill-opacity:1;fill-rule:nonzero;stroke:none"><tspan x="0 10.23 15.37395 23.452351 31.82115 40.203152 44.400749 50.21595 58.33395 65.211151 70.385551 74.055153 82.42395 90.805946 95.003548 103.38555 111.75435 119.84595 128.22795 131.89755 140.01555" y="0">Group Testing Shapley</tspan></text><path d="M82.896 103.184h26.4" style="fill:none;stroke:#32cd32;stroke-width:1.2;stroke-linecap:round;stroke-linejoin:round;stroke-miterlimit:10;stroke-dasharray:none;stroke-opacity:1"/><text xml:space="preserve" transform="matrix(1 0 0 -1 119.856 98.564)" style="font-variant:normal;font-weight:400;font-size:13.2px;font-family:'DejaVu Sans';-inkscape-font-specification:DejaVuSans;writing-mode:lr-tb;fill:#262626;fill-opacity:1;fill-rule:nonzero;stroke:none"><tspan x="0 7.1336498 15.25165 23.34325 30.220449 35.394852 39.592449 48.806049 56.884449 62.0284" y="0">Least Core</tspan></text><path d="M82.896 84.006h26.4" style="fill:none;stroke:#cd5c5c;stroke-width:1.2;stroke-linecap:round;stroke-linejoin:round;stroke-miterlimit:10;stroke-dasharray:none;stroke-opacity:1"/><text xml:space="preserve" transform="matrix(1 0 0 -1 119.856 79.386)" style="font-variant:normal;font-weight:400;font-size:13.2px;font-family:'DejaVu Sans';-inkscape-font-specification:DejaVuSans;writing-mode:lr-tb;fill:#262626;fill-opacity:1;fill-rule:nonzero;stroke:none"><tspan x="0 7.1336498 15.25165 23.34325 31.15765 39.27565 43.473251 53.861649 62.23045 70.34845 74.546051 84.934448 93.303253" y="0">Leave One Out</tspan></text><path d="M82.896 64.828h26.4" style="fill:none;stroke:#9932cc;stroke-width:1.2;stroke-linecap:round;stroke-linejoin:round;stroke-miterlimit:10;stroke-dasharray:none;stroke-opacity:1"/><text xml:space="preserve" transform="matrix(1 0 0 -1 119.856 60.208)" style="font-variant:normal;font-weight:400;font-size:13.2px;font-family:'DejaVu Sans';-inkscape-font-specification:DejaVuSans;writing-mode:lr-tb;fill:#262626;fill-opacity:1;fill-rule:nonzero;stroke:none"><tspan x="0 8.8927498 16.98435 25.353149 33.735149 41.813549" y="0">Random</tspan></text></g></svg>