<svg width="173.863" height="128.603" viewBox="0 0 46.001 34.026" xmlns="http://www.w3.org/2000/svg"><defs><clipPath clipPathUnits="userSpaceOnUse" id="a"/><clipPath clipPathUnits="userSpaceOnUse" id="e"/><clipPath clipPathUnits="userSpaceOnUse" id="p"/><clipPath clipPathUnits="userSpaceOnUse" id="m"/><clipPath clipPathUnits="userSpaceOnUse" id="u"/><clipPath clipPathUnits="userSpaceOnUse" id="d"/><clipPath clipPathUnits="userSpaceOnUse" id="g"/><clipPath clipPathUnits="userSpaceOnUse" id="v"/><clipPath clipPathUnits="userSpaceOnUse" id="n"/><clipPath clipPathUnits="userSpaceOnUse" id="y"/><clipPath clipPathUnits="userSpaceOnUse" id="r"/><clipPath clipPathUnits="userSpaceOnUse" id="b"/><clipPath clipPathUnits="userSpaceOnUse" id="I"/><clipPath clipPathUnits="userSpaceOnUse" id="H"/><clipPath clipPathUnits="userSpaceOnUse" id="G"/><clipPath clipPathUnits="userSpaceOnUse" id="F"/><clipPath clipPathUnits="userSpaceOnUse" id="E"/><clipPath clipPathUnits="userSpaceOnUse" id="D"/><clipPath clipPathUnits="userSpaceOnUse" id="C"/><clipPath clipPathUnits="userSpaceOnUse" id="B"/><clipPath clipPathUnits="userSpaceOnUse" id="A"/><clipPath clipPathUnits="userSpaceOnUse" id="z"/><clipPath clipPathUnits="userSpaceOnUse" id="w"/><clipPath clipPathUnits="userSpaceOnUse" id="q"/><clipPath clipPathUnits="userSpaceOnUse" id="i"/><clipPath clipPathUnits="userSpaceOnUse" id="t"/><clipPath clipPathUnits="userSpaceOnUse" id="h"/><clipPath clipPathUnits="userSpaceOnUse" id="s"/><clipPath clipPathUnits="userSpaceOnUse" id="c"/><clipPath clipPathUnits="userSpaceOnUse" id="x"/><clipPath clipPathUnits="userSpaceOnUse" id="f"/><clipPath clipPathUnits="userSpaceOnUse" id="k"/><clipPath clipPathUnits="userSpaceOnUse" id="j"/><clipPath clipPathUnits="userSpaceOnUse" id="o"/><clipPath clipPathUnits="userSpaceOnUse" id="l"/></defs><path d="M241.087 199.798h37.896v-28.552h-37.896z" style="fill:#fff;fill-opacity:1;fill-rule:nonzero;stroke:none;stroke-width:.103618" clip-path="url(#a)" transform="translate(-233.728 -170.5)"/><g clip-path="url(#b)" transform="matrix(.10362 0 0 -.10362 0 34.026)"><path d="M87.64 45.625v275.556" style="fill:none;stroke:#ccc;stroke-width:.8;stroke-linecap:round;stroke-linejoin:round;stroke-miterlimit:10;stroke-dasharray:none;stroke-opacity:1"/></g><text xml:space="preserve" transform="translate(7.551 31.182) scale(.10362)" style="font-variant:normal;font-weight:400;font-size:13.2px;font-family:'DejaVu Sans';-inkscape-font-specification:DejaVuSans;writing-mode:lr-tb;fill:#262626;fill-opacity:1;fill-rule:nonzero;stroke:none"><tspan x="0 8.3951998 12.5928 20.988001" y="0">0.00</tspan></text><g clip-path="url(#c)" transform="matrix(.10362 0 0 -.10362 0 34.026)"><path d="M135.138 45.625v275.556" style="fill:none;stroke:#ccc;stroke-width:.8;stroke-linecap:round;stroke-linejoin:round;stroke-miterlimit:10;stroke-dasharray:none;stroke-opacity:1"/></g><text xml:space="preserve" transform="translate(12.473 31.182) scale(.10362)" style="font-variant:normal;font-weight:400;font-size:13.2px;font-family:'DejaVu Sans';-inkscape-font-specification:DejaVuSans;writing-mode:lr-tb;fill:#262626;fill-opacity:1;fill-rule:nonzero;stroke:none"><tspan x="0 8.3951998 12.5928 20.988001" y="0">0.05</tspan></text><g clip-path="url(#d)" transform="matrix(.10362 0 0 -.10362 0 34.026)"><path d="M182.636 45.625v275.556" style="fill:none;stroke:#ccc;stroke-width:.8;stroke-linecap:round;stroke-linejoin:round;stroke-miterlimit:10;stroke-dasharray:none;stroke-opacity:1"/></g><text xml:space="preserve" transform="translate(17.394 31.182) scale(.10362)" style="font-variant:normal;font-weight:400;font-size:13.2px;font-family:'DejaVu Sans';-inkscape-font-specification:DejaVuSans;writing-mode:lr-tb;fill:#262626;fill-opacity:1;fill-rule:nonzero;stroke:none"><tspan x="0 8.3951998 12.5928 20.988001" y="0">0.10</tspan></text><g clip-path="url(#e)" transform="matrix(.10362 0 0 -.10362 0 34.026)"><path d="M230.135 45.625v275.556" style="fill:none;stroke:#ccc;stroke-width:.8;stroke-linecap:round;stroke-linejoin:round;stroke-miterlimit:10;stroke-dasharray:none;stroke-opacity:1"/></g><text xml:space="preserve" transform="translate(22.316 31.182) scale(.10362)" style="font-variant:normal;font-weight:400;font-size:13.2px;font-family:'DejaVu Sans';-inkscape-font-specification:DejaVuSans;writing-mode:lr-tb;fill:#262626;fill-opacity:1;fill-rule:nonzero;stroke:none"><tspan x="0 8.3951998 12.5928 20.988001" y="0">0.15</tspan></text><g clip-path="url(#f)" transform="matrix(.10362 0 0 -.10362 0 34.026)"><path d="M277.633 45.625v275.556" style="fill:none;stroke:#ccc;stroke-width:.8;stroke-linecap:round;stroke-linejoin:round;stroke-miterlimit:10;stroke-dasharray:none;stroke-opacity:1"/></g><text xml:space="preserve" transform="translate(27.238 31.182) scale(.10362)" style="font-variant:normal;font-weight:400;font-size:13.2px;font-family:'DejaVu Sans';-inkscape-font-specification:DejaVuSans;writing-mode:lr-tb;fill:#262626;fill-opacity:1;fill-rule:nonzero;stroke:none"><tspan x="0 8.3951998 12.5928 20.988001" y="0">0.20</tspan></text><g clip-path="url(#g)" transform="matrix(.10362 0 0 -.10362 0 34.026)"><path d="M325.13 45.625v275.556" style="fill:none;stroke:#ccc;stroke-width:.8;stroke-linecap:round;stroke-linejoin:round;stroke-miterlimit:10;stroke-dasharray:none;stroke-opacity:1"/></g><text xml:space="preserve" transform="translate(32.16 31.182) scale(.10362)" style="font-variant:normal;font-weight:400;font-size:13.2px;font-family:'DejaVu Sans';-inkscape-font-specification:DejaVuSans;writing-mode:lr-tb;fill:#262626;fill-opacity:1;fill-rule:nonzero;stroke:none"><tspan x="0 8.3951998 12.5928 20.988001" y="0">0.25</tspan></text><g clip-path="url(#h)" transform="matrix(.10362 0 0 -.10362 0 34.026)"><path d="M372.63 45.625v275.556" style="fill:none;stroke:#ccc;stroke-width:.8;stroke-linecap:round;stroke-linejoin:round;stroke-miterlimit:10;stroke-dasharray:none;stroke-opacity:1"/></g><text xml:space="preserve" transform="translate(37.081 31.182) scale(.10362)" style="font-variant:normal;font-weight:400;font-size:13.2px;font-family:'DejaVu Sans';-inkscape-font-specification:DejaVuSans;writing-mode:lr-tb;fill:#262626;fill-opacity:1;fill-rule:nonzero;stroke:none"><tspan x="0 8.3951998 12.5928 20.988001" y="0">0.30</tspan></text><g clip-path="url(#i)" transform="matrix(.10362 0 0 -.10362 0 34.026)"><path d="M420.127 45.625v275.556" style="fill:none;stroke:#ccc;stroke-width:.8;stroke-linecap:round;stroke-linejoin:round;stroke-miterlimit:10;stroke-dasharray:none;stroke-opacity:1"/></g><text xml:space="preserve" transform="translate(42.003 31.182) scale(.10362)" style="font-variant:normal;font-weight:400;font-size:13.2px;font-family:'DejaVu Sans';-inkscape-font-specification:DejaVuSans;writing-mode:lr-tb;fill:#262626;fill-opacity:1;fill-rule:nonzero;stroke:none"><tspan x="0 8.3951998 12.5928 20.988001" y="0">0.35</tspan></text><text xml:space="preserve" transform="translate(18.653 32.979) scale(.10362)" style="font-variant:normal;font-weight:400;font-size:14.4px;font-family:'DejaVu Sans';-inkscape-font-specification:DejaVuSans;writing-mode:lr-tb;fill:#262626;fill-opacity:1;fill-rule:nonzero;stroke:none"><tspan x="0 8.1831999 17.0392 22.6451 30.5651 39.421101 48.550701 54.195499 63.022701 72.166702 81.022697 85.601898 94.969276 103.82527 117.85088 126.66367 135.18848 144.01567" y="0">Percentage Removal</tspan></text><g clip-path="url(#j)" transform="matrix(.10362 0 0 -.10362 0 34.026)"><path d="M71.016 45.762h365.736" style="fill:none;stroke:#ccc;stroke-width:.8;stroke-linecap:round;stroke-linejoin:round;stroke-miterlimit:10;stroke-dasharray:none;stroke-opacity:1"/></g><text xml:space="preserve" transform="translate(2.564 29.796) scale(.10362)" style="font-variant:normal;font-weight:400;font-size:13.2px;font-family:'DejaVu Sans';-inkscape-font-specification:DejaVuSans;writing-mode:lr-tb;fill:#262626;fill-opacity:1;fill-rule:nonzero;stroke:none"><tspan x="0 8.3951998 12.5928 20.988001 29.3832" y="0">0.970</tspan></text><g clip-path="url(#k)" transform="matrix(.10362 0 0 -.10362 0 34.026)"><path d="M71.016 98.9h365.736" style="fill:none;stroke:#ccc;stroke-width:.8;stroke-linecap:round;stroke-linejoin:round;stroke-miterlimit:10;stroke-dasharray:none;stroke-opacity:1"/></g><text xml:space="preserve" transform="translate(2.564 24.29) scale(.10362)" style="font-variant:normal;font-weight:400;font-size:13.2px;font-family:'DejaVu Sans';-inkscape-font-specification:DejaVuSans;writing-mode:lr-tb;fill:#262626;fill-opacity:1;fill-rule:nonzero;stroke:none"><tspan x="0 8.3951998 12.5928 20.988001 29.3832" y="0">0.975</tspan></text><g clip-path="url(#l)" transform="matrix(.10362 0 0 -.10362 0 34.026)"><path d="M71.016 152.039h365.736" style="fill:none;stroke:#ccc;stroke-width:.8;stroke-linecap:round;stroke-linejoin:round;stroke-miterlimit:10;stroke-dasharray:none;stroke-opacity:1"/></g><text xml:space="preserve" transform="translate(2.564 18.784) scale(.10362)" style="font-variant:normal;font-weight:400;font-size:13.2px;font-family:'DejaVu Sans';-inkscape-font-specification:DejaVuSans;writing-mode:lr-tb;fill:#262626;fill-opacity:1;fill-rule:nonzero;stroke:none"><tspan x="0 8.3951998 12.5928 20.988001 29.3832" y="0">0.980</tspan></text><g clip-path="url(#m)" transform="matrix(.10362 0 0 -.10362 0 34.026)"><path d="M71.016 205.177h365.736" style="fill:none;stroke:#ccc;stroke-width:.8;stroke-linecap:round;stroke-linejoin:round;stroke-miterlimit:10;stroke-dasharray:none;stroke-opacity:1"/></g><text xml:space="preserve" transform="translate(2.564 13.278) scale(.10362)" style="font-variant:normal;font-weight:400;font-size:13.2px;font-family:'DejaVu Sans';-inkscape-font-specification:DejaVuSans;writing-mode:lr-tb;fill:#262626;fill-opacity:1;fill-rule:nonzero;stroke:none"><tspan x="0 8.3951998 12.5928 20.988001 29.3832" y="0">0.985</tspan></text><g clip-path="url(#n)" transform="matrix(.10362 0 0 -.10362 0 34.026)"><path d="M71.016 258.315h365.736" style="fill:none;stroke:#ccc;stroke-width:.8;stroke-linecap:round;stroke-linejoin:round;stroke-miterlimit:10;stroke-dasharray:none;stroke-opacity:1"/></g><text xml:space="preserve" transform="translate(2.564 7.772) scale(.10362)" style="font-variant:normal;font-weight:400;font-size:13.2px;font-family:'DejaVu Sans';-inkscape-font-specification:DejaVuSans;writing-mode:lr-tb;fill:#262626;fill-opacity:1;fill-rule:nonzero;stroke:none"><tspan x="0 8.3951998 12.5928 20.988001 29.3832" y="0">0.990</tspan></text><g clip-path="url(#o)" transform="matrix(.10362 0 0 -.10362 0 34.026)"><path d="M71.016 311.454h365.736" style="fill:none;stroke:#ccc;stroke-width:.8;stroke-linecap:round;stroke-linejoin:round;stroke-miterlimit:10;stroke-dasharray:none;stroke-opacity:1"/></g><text xml:space="preserve" transform="translate(2.564 2.266) scale(.10362)" style="font-variant:normal;font-weight:400;font-size:13.2px;font-family:'DejaVu Sans';-inkscape-font-specification:DejaVuSans;writing-mode:lr-tb;fill:#262626;fill-opacity:1;fill-rule:nonzero;stroke:none"><tspan x="0 8.3951998 12.5928 20.988001 29.3832" y="0">0.995</tspan></text><text xml:space="preserve" transform="rotate(-90 10.136 8.287) scale(.10362)" style="font-variant:normal;font-weight:400;font-size:14.4px;font-family:'DejaVu Sans';-inkscape-font-specification:DejaVuSans;writing-mode:lr-tb;fill:#262626;fill-opacity:1;fill-rule:nonzero;stroke:none"><tspan x="0 9.5995998 17.5196 25.4396 34.569199 40.487598 49.3148 57.234798" y="0">Accuracy</tspan></text><g clip-path="url(#p)" transform="matrix(.10362 0 0 -.10362 0 34.026)"><path d="M87.64 282.368v26.288l47.498-20.622 47.498 3.52 47.499 6.077 47.498-1.236 47.498-16.21 47.498-25.368 47.498-19.958V86.932l-47.498 68.605-47.498 63.195-47.498-16.209-47.498 41.275-47.499 16.704-47.498-14.193z" style="fill:#87cefa;fill-opacity:.3;fill-rule:nonzero;stroke:#87cefa;stroke-width:.8;stroke-linecap:butt;stroke-linejoin:round;stroke-miterlimit:10;stroke-dasharray:none;stroke-opacity:.3"/></g><g clip-path="url(#q)" transform="matrix(.10362 0 0 -.10362 0 34.026)"><path d="M87.64 282.368v26.288l47.498-5.545 47.498-1.921 47.499.23 47.498-7.349 47.498-12.942 47.498-6.448 47.498-3.707v-32.402l-47.498 3.378-47.498 18.35-47.498 8.312-47.498-7.347-47.499 3.772-47.498 8.706z" style="fill:gold;fill-opacity:.3;fill-rule:nonzero;stroke:gold;stroke-width:.8;stroke-linecap:butt;stroke-linejoin:round;stroke-miterlimit:10;stroke-dasharray:none;stroke-opacity:.3"/></g><g clip-path="url(#r)" transform="matrix(.10362 0 0 -.10362 0 34.026)"><path d="M87.64 282.368v26.288l47.498-26.331 47.498-16.903 47.499-12.676 47.498-14.836 47.498-7.093 47.498-56.796 47.498-34.37v-81.5L372.63 87.545l-47.498 31.768-47.498 49.588-47.498 27.674-47.499 19.207-47.498 29.15z" style="fill:#2e8b57;fill-opacity:.3;fill-rule:nonzero;stroke:#2e8b57;stroke-width:.8;stroke-linecap:butt;stroke-linejoin:round;stroke-miterlimit:10;stroke-dasharray:none;stroke-opacity:.3"/></g><g clip-path="url(#s)" transform="matrix(.10362 0 0 -.10362 0 34.026)"><path d="M87.64 282.368v26.288l47.498-15.42 47.498-4.116 47.499 4.183 47.498-5.269 47.498-17.06 47.498-7.61 47.498-2.718V220.56l-47.498.825-47.498 17.188-47.498 7.737-47.498 1.817-47.499.64-47.498 6.51z" style="fill:#b22222;fill-opacity:.3;fill-rule:nonzero;stroke:#b22222;stroke-width:.8;stroke-linecap:butt;stroke-linejoin:round;stroke-miterlimit:10;stroke-dasharray:none;stroke-opacity:.3"/></g><g clip-path="url(#t)" transform="matrix(.10362 0 0 -.10362 0 34.026)"><path d="M87.64 282.368v26.288l47.498-4.66 47.498-9.972 47.499.505 47.498 1.531 47.498-12.32 47.498-5.427 47.498 2.52v-34.407l-47.498 2.52-47.498 1.657-47.498 8.936-47.498 1.53-47.499 4.048-47.498 7.741z" style="fill:plum;fill-opacity:.3;fill-rule:nonzero;stroke:plum;stroke-width:.8;stroke-linecap:butt;stroke-linejoin:round;stroke-miterlimit:10;stroke-dasharray:none;stroke-opacity:.3"/></g><g clip-path="url(#u)" transform="matrix(.10362 0 0 -.10362 0 34.026)"><path d="m87.64 295.512 47.498-28.34 47.498 8.856 47.499-5.314 47.498-21.255h47.498l47.498-44.282 47.498-44.282" style="fill:none;stroke:#1e90ff;stroke-width:1.2;stroke-linecap:round;stroke-linejoin:round;stroke-miterlimit:10;stroke-dasharray:none;stroke-opacity:1"/></g><g clip-path="url(#v)" transform="matrix(.10362 0 0 -.10362 0 34.026)"><path d="m87.64 295.512 47.498-7.085 47.498-5.314 47.499-1.771h47.498l47.498-10.628 47.498-12.399 47.498-3.542" style="fill:none;stroke:#ff8c00;stroke-width:1.2;stroke-linecap:round;stroke-linejoin:round;stroke-miterlimit:10;stroke-dasharray:none;stroke-opacity:1"/></g><g clip-path="url(#w)" transform="matrix(.10362 0 0 -.10362 0 34.026)"><path d="m87.64 295.512 47.498-31.883 47.498-23.026 47.499-15.942 47.498-21.255 47.498-28.34 47.498-44.282L420.127 98.9" style="fill:none;stroke:#32cd32;stroke-width:1.2;stroke-linecap:round;stroke-linejoin:round;stroke-miterlimit:10;stroke-dasharray:none;stroke-opacity:1"/></g><g clip-path="url(#x)" transform="matrix(.10362 0 0 -.10362 0 34.026)"><path d="m87.64 295.512 47.498-21.255 47.498-5.314 47.499 1.771 47.498-3.542 47.498-12.4 47.498-12.398 47.498-1.771" style="fill:none;stroke:#cd5c5c;stroke-width:1.2;stroke-linecap:round;stroke-linejoin:round;stroke-miterlimit:10;stroke-dasharray:none;stroke-opacity:1"/></g><g clip-path="url(#y)" transform="matrix(.10362 0 0 -.10362 0 34.026)"><path d="m87.64 295.512 47.498-7.085 47.498-8.856 47.499-1.772h47.498l47.498-10.627 47.498-3.543h47.498" style="fill:none;stroke:#9932cc;stroke-width:1.2;stroke-linecap:round;stroke-linejoin:round;stroke-miterlimit:10;stroke-dasharray:none;stroke-opacity:1"/></g><path d="M241.087 199.798v-28.552" style="fill:none;stroke:#ccc;stroke-width:.103618;stroke-linecap:square;stroke-linejoin:miter;stroke-miterlimit:10;stroke-dasharray:none;stroke-opacity:1" clip-path="url(#z)" transform="translate(-233.728 -170.5)"/><path d="M278.983 199.798v-28.552" style="fill:none;stroke:#ccc;stroke-width:.103618;stroke-linecap:square;stroke-linejoin:miter;stroke-miterlimit:10;stroke-dasharray:none;stroke-opacity:1" clip-path="url(#A)" transform="translate(-233.728 -170.5)"/><path d="M241.087 199.798h37.896" style="fill:none;stroke:#ccc;stroke-width:.103618;stroke-linecap:square;stroke-linejoin:miter;stroke-miterlimit:10;stroke-dasharray:none;stroke-opacity:1" clip-path="url(#B)" transform="translate(-233.728 -170.5)"/><path d="M241.087 171.246h37.896" style="fill:none;stroke:#ccc;stroke-width:.103618;stroke-linecap:square;stroke-linejoin:miter;stroke-miterlimit:10;stroke-dasharray:none;stroke-opacity:1" clip-path="url(#C)" transform="translate(-233.728 -170.5)"/><path d="M242.044 199.114h19.76c.183 0 .274-.09.274-.273v-9.8c0-.182-.09-.273-.273-.273h-19.76c-.183 0-.274.091-.274.274v9.799c0 .182.09.273.273.273z" style="fill:#fff;fill-opacity:.8;fill-rule:nonzero;stroke:#ccc;stroke-width:.0828943;stroke-linecap:butt;stroke-linejoin:miter;stroke-miterlimit:10;stroke-dasharray:none;stroke-opacity:.8" clip-path="url(#D)" transform="translate(-233.728 -170.5)"/><path d="M242.318 189.86h2.735" style="fill:none;stroke:#1e90ff;stroke-width:.124341;stroke-linecap:round;stroke-linejoin:round;stroke-miterlimit:10;stroke-dasharray:none;stroke-opacity:1" clip-path="url(#E)" transform="translate(-233.728 -170.5)"/><text xml:space="preserve" transform="translate(12.42 19.839) scale(.10362)" style="font-variant:normal;font-weight:400;font-size:13.2px;font-family:'DejaVu Sans';-inkscape-font-specification:DejaVuSans;writing-mode:lr-tb;fill:#262626;fill-opacity:1;fill-rule:nonzero;stroke:none"><tspan x="0 8.0651999 19.4568 28.670401 32.868 41.25 49.618801 57.7104 66.0924 69.762001 77.879997" y="0">TMC Shapley</tspan></text><path d="M242.318 191.847h2.735" style="fill:none;stroke:#ff8c00;stroke-width:.124341;stroke-linecap:round;stroke-linejoin:round;stroke-miterlimit:10;stroke-dasharray:none;stroke-opacity:1" clip-path="url(#F)" transform="translate(-233.728 -170.5)"/><text xml:space="preserve" transform="translate(12.42 21.826) scale(.10362)" style="font-variant:normal;font-weight:400;font-size:13.2px;font-family:'DejaVu Sans';-inkscape-font-specification:DejaVuSans;writing-mode:lr-tb;fill:#262626;fill-opacity:1;fill-rule:nonzero;stroke:none"><tspan x="0 10.23 15.37395 23.452351 31.82115 40.203152 44.400749 50.21595 58.33395 65.211151 70.385551 74.055153 82.42395 90.805946 95.003548 103.38555 111.75435 119.84595 128.22795 131.89755 140.01555" y="0">Group Testing Shapley</tspan></text><path d="M242.318 193.834h2.735" style="fill:none;stroke:#32cd32;stroke-width:.124341;stroke-linecap:round;stroke-linejoin:round;stroke-miterlimit:10;stroke-dasharray:none;stroke-opacity:1" clip-path="url(#G)" transform="translate(-233.728 -170.5)"/><text xml:space="preserve" transform="translate(12.42 23.813) scale(.10362)" style="font-variant:normal;font-weight:400;font-size:13.2px;font-family:'DejaVu Sans';-inkscape-font-specification:DejaVuSans;writing-mode:lr-tb;fill:#262626;fill-opacity:1;fill-rule:nonzero;stroke:none"><tspan x="0 7.1336498 15.25165 23.34325 30.220449 35.394852 39.592449 48.806049 56.884449 62.0284" y="0">Least Core</tspan></text><path d="M242.318 195.821h2.735" style="fill:none;stroke:#cd5c5c;stroke-width:.124341;stroke-linecap:round;stroke-linejoin:round;stroke-miterlimit:10;stroke-dasharray:none;stroke-opacity:1" clip-path="url(#H)" transform="translate(-233.728 -170.5)"/><text xml:space="preserve" transform="translate(12.42 25.8) scale(.10362)" style="font-variant:normal;font-weight:400;font-size:13.2px;font-family:'DejaVu Sans';-inkscape-font-specification:DejaVuSans;writing-mode:lr-tb;fill:#262626;fill-opacity:1;fill-rule:nonzero;stroke:none"><tspan x="0 7.1336498 15.25165 23.34325 31.15765 39.27565 43.473251 53.861649 62.23045 70.34845 74.546051 84.934448 93.303253" y="0">Leave One Out</tspan></text><path d="M242.318 197.808h2.735" style="fill:none;stroke:#9932cc;stroke-width:.124341;stroke-linecap:round;stroke-linejoin:round;stroke-miterlimit:10;stroke-dasharray:none;stroke-opacity:1" clip-path="url(#I)" transform="translate(-233.728 -170.5)"/><text xml:space="preserve" transform="translate(12.42 27.787) scale(.10362)" style="font-variant:normal;font-weight:400;font-size:13.2px;font-family:'DejaVu Sans';-inkscape-font-specification:DejaVuSans;writing-mode:lr-tb;fill:#262626;fill-opacity:1;fill-rule:nonzero;stroke:none"><tspan x="0 8.8927498 16.98435 25.353149 33.735149 41.813549" y="0">Random</tspan></text></svg>