<svg xmlns="http://www.w3.org/2000/svg" viewBox="0 0 568.05334 304.48001" height="304.48" width="568.053"><defs><clipPath id="a"><path d="M0 0h4260v2283.57H0z"/></clipPath><clipPath id="b"><path d="M422.977 144.387H3856.13V2129.21H422.977z"/></clipPath></defs><g clip-path="url(#a)" transform="matrix(.13333 0 0 -.13333 0 304.48)"><path d="M0 2.797h4247.35v2268H0z" fill="#fff" fill-rule="evenodd"/></g><g clip-path="url(#b)" transform="matrix(.13333 0 0 -.13333 0 304.48)"><path d="M732.523 138.395V2123.21m-25.164-25.24l25.164 25.24 25.227-25.24m1335.57-259.22v-23.96m0-24.02v-23.97m0-24.02v-23.98m0-24.03v-23.96m0-24.03v-23.97m0-24.03v-23.96m0-24.03v-24.04m0-23.96v-24.03m0-23.97v-24.03m0-23.96v-24.03m0-23.97v-24.03m0-23.97v-24.03m0-23.96v-24.03m0-23.97v-24.03m0-23.96v-24.03m0-24.04v-23.96m0-24.03v-23.97m0-24.03v-23.963m0-24.031v-23.965m0-24.031v-23.965m0-24.032v-23.964m0-24.032v-23.965m0-24.031v-23.965m0-24.031v-24.031m0-23.965v-24.031m0-23.965v-24.031m0-23.965v-24.031m0-23.965V518.77m0-23.965v-24.032m0-23.964v-24.032m-511.18 683.993v-23.96m0-24.03v-22.77m0-24.03v-23.964m0-22.836v-23.965m0-24.031v-22.766m0-24.031v-24.032m0-22.765v-24.031m0-23.965v-22.832m0-23.969v-24.027m0-22.77v-24.031m0-23.965v-22.832m0-23.965v-24.031m0-22.766v-24.031m0-23.965v-22.832m0-23.969v-24.027m331.17 1021.228v-24.03m0-23.96v-24.03m0-22.77l1.21-24.04m0-24.02v-23.97m0-22.83v-23.97m1.19-24.03v-23.96m0-24.04v-22.76m0-24.03l1.27-23.97m0-24.03v-22.76m0-24.04v-23.961m0-24.035l1.2-23.961m0-22.832v-23.969m0-24.031v-23.965m1.2-22.832v-24.031m0-23.965v-24.031m0-23.965l1.19-22.832m0-23.965v-24.031m0-23.965v-22.832m1.21-23.965v-24.031m0-23.965V517.57m0-23.965l1.19-24.027m0-23.969v-24.027m-1473.63 0h3400.8m-25.17 25.227l25.17-25.227-25.17-23.969" fill="none" stroke="#000" stroke-width="4.8" stroke-miterlimit="10"/><g font-weight="400"><text style="-inkscape-font-specification:CMMI10" transform="matrix(10 0 0 -10 1542.53 285.98)" font-size="9.963" font-family="CMMI10"><tspan y="0" x="0">θ</tspan></text><text style="-inkscape-font-specification:CMMI7" transform="matrix(10 0 0 -10 1592.925 321.992)" font-size="6.974" font-family="CMMI7"><tspan y="0" x="0">t</tspan></text><text style="-inkscape-font-specification:CMMI10" transform="matrix(10 0 0 -10 1829.374 284.78)" font-size="9.963" font-family="CMMI10"><tspan y="0" x="0">θ</tspan></text><text style="-inkscape-font-specification:CMMI7" transform="matrix(10 0 0 -10 1878.569 320.793)" font-size="6.974" font-family="CMMI7"><tspan y="0" x="0">t</tspan></text><text style="-inkscape-font-specification:CMR7" transform="matrix(10 0 0 -10 1912.12 320.793)" font-size="6.974" font-family="CMR7"><tspan y="0" x="0 6.4839835">+1</tspan></text></g><path d="M1931.36 1286.77c0 9.26-7.59 16.85-16.84 16.85s-16.79-7.59-16.79-16.85c0-9.25 7.54-16.77 16.79-16.77s16.84 7.52 16.84 16.77" fill="none" stroke="#000" stroke-width="6" stroke-miterlimit="10"/><path d="M1931.36 1286.77c0 9.26-7.59 16.85-16.84 16.85s-16.79-7.59-16.79-16.85c0-9.25 7.54-16.77 16.79-16.77s16.84 7.52 16.84 16.77" fill-rule="evenodd"/><path d="M1931.36 1286.77c0 9.26-7.59 16.85-16.84 16.85s-16.79-7.59-16.79-16.85c0-9.25 7.54-16.77 16.79-16.77s16.84 7.52 16.84 16.77" fill="none" stroke="#000" stroke-width="3.6" stroke-miterlimit="10"/><path d="M2110.16 1616.75c0 9.26-7.59 16.85-16.84 16.85s-16.77-7.59-16.77-16.85c0-9.25 7.52-16.77 16.77-16.77s16.84 7.52 16.84 16.77" fill="none" stroke="#000" stroke-width="6" stroke-miterlimit="10"/><path d="M2110.16 1616.75c0 9.26-7.59 16.85-16.84 16.85s-16.77-7.59-16.77-16.85c0-9.25 7.52-16.77 16.77-16.77s16.84 7.52 16.84 16.77" fill-rule="evenodd"/><path d="M2110.16 1616.75c0 9.26-7.59 16.85-16.84 16.85s-16.77-7.59-16.77-16.85c0-9.25 7.52-16.77 16.77-16.77s16.84 7.52 16.84 16.77" fill="none" stroke="#000" stroke-width="3.6" stroke-miterlimit="10"/><path d="M1931.36 1286.77c0 9.26-7.59 16.85-16.84 16.85s-16.79-7.59-16.79-16.85c0-9.25 7.54-16.77 16.79-16.77s16.84 7.52 16.84 16.77" fill="none" stroke="#ff8000" stroke-width="6" stroke-miterlimit="10"/><path d="M1931.36 1286.77c0 9.26-7.59 16.85-16.84 16.85s-16.79-7.59-16.79-16.85c0-9.25 7.54-16.77 16.79-16.77s16.84 7.52 16.84 16.77" fill="#ff8000" fill-rule="evenodd"/><path d="M1931.36 1286.77c0 9.26-7.59 16.85-16.84 16.85s-16.79-7.59-16.79-16.85c0-9.25 7.54-16.77 16.79-16.77s16.84 7.52 16.84 16.77" fill="none" stroke="#ff8000" stroke-width="3.6" stroke-miterlimit="10"/><path d="M2110.16 1616.75c0 9.26-7.59 16.85-16.84 16.85s-16.77-7.59-16.77-16.85c0-9.25 7.52-16.77 16.77-16.77s16.84 7.52 16.84 16.77" fill="none" stroke="green" stroke-width="6" stroke-miterlimit="10"/><path d="M2110.16 1616.75c0 9.26-7.59 16.85-16.84 16.85s-16.77-7.59-16.77-16.85c0-9.25 7.52-16.77 16.77-16.77s16.84 7.52 16.84 16.77" fill="green" fill-rule="evenodd"/><path d="M2110.16 1616.75c0 9.26-7.59 16.85-16.84 16.85s-16.77-7.59-16.77-16.85c0-9.25 7.52-16.77 16.77-16.77s16.84 7.52 16.84 16.77" fill="none" stroke="green" stroke-width="3.6" stroke-miterlimit="10"/><path d="M2110.16 1616.75c0 9.26-7.59 16.85-16.84 16.85s-16.77-7.59-16.77-16.85c0-9.25 7.52-16.77 16.77-16.77s16.84 7.52 16.84 16.77" fill="none" stroke="#000" stroke-width="6" stroke-miterlimit="10"/><path d="M2110.16 1616.75c0 9.26-7.59 16.85-16.84 16.85s-16.77-7.59-16.77-16.85c0-9.25 7.52-16.77 16.77-16.77s16.84 7.52 16.84 16.77" fill-rule="evenodd"/><path d="M2110.16 1616.75c0 9.26-7.59 16.85-16.84 16.85s-16.77-7.59-16.77-16.85c0-9.25 7.52-16.77 16.77-16.77s16.84 7.52 16.84 16.77" fill="none" stroke="#000" stroke-width="3.6" stroke-miterlimit="10"/><path d="M2110.16 1616.75c0 9.26-7.59 16.85-16.84 16.85s-16.77-7.59-16.77-16.85c0-9.25 7.52-16.77 16.77-16.77s16.84 7.52 16.84 16.77" fill="none" stroke="green" stroke-width="6" stroke-miterlimit="10"/><path d="M2110.16 1616.75c0 9.26-7.59 16.85-16.84 16.85s-16.77-7.59-16.77-16.85c0-9.25 7.52-16.77 16.77-16.77s16.84 7.52 16.84 16.77" fill="green" fill-rule="evenodd"/><path d="M2110.16 1616.75c0 9.26-7.59 16.85-16.84 16.85s-16.77-7.59-16.77-16.85c0-9.25 7.52-16.77 16.77-16.77s16.84 7.52 16.84 16.77" fill="none" stroke="green" stroke-width="3.6" stroke-miterlimit="10"/><path d="M1300.16 421.582l27.62 104.379 28.76 97.254 31.22 91.203 31.22 83.941 33.55 78.02 34.81 69.629 36.02 64.772 37.21 56.38 39.61 50.39 40.74 44.41 42.01 36.01 43.19 31.22 44.42 22.77 46.79 16.84 47.99 10.78 49.2 3.6 50.46-3.6 52.78-10.78 52.79-16.84 55.18-22.77 56.39-31.22 58.85-36.01 58.78-44.41 61.18-50.39 62.44-56.38 63.58-64.772 64.82-69.629 67.18-78.02 68.43-83.941 69.56-91.203 70.84-97.254 71.95-104.379" fill="none" stroke="#ff8000" stroke-width="4.8" stroke-miterlimit="10"/><path d="M1724.93 421.582l5.98 74.422 6.07 70.762 7.19 68.433 7.19 65.969 8.39 64.84 8.38 61.176 8.39 59.976 8.45 56.453 8.39 55.184 9.59 51.593 9.58 50.39 10.79 48 9.66 45.6 10.77 43.2 10.79 40.81 11.98 38.41 10.85 36.01 11.98 33.55 13.19 31.22 11.98 28.83 13.24 27.55 13.19 24.04 14.37 21.57 13.26 20.43 14.37 17.98 14.38 14.37 15.64 13.25 15.58 10.79 15.57 7.18 15.65 6 33.55 4.79 16.84-1.2 16.79-3.59 18.03-6 17.97-7.18 17.98-10.79 19.23-13.25 19.17-14.37 19.24-17.98 19.17-20.43 20.38-21.57 20.43-24.04 20.37-27.55 20.43-28.83 21.58-31.22 21.64-33.55 21.55-36.01 22.84-38.41 22.77-40.81 22.84-43.2 23.96-45.6 22.83-48 23.96-50.39 24.03-51.593 25.17-55.184 25.22-56.453 25.24-59.976 25.16-61.176 26.43-64.84 26.36-65.969 26.43-68.433 26.37-70.762 27.62-74.422" fill="none" stroke="green" stroke-width="4.8" stroke-miterlimit="10"/><g font-weight="400" font-size="9.963"><text style="-inkscape-font-specification:EuropeanComputerModern-RomanRegular10pt" transform="matrix(10 0 0 -10 1104.57 1917.98)" font-family="EuropeanComputerModern"><tspan y="0" x="0 2.7601562 7.8000016">log</tspan></text><text style="-inkscape-font-specification:CMMI10" transform="matrix(10 0 0 -10 1254.55 1917.98)" font-family="CMMI10"><tspan y="0" x="0">p</tspan></text><text style="-inkscape-font-specification:CMR10" transform="matrix(10 0 0 -10 1304.94 1917.98)" font-family="CMR10"><tspan y="0" x="0">(</tspan></text><text style="-inkscape-font-specification:CMMIB10" transform="matrix(10 0 0 -10 1344.55 1917.98)" font-family="CMMIB10"><tspan y="0" x="0">x</tspan></text><text style="-inkscape-font-specification:CMSY10" transform="matrix(10 0 0 -10 1416.51 1917.98)" font-family="CMSY10"><tspan y="0" x="0">|</tspan></text><text style="-inkscape-font-specification:CMMI10" transform="matrix(10 0 0 -10 1444.136 1917.98)" font-family="CMMI10"><tspan y="0" x="0">θ</tspan></text><text style="-inkscape-font-specification:CMR10" transform="matrix(10 0 0 -10 1493.331 1917.98)" font-family="CMR10"><tspan y="0" x="0">)</tspan></text></g><path d="M1421.38 1844.75l21.57-9.57m20.43-9.6l8.39-2.4 13.18-5.98m20.37-9.6l13.25-4.79 8.38-3.66m20.37-8.38l18.04-7.2 3.6-1.19m21.57-8.38l19.24-7.2 2.39-1.21m20.37-7.17l19.24-7.26 2.4-1.19m21.56-7.19l16.85-6 4.79-1.19m21.56-7.2l13.19-4.78 8.46-2.41m22.76-6l5.99-2.38 15.64-3.67m21.58-5.99l22.83-5.99m21.56-4.79l21.64-4.8h1.19m22.77-3.59l7.19-1.2 14.45-2.4m22.77-2.39l19.17-1.2h3.65m22.77-1.2l22.84 1.2m-26.43 22.77l26.43-22.77-22.84-26.42" fill="none" stroke="#000" stroke-width="2.4" stroke-miterlimit="10"/><path d="M732.523 705.961l86.407 18.043 82.812 20.367 78.016 20.438 73.162 20.371 68.43 21.632 63.58 22.766 60.04 22.836 53.99 22.766 50.39 25.23 45.6 23.965 40.8 26.426 37.22 26.359 31.15 26.43 27.63 27.62 22.83 28.76 17.97 28.83 32.42 55.18 31.15 49.2 30.03 43.2 30.02 36.01 28.76 30.03 28.82 22.76 28.84 17.98 27.55 10.85 27.63 10.78 25.15 17.98 25.24 26.43 25.15 33.61 22.84 40.81 22.76 47.99 21.65 55.19 20.36 63.58 10.86 32.41 10.79 30.03 10.77 26.36 10.78 25.22 12.05 22.77 11.98 19.24 12 17.98 13.17 14.36 12.05 13.26 13.17 10.79 14.39 7.18 13.25 4.8 14.37 3.6h14.38l14.46-1.21 14.36-4.79 59.99-19.17 56.39-14.46 52.85-7.17 50.39-1.21h11.98l13.19-3.6 14.43-5.98 15.58-8.38 15.57-10.79 16.86-13.26 16.77-15.57 19.17-17.97 19.24-21.64 19.17-22.77 20.43-26.42 21.58-27.63 22.83-31.15 22.77-33.62 24.03-36.01 25.15-38.41 25.24-38.41 25.16-35.95 24.04-34.81 23.96-31.22 24.03-30.03 24.03-26.36 22.77-25.23 24.03-22.77 22.76-20.43 21.65-17.98 22.76-15.57 21.63-14.45 21.57-10.78 21.56-9.59 20.45-5.99 21.56-4.79 20.43-5.99 22.77-12.05 24.05-16.78 23.95-22.83 25.23-27.56 27.62-33.62 27.58-38.41 28.81-44.398 29.96-49.195 31.22-55.184 33.61-59.981 32.43-66.035 34.75-71.961 36-76.82 37.22-81.613 38.41-88.801" fill="none" stroke="#000" stroke-width="4.8" stroke-miterlimit="10"/><path d="M3000.52 591.996h736.859v170.418H3000.52z" fill="#fff" fill-rule="evenodd"/><path d="M3000.52 762.414V591.996h736.86v170.418h-736.86" fill="none" stroke="#fff" stroke-width="4.8" stroke-miterlimit="10"/><g font-weight="400"><text style="-inkscape-font-specification:CMSY10" transform="matrix(10 0 0 -10 3142.17 637.594)" font-size="9.963" font-family="CMSY10"><tspan y="0" x="0">L</tspan></text><text style="-inkscape-font-specification:CMR10" transform="matrix(10 0 0 -10 3210.537 637.594)" font-size="9.963" font-family="CMR10"><tspan y="0" x="0">(</tspan></text><text style="-inkscape-font-specification:CMMI10" transform="matrix(10 0 0 -10 3254.94 637.594)" font-size="9.963" font-family="CMMI10"><tspan y="0" x="0">q</tspan></text><text style="-inkscape-font-specification:CMMI7" transform="matrix(10 0 0 -10 3302.936 673.61)" font-size="6.974" font-family="CMMI7"><tspan y="0" x="0">t</tspan></text><text style="-inkscape-font-specification:CMR7" transform="matrix(10 0 0 -10 3336.553 673.61)" font-size="6.974" font-family="CMR7"><tspan y="0" x="0 6.4773545">+1</tspan></text><text style="-inkscape-font-specification:CMMI10" transform="matrix(10 0 0 -10 3440.932 637.594)" font-size="9.963" font-family="CMMI10"><tspan y="0" x="0 4.4443979">,θ</tspan></text><text style="-inkscape-font-specification:CMR10" transform="matrix(10 0 0 -10 3534.53 637.594)" font-size="9.963" font-family="CMR10"><tspan y="0" x="0">)</tspan></text></g><path d="M2830.17 904.004h680.402v170.352H2830.17z" fill="#fff" fill-rule="evenodd"/><path d="M2830.17 904.004v170.356h680.4V904.004h-680.4" fill="none" stroke="#fff" stroke-width="4.8" stroke-miterlimit="10"/><path d="M2875.77 989.211h-21.64m-21.56 0h-21.64m-21.56 0l-21.64-1.195m-21.56-2.399l-21.64-2.465m-21.58-2.394h-3.59l-18.04-3.598m-21.57-3.594l-7.19-2.394-13.24-3.598m-20.37-7.187l-6-1.196-14.38-7.191m-20.43-8.387l-16.77-13.246m-16.84-13.183l-15.59-15.575m34.81 4.789l-34.81-4.789-4.79 34.746" fill="none" stroke="#000" stroke-width="2.4" stroke-miterlimit="10"/><g font-weight="400"><text style="-inkscape-font-specification:CMSY10" transform="matrix(10 0 0 -10 2915.38 961.586)" font-size="9.963" font-family="CMSY10"><tspan y="0" x="0">L</tspan></text><text style="-inkscape-font-specification:CMR10" transform="matrix(10 0 0 -10 2983.747 961.586)" font-size="9.963" font-family="CMR10"><tspan y="0" x="0">(</tspan></text><text style="-inkscape-font-specification:CMMI10" transform="matrix(10 0 0 -10 3028.15 961.586)" font-size="9.963" font-family="CMMI10"><tspan y="0" x="0">q</tspan></text><text style="-inkscape-font-specification:CMMI7" transform="matrix(10 0 0 -10 3076.146 997.602)" font-size="6.974" font-family="CMMI7"><tspan y="0" x="0">t</tspan></text><text style="-inkscape-font-specification:CMMI10" transform="matrix(10 0 0 -10 3110.958 961.586)" font-size="9.963" font-family="CMMI10"><tspan y="0" x="0 4.4443979">,θ</tspan></text><text style="-inkscape-font-specification:CMR10" transform="matrix(10 0 0 -10 3204.556 961.586)" font-size="9.963" font-family="CMR10"><tspan y="0" x="0">)</tspan></text></g><path d="M3102.58 666.355l-20.46 2.461m-21.55 1.2l-19.24 2.394h-1.19m-20.39 1.199l-20.43 1.2m-21.57 0h-20.44m-21.55 0l-20.38-2.399m-20.44-1.199l-4.79-1.195-15.57-2.399m-20.45-4.859h-3.58l-16.79-5.988m-19.24-5.993l-19.17-9.586m-17.96-10.785l-16.85-13.25m36.02-1.195l-36.02 1.195 2.4 36.016" fill="none" stroke="#000" stroke-width="2.4" stroke-miterlimit="10"/></g></svg>