<svg xmlns="http://www.w3.org/2000/svg" viewBox="0 0 568.05334 304.48001" height="304.48" width="568.053"><defs><clipPath id="a"><path d="M0 0h4260v2283.57H0z"/></clipPath><clipPath id="b"><path d="M23.367 48.395H4219.72V2243.16H23.367z"/></clipPath></defs><g clip-path="url(#a)" transform="matrix(.13333 0 0 -.13333 0 304.48)"><path d="M0 2.797h4247.35v2268H0z" fill="#fff" fill-rule="evenodd"/></g><g clip-path="url(#b)" transform="matrix(.13333 0 0 -.13333 0 304.48)"><path d="M650.977 1577.21l-33.618 39.54-25.23 45.61-16.777 49.26-7.188 51.59 2.398 51.58 10.782 51.6 21.636 48 28.758 42 37.211 37.2 42.008 29.96 47.992 21.65 50.395 11.98 51.59 3.59 51.589-7.19 50.395-15.58 45.602-25.23 40.8-32.42 33.62-39.53 25.23-45.61 17.97-49.19 8.39-51.66-2.39-51.58-10.79-50.4-20.37-48-28.82-44.4-36.02-37.21-42.003-29.96-46.797-22.83-50.395-11.98-52.785-3.6-51.594 5.99-49.191 14.38-46.801 24.03-40.804 32.36-4.793 6.05m1202.363 0l-33.62 39.54-25.15 45.61-16.86 49.26-7.17 51.59 2.38 51.58 12.05 51.6 20.38 48 28.82 42 37.22 37.2 41.92 29.96 48.08 21.65 50.39 11.98 52.77 3.59 51.61-7.19 49.2-15.58 45.58-25.23 40.82-32.42 33.6-39.53 26.37-45.61 16.85-49.19 8.38-51.66-2.4-51.58-10.78-50.4-20.44-48-27.62-44.4-35.94-37.21-43.2-29.96-46.81-22.83-50.4-11.98-51.65-3.6-52.78 5.99-49.2 14.38-45.6 24.03-42.01 32.36-4.79 6.05m1202.44 0l-33.62 39.54-25.24 45.61-16.77 49.26-7.19 51.59 2.4 51.58 11.98 51.6 20.43 48 29.96 42 36.01 37.2 43.2 29.96 46.8 21.65 50.39 11.98 52.8 3.59 51.58-7.19 49.27-15.58 45.6-25.23 40.75-32.42 33.6-39.53 26.43-45.61 16.77-49.19 8.41-51.66-1.22-51.58-11.98-50.4-19.17-48-28.81-44.4-36.03-37.21-43.2-29.96-46.8-22.83-50.39-11.98-51.58-3.6-51.61 5.99-50.39 14.38-45.58 24.03-40.82 32.36-5.98 6.05M650.977 373.586l-33.618 40.805-25.23 45.601-16.777 49.192-7.188 51.593 2.398 51.59 10.782 51.59 21.636 46.797 28.758 43.203 37.211 37.211 42.008 30.023 47.992 21.571 50.395 12.047 51.59 3.593 51.589-7.187 50.395-15.645 45.602-25.164 40.8-32.418 33.62-39.609 25.23-45.598 17.97-49.195 8.39-51.59-2.39-51.59-10.79-51.594-20.37-48.058-28.82-43.141-36.02-37.211-42.003-30.023-46.797-22.766-50.395-13.246-52.785-3.594-51.594 5.993-49.191 15.64-46.801 23.965-40.804 32.418-4.793 4.797m1202.363 0l-33.62 40.805-25.15 45.601-16.86 49.192-7.17 51.593 2.38 51.59 12.05 51.59 20.38 46.797 28.82 43.203 37.22 37.211 41.92 30.023 48.08 21.571 50.39 12.047 52.77 3.593 51.61-7.187 49.2-15.645 45.58-25.164 40.82-32.418 33.6-39.609 26.37-45.598 16.85-49.195 8.38-51.59-2.4-51.59-10.78-51.594-20.44-48.058-27.62-43.141-35.94-37.211-43.2-30.023-46.81-22.766-50.4-13.246-51.65-3.594-52.78 5.993-49.2 15.64-45.6 23.965-42.01 32.418-4.79 4.797m1202.44 0l-33.62 40.805-25.24 45.601-16.77 49.192-7.19 51.593 2.4 51.59 11.98 51.59 20.43 46.797 29.96 43.203 36.01 37.211 43.2 30.023 46.8 21.571 50.39 12.047 52.8 3.593 51.58-7.187 49.27-15.645 45.6-25.164 40.75-32.418 33.6-39.609 26.43-45.598 16.77-49.195 8.41-51.59-1.22-51.59-11.98-51.594-19.17-48.058-28.81-43.141-36.03-37.211-43.2-30.023-46.8-22.766-50.39-13.246-51.58-3.594-51.61 5.993-50.39 15.64-45.58 23.965-40.82 32.418-5.98 4.797M1132.14 1777.59h638.4m-36.03 34.82l36.03-34.82-36.03-36.02m602.45 36.02h636m-34.82 34.82l34.82-34.82-34.82-36.02m318-248.37V854.809" fill="none" stroke="#000" stroke-width="6" stroke-miterlimit="10"/><path d="M3292.16 890.758l-36.02-35.949-34.82 35.949M2053.79 1493.2V858.402m34.75 34.75l-34.75-34.75-34.82 34.75M851.348 1493.2V858.402m34.816 34.75l-34.816-34.75-36.012 34.75M3539.34 1777.59h30.01m28.83 0h28.75m28.84 0h28.81m28.75 0h28.83m28.75 0h28.84m28.82 0h28.76m-3607.166 0h28.758m28.824 0h28.824m28.758 0h28.824m28.825 0h28.757m28.825 0h28.757m28.825 0h30.023m-36.012 34.82l36.012-34.82-36.012-36.02" fill="none" stroke="#000" stroke-width="6" stroke-miterlimit="10"/><g font-weight="400"><text style="-inkscape-font-specification:CMMI10" transform="matrix(10 0 0 -10 1978.15 554.785)" font-size="14.081" font-family="CMMI10"><tspan y="0" x="0">x</tspan></text><text style="-inkscape-font-specification:CMMI7" transform="matrix(10 0 0 -10 2059.763 534.414)" font-size="9.856" font-family="CMMI7"><tspan y="0" x="0">n</tspan></text><text style="-inkscape-font-specification:CMMI10" transform="matrix(10 0 0 -10 1986.537 1757.214)" font-size="14.081" font-family="CMMI10"><tspan y="0" x="0">z</tspan></text><text style="-inkscape-font-specification:CMMI7" transform="matrix(10 0 0 -10 2051.31 1736.776)" font-size="9.856" font-family="CMMI7"><tspan y="0" x="0">n</tspan></text><text style="-inkscape-font-specification:CMMI10" transform="matrix(10 0 0 -10 704.96 1763.206)" font-size="14.081" font-family="CMMI10"><tspan y="0" x="0">z</tspan></text><text style="-inkscape-font-specification:CMMI7" transform="matrix(10 0 0 -10 770.929 1742.769)" font-size="9.856" font-family="CMMI7"><tspan y="0" x="0">n</tspan></text><text style="-inkscape-font-specification:CMSY7" transform="matrix(10 0 0 -10 847.75 1742.769)" font-size="9.856" font-family="CMSY7"><tspan y="0" x="0">−</tspan></text><text style="-inkscape-font-specification:CMR7" transform="matrix(10 0 0 -10 941.347 1742.769)" font-size="9.856" font-family="CMR7"><tspan y="0" x="0">1</tspan></text><text style="-inkscape-font-specification:CMMI10" transform="matrix(10 0 0 -10 3112.147 1763.206)" font-size="14.081" font-family="CMMI10"><tspan y="0" x="0">z</tspan></text><text style="-inkscape-font-specification:CMMI7" transform="matrix(10 0 0 -10 3178.115 1742.769)" font-size="9.856" font-family="CMMI7"><tspan y="0" x="0">n</tspan></text><text style="-inkscape-font-specification:CMR7" transform="matrix(10 0 0 -10 3252.541 1742.769)" font-size="9.856" font-family="CMR7"><tspan y="0" x="0 9.1199245">+1</tspan></text><text style="-inkscape-font-specification:CMMI10" transform="matrix(10 0 0 -10 3104.955 559.579)" font-size="14.081" font-family="CMMI10"><tspan y="0" x="0">x</tspan></text><text style="-inkscape-font-specification:CMMI7" transform="matrix(10 0 0 -10 3185.373 540.407)" font-size="9.856" font-family="CMMI7"><tspan y="0" x="0">n</tspan></text><text style="-inkscape-font-specification:CMR7" transform="matrix(10 0 0 -10 3259.729 540.407)" font-size="9.856" font-family="CMR7"><tspan y="0" x="0 9.2398453">+1</tspan></text><text style="-inkscape-font-specification:CMMI10" transform="matrix(10 0 0 -10 697.769 559.579)" font-size="14.081" font-family="CMMI10"><tspan y="0" x="0">x</tspan></text><text style="-inkscape-font-specification:CMMI7" transform="matrix(10 0 0 -10 778.116 540.407)" font-size="9.856" font-family="CMMI7"><tspan y="0" x="0">n</tspan></text><text style="-inkscape-font-specification:CMSY7" transform="matrix(10 0 0 -10 856.132 540.407)" font-size="9.856" font-family="CMSY7"><tspan y="0" x="0">−</tspan></text><text style="-inkscape-font-specification:CMR7" transform="matrix(10 0 0 -10 948.53 540.407)" font-size="9.856" font-family="CMR7"><tspan y="0" x="0">1</tspan></text></g></g></svg>