<svg height="576" viewBox="0 0 576 432" width="768" xmlns="http://www.w3.org/2000/svg" xmlns:xlink="http://www.w3.org/1999/xlink"><defs><style>*{stroke-linecap:butt;stroke-linejoin:round;stroke-miterlimit:100000}</style></defs><g id="figure_1"><path d="M0 432h576V0H0z" fill="#fff" id="patch_1"/><g id="axes_1"><path d="M72 388.8h446.4V43.2H72z" fill="#fff" id="patch_2"/><g id="PathCollection_1"><defs><path d="M0 2.236a2.236 2.236 0 1 0 0-4.472 2.236 2.236 0 0 0 0 4.472z" id="C0_0_f35bd3ad2b"/></defs><g clip-path="url(#p48ea2c0f25)"><use x="306.192" xlink:href="#C0_0_f35bd3ad2b" y="181.606" fill="navy"/></g><g clip-path="url(#p48ea2c0f25)"><use x="129.869" xlink:href="#C0_0_f35bd3ad2b" y="287.722" fill="maroon"/></g><g clip-path="url(#p48ea2c0f25)"><use x="280.038" xlink:href="#C0_0_f35bd3ad2b" y="202.829" fill="navy"/></g><g clip-path="url(#p48ea2c0f25)"><use x="177.183" xlink:href="#C0_0_f35bd3ad2b" y="253.765" fill="maroon"/></g><g clip-path="url(#p48ea2c0f25)"><use x="397.587" xlink:href="#C0_0_f35bd3ad2b" y="156.138" fill="navy"/></g><g clip-path="url(#p48ea2c0f25)"><use x="235.957" xlink:href="#C0_0_f35bd3ad2b" y="283.478" fill="maroon"/></g><g clip-path="url(#p48ea2c0f25)"><use x="413.946" xlink:href="#C0_0_f35bd3ad2b" y="143.404" fill="navy"/></g><g clip-path="url(#p48ea2c0f25)"><use x="306.192" xlink:href="#C0_0_f35bd3ad2b" y="156.138" fill="navy"/></g><g clip-path="url(#p48ea2c0f25)"><use x="144.563" xlink:href="#C0_0_f35bd3ad2b" y="300.456" fill="maroon"/></g><g clip-path="url(#p48ea2c0f25)"><use x="379.66" xlink:href="#C0_0_f35bd3ad2b" y="156.138" fill="navy"/></g><g clip-path="url(#p48ea2c0f25)"><use x="133.102" xlink:href="#C0_0_f35bd3ad2b" y="287.722" fill="maroon"/></g><g clip-path="url(#p48ea2c0f25)"><use x="337.245" xlink:href="#C0_0_f35bd3ad2b" y="160.382" fill="navy"/></g><g clip-path="url(#p48ea2c0f25)"><use x="364.967" xlink:href="#C0_0_f35bd3ad2b" y="185.85" fill="navy"/></g><g clip-path="url(#p48ea2c0f25)"><use x="124.971" xlink:href="#C0_0_f35bd3ad2b" y="317.435" fill="maroon"/></g><g clip-path="url(#p48ea2c0f25)"><use x="413.946" xlink:href="#C0_0_f35bd3ad2b" y="164.627" fill="navy"/></g><g clip-path="url(#p48ea2c0f25)"><use x="165.82" xlink:href="#C0_0_f35bd3ad2b" y="296.212" fill="maroon"/></g><g clip-path="url(#p48ea2c0f25)"><use x="124.971" xlink:href="#C0_0_f35bd3ad2b" y="253.765" fill="maroon"/></g><g clip-path="url(#p48ea2c0f25)"><use x="423.741" xlink:href="#C0_0_f35bd3ad2b" y="160.382" fill="navy"/></g><g clip-path="url(#p48ea2c0f25)"><use x="110.278" xlink:href="#C0_0_f35bd3ad2b" y="296.212" fill="maroon"/></g><g clip-path="url(#p48ea2c0f25)"><use x="369.865" xlink:href="#C0_0_f35bd3ad2b" y="181.606" fill="navy"/></g><g clip-path="url(#p48ea2c0f25)"><use x="129.869" xlink:href="#C0_0_f35bd3ad2b" y="300.456" fill="maroon"/></g><g clip-path="url(#p48ea2c0f25)"><use x="124.971" xlink:href="#C0_0_f35bd3ad2b" y="317.435" fill="maroon"/></g><g clip-path="url(#p48ea2c0f25)"><use x="291.499" xlink:href="#C0_0_f35bd3ad2b" y="185.85" fill="navy"/></g><g clip-path="url(#p48ea2c0f25)"><use x="253.981" xlink:href="#C0_0_f35bd3ad2b" y="224.052" fill="navy"/></g><g clip-path="url(#p48ea2c0f25)"><use x="397.587" xlink:href="#C0_0_f35bd3ad2b" y="202.829" fill="navy"/></g><g clip-path="url(#p48ea2c0f25)"><use x="306.192" xlink:href="#C0_0_f35bd3ad2b" y="164.627" fill="navy"/></g><g clip-path="url(#p48ea2c0f25)"><use x="146.228" xlink:href="#C0_0_f35bd3ad2b" y="283.478" fill="maroon"/></g><g clip-path="url(#p48ea2c0f25)"><use x="353.506" xlink:href="#C0_0_f35bd3ad2b" y="194.34" fill="navy"/></g><g clip-path="url(#p48ea2c0f25)"><use x="330.682" xlink:href="#C0_0_f35bd3ad2b" y="185.85" fill="navy"/></g><g clip-path="url(#p48ea2c0f25)"><use x="387.791" xlink:href="#C0_0_f35bd3ad2b" y="181.606" fill="navy"/></g><g clip-path="url(#p48ea2c0f25)"><use x="374.763" xlink:href="#C0_0_f35bd3ad2b" y="207.074" fill="navy"/></g><g clip-path="url(#p48ea2c0f25)"><use x="391.122" xlink:href="#C0_0_f35bd3ad2b" y="190.095" fill="navy"/></g><g clip-path="url(#p48ea2c0f25)"><use x="283.368" xlink:href="#C0_0_f35bd3ad2b" y="236.786" fill="navy"/></g><g clip-path="url(#p48ea2c0f25)"><use x="348.608" xlink:href="#C0_0_f35bd3ad2b" y="177.361" fill="navy"/></g><g clip-path="url(#p48ea2c0f25)"><use x="329.017" xlink:href="#C0_0_f35bd3ad2b" y="202.829" fill="navy"/></g><g clip-path="url(#p48ea2c0f25)"><use x="151.126" xlink:href="#C0_0_f35bd3ad2b" y="296.212" fill="maroon"/></g><g clip-path="url(#p48ea2c0f25)"><use x="136.432" xlink:href="#C0_0_f35bd3ad2b" y="313.19" fill="maroon"/></g><g clip-path="url(#p48ea2c0f25)"><use x="426.974" xlink:href="#C0_0_f35bd3ad2b" y="177.361" fill="navy"/></g><g clip-path="url(#p48ea2c0f25)"><use x="133.102" xlink:href="#C0_0_f35bd3ad2b" y="266.499" fill="maroon"/></g><g clip-path="url(#p48ea2c0f25)"><use x="422.076" xlink:href="#C0_0_f35bd3ad2b" y="134.914" fill="navy"/></g><g clip-path="url(#p48ea2c0f25)"><use x="379.66" xlink:href="#C0_0_f35bd3ad2b" y="177.361" fill="navy"/></g><g clip-path="url(#p48ea2c0f25)"><use x="138" xlink:href="#C0_0_f35bd3ad2b" y="270.744" fill="maroon"/></g><g clip-path="url(#p48ea2c0f25)"><use x="400.917" xlink:href="#C0_0_f35bd3ad2b" y="160.382" fill="navy"/></g><g clip-path="url(#p48ea2c0f25)"><use x="124.971" xlink:href="#C0_0_f35bd3ad2b" y="270.744" fill="maroon"/></g><g clip-path="url(#p48ea2c0f25)"><use x="397.587" xlink:href="#C0_0_f35bd3ad2b" y="207.074" fill="navy"/></g><g clip-path="url(#p48ea2c0f25)"><use x="278.471" xlink:href="#C0_0_f35bd3ad2b" y="164.627" fill="navy"/></g><g clip-path="url(#p48ea2c0f25)"><use x="329.017" xlink:href="#C0_0_f35bd3ad2b" y="245.276" fill="navy"/></g><g clip-path="url(#p48ea2c0f25)"><use x="159.256" xlink:href="#C0_0_f35bd3ad2b" y="291.967" fill="maroon"/></g><g clip-path="url(#p48ea2c0f25)"><use x="407.382" xlink:href="#C0_0_f35bd3ad2b" y="168.872" fill="navy"/></g><g clip-path="url(#p48ea2c0f25)"><use x="149.461" xlink:href="#C0_0_f35bd3ad2b" y="266.499" fill="maroon"/></g><g clip-path="url(#p48ea2c0f25)"><use x="423.741" xlink:href="#C0_0_f35bd3ad2b" y="198.584" fill="navy"/></g><g clip-path="url(#p48ea2c0f25)"><use x="415.513" xlink:href="#C0_0_f35bd3ad2b" y="134.914" fill="navy"/></g><g clip-path="url(#p48ea2c0f25)"><use x="133.102" xlink:href="#C0_0_f35bd3ad2b" y="287.722" fill="maroon"/></g><g clip-path="url(#p48ea2c0f25)"><use x="426.974" xlink:href="#C0_0_f35bd3ad2b" y="177.361" fill="navy"/></g><g clip-path="url(#p48ea2c0f25)"><use x="123.306" xlink:href="#C0_0_f35bd3ad2b" y="287.722" fill="maroon"/></g><g clip-path="url(#p48ea2c0f25)"><use x="431.872" xlink:href="#C0_0_f35bd3ad2b" y="164.627" fill="navy"/></g><g clip-path="url(#p48ea2c0f25)"><use x="317.653" xlink:href="#C0_0_f35bd3ad2b" y="215.563" fill="navy"/></g><g clip-path="url(#p48ea2c0f25)"><use x="116.841" xlink:href="#C0_0_f35bd3ad2b" y="245.276" fill="maroon"/></g><g clip-path="url(#p48ea2c0f25)"><use x="400.917" xlink:href="#C0_0_f35bd3ad2b" y="190.095" fill="navy"/></g><g clip-path="url(#p48ea2c0f25)"><use x="376.428" xlink:href="#C0_0_f35bd3ad2b" y="173.116" fill="navy"/></g><g clip-path="url(#p48ea2c0f25)"><use x="172.285" xlink:href="#C0_0_f35bd3ad2b" y="266.499" fill="maroon"/></g><g clip-path="url(#p48ea2c0f25)"><use x="394.354" xlink:href="#C0_0_f35bd3ad2b" y="160.382" fill="navy"/></g><g clip-path="url(#p48ea2c0f25)"><use x="124.971" xlink:href="#C0_0_f35bd3ad2b" y="313.19" fill="maroon"/></g><g clip-path="url(#p48ea2c0f25)"><use x="423.741" xlink:href="#C0_0_f35bd3ad2b" y="168.872" fill="navy"/></g><g clip-path="url(#p48ea2c0f25)"><use x="131.534" xlink:href="#C0_0_f35bd3ad2b" y="262.254" fill="maroon"/></g><g clip-path="url(#p48ea2c0f25)"><use x="384.558" xlink:href="#C0_0_f35bd3ad2b" y="126.425" fill="navy"/></g><g clip-path="url(#p48ea2c0f25)"><use x="361.734" xlink:href="#C0_0_f35bd3ad2b" y="185.85" fill="navy"/></g><g clip-path="url(#p48ea2c0f25)"><use x="413.946" xlink:href="#C0_0_f35bd3ad2b" y="185.85" fill="navy"/></g><g clip-path="url(#p48ea2c0f25)"><use x="156.024" xlink:href="#C0_0_f35bd3ad2b" y="241.031" fill="maroon"/></g><g clip-path="url(#p48ea2c0f25)"><use x="413.946" xlink:href="#C0_0_f35bd3ad2b" y="207.074" fill="navy"/></g><g clip-path="url(#p48ea2c0f25)"><use x="348.608" xlink:href="#C0_0_f35bd3ad2b" y="168.872" fill="navy"/></g><g clip-path="url(#p48ea2c0f25)"><use x="146.228" xlink:href="#C0_0_f35bd3ad2b" y="279.233" fill="maroon"/></g><g clip-path="url(#p48ea2c0f25)"><use x="394.354" xlink:href="#C0_0_f35bd3ad2b" y="181.606" fill="navy"/></g><g clip-path="url(#p48ea2c0f25)"><use x="345.375" xlink:href="#C0_0_f35bd3ad2b" y="215.563" fill="navy"/></g><g clip-path="url(#p48ea2c0f25)"><use x="147.795" xlink:href="#C0_0_f35bd3ad2b" y="253.765" fill="maroon"/></g><g clip-path="url(#p48ea2c0f25)"><use x="449.896" xlink:href="#C0_0_f35bd3ad2b" y="194.34" fill="navy"/></g><g clip-path="url(#p48ea2c0f25)"><use x="151.126" xlink:href="#C0_0_f35bd3ad2b" y="262.254" fill="maroon"/></g><g clip-path="url(#p48ea2c0f25)"><use x="400.917" xlink:href="#C0_0_f35bd3ad2b" y="185.85" fill="navy"/></g><g clip-path="url(#p48ea2c0f25)"><use x="333.914" xlink:href="#C0_0_f35bd3ad2b" y="194.34" fill="navy"/></g><g clip-path="url(#p48ea2c0f25)"><use x="306.192" xlink:href="#C0_0_f35bd3ad2b" y="164.627" fill="navy"/></g><g clip-path="url(#p48ea2c0f25)"><use x="358.404" xlink:href="#C0_0_f35bd3ad2b" y="198.584" fill="navy"/></g><g clip-path="url(#p48ea2c0f25)"><use x="377.995" xlink:href="#C0_0_f35bd3ad2b" y="168.872" fill="navy"/></g><g clip-path="url(#p48ea2c0f25)"><use x="355.171" xlink:href="#C0_0_f35bd3ad2b" y="219.808" fill="navy"/></g><g clip-path="url(#p48ea2c0f25)"><use x="211.468" xlink:href="#C0_0_f35bd3ad2b" y="241.031" fill="maroon"/></g><g clip-path="url(#p48ea2c0f25)"><use x="351.939" xlink:href="#C0_0_f35bd3ad2b" y="207.074" fill="navy"/></g><g clip-path="url(#p48ea2c0f25)"><use x="436.77" xlink:href="#C0_0_f35bd3ad2b" y="143.404" fill="navy"/></g><g clip-path="url(#p48ea2c0f25)"><use x="340.478" xlink:href="#C0_0_f35bd3ad2b" y="194.34" fill="navy"/></g><g clip-path="url(#p48ea2c0f25)"><use x="396.019" xlink:href="#C0_0_f35bd3ad2b" y="177.361" fill="navy"/></g><g clip-path="url(#p48ea2c0f25)"><use x="165.82" xlink:href="#C0_0_f35bd3ad2b" y="313.19" fill="maroon"/></g><g clip-path="url(#p48ea2c0f25)"><use x="345.375" xlink:href="#C0_0_f35bd3ad2b" y="151.893" fill="navy"/></g><g clip-path="url(#p48ea2c0f25)"><use x="169.052" xlink:href="#C0_0_f35bd3ad2b" y="262.254" fill="maroon"/></g><g clip-path="url(#p48ea2c0f25)"><use x="377.995" xlink:href="#C0_0_f35bd3ad2b" y="134.914" fill="navy"/></g><g clip-path="url(#p48ea2c0f25)"><use x="136.432" xlink:href="#C0_0_f35bd3ad2b" y="304.701" fill="maroon"/></g><g clip-path="url(#p48ea2c0f25)"><use x="425.407" xlink:href="#C0_0_f35bd3ad2b" y="185.85" fill="navy"/></g><g clip-path="url(#p48ea2c0f25)"><use x="133.102" xlink:href="#C0_0_f35bd3ad2b" y="249.52" fill="maroon"/></g><g clip-path="url(#p48ea2c0f25)"><use x="374.763" xlink:href="#C0_0_f35bd3ad2b" y="211.318" fill="navy"/></g><g clip-path="url(#p48ea2c0f25)"><use x="410.713" xlink:href="#C0_0_f35bd3ad2b" y="160.382" fill="navy"/></g><g clip-path="url(#p48ea2c0f25)"><use x="320.886" xlink:href="#C0_0_f35bd3ad2b" y="198.584" fill="navy"/></g><g clip-path="url(#p48ea2c0f25)"><use x="136.432" xlink:href="#C0_0_f35bd3ad2b" y="300.456" fill="maroon"/></g><g clip-path="url(#p48ea2c0f25)"><use x="433.537" xlink:href="#C0_0_f35bd3ad2b" y="168.872" fill="navy"/></g><g clip-path="url(#p48ea2c0f25)"><use x="196.774" xlink:href="#C0_0_f35bd3ad2b" y="253.765" fill="maroon"/></g><g clip-path="url(#p48ea2c0f25)"><use x="381.326" xlink:href="#C0_0_f35bd3ad2b" y="143.404" fill="navy"/></g><g clip-path="url(#p48ea2c0f25)"><use x="159.256" xlink:href="#C0_0_f35bd3ad2b" y="308.946" fill="maroon"/></g><g clip-path="url(#p48ea2c0f25)"><use x="394.354" xlink:href="#C0_0_f35bd3ad2b" y="164.627" fill="navy"/></g><g clip-path="url(#p48ea2c0f25)"><use x="350.273" xlink:href="#C0_0_f35bd3ad2b" y="173.116" fill="navy"/></g><g clip-path="url(#p48ea2c0f25)"><use x="136.432" xlink:href="#C0_0_f35bd3ad2b" y="317.435" fill="maroon"/></g><g clip-path="url(#p48ea2c0f25)"><use x="413.946" xlink:href="#C0_0_f35bd3ad2b" y="160.382" fill="navy"/></g><g clip-path="url(#p48ea2c0f25)"><use x="128.204" xlink:href="#C0_0_f35bd3ad2b" y="296.212" fill="maroon"/></g><g clip-path="url(#p48ea2c0f25)"><use x="428.639" xlink:href="#C0_0_f35bd3ad2b" y="151.893" fill="navy"/></g><g clip-path="url(#p48ea2c0f25)"><use x="314.323" xlink:href="#C0_0_f35bd3ad2b" y="173.116" fill="navy"/></g><g clip-path="url(#p48ea2c0f25)"><use x="417.178" xlink:href="#C0_0_f35bd3ad2b" y="198.584" fill="navy"/></g><g clip-path="url(#p48ea2c0f25)"><use x="178.848" xlink:href="#C0_0_f35bd3ad2b" y="266.499" fill="maroon"/></g><g clip-path="url(#p48ea2c0f25)"><use x="433.537" xlink:href="#C0_0_f35bd3ad2b" y="139.159" fill="navy"/></g><g clip-path="url(#p48ea2c0f25)"><use x="386.224" xlink:href="#C0_0_f35bd3ad2b" y="181.606" fill="navy"/></g><g clip-path="url(#p48ea2c0f25)"><use x="120.073" xlink:href="#C0_0_f35bd3ad2b" y="266.499" fill="maroon"/></g><g clip-path="url(#p48ea2c0f25)"><use x="407.382" xlink:href="#C0_0_f35bd3ad2b" y="173.116" fill="navy"/></g><g clip-path="url(#p48ea2c0f25)"><use x="180.513" xlink:href="#C0_0_f35bd3ad2b" y="304.701" fill="maroon"/></g><g clip-path="url(#p48ea2c0f25)"><use x="404.15" xlink:href="#C0_0_f35bd3ad2b" y="156.138" fill="navy"/></g><g clip-path="url(#p48ea2c0f25)"><use x="131.534" xlink:href="#C0_0_f35bd3ad2b" y="266.499" fill="maroon"/></g><g clip-path="url(#p48ea2c0f25)"><use x="386.224" xlink:href="#C0_0_f35bd3ad2b" y="147.648" fill="navy"/></g><g clip-path="url(#p48ea2c0f25)"><use x="209.9" xlink:href="#C0_0_f35bd3ad2b" y="291.967" fill="maroon"/></g><g clip-path="url(#p48ea2c0f25)"><use x="351.939" xlink:href="#C0_0_f35bd3ad2b" y="224.052" fill="navy"/></g><g clip-path="url(#p48ea2c0f25)"><use x="369.865" xlink:href="#C0_0_f35bd3ad2b" y="190.095" fill="navy"/></g><g clip-path="url(#p48ea2c0f25)"><use x="146.228" xlink:href="#C0_0_f35bd3ad2b" y="279.233" fill="maroon"/></g><g clip-path="url(#p48ea2c0f25)"><use x="404.15" xlink:href="#C0_0_f35bd3ad2b" y="143.404" fill="navy"/></g><g clip-path="url(#p48ea2c0f25)"><use x="322.551" xlink:href="#C0_0_f35bd3ad2b" y="173.116" fill="navy"/></g><g clip-path="url(#p48ea2c0f25)"><use x="141.33" xlink:href="#C0_0_f35bd3ad2b" y="325.924" fill="maroon"/></g><g clip-path="url(#p48ea2c0f25)"><use x="394.354" xlink:href="#C0_0_f35bd3ad2b" y="168.872" fill="navy"/></g><g clip-path="url(#p48ea2c0f25)"><use x="175.615" xlink:href="#C0_0_f35bd3ad2b" y="283.478" fill="maroon"/></g><g clip-path="url(#p48ea2c0f25)"><use x="409.048" xlink:href="#C0_0_f35bd3ad2b" y="134.914" fill="navy"/></g><g clip-path="url(#p48ea2c0f25)"><use x="136.432" xlink:href="#C0_0_f35bd3ad2b" y="325.924" fill="maroon"/></g><g clip-path="url(#p48ea2c0f25)"><use x="361.734" xlink:href="#C0_0_f35bd3ad2b" y="164.627" fill="navy"/></g><g clip-path="url(#p48ea2c0f25)"><use x="227.827" xlink:href="#C0_0_f35bd3ad2b" y="279.233" fill="maroon"/></g><g clip-path="url(#p48ea2c0f25)"><use x="377.995" xlink:href="#C0_0_f35bd3ad2b" y="139.159" fill="navy"/></g><g clip-path="url(#p48ea2c0f25)"><use x="133.102" xlink:href="#C0_0_f35bd3ad2b" y="321.68" fill="maroon"/></g><g clip-path="url(#p48ea2c0f25)"><use x="382.893" xlink:href="#C0_0_f35bd3ad2b" y="168.872" fill="navy"/></g><g clip-path="url(#p48ea2c0f25)"><use x="138" xlink:href="#C0_0_f35bd3ad2b" y="300.456" fill="maroon"/></g><g clip-path="url(#p48ea2c0f25)"><use x="436.77" xlink:href="#C0_0_f35bd3ad2b" y="151.893" fill="navy"/></g><g clip-path="url(#p48ea2c0f25)"><use x="152.693" xlink:href="#C0_0_f35bd3ad2b" y="291.967" fill="maroon"/></g><g clip-path="url(#p48ea2c0f25)"><use x="319.221" xlink:href="#C0_0_f35bd3ad2b" y="181.606" fill="navy"/></g><g clip-path="url(#p48ea2c0f25)"><use x="368.199" xlink:href="#C0_0_f35bd3ad2b" y="173.116" fill="navy"/></g><g clip-path="url(#p48ea2c0f25)"><use x="172.285" xlink:href="#C0_0_f35bd3ad2b" y="262.254" fill="maroon"/></g><g clip-path="url(#p48ea2c0f25)"><use x="397.587" xlink:href="#C0_0_f35bd3ad2b" y="168.872" fill="navy"/></g><g clip-path="url(#p48ea2c0f25)"><use x="425.407" xlink:href="#C0_0_f35bd3ad2b" y="190.095" fill="navy"/></g><g clip-path="url(#p48ea2c0f25)"><use x="377.995" xlink:href="#C0_0_f35bd3ad2b" y="194.34" fill="navy"/></g><g clip-path="url(#p48ea2c0f25)"><use x="147.795" xlink:href="#C0_0_f35bd3ad2b" y="266.499" fill="maroon"/></g><g clip-path="url(#p48ea2c0f25)"><use x="407.382" xlink:href="#C0_0_f35bd3ad2b" y="177.361" fill="navy"/></g><g clip-path="url(#p48ea2c0f25)"><use x="151.126" xlink:href="#C0_0_f35bd3ad2b" y="308.946" fill="maroon"/></g><g clip-path="url(#p48ea2c0f25)"><use x="453.129" xlink:href="#C0_0_f35bd3ad2b" y="109.446" fill="navy"/></g><g clip-path="url(#p48ea2c0f25)"><use x="129.869" xlink:href="#C0_0_f35bd3ad2b" y="291.967" fill="maroon"/></g><g clip-path="url(#p48ea2c0f25)"><use x="446.565" xlink:href="#C0_0_f35bd3ad2b" y="190.095" fill="navy"/></g><g clip-path="url(#p48ea2c0f25)"><use x="345.375" xlink:href="#C0_0_f35bd3ad2b" y="190.095" fill="navy"/></g><g clip-path="url(#p48ea2c0f25)"><use x="188.644" xlink:href="#C0_0_f35bd3ad2b" y="241.031" fill="maroon"/></g><g clip-path="url(#p48ea2c0f25)"><use x="404.15" xlink:href="#C0_0_f35bd3ad2b" y="173.116" fill="navy"/></g><g clip-path="url(#p48ea2c0f25)"><use x="302.96" xlink:href="#C0_0_f35bd3ad2b" y="215.563" fill="navy"/></g><g clip-path="url(#p48ea2c0f25)"><use x="345.375" xlink:href="#C0_0_f35bd3ad2b" y="219.808" fill="navy"/></g><g clip-path="url(#p48ea2c0f25)"><use x="394.354" xlink:href="#C0_0_f35bd3ad2b" y="173.116" fill="navy"/></g><g clip-path="url(#p48ea2c0f25)"><use x="353.506" xlink:href="#C0_0_f35bd3ad2b" y="122.18" fill="navy"/></g><g clip-path="url(#p48ea2c0f25)"><use x="129.869" xlink:href="#C0_0_f35bd3ad2b" y="291.967" fill="maroon"/></g><g clip-path="url(#p48ea2c0f25)"><use x="342.143" xlink:href="#C0_0_f35bd3ad2b" y="139.159" fill="navy"/></g><g clip-path="url(#p48ea2c0f25)"><use x="169.052" xlink:href="#C0_0_f35bd3ad2b" y="325.924" fill="maroon"/></g><g clip-path="url(#p48ea2c0f25)"><use x="360.069" xlink:href="#C0_0_f35bd3ad2b" y="151.893" fill="navy"/></g><g clip-path="url(#p48ea2c0f25)"><use x="149.461" xlink:href="#C0_0_f35bd3ad2b" y="270.744" fill="maroon"/></g><g clip-path="url(#p48ea2c0f25)"><use x="329.017" xlink:href="#C0_0_f35bd3ad2b" y="185.85" fill="navy"/></g><g clip-path="url(#p48ea2c0f25)"><use x="296.397" xlink:href="#C0_0_f35bd3ad2b" y="236.786" fill="navy"/></g><g clip-path="url(#p48ea2c0f25)"><use x="402.485" xlink:href="#C0_0_f35bd3ad2b" y="194.34" fill="navy"/></g><g clip-path="url(#p48ea2c0f25)"><use x="185.411" xlink:href="#C0_0_f35bd3ad2b" y="249.52" fill="maroon"/></g><g clip-path="url(#p48ea2c0f25)"><use x="443.333" xlink:href="#C0_0_f35bd3ad2b" y="143.404" fill="navy"/></g><g clip-path="url(#p48ea2c0f25)"><use x="142.898" xlink:href="#C0_0_f35bd3ad2b" y="296.212" fill="maroon"/></g><g clip-path="url(#p48ea2c0f25)"><use x="405.815" xlink:href="#C0_0_f35bd3ad2b" y="122.18" fill="navy"/></g><g clip-path="url(#p48ea2c0f25)"><use x="141.33" xlink:href="#C0_0_f35bd3ad2b" y="308.946" fill="maroon"/></g><g clip-path="url(#p48ea2c0f25)"><use x="157.591" xlink:href="#C0_0_f35bd3ad2b" y="274.988" fill="maroon"/></g><g clip-path="url(#p48ea2c0f25)"><use x="402.485" xlink:href="#C0_0_f35bd3ad2b" y="190.095" fill="navy"/></g><g clip-path="url(#p48ea2c0f25)"><use x="280.038" xlink:href="#C0_0_f35bd3ad2b" y="228.297" fill="navy"/></g><g clip-path="url(#p48ea2c0f25)"><use x="361.734" xlink:href="#C0_0_f35bd3ad2b" y="173.116" fill="navy"/></g><g clip-path="url(#p48ea2c0f25)"><use x="377.995" xlink:href="#C0_0_f35bd3ad2b" y="173.116" fill="navy"/></g><g clip-path="url(#p48ea2c0f25)"><use x="394.354" xlink:href="#C0_0_f35bd3ad2b" y="207.074" fill="navy"/></g><g clip-path="url(#p48ea2c0f25)"><use x="190.309" xlink:href="#C0_0_f35bd3ad2b" y="304.701" fill="maroon"/></g><g clip-path="url(#p48ea2c0f25)"><use x="345.375" xlink:href="#C0_0_f35bd3ad2b" y="156.138" fill="navy"/></g><g clip-path="url(#p48ea2c0f25)"><use x="361.734" xlink:href="#C0_0_f35bd3ad2b" y="202.829" fill="navy"/></g><g clip-path="url(#p48ea2c0f25)"><use x="138" xlink:href="#C0_0_f35bd3ad2b" y="283.478" fill="maroon"/></g><g clip-path="url(#p48ea2c0f25)"><use x="402.485" xlink:href="#C0_0_f35bd3ad2b" y="190.095" fill="navy"/></g><g clip-path="url(#p48ea2c0f25)"><use x="369.865" xlink:href="#C0_0_f35bd3ad2b" y="164.627" fill="navy"/></g><g clip-path="url(#p48ea2c0f25)"><use x="322.551" xlink:href="#C0_0_f35bd3ad2b" y="164.627" fill="navy"/></g><g clip-path="url(#p48ea2c0f25)"><use x="152.693" xlink:href="#C0_0_f35bd3ad2b" y="300.456" fill="maroon"/></g><g clip-path="url(#p48ea2c0f25)"><use x="387.791" xlink:href="#C0_0_f35bd3ad2b" y="185.85" fill="navy"/></g><g clip-path="url(#p48ea2c0f25)"><use x="353.506" xlink:href="#C0_0_f35bd3ad2b" y="160.382" fill="navy"/></g><g clip-path="url(#p48ea2c0f25)"><use x="133.102" xlink:href="#C0_0_f35bd3ad2b" y="321.68" fill="maroon"/></g><g clip-path="url(#p48ea2c0f25)"><use x="386.224" xlink:href="#C0_0_f35bd3ad2b" y="164.627" fill="navy"/></g><g clip-path="url(#p48ea2c0f25)"><use x="167.387" xlink:href="#C0_0_f35bd3ad2b" y="283.478" fill="maroon"/></g><g clip-path="url(#p48ea2c0f25)"><use x="423.741" xlink:href="#C0_0_f35bd3ad2b" y="173.116" fill="navy"/></g><g clip-path="url(#p48ea2c0f25)"><use x="133.102" xlink:href="#C0_0_f35bd3ad2b" y="274.988" fill="maroon"/></g><g clip-path="url(#p48ea2c0f25)"><use x="423.741" xlink:href="#C0_0_f35bd3ad2b" y="194.34" fill="navy"/></g><g clip-path="url(#p48ea2c0f25)"><use x="355.171" xlink:href="#C0_0_f35bd3ad2b" y="160.382" fill="navy"/></g><g clip-path="url(#p48ea2c0f25)"><use x="342.045" xlink:href="#C0_0_f35bd3ad2b" y="190.095" fill="navy"/></g><g clip-path="url(#p48ea2c0f25)"><use x="368.199" xlink:href="#C0_0_f35bd3ad2b" y="173.116" fill="navy"/></g><g clip-path="url(#p48ea2c0f25)"><use x="296.397" xlink:href="#C0_0_f35bd3ad2b" y="147.648" fill="navy"/></g><g clip-path="url(#p48ea2c0f25)"><use x="381.228" xlink:href="#C0_0_f35bd3ad2b" y="190.095" fill="navy"/></g><g clip-path="url(#p48ea2c0f25)"><use x="173.95" xlink:href="#C0_0_f35bd3ad2b" y="300.456" fill="maroon"/></g><g clip-path="url(#p48ea2c0f25)"><use x="410.713" xlink:href="#C0_0_f35bd3ad2b" y="185.85" fill="navy"/></g><g clip-path="url(#p48ea2c0f25)"><use x="159.256" xlink:href="#C0_0_f35bd3ad2b" y="262.254" fill="maroon"/></g><g clip-path="url(#p48ea2c0f25)"><use x="379.66" xlink:href="#C0_0_f35bd3ad2b" y="168.872" fill="navy"/></g><g clip-path="url(#p48ea2c0f25)"><use x="358.404" xlink:href="#C0_0_f35bd3ad2b" y="130.67" fill="navy"/></g><g clip-path="url(#p48ea2c0f25)"><use x="136.432" xlink:href="#C0_0_f35bd3ad2b" y="291.967" fill="maroon"/></g><g clip-path="url(#p48ea2c0f25)"><use x="404.15" xlink:href="#C0_0_f35bd3ad2b" y="185.85" fill="navy"/></g><g clip-path="url(#p48ea2c0f25)"><use x="128.204" xlink:href="#C0_0_f35bd3ad2b" y="321.68" fill="maroon"/></g><g clip-path="url(#p48ea2c0f25)"><use x="381.326" xlink:href="#C0_0_f35bd3ad2b" y="190.095" fill="navy"/></g><g clip-path="url(#p48ea2c0f25)"><use x="330.682" xlink:href="#C0_0_f35bd3ad2b" y="160.382" fill="navy"/></g><g clip-path="url(#p48ea2c0f25)"><use x="142.898" xlink:href="#C0_0_f35bd3ad2b" y="308.946" fill="maroon"/></g><g clip-path="url(#p48ea2c0f25)"><use x="394.354" xlink:href="#C0_0_f35bd3ad2b" y="164.627" fill="navy"/></g><g clip-path="url(#p48ea2c0f25)"><use x="186.978" xlink:href="#C0_0_f35bd3ad2b" y="215.563" fill="maroon"/></g><g clip-path="url(#p48ea2c0f25)"><use x="413.946" xlink:href="#C0_0_f35bd3ad2b" y="177.361" fill="navy"/></g><g clip-path="url(#p48ea2c0f25)"><use x="136.432" xlink:href="#C0_0_f35bd3ad2b" y="308.946" fill="maroon"/></g><g clip-path="url(#p48ea2c0f25)"><use x="329.017" xlink:href="#C0_0_f35bd3ad2b" y="198.584" fill="navy"/></g><g clip-path="url(#p48ea2c0f25)"><use x="288.266" xlink:href="#C0_0_f35bd3ad2b" y="245.276" fill="maroon"/></g><g clip-path="url(#p48ea2c0f25)"><use x="368.199" xlink:href="#C0_0_f35bd3ad2b" y="194.34" fill="navy"/></g><g clip-path="url(#p48ea2c0f25)"><use x="188.644" xlink:href="#C0_0_f35bd3ad2b" y="291.967" fill="maroon"/></g><g clip-path="url(#p48ea2c0f25)"><use x="423.741" xlink:href="#C0_0_f35bd3ad2b" y="117.936" fill="navy"/></g><g clip-path="url(#p48ea2c0f25)"><use x="149.461" xlink:href="#C0_0_f35bd3ad2b" y="283.478" fill="maroon"/></g><g clip-path="url(#p48ea2c0f25)"><use x="360.069" xlink:href="#C0_0_f35bd3ad2b" y="194.34" fill="navy"/></g><g clip-path="url(#p48ea2c0f25)"><use x="136.432" xlink:href="#C0_0_f35bd3ad2b" y="304.701" fill="maroon"/></g><g clip-path="url(#p48ea2c0f25)"><use x="371.53" xlink:href="#C0_0_f35bd3ad2b" y="168.872" fill="navy"/></g><g clip-path="url(#p48ea2c0f25)"><use x="124.971" xlink:href="#C0_0_f35bd3ad2b" y="287.722" fill="maroon"/></g><g clip-path="url(#p48ea2c0f25)"><use x="392.689" xlink:href="#C0_0_f35bd3ad2b" y="198.584" fill="navy"/></g><g clip-path="url(#p48ea2c0f25)"><use x="345.375" xlink:href="#C0_0_f35bd3ad2b" y="185.85" fill="navy"/></g><g clip-path="url(#p48ea2c0f25)"><use x="356.836" xlink:href="#C0_0_f35bd3ad2b" y="181.606" fill="navy"/></g><g clip-path="url(#p48ea2c0f25)"><use x="353.506" xlink:href="#C0_0_f35bd3ad2b" y="185.85" fill="navy"/></g><g clip-path="url(#p48ea2c0f25)"><use x="371.53" xlink:href="#C0_0_f35bd3ad2b" y="185.85" fill="navy"/></g><g clip-path="url(#p48ea2c0f25)"><use x="337.245" xlink:href="#C0_0_f35bd3ad2b" y="219.808" fill="navy"/></g><g clip-path="url(#p48ea2c0f25)"><use x="399.252" xlink:href="#C0_0_f35bd3ad2b" y="181.606" fill="navy"/></g><g clip-path="url(#p48ea2c0f25)"><use x="353.506" xlink:href="#C0_0_f35bd3ad2b" y="219.808" fill="navy"/></g><g clip-path="url(#p48ea2c0f25)"><use x="190.309" xlink:href="#C0_0_f35bd3ad2b" y="287.722" fill="maroon"/></g><g clip-path="url(#p48ea2c0f25)"><use x="363.302" xlink:href="#C0_0_f35bd3ad2b" y="151.893" fill="navy"/></g><g clip-path="url(#p48ea2c0f25)"><use x="170.717" xlink:href="#C0_0_f35bd3ad2b" y="304.701" fill="maroon"/></g><g clip-path="url(#p48ea2c0f25)"><use x="389.456" xlink:href="#C0_0_f35bd3ad2b" y="134.914" fill="navy"/></g><g clip-path="url(#p48ea2c0f25)"><use x="138" xlink:href="#C0_0_f35bd3ad2b" y="287.722" fill="maroon"/></g><g clip-path="url(#p48ea2c0f25)"><use x="134.767" xlink:href="#C0_0_f35bd3ad2b" y="287.722" fill="maroon"/></g><g clip-path="url(#p48ea2c0f25)"><use x="373.097" xlink:href="#C0_0_f35bd3ad2b" y="190.095" fill="navy"/></g><g clip-path="url(#p48ea2c0f25)"><use x="340.478" xlink:href="#C0_0_f35bd3ad2b" y="181.606" fill="navy"/></g><g clip-path="url(#p48ea2c0f25)"><use x="182.08" xlink:href="#C0_0_f35bd3ad2b" y="245.276" fill="maroon"/></g><g clip-path="url(#p48ea2c0f25)"><use x="360.069" xlink:href="#C0_0_f35bd3ad2b" y="198.584" fill="navy"/></g><g clip-path="url(#p48ea2c0f25)"><use x="183.746" xlink:href="#C0_0_f35bd3ad2b" y="317.435" fill="maroon"/></g><g clip-path="url(#p48ea2c0f25)"><use x="436.77" xlink:href="#C0_0_f35bd3ad2b" y="151.893" fill="navy"/></g><g clip-path="url(#p48ea2c0f25)"><use x="237.622" xlink:href="#C0_0_f35bd3ad2b" y="249.52" fill="maroon"/></g><g clip-path="url(#p48ea2c0f25)"><use x="402.485" xlink:href="#C0_0_f35bd3ad2b" y="156.138" fill="navy"/></g><g clip-path="url(#p48ea2c0f25)"><use x="329.017" xlink:href="#C0_0_f35bd3ad2b" y="168.872" fill="navy"/></g><g clip-path="url(#p48ea2c0f25)"><use x="157.591" xlink:href="#C0_0_f35bd3ad2b" y="274.988" fill="maroon"/></g><g clip-path="url(#p48ea2c0f25)"><use x="381.326" xlink:href="#C0_0_f35bd3ad2b" y="168.872" fill="navy"/></g><g clip-path="url(#p48ea2c0f25)"><use x="162.489" xlink:href="#C0_0_f35bd3ad2b" y="232.542" fill="maroon"/></g><g clip-path="url(#p48ea2c0f25)"><use x="379.66" xlink:href="#C0_0_f35bd3ad2b" y="202.829" fill="navy"/></g><g clip-path="url(#p48ea2c0f25)"><use x="169.052" xlink:href="#C0_0_f35bd3ad2b" y="287.722" fill="maroon"/></g><g clip-path="url(#p48ea2c0f25)"><use x="389.456" xlink:href="#C0_0_f35bd3ad2b" y="164.627" fill="navy"/></g><g clip-path="url(#p48ea2c0f25)"><use x="302.96" xlink:href="#C0_0_f35bd3ad2b" y="207.074" fill="navy"/></g><g clip-path="url(#p48ea2c0f25)"><use x="394.354" xlink:href="#C0_0_f35bd3ad2b" y="207.074" fill="navy"/></g><g clip-path="url(#p48ea2c0f25)"><use x="360.069" xlink:href="#C0_0_f35bd3ad2b" y="143.404" fill="navy"/></g><g clip-path="url(#p48ea2c0f25)"><use x="327.449" xlink:href="#C0_0_f35bd3ad2b" y="177.361" fill="navy"/></g><g clip-path="url(#p48ea2c0f25)"><use x="337.245" xlink:href="#C0_0_f35bd3ad2b" y="215.563" fill="navy"/></g><g clip-path="url(#p48ea2c0f25)"><use x="389.456" xlink:href="#C0_0_f35bd3ad2b" y="164.627" fill="navy"/></g><g clip-path="url(#p48ea2c0f25)"><use x="149.461" xlink:href="#C0_0_f35bd3ad2b" y="279.233" fill="maroon"/></g><g clip-path="url(#p48ea2c0f25)"><use x="373.097" xlink:href="#C0_0_f35bd3ad2b" y="181.606" fill="navy"/></g><g clip-path="url(#p48ea2c0f25)"><use x="420.509" xlink:href="#C0_0_f35bd3ad2b" y="185.85" fill="navy"/></g><g clip-path="url(#p48ea2c0f25)"><use x="397.587" xlink:href="#C0_0_f35bd3ad2b" y="160.382" fill="navy"/></g><g clip-path="url(#p48ea2c0f25)"><use x="134.767" xlink:href="#C0_0_f35bd3ad2b" y="270.744" fill="maroon"/></g><g clip-path="url(#p48ea2c0f25)"><use x="369.865" xlink:href="#C0_0_f35bd3ad2b" y="164.627" fill="navy"/></g><g clip-path="url(#p48ea2c0f25)"><use x="147.795" xlink:href="#C0_0_f35bd3ad2b" y="334.414" fill="maroon"/></g><g clip-path="url(#p48ea2c0f25)"><use x="173.95" xlink:href="#C0_0_f35bd3ad2b" y="262.254" fill="maroon"/></g><g clip-path="url(#p48ea2c0f25)"><use x="418.843" xlink:href="#C0_0_f35bd3ad2b" y="198.584" fill="navy"/></g><g clip-path="url(#p48ea2c0f25)"><use x="356.836" xlink:href="#C0_0_f35bd3ad2b" y="173.116" fill="navy"/></g><g clip-path="url(#p48ea2c0f25)"><use x="164.154" xlink:href="#C0_0_f35bd3ad2b" y="321.68" fill="maroon"/></g><g clip-path="url(#p48ea2c0f25)"><use x="386.224" xlink:href="#C0_0_f35bd3ad2b" y="134.914" fill="navy"/></g><g clip-path="url(#p48ea2c0f25)"><use x="131.534" xlink:href="#C0_0_f35bd3ad2b" y="321.68" fill="maroon"/></g><g clip-path="url(#p48ea2c0f25)"><use x="391.122" xlink:href="#C0_0_f35bd3ad2b" y="202.829" fill="navy"/></g></g><g id="PathCollection_2"><defs><path d="M-5 5L5-5M-5-5L5 5" id="m7816b373fa" stroke="red"/></defs><g clip-path="url(#p48ea2c0f25)" fill="red" stroke="red"><use x="374.403" xlink:href="#m7816b373fa" y="177.019"/><use x="154.574" xlink:href="#m7816b373fa" y="285.21"/></g></g><path d="M72 43.2h446.4" fill="none" stroke="#000" stroke-linecap="square" id="patch_3"/><path d="M518.4 388.8V43.2" fill="none" stroke="#000" stroke-linecap="square" id="patch_4"/><path d="M72 388.8h446.4" fill="none" stroke="#000" stroke-linecap="square" id="patch_5"/><path d="M72 388.8V43.2" fill="none" stroke="#000" stroke-linecap="square" id="patch_6"/><g id="matplotlib.axis_1"><g id="xtick_1"><g id="line2d_1"><defs><path d="M0 0v-4" id="m012a21da2e" stroke="#000" stroke-width=".5"/></defs><use x="72" xlink:href="#m012a21da2e" y="388.8" stroke="#000" stroke-width=".5"/></g><g id="line2d_2"><defs><path d="M0 0v4" id="m42678f5714" stroke="#000" stroke-width=".5"/></defs><use x="72" xlink:href="#m42678f5714" y="43.2" stroke="#000" stroke-width=".5"/></g><g id="text_1"><defs><path d="M10.594 35.5h62.593v-8.297H10.594z" id="BitstreamVeraSans-Roman-2212"/><path d="M19.188 8.297h34.421V0H7.33v8.297q5.609 5.812 15.296 15.594 9.703 9.797 12.188 12.64 4.734 5.313 6.609 9 1.89 3.688 1.89 7.25 0 5.813-4.078 9.469-4.078 3.672-10.625 3.672-4.64 0-9.797-1.61-5.14-1.609-11-4.89v9.969Q13.767 71.78 18.938 73q5.188 1.219 9.485 1.219 11.328 0 18.062-5.672 6.735-5.656 6.735-15.125 0-4.5-1.688-8.531-1.672-4.016-6.125-9.485-1.218-1.422-7.765-8.187-6.532-6.766-18.453-18.922" id="BitstreamVeraSans-Roman-32"/><path d="M31.781 66.406q-7.61 0-11.453-7.5Q16.5 51.422 16.5 36.375q0-14.984 3.828-22.484 3.844-7.5 11.453-7.5 7.672 0 11.5 7.5 3.844 7.5 3.844 22.484 0 15.047-3.844 22.531-3.828 7.5-11.5 7.5m0 7.813q12.266 0 18.735-9.703 6.468-9.688 6.468-28.141 0-18.406-6.468-28.11-6.47-9.687-18.735-9.687-12.25 0-18.718 9.688-6.47 9.703-6.47 28.109 0 18.453 6.47 28.14Q19.53 74.22 31.78 74.22" id="BitstreamVeraSans-Roman-30"/><path d="M10.688 12.406H21V0H10.687z" id="BitstreamVeraSans-Roman-2e"/></defs><g transform="matrix(.12 0 0 -.12 57.43 401.918)"><use xlink:href="#BitstreamVeraSans-Roman-2212"/><use x="83.789" xlink:href="#BitstreamVeraSans-Roman-32"/><use x="147.412" xlink:href="#BitstreamVeraSans-Roman-2e"/><use x="179.199" xlink:href="#BitstreamVeraSans-Roman-30"/></g></g></g><g id="xtick_2"><use x="127.8" xlink:href="#m012a21da2e" y="388.8" stroke="#000" stroke-width=".5" id="line2d_3"/><use x="127.8" xlink:href="#m42678f5714" y="43.2" stroke="#000" stroke-width=".5" id="line2d_4"/><g id="text_2"><defs><path d="M12.406 8.297h16.11v55.625l-17.532-3.516v8.985l17.438 3.515h9.86V8.296H54.39V0H12.406z" id="BitstreamVeraSans-Roman-31"/><path d="M10.797 72.906h38.719v-8.312H19.828v-17.86q2.14.735 4.281 1.094 2.157.36 4.313.36 12.203 0 19.328-6.688 7.14-6.688 7.14-18.11 0-11.765-7.328-18.296-7.328-6.516-20.656-6.516-4.593 0-9.36.781-4.75.782-9.827 2.344v9.922q4.39-2.39 9.078-3.563 4.687-1.171 9.906-1.171 8.453 0 13.375 4.437 4.938 4.438 4.938 12.063 0 7.609-4.938 12.047-4.922 4.453-13.375 4.453-3.953 0-7.89-.875-3.922-.875-8.016-2.735z" id="BitstreamVeraSans-Roman-35"/></defs><g transform="matrix(.12 0 0 -.12 113.23 401.918)"><use xlink:href="#BitstreamVeraSans-Roman-2212"/><use x="83.789" xlink:href="#BitstreamVeraSans-Roman-31"/><use x="147.412" xlink:href="#BitstreamVeraSans-Roman-2e"/><use x="179.199" xlink:href="#BitstreamVeraSans-Roman-35"/></g></g></g><g id="xtick_3"><use x="183.6" xlink:href="#m012a21da2e" y="388.8" stroke="#000" stroke-width=".5" id="line2d_5"/><use x="183.6" xlink:href="#m42678f5714" y="43.2" stroke="#000" stroke-width=".5" id="line2d_6"/><g transform="matrix(.12 0 0 -.12 169.03 401.918)" id="text_3"><use xlink:href="#BitstreamVeraSans-Roman-2212"/><use x="83.789" xlink:href="#BitstreamVeraSans-Roman-31"/><use x="147.412" xlink:href="#BitstreamVeraSans-Roman-2e"/><use x="179.199" xlink:href="#BitstreamVeraSans-Roman-30"/></g></g><g id="xtick_4"><use x="239.4" xlink:href="#m012a21da2e" y="388.8" stroke="#000" stroke-width=".5" id="line2d_7"/><use x="239.4" xlink:href="#m42678f5714" y="43.2" stroke="#000" stroke-width=".5" id="line2d_8"/><g transform="matrix(.12 0 0 -.12 224.83 401.918)" id="text_4"><use xlink:href="#BitstreamVeraSans-Roman-2212"/><use x="83.789" xlink:href="#BitstreamVeraSans-Roman-30"/><use x="147.412" xlink:href="#BitstreamVeraSans-Roman-2e"/><use x="179.199" xlink:href="#BitstreamVeraSans-Roman-35"/></g></g><g id="xtick_5"><use x="295.2" xlink:href="#m012a21da2e" y="388.8" stroke="#000" stroke-width=".5" id="line2d_9"/><use x="295.2" xlink:href="#m42678f5714" y="43.2" stroke="#000" stroke-width=".5" id="line2d_10"/><g transform="matrix(.12 0 0 -.12 285.658 401.918)" id="text_5"><use xlink:href="#BitstreamVeraSans-Roman-30"/><use x="63.623" xlink:href="#BitstreamVeraSans-Roman-2e"/><use x="95.41" xlink:href="#BitstreamVeraSans-Roman-30"/></g></g><g id="xtick_6"><use x="351" xlink:href="#m012a21da2e" y="388.8" stroke="#000" stroke-width=".5" id="line2d_11"/><use x="351" xlink:href="#m42678f5714" y="43.2" stroke="#000" stroke-width=".5" id="line2d_12"/><g transform="matrix(.12 0 0 -.12 341.458 401.918)" id="text_6"><use xlink:href="#BitstreamVeraSans-Roman-30"/><use x="63.623" xlink:href="#BitstreamVeraSans-Roman-2e"/><use x="95.41" xlink:href="#BitstreamVeraSans-Roman-35"/></g></g><g id="xtick_7"><use x="406.8" xlink:href="#m012a21da2e" y="388.8" stroke="#000" stroke-width=".5" id="line2d_13"/><use x="406.8" xlink:href="#m42678f5714" y="43.2" stroke="#000" stroke-width=".5" id="line2d_14"/><g transform="matrix(.12 0 0 -.12 397.258 401.918)" id="text_7"><use xlink:href="#BitstreamVeraSans-Roman-31"/><use x="63.623" xlink:href="#BitstreamVeraSans-Roman-2e"/><use x="95.41" xlink:href="#BitstreamVeraSans-Roman-30"/></g></g><g id="xtick_8"><use x="462.6" xlink:href="#m012a21da2e" y="388.8" stroke="#000" stroke-width=".5" id="line2d_15"/><use x="462.6" xlink:href="#m42678f5714" y="43.2" stroke="#000" stroke-width=".5" id="line2d_16"/><g transform="matrix(.12 0 0 -.12 453.058 401.918)" id="text_8"><use xlink:href="#BitstreamVeraSans-Roman-31"/><use x="63.623" xlink:href="#BitstreamVeraSans-Roman-2e"/><use x="95.41" xlink:href="#BitstreamVeraSans-Roman-35"/></g></g><g id="xtick_9"><use x="518.4" xlink:href="#m012a21da2e" y="388.8" stroke="#000" stroke-width=".5" id="line2d_17"/><use x="518.4" xlink:href="#m42678f5714" y="43.2" stroke="#000" stroke-width=".5" id="line2d_18"/><g transform="matrix(.12 0 0 -.12 508.858 401.918)" id="text_9"><use xlink:href="#BitstreamVeraSans-Roman-32"/><use x="63.623" xlink:href="#BitstreamVeraSans-Roman-2e"/><use x="95.41" xlink:href="#BitstreamVeraSans-Roman-30"/></g></g></g><g id="matplotlib.axis_2"><g id="ytick_1"><g id="line2d_19"><defs><path d="M0 0h4" id="mc492cdbb75" stroke="#000" stroke-width=".5"/></defs><use x="72" xlink:href="#mc492cdbb75" y="388.8" stroke="#000" stroke-width=".5"/></g><g id="line2d_20"><defs><path d="M0 0h-4" id="m4f9c62679c" stroke="#000" stroke-width=".5"/></defs><use x="518.4" xlink:href="#m4f9c62679c" y="388.8" stroke="#000" stroke-width=".5"/></g><g id="text_10"><defs><path d="M40.578 39.313Q47.656 37.797 51.625 33q3.984-4.781 3.984-11.813 0-10.78-7.422-16.703-7.421-5.906-21.093-5.906-4.578 0-9.438.906-4.86.907-10.031 2.72v9.515q4.094-2.39 8.969-3.61 4.89-1.218 10.218-1.218 9.266 0 14.125 3.656 4.86 3.656 4.86 10.64 0 6.454-4.516 10.079-4.515 3.64-12.562 3.64h-8.5v8.11h8.89q7.266 0 11.125 2.906 3.86 2.906 3.86 8.375 0 5.61-3.985 8.61-3.968 3.015-11.39 3.015-4.063 0-8.703-.89-4.641-.876-10.203-2.72v8.782q5.624 1.562 10.53 2.344 4.907.78 9.25.78 11.235 0 17.766-5.109 6.547-5.093 6.547-13.78 0-6.063-3.468-10.235-3.47-4.172-9.86-5.782" id="BitstreamVeraSans-Roman-33"/></defs><g transform="matrix(.12 0 0 -.12 50.31 392.111)"><use xlink:href="#BitstreamVeraSans-Roman-2212"/><use x="83.789" xlink:href="#BitstreamVeraSans-Roman-33"/></g></g></g><g id="ytick_2"><use x="72" xlink:href="#mc492cdbb75" y="331.2" stroke="#000" stroke-width=".5" id="line2d_21"/><use x="518.4" xlink:href="#m4f9c62679c" y="331.2" stroke="#000" stroke-width=".5" id="line2d_22"/><g transform="matrix(.12 0 0 -.12 50.31 334.511)" id="text_11"><use xlink:href="#BitstreamVeraSans-Roman-2212"/><use x="83.789" xlink:href="#BitstreamVeraSans-Roman-32"/></g></g><g id="ytick_3"><use x="72" xlink:href="#mc492cdbb75" y="273.6" stroke="#000" stroke-width=".5" id="line2d_23"/><use x="518.4" xlink:href="#m4f9c62679c" y="273.6" stroke="#000" stroke-width=".5" id="line2d_24"/><g transform="matrix(.12 0 0 -.12 50.31 276.911)" id="text_12"><use xlink:href="#BitstreamVeraSans-Roman-2212"/><use x="83.789" xlink:href="#BitstreamVeraSans-Roman-31"/></g></g><g id="ytick_4"><use x="72" xlink:href="#mc492cdbb75" y="216" stroke="#000" stroke-width=".5" id="line2d_25"/><use x="518.4" xlink:href="#m4f9c62679c" y="216" stroke="#000" stroke-width=".5" id="line2d_26"/><use xlink:href="#BitstreamVeraSans-Roman-30" transform="matrix(.12 0 0 -.12 60.365 219.311)" id="text_13"/></g><g id="ytick_5"><use x="72" xlink:href="#mc492cdbb75" y="158.4" stroke="#000" stroke-width=".5" id="line2d_27"/><use x="518.4" xlink:href="#m4f9c62679c" y="158.4" stroke="#000" stroke-width=".5" id="line2d_28"/><use xlink:href="#BitstreamVeraSans-Roman-31" transform="matrix(.12 0 0 -.12 60.365 161.711)" id="text_14"/></g><g id="ytick_6"><use x="72" xlink:href="#mc492cdbb75" y="100.8" stroke="#000" stroke-width=".5" id="line2d_29"/><use x="518.4" xlink:href="#m4f9c62679c" y="100.8" stroke="#000" stroke-width=".5" id="line2d_30"/><use xlink:href="#BitstreamVeraSans-Roman-32" transform="matrix(.12 0 0 -.12 60.365 104.111)" id="text_15"/></g><g id="ytick_7"><use x="72" xlink:href="#mc492cdbb75" y="43.2" stroke="#000" stroke-width=".5" id="line2d_31"/><use x="518.4" xlink:href="#m4f9c62679c" y="43.2" stroke="#000" stroke-width=".5" id="line2d_32"/><use xlink:href="#BitstreamVeraSans-Roman-33" transform="matrix(.12 0 0 -.12 60.365 46.511)" id="text_16"/></g></g></g></g><defs><clipPath id="p48ea2c0f25"><path d="M72 43.2h446.4v345.6H72z"/></clipPath></defs></svg>