<svg xmlns="http://www.w3.org/2000/svg" version="1" width="400" height="400" viewBox="0 0 4000 4000"><path d="M3184.773 1409.773c-13-16-4-38 13-32 13 4 18 35 7 42-4 3-13-2-20-10z" fill="#303030"/><path d="M3277.773 2461.773c-12-16-11-37 2-37 6 0 10 3 10 8 0 4 4 12 8 19 10 16-8 26-20 10z" fill="#515151"/><path d="M709.773 3104.773c-7-12 64-72 77-64 7 4 2 13-12 24l-23 17 23 6c12 3 19 10 16 15-7 12-74 13-81 2zM2991.773 2793.773c-18-11-23-54-7-64 6-3 13 2 16 12s10 26 15 35c11 21-1 30-24 17zM2999.773 2884.773c-4-6-4-14-1-17s1-12-5-19-8-18-4-24c9-14 28-1 21 15-2 7 1 18 7 24 8 8 8 14 0 22s-13 8-18-1z" fill="#303030"/><g fill="#060606"><path d="M3000.773 2866.773c-10-17-18-91-12-108 11-28 26-3 32 53 4 31 2 53-4 57-6 3-13 2-16-2zm-2496-42c-41-44-58-90-96-260-35-153-40-233-20-303 18-61 63-117 94-117 39 0 37 23-5 59-73 64-96 205-46 276 14 21 23 52 27 100 9 110 31 171 82 225 24 26 41 50 37 53-15 15-38 5-73-33z"/><path d="M680.773 2832.773c-9-12-16-30-16-39 0-12-16-23-49-34-54-18-76-37-68-59 5-12 11-12 44-1 35 12 39 12 45-6 10-27 17-24 35 19 41 96 47 174 9 120zm2621-24c-12-12-8-51 6-63 16-13 27-5 27 19 0 21-24 53-33 44zm68-74c-8-13 42-43 61-36 15 6 15 8-1 26-19 21-50 26-60 10zm0-72c-9-22 24-93 37-80s1 67-18 82c-11 10-15 9-19-2zm-1009-27c-4-5 21-26 54-46 60-37 95-41 84-10-11 29-126 75-138 56zm-595-24c-47-15-98-69-111-118-12-45-6-109 15-149 18-34 91-104 98-93 3 5-13 38-35 74-52 82-60 111-45 157 9 26 28 46 71 76 76 52 79 76 7 53z"/></g><path d="M1286.773 1972.773c-20-20 5-37 43-31 33 5 34 5 37-33 4-48 19-48 35 1 19 55 4 75-55 75-27 0-53-5-60-12zm-166-97c-13-20 45-92 106-132 72-46 150-71 208-67s50 20-18 34c-73 15-151 54-205 102-77 69-85 74-91 63zm1716-93c-124-78-137-104-36-72 65 20 177 114 159 133-7 7-46-12-123-61zm-447-17c-5-9 30-43 63-60 23-12 47-6 37 9-9 15-95 59-100 51zm736-5c-7-8-8-17-3-20 6-3 15 1 21 8 7 8 8 17 3 20-6 3-15-1-21-8zm-2205-75c-9-14 88-132 142-173 58-45 110-69 214-99 73-21 79-21 103-5 14 9 23 21 21 25-3 5-36 11-73 13-77 6-181 44-243 89-56 40-103 108-89 125 9 11 5 16-16 24-32 12-52 13-59 1zm2206 2c-7-3-31-31-53-64-30-44-46-59-64-59-34 0-77-18-70-30 3-5 15-10 26-10 60 0-62-69-142-80-72-10-91-23-59-40 64-34 186 6 276 92 95 89 151 214 86 191zm-686-112c-18-20-11-56 17-80 13-10 17-9 26 8 15 26 14 64-1 79-16 16-22 15-42-7z" fill="#060606"/><path d="M1995.773 2550.773c-33-34-34-34-106-29-84 7-99-4-55-41 67-56 143-39 189 43 31 57 16 72-28 27zm-1345 5c-4-6-2-27 4-47 7-19 10-44 7-54-4-14 3-24 23-34 34-17 50-5 50 36 0 34-72 119-84 99zm1560-19c-12-21 78-82 120-82 35 0 81 31 71 47-4 6-40 16-80 23-39 6-79 14-89 16-9 3-19 1-22-4zm1065-86c-9-10-9-16-1-21 13-8 42 14 34 26-8 13-20 11-33-5zm-2623-113c-20-22-27-51-13-53 17-3 50 49 39 60-7 7-16 5-26-7zm82-3c-16-29-9-215 7-231 22-22 35 39 31 138s-17 131-38 93zm2514-75c-10-26 2-307 15-338 22-55 31-17 30 121 0 75-4 157-7 181-7 46-27 65-38 36zm-529-144c-7-12 12-24 25-16 11 7 4 25-10 25-5 0-11-4-15-9zm200-128c-50-20-96-21-156-3-46 13-51 12-99-15-16-10-54-15-110-15-92 0-155-13-182-38-65-57 57-123 227-123 115 0 167 21 393 165 23 14 40 31 37 36-9 15-65 11-110-7zm-136-44c42-15 40-41-4-62-56-27-65-23-65 28 0 50 9 55 69 34zm-298-92c-8-8-19-7-38 5-39 24-39 34 4 51l38 15 3-30c2-17-1-35-7-41zm131 48c16 7 71-32 63-45-7-12-100-23-124-15-12 3-21 15-21 25 0 25 39 53 56 40 6-6 18-8 26-5zm-1516 76c-12-19 55-69 173-128l116-58h100c70 0 115 5 151 18 57 20 131 77 121 94-4 6-30 16-58 23-60 15-84 2-45-24 34-22 33-32-5-45-55-19-61-16-58 34 2 24 1 47-2 49-8 9-133 11-146 3-17-11-16-62 1-76 10-9 16-8 26 4 23 28 70 8 70-31 0-4-38-4-84-2-84 6-85 6-185 72-99 66-161 90-175 67z" fill="#060606"/><g><path d="M3069.773 3937.773c-9-98-12-110-36-116-21-6-21-7 12-64 18-32 45-77 61-101 42-61 85-152 92-192 4-19 13-99 21-178 15-144 28-193 47-174 16 16 4 265-16 337-16 59-54 140-122 264l-35 64 7 113c6 100 5 114-9 114-12 0-17-16-22-67zm-2055-184c-50-50-85-108-73-120 10-10 73 52 111 109 26 40-1 48-38 11zm122-582c-20-23-32-113-32-229 0-105 11-155 31-143 5 4 9 36 9 73s5 118 11 181c10 113 5 147-19 118zm-408-71c-17-13-16-14 4-25 12-6 22-20 22-31 0-10 5-22 10-25 11-7 32 41 28 63s-43 33-64 18zm2541-6c-6-9 29-34 117-84 58-33 94-78 122-155 22-61 43-76 38-28-6 68-108 199-185 238-60 31-86 39-92 29zm-1710-39c-38-9-81-23-94-30-24-13-24-14-5-28 15-12 34-13 89-6 39 4 261 9 495 10s448 3 475 4c34 2 69-5 111-21 38-15 67-21 80-16 18 7 17 9-11 32-16 13-58 33-93 45-55 18-71 19-130 10-37-5-200-13-362-16-276-6-301-5-380 14-99 24-86 24-175 2z" fill="#060606"/></g><g><path d="M2539.773 1555.773c-8-13 43-47 90-60 68-18 168-24 199-12 16 7 25 15 20 20-5 4-65 18-134 30s-135 24-147 27c-12 2-24 0-28-5zm-980-11c-11-5-56-9-101-9-50-1-87-6-99-14-31-23-2-28 103-18 100 9 148 24 137 42-7 11-13 11-40-1zm651-9c-10-16 13-66 25-54 6 6 6 19 0 36-11 29-16 32-25 18zm-405-29c-13-25 2-38 19-16 9 10 10 18 3 25-8 8-14 5-22-9zm-82 4c-3-13-6-22-13-38-10-22 0-52 15-43 5 4 9 17 7 28-1 12 1 27 5 34 4 6 3 14-3 18-5 3-11 4-11 1zm751-63c-44-6-57-17-40-38 8-9 28-15 54-14 55 0 196 32 199 44 2 10-149 16-213 8zm-986-17c-39-17-50-34-29-42 21-9 88 23 83 38-6 18-20 19-54 4zm110-1c-10-24 4-45 29-45 35 0 40 11 15 37-25 27-36 29-44 8zm781-1134c-7-12 12-24 25-16 11 7 4 25-10 25-5 0-11-4-15-9z" fill="#060606"/></g><g><path d="M3419.773 2874.773c-4-6 10-32 29-59 42-57 61-107 77-199 6-37 25-109 40-161 44-142 37-187-36-245-24-18-33-32-27-38s17-6 31 2c37 20 47 6 18-24-28-28-30-28-130-25l-101 4-3-365c-1-201-5-410-8-465-13-219-79-376-231-550-245-281-344-365-447-384-24-4-41-13-39-19 1-7 3-17 5-23 1-7-34-34-78-61-190-118-309-151-535-152-121-1-168 3-215 17-94 28-431 201-529 271-224 161-403 368-486 565-70 163-72 183-80 646-5 324-4 431 6 470 7 28 9 54 4 59-4 4-31 1-60-9s-74-17-101-17c-54 0-67-9-44-28 11-9 36-11 86-6l71 6-7-377c-8-414-2-491 49-641 29-85 102-232 148-300 160-237 456-487 706-599 167-75 286-103 452-110 117-5 148-2 219 16 241 60 478 211 750 476 134 131 240 253 288 335 24 40 80 194 94 260 6 25 14 227 19 450 6 223 13 421 18 440l8 35 69 6c83 6 116 25 151 84 28 49 54 157 54 232 0 52-12 75-26 51-10-16-52 134-53 190-1 24 3 41 8 37 15-9 20 8 10 34-6 14-15 21-24 18-10-4-24 13-46 56-45 91-85 128-104 97z" fill="#060606"/></g><g><path d="M4.773 2004.773v-2000h4000v4000h-910v-253l45-73c91-146 122-252 126-435 1-68 6-131 10-140 5-9 21-19 36-22 45-9 124-67 165-122 33-43 85-171 75-182-2-2-17 29-32 69-34 87-85 145-169 192-103 57-111 75-127 275-12 160-27 208-102 328-30 48-63 106-74 128l-21 40 24 18c22 16 24 25 24 97v80h-3070v-2000zm1045 1743c-30-45-88-112-102-118-23-8 38 94 75 126 40 35 52 31 27-8zm96-735c-6-89-11-176-11-193-1-26-2-28-11-12-24 42 2 400 27 374 3-3 1-79-5-169zm-361 58c0-19-4-38-10-41-5-3-10 0-10 9 0 8-14 26-31 40l-31 26h41c40 0 41-1 41-34zm980-31c64-17 541-12 696 7 84 9 97 8 157-11 35-12 75-33 88-48l24-25-35 7c-19 4-57 16-84 28-27 11-63 19-80 18-17-2-215-4-441-5-225-1-458-5-516-10-76-6-108-5-113 3-9 13 25 28 109 46 63 15 104 12 195-10zm1240-268c-18-60-22-37-8 44 12 66 13 70 16 34 2-22-2-57-8-78zm457 95c7-4 30-39 51-77 24-45 43-69 53-67 11 1 20-11 27-37 14-45 15-66 1-33-11 29-29 20-29-14 0-26 37-181 47-198 3-5 13 0 21 10 13 17 14 7 8-91-5-92-11-119-35-172-38-81-72-103-158-103-54 0-64-3-74-22-17-32-26-199-28-524-2-364-13-442-91-609-47-103-132-209-290-365-250-246-488-405-705-469-299-89-666-1-1000 239-332 239-549 551-611 877-20 105-23 291-10 620 7 177 6 236-3 247s-29 13-87 9c-52-4-74-3-74 6 0 7 19 11 48 11 27 0 75 9 107 20s59 20 61 20-3-18-11-40c-11-32-13-122-11-477 3-433 3-439 28-523 56-190 142-331 308-503 105-109 231-211 347-281 101-60 383-192 443-207 80-20 295-17 400 5 124 26 258 87 393 179 26 18 27 20 12 37-15 16-13 18 24 23 99 13 212 108 445 377 90 104 128 156 162 225 84 171 94 253 94 771v391l98-5 97-4 33 35c39 41 30 53-23 31-20-8-39-13-41-11s18 23 46 46c75 63 80 92 42 227-17 60-38 147-47 194-18 91-30 120-76 183-16 22-29 44-29 49 0 10 21 10 37 0zm-2887-20c0-5-14-19-31-31-45-33-76-110-89-219-9-69-18-103-36-129-48-71-23-198 51-260 25-20 45-41 45-45s-13-8-28-8c-76 0-130 164-97 291 9 35 27 115 41 177 26 123 42 162 82 205 24 25 62 37 62 19zm120-49c-14-49-48-133-55-133-2 0-1 9 2 20 7 26-18 35-57 22-25-9-30-8-30 4 0 9 24 26 55 40 31 13 58 32 61 42 24 76 45 81 24 5zm2630-36c0-40-17-24-26 23-7 32-6 34 9 21 9-7 17-27 17-44zm96-31c10-8 16-18 12-22-11-10-60 14-53 26 8 14 18 13 41-4zm-31-76c8-16 15-39 15-52l-1-23-13 25c-15 28-29 80-21 80 2 0 11-13 20-30zm-936-48c39-19 52-42 25-42-17 0-114 57-114 67 0 8 51-6 89-25zm-646-10c-12-9-40-28-63-42-81-49-91-114-31-207 21-33 44-71 51-83l12-23-30 22c-87 61-120 205-65 279 25 34 90 72 123 72l25-1-22-17zm219-53c-11-24-29-52-40-62-31-28-90-32-131-9-58 32-51 42 31 42 73 0 74 1 113 40 21 22 40 38 42 36s-5-23-15-47zm-1328-22c28-36 37-107 14-107-23 1-44 24-44 50 0 14-4 40-8 58-10 42 6 42 38-1zm1639-8c69-11 81-21 48-39-38-20-96-12-139 20-23 17-42 33-42 36 0 4 15 4 33 0 17-3 62-10 100-17zm-1659-176c-7-25-44-71-44-55 0 19 29 72 39 72 5 0 7-8 5-17zm84-113c0-47-3-96-7-110-7-24-7-24-14 9-9 44-9 194 0 218 12 30 21-21 21-117zm2520-190c1-112-2-139-10-120-13 30-24 322-12 347 13 29 22-66 22-227zm-263-36c12-5-6-21-67-60-188-122-282-152-424-134-119 15-184 51-168 93 10 27 59 40 177 47 89 5 122 11 136 24 25 22 44 23 117 2 57-17 64-17 92-2 17 9 48 20 69 25 51 12 49 12 68 5zm-1832-40c17-9 69-42 114-72 78-52 87-55 158-60 64-4 76-2 81 13 4 10-1 24-14 38-20 20-22 20-40 4-25-23-31-22-43 10-18 47 1 54 126 43 203-17 230-40 115-97-91-45-211-61-283-37-80 26-235 105-276 141l-36 32 33 1c18 0 47-7 65-16zm213 2c3-8 0-34-7-57l-13-44-6 45-5 45-42-3c-40-3-53 5-36 21 13 14 103 8 109-7zm-189-151c78-66 148-101 229-112 45-6 61-23 22-23-44 1-156 29-197 49-52 27-108 76-127 112-29 56-20 53 73-26zm1733 4c-39-53-164-119-203-106-6 2 41 35 103 75 63 39 116 69 118 67s-6-18-18-36zm-440-117c-15-5-95 35-116 60-14 16-1 12 54-18 40-21 68-40 62-42zm635-54c-25-63-89-141-148-182-53-35-152-70-178-62-8 2-27 7-44 11-27 7-28 8-10 15 11 5 38 9 60 9 26 1 62 13 100 35 62 34 76 59 38 64-40 6-24 22 21 22 39 0 48 4 73 36 49 62 93 107 100 101 3-4-2-25-12-49zm-2156 33c7-5 10-14 6-20-9-15 38-83 79-114 72-55 170-94 268-106 61-7 62-8 36-20-23-12-38-10-120 13-105 30-165 62-221 115-38 35-107 123-107 135 0 9 43 7 59-3zm1654 2c-13-2-33-2-45 0-13 2-3 4 22 4s35-2 23-4zm-157-108c4-8 3-32-1-53l-7-37-19 24c-19 23-25 61-12 74 11 12 33 7 39-8zm-871-25c-9-15-71-28-169-35-63-5-86-4-82 4 4 6 41 11 89 12 68 0 100 6 165 28 2 1 0-3-3-9zm1062-10c153-27 213-41 213-47 0-3-53-4-118-1-116 5-197 26-216 57-9 14-14 14 121-9zm-438-45c1-17-1-17-9-5-5 8-9 26-9 40 0 23 1 23 9 5 5-11 9-29 9-40zm-520-69c-9-8-10-5-5 14 3 14 6 32 7 40s4 2 6-14c3-16-1-34-8-40zm966 24c3-6 3-10-2-10-4 0-52-9-105-20-73-15-105-17-125-9-18 6-23 13-16 20 9 9 56 15 210 26 18 2 35-2 38-7zm-1154-31c-24-19-94-28-75-9 12 12 88 39 94 33 3-3-6-13-19-24zm110 11c31-17 24-37-11-32-33 5-32 4-24 26 7 19 9 19 35 6z" fill="none"/></g></svg>